<?xml version="1.0" encoding="utf-8"?>
<!DOCTYPE svg PUBLIC "-//W3C//DTD SVG 20010904//EN" "http://www.w3.org/TR/2001/REC-SVG-20010904/DTD/svg10.dtd">
<svg version="1.0" xmlns="http://www.w3.org/2000/svg" width="200px" height="204px" viewBox="0 0 200 204" preserveAspectRatio="xMidYMid meet">
 <g fill="#0b227a">
  <path d="M86.8 199 c-3.1 -0.5 -8.5 -1.6 -12 -2.5 l-6.3 -1.6 -9.4 -4.5 -9.3 -4.4 -6.3 -4.5 -6.3 -4.5 -6.7 -6.7 -6.7 -6.8 -5.3 -8.1 -5.4 -8 -3.1 -7.3 c-1.7 -4 -4.1 -10.9 -5.2 -15.4 l-2.2 -8.2 0 -14.5 0 -14.5 2.3 -8.9 c4.1 -16 10.6 -28.7 20.6 -40.9 l5.6 -6.7 7.4 -6 c9.3 -7.3 17.9 -12.2 28.5 -16 l8.1 -3 9.2 -1.6 9.2 -1.6 12 0.5 12 0.6 8.5 2.1 8.5 2.2 8.1 3.8 c9.7 4.5 18.1 10 25.6 16.9 l5.6 5.1 5.5 7.3 5.6 7.2 4 8 4 8 2.5 8.8 2.6 8.8 0.9 9.7 0.9 9.7 -0.9 9.2 -0.8 9.2 -1.6 6 c-0.8 3.3 -3 9.6 -4.9 14 l-3.4 8 -4.5 6.8 c-2.5 3.7 -7.1 9.6 -10.2 13 l-5.6 6.2 -8 6.1 -8 6 -8.3 4 -8.4 4.1 -9.8 2.5 -9.9 2.5 -11.5 0.4 -11.5 0.4 -5.7 -0.9z m38.7 -3.9 l8 -2.1 10 -4.9 10 -5 8.1 -6.5 8.1 -6.5 5.7 -7 5.7 -7 4.3 -7.5 4.4 -7.6 3 -9.3 3.1 -9.2 1.2 -9 1.2 -9 -0.7 -9.2 -0.6 -9.2 -2.5 -9.8 -2.5 -9.8 -4.5 -9 -4.4 -9 -6.5 -8.1 -6.5 -8.1 -6.8 -5.5 c-16.1 -13.1 -31.8 -19.5 -53.7 -21.8 l-9.8 -1 -9.2 1.1 -9.1 1.1 -8.3 2.4 -8.3 2.4 -7.7 3.9 c-9.4 4.7 -17.8 10.9 -25.6 18.7 l-5.9 5.9 -5.8 8.7 -5.8 8.8 -3.1 8.2 -3.2 8.3 -1.9 9 -1.9 9 0 10.3 0 10.3 1.6 7.7 c3 14.8 7.3 24.8 15.6 36.8 l4.8 7.1 7.3 7 7.2 6.9 6.4 4.3 c10.3 7 24.8 12.8 37.8 15.1 l4.8 0.9 14 -0.3 14 -0.4 8 -2.1z"/>
  <path d="M97.5 194 l-2 -0.9 2.5 -0.1 2.5 -0.1 -2 -0.9 -2 -0.9 1.8 0 1.7 -0.1 0 -0.9 0 -1 -2.2 -0.4 -2.3 -0.4 2.8 -0.2 2.7 -0.1 0 3.5 0 3.5 -0.7 -0.1 c-0.5 0 -1.7 -0.4 -2.8 -0.9z"/>
  <path d="M103.4 193.3 c0.3 -0.8 0.6 -2.3 0.6 -3.4 l0 -1.9 1 0 1 0 0 2.4 0 2.4 1.3 0.5 1.2 0.4 -2.8 0.5 -2.8 0.5 0.5 -1.4z"/>
  <path d="M87 193 c0 -0.5 0.5 -1 1 -1 l1 0 0 -2.5 0 -2.5 1.1 0 1.1 0 -0.6 2.7 -0.7 2.6 1.3 0.8 1.3 0.9 -2.7 0 -2.8 0 0 -1z"/>
  <path d="M109.6 191.6 c-0.9 -1.4 -1.6 -3.1 -1.6 -3.8 l0 -1.2 1.2 1.2 1.1 1.1 2 -1.1 2 -1 -0.7 2.8 c-0.4 1.6 -1.1 3.3 -1.5 3.7 l-0.8 0.8 -1.7 -2.5z m2.4 -1.1 c0 -0.3 -0.2 -0.5 -0.5 -0.5 -0.3 0 -0.5 0.2 -0.5 0.5 0 0.3 0.2 0.5 0.5 0.5 0.3 0 0.5 -0.2 0.5 -0.5z"/>
  <path d="M80.4 191.9 l-0.7 -1.2 2.1 0.5 2.2 0.6 0 -0.9 0 -0.9 -1.7 -0.1 -1.8 -0.1 2.5 -0.8 2.5 -0.7 -2.5 -1.1 -2.5 -1.1 2.8 0 2.8 -0.1 -0.3 3.3 -0.3 3.2 -2.2 0.3 -2.1 0.3 -0.8 -1.2z"/>
  <path d="M115.7 192.4 l1.2 -0.5 -0.6 -3.1 -0.6 -3.1 1.1 0.7 1.2 0.7 0 2 0 1.9 1 0 c0.6 0 1 0.5 1 1 l0 1 -2.7 -0.1 -2.8 -0.1 1.2 -0.4z"/>
  <path d="M122 191.1 l0 -1.1 1.8 -0.1 1.7 -0.1 -2.5 -0.7 -2.5 -0.7 0 -1.4 0 -1.5 2.3 -0.3 2.2 -0.3 0 1 0 1 -1.7 -0.6 -1.6 -0.6 0.7 1.1 0.7 1.2 1.5 0 1.5 0 -0.3 1.7 -0.3 1.8 -1.8 0.3 -1.7 0.3 0 -1z"/>
  <path d="M73.5 190.1 l-0.6 -1.1 2.3 0.3 2.2 0.2 0.4 -1.7 0.3 -1.6 -2.3 -0.4 -2.3 -0.4 1.8 -0.9 1.9 -0.8 1.6 1.7 1.7 1.6 -1.1 1.8 -1.1 1.7 -2.1 0.3 -2 0.3 -0.7 -1z"/>
  <path d="M70 188.2 l0 -2.2 -1 0 c-0.5 0 -1 0.5 -1 1 0 0.6 -0.4 1 -0.9 1 l-1 0 1 -3 1.1 -3 0.9 0 0.8 0 -0.5 1.5 -0.6 1.5 0.9 0 c0.5 0 1.5 -0.6 2.2 -1.2 l1.4 -1.3 -0.7 3 c-0.4 1.7 -1.2 3.4 -1.7 4 l-0.9 0.9 0 -2.2z"/>
  <path d="M130.7 187.6 c-0.9 -2.2 -0.9 -5.6 -0.1 -5.6 0.4 0 1.3 0.8 2 1.8 l1.3 1.7 0.1 -2.2 0 -2.3 0.9 0 c0.9 0 4.1 4.4 4.1 5.6 0 0.3 -0.7 0.1 -1.5 -0.6 l-1.5 -1.2 0 1.6 0 1.6 -0.9 0 c-0.6 0 -1.3 -0.5 -1.7 -1.2 l-0.7 -1.2 -0.7 1.9 -0.7 1.9 -0.6 -1.8z"/>
  <path d="M62.5 184.8 l-0.6 -2.3 -0.6 1.3 c-0.2 0.6 -0.9 1.2 -1.4 1.2 l-1 0 1.6 -3 1.6 -3.1 0.9 0.6 c0.6 0.4 1 1.4 1.1 2.3 l0.1 1.7 0.5 -1.2 c0.2 -0.7 0.9 -1.3 1.4 -1.3 l1 0 -1.6 3 c-1.9 3.6 -2.1 3.6 -3 0.8z"/>
  <path d="M79.4 182.6 l-9 -2.4 -6.5 -3.2 c-3.5 -1.8 -9.1 -5.2 -12.4 -7.5 l-6.1 -4.3 -6.6 -7 -6.6 -7 -3.5 -5.9 c-4.4 -7.6 -8.3 -17.3 -10.3 -25.9 l-1.6 -6.9 0.5 -14 0.5 -14 2.2 -7 c1.2 -3.8 3.9 -10.4 6 -14.5 l3.8 -7.6 4.2 -5.2 4.1 -5.3 -2.2 -3 -2.1 -3 -0.6 0.6 -0.6 0.5 1.2 1.2 c0.7 0.7 1.2 1.9 1.2 2.7 l0 1.5 -1.3 -1.8 -1.4 -1.8 -2.1 0.6 c-2.6 0.9 -2.8 1.9 -0.6 3.7 l1.6 1.3 0.9 -1.5 0.9 -1.4 0 1.8 0 1.7 -1.5 0 -1.5 0 0 2 0 2 -1.9 0 -1.9 0 -1.2 -1.5 -1.2 -1.5 0.6 -1.6 0.6 -1.6 1.5 0.6 1.5 0.5 -0.6 -2.4 -0.6 -2.5 1.7 0 1.6 0 -0.7 -1.2 -0.7 -1.1 1.6 0.6 1.6 0.6 -0.6 -1.6 -0.6 -1.6 1.1 0.7 1.2 0.7 0 -1.5 c0 -0.8 0.4 -1.7 0.9 -2 l0.8 -0.6 1.9 2.3 1.9 2.2 -1.8 -1.4 c-2.2 -1.7 -3.3 -0.9 -1.2 0.9 l1.6 1.3 1 -1 1.1 -1.1 -1.1 -2 c-0.6 -1.1 -1.1 -2.6 -1.1 -3.2 l0 -1.1 3.1 2.2 3.1 2.2 -0.9 -1.9 -1 -1.9 0.4 -1.5 0.5 -1.5 -1 1.4 -1 1.3 -0.6 -1.1 -0.7 -1.1 1.5 -0.6 1.5 -0.6 1 0.7 1.1 0.6 -0.3 3.2 -0.3 3.2 -1.4 0 -1.5 0 0.1 2.3 0.1 2.2 -1.3 0 -1.4 0 0 1.6 0 1.6 5.1 -4.4 c10.9 -9.3 19.6 -14.4 31.2 -18.4 l6.8 -2.3 8.1 -1.2 8.1 -1.2 9.1 0.7 9.1 0.6 6.4 1.5 6.4 1.5 8.6 4.1 8.6 4 7.4 5.7 7.5 5.7 5.8 7.4 5.9 7.4 4 7.8 3.9 7.8 2.2 7.8 2.3 7.8 0 15.5 -0.1 15.5 -3.3 9.8 -3.4 9.8 -3.6 6 c-2 3.2 -5.6 8.4 -8.1 11.6 l-4.5 5.6 -7.2 5.7 c-3.9 3.2 -9.5 7.1 -12.5 8.8 l-5.3 3.1 -9.5 3.2 -9.5 3.2 -14.5 0.4 -14.5 0.3 -9.1 -2.4z m42.2 -1.6 l7.9 -2 6.4 -3 c3.5 -1.7 9.1 -5 12.5 -7.4 l6.1 -4.4 7 -7.4 7 -7.4 3.4 -5.7 c4.5 -7.6 7.9 -16.4 9.8 -25 l1.5 -7.2 0 -10.5 0 -10.5 -1.6 -6.9 c-0.9 -3.7 -3 -10.2 -4.7 -14.4 l-3 -7.6 -4.4 -6.6 -4.5 -6.7 -7.4 -7 -7.4 -7.1 -7.1 -4.2 -7 -4.2 -9.3 -3.1 -9.3 -3.2 -16 0 -16 0 -7.5 2.3 c-4.1 1.3 -10.6 4 -14.5 5.9 l-7 3.6 -5.6 4.3 c-3 2.3 -8.1 7 -11.2 10.3 l-5.6 6.1 -3.4 5.8 c-4.2 7.3 -8.2 17 -10.2 24.8 l-1.5 6 -0.6 8.5 -0.6 8.4 1.6 9.3 1.6 9.3 3 7.7 3 7.7 4.2 6.5 4.2 6.5 6.6 6.6 6.5 6.6 7 4.6 c8.5 5.4 16.7 9 26 11.1 10.2 2.3 12 2.5 22.6 2 l9.5 -0.4 8 -2z m-92.9 -131.4 l-0.6 -1.5 1.2 -0.5 c0.7 -0.3 0.1 -0.3 -1.3 0 -1.4 0.4 -2.7 0.8 -3 1.1 -0.5 0.5 2.1 2.3 3.4 2.3 l0.8 0 -0.5 -1.4z m11.3 -14.1 c0 -0.3 -0.2 -0.5 -0.5 -0.5 -0.3 0 -0.5 0.2 -0.5 0.5 0 0.3 0.2 0.5 0.5 0.5 0.3 0 0.5 -0.2 0.5 -0.5z"/>
  <path d="M103.2 174.3 l-4.3 -3.6 -4.5 3.1 c-4.9 3.5 -5.9 3.7 -9.2 1.9 l-2.2 -1.3 5.7 -2.8 5.8 -2.9 -4 -1.4 -4 -1.5 -12.5 -0.7 -12.5 -0.8 -5 -2.6 c-5.7 -2.9 -12.5 -8.4 -15.4 -12.6 l-2 -2.8 9.2 2.2 c5.1 1.3 14.6 3.5 21.1 5 l11.9 2.7 8.9 4.6 8.8 4.5 6.9 -3.2 c9.6 -4.4 14.2 -5.6 34.4 -9 9.8 -1.7 18.3 -3.4 18.9 -3.8 l1.1 -0.6 -1.4 2 c-0.8 1.1 -3.6 3.9 -6.4 6.3 l-5 4.3 -5.3 2.5 -5.3 2.4 -13.2 0.3 -13.2 0.2 -2.7 0.8 -2.8 0.7 0 0.8 c0 0.5 2.1 2 4.6 3.5 l4.7 2.8 -1.4 0.7 c-0.8 0.4 -2.3 1 -3.4 1.3 l-2 0.6 -4.3 -3.6z"/>
  <path d="M87.4 154.5 l-0.6 -1.5 0.5 -2.5 0.4 -2.5 -0.9 -0.6 -1 -0.6 1.3 -0.9 c0.8 -0.5 1.7 -0.9 2.2 -0.9 l0.7 0 0 4.9 0 5 -1 0.6 -1 0.6 -0.6 -1.6z"/>
  <path d="M93 150.5 l0 -5.5 2.5 0 2.5 0 0 5.5 0 5.5 -2.5 0 -2.5 0 0 -5.5z m2.7 1.3 l-0.5 -1.3 -0.1 1.9 -0.1 1.9 0.6 -0.6 0.6 -0.6 -0.5 -1.3z m0 -5 l-0.5 -1.3 -0.1 1.9 -0.1 1.9 0.6 -0.6 0.6 -0.6 -0.5 -1.3z"/>
  <path d="M100 154 l0 -2 0.9 0 1 0 0.4 1.8 0.4 1.7 0 -4.4 0.1 -4.3 -0.9 1.3 -0.8 1.3 -0.7 -0.6 -0.6 -0.7 0.5 -1.6 0.6 -1.5 2 0 1.9 0 0.4 1.3 c0.3 0.6 0.3 3.1 0 5.5 l-0.4 4.2 -2.4 0 -2.4 0 0 -2z"/>
  <path d="M107 151 l0 -5.1 1.6 -0.6 1.6 -0.6 1.5 1.6 1.5 1.5 -0.7 4.1 -0.7 4.1 -2.4 0 -2.4 0 0 -5z m2.7 -2.2 l-0.4 -2.3 0 4.5 0 4.5 0.4 -2.2 c0.2 -1.3 0.2 -3.3 0 -4.5z"/>
  <path d="M147.1 140.5 c3.9 -10.1 6.2 -14.6 9.3 -17.4 l2.6 -2.4 0 6.6 0 6.7 0.8 0 c0.4 0 1.2 -0.4 1.8 -1 0.5 -0.5 3.5 -1.8 6.7 -2.9 l5.8 -2 -1.8 3 c-1 1.6 -3.7 5.2 -6 7.9 l-4.3 4.8 -4.3 2.1 -4.3 2.1 -4.6 0 -4.6 0 2.9 -7.5z"/>
  <path d="M47 145.1 c-6.9 -2.1 -11 -5.6 -16.9 -14.4 l-3.3 -4.8 0.6 -0.6 0.5 -0.5 6.6 3 6.5 3.1 0 -6.5 0 -6.4 1 0 1 0 3 4.6 2.9 4.7 2.7 8.1 c1.5 4.5 2.9 8.7 3.2 9.4 l0.4 1.2 -2.8 -0.1 c-1.6 0 -4 -0.4 -5.4 -0.8z"/>
  <path d="M94 138.5 l0 -2.6 -1.2 -0.3 c-0.7 -0.3 -3.2 -0.7 -5.5 -1 l-4.3 -0.6 0 2.6 0 2.6 -3.6 -0.7 c-2 -0.3 -4.7 -1 -6 -1.5 l-2.4 -1 0 -2.4 0 -2.4 -2.7 -1 c-1.6 -0.5 -3.6 -1.3 -4.5 -1.7 l-1.8 -0.7 0 2.6 0 2.6 -4 -2 -4 -2 0 -7.5 0 -7.4 7.3 3.4 7.2 3.5 8 2.2 8 2.2 19 0 19 0 8 -2.2 c4.4 -1.2 10.1 -3.3 12.8 -4.6 l4.7 -2.3 0 7.3 0 7.4 -4 2 c-5 2.5 -5 2.5 -5 -0.6 l0 -2.5 -2.2 0.7 c-1.3 0.4 -3.3 1 -4.5 1.5 l-2.3 0.9 0 2.4 0 2.4 -1.5 0.6 c-0.8 0.3 -3.7 0.8 -6.5 1.2 l-5 0.7 0 -2.8 0 -2.7 -3.1 0.6 c-1.7 0.3 -4 0.6 -5 0.6 l-1.9 0 0 2.5 0 2.5 -6.5 0 -6.5 0 0 -2.5z"/>
  <path d="M162.7 119.5 l-1.7 -8.3 0 -5.1 0 -5.1 1.3 0 1.2 0 3.6 4.2 3.7 4.2 3.6 -3.2 c2 -1.8 4.1 -3.2 4.6 -3.2 l1 0 0 4 0 4.1 -1.9 3.8 -2 3.7 -3.9 3.6 c-2.2 2 -4.9 4.1 -5.9 4.6 l-1.9 1 -1.7 -8.3z"/>
  <path d="M29.6 119.6 c-4.8 -4.8 -7 -8.4 -8.1 -13.3 l-0.6 -3.3 0.6 -2 0.6 -2 2.9 1.5 c1.6 0.8 3.5 2.4 4.3 3.5 l1.3 1.9 3.9 -3.9 3.9 -4 1.3 0 1.3 0 0 3.8 0 3.7 -2 7.3 c-1.1 3.9 -2 8.1 -2 9.2 l0 2 -1.5 0 -1.6 0 -4.3 -4.4z"/>
  <path d="M93.5 122 c-15.6 -1.3 -29.8 -5.2 -36.6 -10 l-2.9 -2.1 0 -2 c0 -1 0.2 -1.9 0.5 -1.9 0.2 0 3.3 1.6 6.7 3.5 l6.3 3.4 8.4 2 c4.5 1.1 11.5 2.3 15.3 2.7 l7 0.7 -0.7 -2.4 c-0.5 -1.3 -1.6 -4.6 -2.5 -7.4 l-1.7 -5 -3.9 0.5 c-5.1 0.7 -34.1 0.6 -34.7 0 -0.2 -0.3 -0.7 -1.7 -1.1 -3.1 l-0.6 -2.7 7.3 -0.7 c9.2 -0.9 20.9 -3.2 25.8 -5.2 l3.8 -1.5 2.1 -4.4 2.1 -4.3 1.9 -9.3 1.9 -9.3 1.2 -14.5 1.2 -14.5 1.5 -1.2 1.5 -1.3 1.4 1.1 1.3 1.1 0 7.3 c0 4 0.5 13 1 20.1 l1.1 12.9 1.4 6.3 c0.8 3.4 2.1 7.5 2.9 9.1 l1.5 2.8 7.8 2.3 c4.3 1.3 12.3 3.1 17.8 4 l10 1.7 -0.3 2.4 c-0.2 1.3 -0.8 2.8 -1.3 3.3 l-0.9 1 -16.7 -1.3 c-9.3 -0.7 -17.9 -1.3 -19.2 -1.4 l-2.4 -0.2 -2.4 6 c-1.3 3.2 -2.3 6.3 -2.3 6.9 l0 0.9 10.3 -0.6 10.2 -0.6 6 -1.6 6 -1.5 5.8 -2.9 5.7 -3 0 2.5 0 2.4 -3.7 1.8 c-8.5 4.3 -19.6 6.7 -34.3 7.5 l-7.5 0.4 -9 -0.7z"/>
  <path d="M171 104 c0 -0.5 -2.2 -4.4 -5 -8.6 l-5 -7.6 -1.1 -3.7 -1.1 -3.7 0.4 -2.2 0.3 -2.2 4.5 4 c4.8 4.2 6 4.7 6 2.7 l0 -1.4 2.3 -2.1 c3 -2.8 3.2 -2.8 4.7 0.9 l1.3 3.1 -0.1 4.4 0 4.4 -3.1 6.5 c-2.8 6.1 -4.1 7.8 -4.1 5.5z"/>
  <path d="M28.8 99 c-0.9 -1.4 -2.3 -4.7 -3.2 -7.3 l-1.6 -4.8 0 -3.2 0 -3.2 1.8 -3.4 c0.9 -1.9 2.2 -3.6 2.8 -3.8 l1.1 -0.4 1.9 3.6 c1 1.9 2.1 3.5 2.5 3.5 0.3 0 2.7 -1.6 5.2 -3.5 2.5 -1.9 4.8 -3.5 5.1 -3.5 l0.6 0 -0.7 3.3 c-0.9 4.6 -3.9 10.4 -8.8 16.7 -2.3 3 -4.4 6.2 -4.7 7 l-0.5 1.5 -1.5 -2.5z"/>
  <path d="M138 90.7 l-4.5 -2.2 -0.3 -2.8 -0.3 -2.7 3.7 2.5 c2 1.4 4.3 2.5 5 2.5 l1.4 0 0 -0.9 0 -0.9 -3 -1.2 -3.1 -1.3 -1.4 -2.1 -1.5 -2 0 -4.8 0 -4.8 0.6 0 c0.3 0 1.4 0.5 2.5 1 l1.9 1.1 0 3.4 0 3.4 2 1.1 1.9 1 0.8 -3 0.8 -3 2.3 1.5 2.2 1.6 0 6.3 0 6.2 -1.2 1.2 -1.2 1.2 -2 0 c-1.2 -0.1 -4.1 -1.1 -6.6 -2.3z"/>
  <path d="M52.5 84.8 l0.7 -7.3 2.1 -1.8 2 -1.8 2.8 2.7 c1.6 1.5 3 2.6 3.2 2.3 0.2 -0.2 1.2 -2.5 2.2 -5.1 l1.7 -4.6 2.2 -0.6 c1.1 -0.3 2.4 -0.6 2.9 -0.6 l0.7 0 0 8.9 0 8.9 -2.5 0.4 -2.5 0.5 0 -2.1 -0.1 -2.1 -2.5 2.9 -2.6 3 -1.9 -1.2 c-2.5 -1.6 -2.9 -1.5 -2.9 0.8 l0 1.9 -1.9 1.1 c-1.1 0.5 -2.5 1 -3.1 1 l-1.1 0 0.6 -7.2z"/>
  <path d="M120.6 85.3 l-1.8 -0.5 0.4 -6.4 0.4 -6.5 -2.3 -0.5 -2.3 -0.6 0 -3 0 -3.1 3.8 0.7 c2 0.3 5.4 1.1 7.5 1.6 l3.7 1.1 0 3.4 0 3.3 -2 -0.5 -2 -0.5 0 6.1 0 6.1 -1.7 -0.1 c-1 -0.1 -2.6 -0.3 -3.7 -0.6z"/>
  <path d="M77 75.7 l0 -9.5 5 -1.1 c2.8 -0.6 5.8 -1.1 6.6 -1.1 l1.5 0 -0.3 2.7 -0.3 2.7 -3.2 0.8 -3.3 0.9 0 6.4 0 6.5 -1.4 0 c-0.8 0 -2.1 0.3 -3 0.6 l-1.6 0.6 0 -9.5z"/>
  <path d="M161.7 74.3 l-6.7 -5.6 -3 -4.5 c-4.5 -6.8 -4.3 -7.1 3.3 -4.8 l4.7 1.4 0 -3.9 0 -3.9 0.8 0 c0.5 0 1.9 1 3.1 2.1 l2.3 2.2 1.9 4.1 1.9 4.1 0 6.7 0 6.7 -0.8 0.5 -0.9 0.5 -6.6 -5.6z"/>
  <path d="M33.5 73.9 l-0.7 -3.1 0.7 -4.6 0.7 -4.7 1.8 -3.5 c1 -1.9 2.9 -4.6 4.3 -5.9 l2.6 -2.3 1.1 0.7 1.2 0.7 -0.6 3.3 -0.6 3.2 5.5 -1.2 5.5 -1.3 0 1.1 c0 0.6 -1.2 2.8 -2.6 4.9 l-2.6 3.7 -7.8 6.1 -7.8 6 -0.7 -3.1z"/>
  <path d="M145.9 53.1 l-8.5 -1.7 -3.4 -2 c-1.8 -1 -3.5 -2.5 -3.7 -3.1 l-0.4 -1.2 3.6 -0.7 3.5 -0.6 3.9 1 3.9 0.9 -3.4 -4.4 -3.4 -4.5 0 -1.4 0 -1.4 4 2 c2.2 1.1 5.6 3.5 7.6 5.2 l3.7 3.3 1.8 4 c1 2.2 1.9 4.6 1.9 5.3 l0 1.2 -1.2 -0.1 c-0.7 -0.1 -5.2 -0.9 -9.9 -1.8z"/>
  <path d="M48.5 48.3 l1.6 -3.8 3.6 -3.7 3.6 -3.7 5.1 -2.4 c2.8 -1.4 5.3 -2.3 5.5 -2.1 0.5 0.5 -2.7 5.4 -5.6 8.5 l-2.4 2.7 4 -0.8 4.1 -0.7 3.1 0.6 3 0.6 0.1 1 c0.1 0.5 -1 1.7 -2.3 2.7 l-2.4 1.8 -5.5 0.9 c-3 0.5 -8.1 1.2 -11.3 1.6 l-5.8 0.7 1.6 -3.9z"/>
  <path d="M125.8 38.8 l-4.8 -2 -2.4 -4.4 -2.5 -4.4 3 0 3 0 3.7 1.5 c4 1.7 7.3 4.5 10.4 8.8 l1.9 2.7 -3.8 0 -3.8 -0.1 -4.7 -2.1z"/>
  <path d="M68.6 39.1 l-0.6 -1 3 -3.5 3.1 -3.5 4.4 -2.1 4.4 -2.1 3.5 0.3 3.5 0.3 -2.7 4.2 -2.7 4.1 -4 1.6 c-2.2 0.8 -5.6 1.8 -7.6 2.1 l-3.7 0.7 -0.6 -1.1z"/>
  <path d="M139 183.5 l-1.2 -1.4 0.4 -1.8 0.3 -1.8 2.4 0 2.4 0 1 1.7 1.1 1.6 -1.3 1.6 c-1.7 2 -3.5 2 -5.1 0.1z m3.8 -2.2 l-0.3 -1.6 -1.2 -0.5 -1.3 -0.4 0 2.1 0 2.1 1.6 0 1.5 0 -0.3 -1.7z"/>
  <path d="M57 182.9 c0 -1.7 2 -4.9 3.1 -4.9 l1 0 -1.6 3 c-1.6 3.1 -2.5 3.8 -2.5 1.9z"/>
  <path d="M52.2 180.8 c-0.7 -0.7 -1.2 -1.6 -1.2 -2.1 l0 -0.9 1.5 1.2 1.4 1.2 1.1 -0.7 c0.5 -0.3 1 -1.3 1 -2.2 l0 -1.5 -1.5 0.6 -1.5 0.5 0 -0.9 0 -1 1.4 0 c0.7 0 1.8 0.6 2.4 1.3 l1.1 1.3 -1.5 2.2 c-1.7 2.5 -2.5 2.7 -4.2 1z"/>
  <path d="M148.4 179.7 l1.9 -1.4 -0.7 -1.1 c-0.4 -0.7 -1.3 -1.2 -2.1 -1.2 l-1.3 0 -0.5 1.3 -0.5 1.2 -0.1 -1.8 -0.1 -1.8 1.5 -0.5 1.5 -0.6 1.6 1.3 1.5 1.2 -0.3 2.1 -0.3 2.1 -2 0.3 -2 0.4 1.9 -1.5z"/>
  <path d="M46 175.8 c0 -0.7 0.3 -2.3 0.6 -3.5 l0.6 -2.3 0.9 0 0.9 0 -0.2 1.2 -0.3 1.3 2.4 0.3 2.4 0.4 -2.9 1.9 c-3.4 2.2 -4.4 2.4 -4.4 0.7z m3 -1.3 c0 -0.3 -0.2 -0.5 -0.5 -0.5 -0.3 0 -0.5 0.2 -0.5 0.5 0 0.3 0.2 0.5 0.5 0.5 0.3 0 0.5 -0.2 0.5 -0.5z"/>
  <path d="M154 176.1 l1.5 -1.1 -2.2 0 -2.2 0 -0.6 -1 -0.7 -1.1 1.2 -1.4 c0.7 -0.8 1.9 -1.5 2.6 -1.5 l1.4 0 0 0.9 0 1 -1.7 0.4 -1.8 0.5 2.8 0.1 2.8 0.1 -0.3 1.7 -0.3 1.8 -2 0.3 -2 0.3 1.5 -1z"/>
  <path d="M42 173.2 c0 -0.6 0.5 -1.4 1.1 -1.8 l1.1 -0.6 -0.7 -2.6 -0.6 -2.5 1.5 1.2 c2.1 1.8 2 3.4 -0.4 5.6 l-2 1.8 0 -1.1z"/>
  <path d="M157 171.5 l-1.2 -1.4 0.4 -1.8 0.3 -1.8 2.4 0 2.4 0 1 1.7 1.1 1.6 -1.3 1.6 c-1.7 2 -3.5 2 -5.1 0.1z m3.8 -2.2 l-0.3 -1.6 -1.2 -0.5 -1.3 -0.4 0 2.1 0 2.1 1.6 0 1.5 0 -0.3 -1.7z"/>
  <path d="M35 167.3 c0 -0.4 0.7 -1.5 1.7 -2.5 l1.6 -1.8 -0.6 -0.7 -0.7 -0.6 -2 1.8 c-2.8 2.6 -3.5 1.3 -0.7 -1.3 l2.3 -2.2 1.8 1.3 1.9 1.4 -1.1 2 c-0.6 1.1 -1.8 2.3 -2.7 2.7 l-1.5 0.5 0 -0.6z"/>
  <path d="M162.7 166.2 c-0.9 -1 -1.7 -2.2 -1.7 -2.6 l0 -0.7 1 0.6 1 0.6 0 -1.5 0 -1.5 1.5 0.5 1.5 0.6 -0.6 -1.8 -0.7 -1.9 2.6 2.4 2.6 2.4 -0.5 0.9 -0.6 0.9 -1.4 -0.5 -1.5 -0.6 0.3 1.7 0.3 1.6 -1.1 0.4 -1 0.3 -1.7 -1.8z"/>
  <path d="M30.2 160.8 l0.5 -2.5 -2.1 0.5 -2.1 0.5 2.7 -2.2 c1.4 -1.1 2.9 -2.1 3.3 -2.1 l0.7 0 -0.5 2 -0.5 2.1 1.9 -0.6 c2.8 -0.9 2.3 0.1 -1.3 2.6 l-3.1 2.2 0.5 -2.5z"/>
  <path d="M170 157.5 l-2.3 -2.5 2.9 0 2.9 0 -1.5 -1 -1.4 -0.9 0.5 -0.5 0.5 -0.6 2.2 1.6 c1.2 0.8 2.2 1.9 2.2 2.5 l0 0.9 -2.1 0 -2.1 0 1.2 1.5 1.2 1.5 -0.9 0 c-0.5 0 -2 -1.1 -3.3 -2.5z"/>
  <path d="M27.4 154.4 l2.8 -2.5 0.7 0.6 0.6 0.6 -2.5 1.9 c-1.4 1.1 -2.9 2 -3.5 1.9 l-1 0 2.9 -2.5z"/>
  <path d="M24 154.3 c0 -0.6 0.5 -1.5 1 -1.8 0.6 -0.3 1 -1 1 -1.4 l0 -0.8 -2.7 0.5 -2.8 0.5 0.6 -0.7 c0.4 -0.4 2 -1.1 3.8 -1.6 l3.1 -0.9 0.5 0.9 0.5 0.9 -2.5 2.8 -2.4 2.8 -0.1 -1.2z"/>
  <path d="M172.6 151.1 l-0.6 -0.9 1.5 -0.6 1.5 -0.5 0 -1.8 0.1 -1.8 1.9 2.4 c1.1 1.3 2 2.7 2 3.2 l0 0.9 -2.9 0 -3 0 -0.5 -0.9z m4.4 -0.6 c0 -0.3 -0.2 -0.5 -0.5 -0.5 -0.3 0 -0.5 0.2 -0.5 0.5 0 0.3 0.2 0.5 0.5 0.5 0.3 0 0.5 -0.2 0.5 -0.5z"/>
  <path d="M19 147.1 c-1.5 -3 -1.2 -3.6 0.9 -1.7 l2 1.8 -0.6 -2.4 -0.5 -2.3 1.5 2 1.6 2 0.1 -1.5 c0 -0.8 -0.4 -2.1 -0.9 -2.9 l-1 -1.5 -2.6 1.2 -2.6 1.2 -0.6 -1.8 c-0.3 -0.9 -0.8 -2 -1 -2.4 l-0.3 -0.6 3.1 -1.6 3.1 -1.5 -0.6 2.4 -0.6 2.4 1.3 -0.4 1.2 -0.5 1.9 3.1 1.9 3.2 -2.4 1.8 c-3 2.3 -3.6 2.3 -4.9 0z m0 -7 c0 -0.6 -0.4 -1.3 -1 -1.6 l-1 -0.6 0 1.5 0 1.6 1 0 c0.6 0 1 -0.4 1 -0.9z"/>
  <path d="M178.6 146.3 l-2.9 -1.5 1.2 -0.8 c0.7 -0.4 1.3 -1.1 1.4 -1.6 0.1 -0.5 0.5 -0.8 0.9 -0.7 l0.7 0.3 -0.6 -1.6 -0.6 -1.6 3.2 1.6 3.2 1.7 -0.7 1 -0.6 1 -2.1 -0.7 -2.2 -0.7 1.8 2.1 1.8 2 -0.8 0.5 -0.8 0.5 -2.9 -1.5z"/>
  <path d="M182.3 138.8 l-2.3 -1.1 0 -1.2 c0 -0.7 0.6 -1.8 1.4 -2.4 l1.5 -1.2 2.8 1.6 2.8 1.6 -3.2 -0.6 -3.3 -0.7 0 1.2 0 1.2 2 0.5 2 0.5 0 0.9 c0 1.1 -0.9 1 -3.7 -0.3z"/>
  <path d="M13.7 135.4 c-0.4 -0.4 -0.7 -1.5 -0.7 -2.5 l0 -1.7 2.5 -0.6 2.6 -0.7 0.9 0.6 c1.4 0.8 1.2 3.2 -0.2 4.1 l-1.1 0.7 0.6 -1.6 0.6 -1.6 -0.9 -0.6 -0.9 -0.5 -0.3 2.2 -0.3 2.1 -1.1 0.4 c-0.5 0.2 -1.3 0 -1.7 -0.3z m2 -2.1 l-0.7 -0.6 -0.7 0.6 -0.6 0.7 1.3 0 1.3 0 -0.6 -0.7z"/>
  <path d="M183.2 130.3 l1.5 -1.8 -0.5 -1.4 -0.5 -1.4 1.4 0.8 c0.8 0.4 2.2 1.5 3.1 2.3 l1.8 1.5 -0.6 0.8 -0.5 0.9 -3.6 0 -3.6 0 1.5 -1.7z m3.8 -0.8 c0 -0.3 -0.2 -0.5 -0.5 -0.5 -0.3 0 -0.5 0.2 -0.5 0.5 0 0.3 0.2 0.5 0.5 0.5 0.3 0 0.5 -0.2 0.5 -0.5z"/>
  <path d="M11.2 127.5 c-0.7 -1.4 -1.2 -3.4 -1.1 -4.3 l0.1 -1.7 0.4 1.2 0.5 1.2 3.2 -0.4 3.2 -0.5 -2.7 1.2 -2.8 1.2 0 1.4 0 1.4 3.3 -0.7 3.2 -0.7 -1 1 c-0.5 0.5 -1.9 1.3 -3.1 1.6 l-2.1 0.6 -1.1 -2.5z"/>
  <path d="M187.3 125.3 l-2.3 -0.4 0 -2.5 0 -2.4 2.3 0 c1.2 0 2.8 0.4 3.6 0.9 l1.3 0.9 -0.7 2.1 c-0.3 1.1 -0.9 2 -1.3 2 -0.4 -0.1 -1.7 -0.4 -2.9 -0.6z m0.2 -2.3 l0.6 -1 -1 0 -1.1 0 0 1 c0 0.6 0.2 1 0.4 1 0.3 0 0.8 -0.4 1.1 -1z m2.2 -0.7 l-0.7 -0.6 0 1.3 0 1.3 0.7 -0.6 0.6 -0.7 -0.6 -0.7z"/>
  <path d="M9.8 119.8 l1.2 -1.2 -1.3 -1.5 -1.2 -1.5 1.8 0.7 c1 0.4 2.8 0.7 4 0.7 l2.2 0 -3.3 2 c-3.6 2.2 -5.2 2.6 -3.4 0.8z"/>
  <path d="M188.9 115.1 l-1.6 -0.6 0.8 -2 0.8 -2 0 1.8 0.1 1.7 1.1 0 1.1 0 -0.6 -1.5 -0.5 -1.5 0.8 0 c0.5 0 1.1 0.6 1.4 1.3 l0.4 1.2 -1.1 1.1 -1.2 1.1 -1.5 -0.6z"/>
  <path d="M9.6 110.5 l-0.5 -1.5 0.5 -1.4 0.6 -1.5 1.3 0.5 1.3 0.5 0.5 2.1 0.6 2 -0.6 -0.6 -0.6 -0.6 -1.2 1 -1.3 1.1 -0.6 -1.6z m2.4 -1.5 c0 -0.5 -0.4 -1 -1 -1 -0.5 0 -1 0.5 -1 1 0 0.6 0.5 1 1 1 0.6 0 1 -0.4 1 -1z"/>
  <path d="M188.4 105.1 l0 -1.8 3.1 0.8 c1.6 0.5 3.2 0.9 3.5 0.9 1.6 0.1 -2.8 2 -4.5 2 l-2.1 0 0 -1.9z"/>
  <path d="M7 102.1 c0 -0.5 0.6 -1.2 1.3 -1.4 l1.2 -0.5 -1.2 -0.1 -1.3 -0.1 0 -1 0 -1 3.3 0 3.3 0 0 2.5 0 2.5 -3.3 0 -3.3 0 0 -0.9z"/>
  <path d="M190.5 102 l-0.6 -1 0.8 -0.1 c0.4 0 -0.1 -0.4 -1.2 -0.9 l-2 -0.9 4 0 4 0 -2 0.9 -2 0.9 1.3 0 1.3 0.1 -0.6 1 c-0.3 0.6 -1 1 -1.5 1 -0.5 0 -1.2 -0.4 -1.5 -1z"/>
  <path d="M188.6 96.9 l0.7 -1.1 -1.4 -0.9 -1.4 -0.9 2.5 0.1 c1.4 0 3.4 0.4 4.4 0.8 l2 0.8 -3.4 1.1 c-4.1 1.5 -4.3 1.5 -3.4 0.1z"/>
  <path d="M7.5 96 l-0.6 -1 0.6 -1 0.6 -1 2.9 0 2.8 0 0.5 1.4 0.6 1.4 -0.6 0.6 c-0.4 0.3 -1.9 0.6 -3.4 0.6 l-2.8 0 -0.6 -1z m5.5 -1 l0 -1 -2 0 -2 0 0 1 0 1 2 0 2 0 0 -1z"/>
  <path d="M187.4 90.8 l0.1 -2.3 3.3 -0.3 3.2 -0.3 0 1 c0 0.5 -0.6 1.2 -1.2 1.4 l-1.3 0.5 1.3 0.1 1.2 0.1 0 1 0 1 -3.4 0 -3.3 0 0.1 -2.2z"/>
  <path d="M9.3 91.3 l-1.3 -0.5 0 -1.4 0 -1.4 1.1 0 1 0 -0.5 0.9 -0.6 0.9 1.6 0.6 c2.2 0.9 2.4 0.8 2.4 -1.1 l0 -1.7 1.1 1.1 1.1 1.1 -0.6 1.1 -0.7 1.1 -1.7 -0.1 c-0.9 0 -2.3 -0.3 -2.9 -0.6z"/>
  <path d="M9.3 86.4 l-1.2 -0.5 0.6 -1.5 0.5 -1.4 1.5 0.9 1.6 0.8 2.1 -0.3 2.1 -0.4 -1.3 0.6 -1.2 0.6 0.6 0.9 0.5 0.9 -2.3 -0.1 c-1.3 0 -2.8 -0.3 -3.5 -0.5z"/>
  <path d="M188.2 86.3 l-2.4 -0.5 0.6 -2.3 0.6 -2.3 -1.3 -0.5 -1.2 -0.5 4.3 -0.1 c2.3 -0.1 4.2 0.1 4.2 0.4 0 0.2 -1.5 1.2 -3.2 2.1 l-3.3 1.7 1.2 0.4 1.2 0.4 2.3 -1.2 2.3 -1.2 -1.3 1.6 -1.3 1.5 1.8 0.5 1.8 0.5 -2 -0.1 c-1.1 0 -3.1 -0.2 -4.3 -0.4z"/>
  <path d="M10.2 81.8 c-1.8 -1.8 -1.5 -2.8 1.1 -3.8 l2.2 -0.9 -1.7 0 -1.8 -0.1 0 -0.9 c0 -1.4 2.2 -2.6 4.5 -2.3 l2 0.2 -2.2 -1 -2.3 -0.9 0 -1.6 0 -1.5 1.5 0 1.4 0 -0.5 1.5 -0.6 1.5 2.2 0 2.1 0 -0.5 -0.9 -0.6 -0.9 1.2 -0.5 1.3 -0.5 -2.7 -0.7 -2.7 -0.7 0.2 -1.9 0.1 -1.9 0.9 0 0.8 0 -0.7 -1.2 -0.7 -1.1 1.8 0.7 1.8 0.6 -1.4 -1.7 -1.4 -1.6 2 0.5 c1.1 0.3 2.9 0.9 4 1.2 l2 0.7 -3.5 -2 -3.5 -2 1.7 -0.1 1.7 0 -0.6 -1.6 -0.6 -1.6 3.2 1.6 c1.7 0.9 3.1 1.9 3.1 2.2 l0 0.6 -1.6 -0.6 -1.7 -0.6 1.4 1.6 1.3 1.6 -1.7 1.3 c-0.9 0.6 -1.4 1.4 -1.2 1.7 0.3 0.3 -0.5 2.7 -1.7 5.4 -1.2 2.7 -2.2 5.8 -2.2 6.9 l-0.1 2 -2 -0.3 -2 -0.4 1.9 1.5 1.9 1.4 -0.7 1.1 -0.7 1.2 -2.3 0 -2.2 0 -1.2 -1.2z m4.8 -0.7 c0 -1 -3 -2.4 -3.7 -1.7 -0.8 0.8 0.8 2.6 2.3 2.6 l1.4 0 0 -0.9z m0.7 -5.8 l-0.7 -0.6 0 1.3 0 1.3 0.7 -0.6 0.6 -0.7 -0.6 -0.7z m-2.7 0.2 c0 -0.3 -0.2 -0.5 -0.5 -0.5 -0.3 0 -0.5 0.2 -0.5 0.5 0 0.3 0.2 0.5 0.5 0.5 0.3 0 0.5 -0.2 0.5 -0.5z m5.8 -10.6 c-1.8 -1.2 -2.5 -1.1 -3.1 0.4 l-0.5 1.4 2.5 -0.5 2.5 -0.5 -1.4 -0.8z"/>
  <path d="M184.5 78 l-0.6 -1 0.5 -0.9 0.6 -0.9 -1.1 -0.4 c-0.6 -0.2 0.8 -0.3 3 -0.3 l4.1 0 0.4 1.2 0.5 1.3 -0.9 0 -1 0 -0.1 -1.2 0 -1.3 -0.9 2.3 -0.9 2.2 -1.5 0 c-0.8 0 -1.8 -0.4 -2.1 -1z m2.2 -1.7 l-0.7 -0.6 0 1.3 0 1.3 0.7 -0.6 0.6 -0.7 -0.6 -0.7z"/>
  <path d="M182.4 71.9 l-0.6 -1.1 1.1 -1.1 1.1 -1.1 0 1.1 0 1.1 2 -0.5 2 -0.5 -0.6 -0.9 -0.5 -0.9 1 0 1.1 0 0 1.5 0 1.4 -1.9 1.1 c-2.5 1.3 -3.8 1.3 -4.7 -0.1z"/>
  <path d="M181 68.5 c0 -0.3 0.2 -0.5 0.5 -0.5 0.3 0 0.5 0.2 0.5 0.5 0 0.3 -0.2 0.5 -0.5 0.5 -0.3 0 -0.5 -0.2 -0.5 -0.5z"/>
  <path d="M181.6 65.5 l1.9 -1.4 -2 -0.1 -2 -0.1 2.5 -1.4 c1.4 -0.8 2.9 -1.4 3.4 -1.5 l0.8 0 -1.3 1.7 -1.4 1.7 1.8 -0.7 1.7 -0.6 0 0.8 0 0.9 -3.1 1.1 c-4.2 1.5 -4.7 1.4 -2.3 -0.4z"/>
  <path d="M178 60.5 c0 -0.3 0.2 -0.5 0.5 -0.5 0.3 0 0.5 0.2 0.5 0.5 0 0.3 -0.2 0.5 -0.5 0.5 -0.3 0 -0.5 -0.2 -0.5 -0.5z"/>
  <path d="M176.5 58 l-0.6 -1 0.8 0 c0.4 0 0 -0.5 -1 -1.1 l-1.8 -1.1 1.3 -1.6 1.3 -1.6 -1.7 0.7 -1.8 0.6 0 -0.8 c0 -0.9 4.4 -4.1 5.6 -4.1 0.3 0 0.1 0.7 -0.6 1.5 l-1.3 1.5 1.7 -0.6 1.6 -0.6 0 0.9 c0 0.5 -1.1 1.6 -2.5 2.3 -1.4 0.7 -2.3 1.5 -2 1.8 0.2 0.3 1.6 -0.3 2.9 -1.2 1.4 -0.9 2.8 -1.6 3.2 -1.6 l0.6 0 -0.6 1.5 -0.5 1.5 1.2 0 1.2 0.1 -2.4 1.9 c-2.6 2.2 -3.7 2.5 -4.6 1z"/>
  <path d="M16 56.5 c0 -0.3 0.2 -0.5 0.5 -0.5 0.3 0 0.5 0.2 0.5 0.5 0 0.3 -0.2 0.5 -0.5 0.5 -0.3 0 -0.5 -0.2 -0.5 -0.5z"/>
  <path d="M23.8 54.2 c-3 -1.8 -3.4 -2.7 -1.8 -3.7 l1 -0.6 0 1.1 c0 0.7 1 2 2.3 3.1 2.8 2.3 2.1 2.4 -1.5 0.1z"/>
  <path d="M172.1 45.7 l2.4 -2.3 0.8 0.3 c0.4 0.2 0.7 0.9 0.7 1.4 l0 1 -0.9 -0.5 -0.9 -0.6 -1.2 1.5 c-0.7 0.8 -1.7 1.5 -2.3 1.5 l-1 0 2.4 -2.3z"/>
  <path d="M167.5 44.9 l-0.7 -1 2.3 -2.5 2.2 -2.4 -1.5 0 -1.6 0 -1.2 1.5 c-0.7 0.8 -1.7 1.5 -2.3 1.5 l-1.1 0 2.2 -1.6 2.2 -1.5 0 -1.6 0 -1.6 -2.3 2.1 c-1.3 1.2 -2.7 2.2 -3.1 2.2 l-0.8 0 1.2 -1.5 1.3 -1.5 -1.7 0.6 -1.6 0.6 0 -1.1 0 -1.1 -1.6 0 -1.5 0 0.3 -2.1 0.3 -2.2 1.7 -1.1 1.7 -1 2 2.1 1.9 2.1 -1 1 -1.1 1.1 1.9 -0.5 1.9 -0.5 3.5 3.7 3.5 3.7 -1.7 -0.6 -1.8 -0.6 0 1.4 0 1.4 -1.7 -0.6 -1.6 -0.6 0.6 1.6 c0.7 1.9 0.2 2.3 -0.8 0.6z m-4.8 -12.4 l-1.2 -1.3 -1.5 1.4 -1.5 1.5 1.5 0.9 1.4 0.9 1.3 -1 1.2 -1.1 -1.2 -1.3z"/>
  <path d="M45 30.8 l-2 -2.2 0.3 -1 c0.2 -0.5 0.8 -1.1 1.4 -1.3 l1.1 -0.4 -0.5 1.9 -0.5 2 1.2 0.7 1.2 0.8 0.9 -1.4 0.9 -1.4 0 1.7 c0 0.9 -0.4 1.9 -0.9 2.3 l-1 0.5 -2.1 -2.2z"/>
  <path d="M155.3 29.7 l1.4 -2.2 1.8 -0.3 1.7 -0.4 -0.4 1.8 -0.3 1.8 -2.8 0.7 -2.9 0.8 1.5 -2.2z m2.4 -1.4 l-0.7 -0.6 0 1.3 0 1.3 0.7 -0.6 0.6 -0.7 -0.6 -0.7z"/>
  <path d="M150.7 30.4 l-0.6 -0.7 1.6 -2.8 1.7 -2.9 1.3 0 c0.6 0 1.5 0.5 1.9 1.2 l0.7 1.1 -1.7 -0.6 -1.8 -0.7 0.6 1.5 0.5 1.5 -1.5 0 -1.6 0 0.6 1.5 0.5 1.5 -0.8 0 c-0.4 0 -1.1 -0.3 -1.4 -0.6z"/>
  <path d="M49.2 27.2 l-2.4 -2.6 2.4 -1.8 c1.2 -0.9 2.8 -1.8 3.4 -1.8 l1.2 0 1.6 2.5 1.7 2.6 -0.6 0.9 c-0.3 0.6 -1.3 1 -2.1 1 l-1.4 0 0 -0.9 c0 -0.5 0.3 -1.1 0.8 -1.4 0.4 -0.2 0.1 -0.2 -0.6 -0.1 l-1.3 0.4 -0.5 -1.5 -0.6 -1.5 -1 0.6 -0.9 0.6 1.6 2.5 c2.3 3.4 1.5 3.7 -1.3 0.5z m3.5 -4.9 l-0.7 -0.6 0 1.3 0 1.3 0.7 -0.6 0.6 -0.7 -0.6 -0.7z"/>
  <path d="M146 26.5 l-1.3 -1.5 0.7 -0.7 0.6 -0.6 0 1.2 0 1.2 1 -0.6 1 -0.6 0 1 0 1.1 1.1 0 1.1 0 -1.2 -1.6 -1.3 -1.5 1.6 -1.6 1.6 -1.7 0.6 1.6 0.7 1.6 -1.2 2.1 -1.1 2.1 -1.3 0 c-0.8 0 -1.9 -0.7 -2.6 -1.5z m5 -3 c0 -0.3 -0.2 -0.5 -0.5 -0.5 -0.3 0 -0.5 0.2 -0.5 0.5 0 0.3 0.2 0.5 0.5 0.5 0.3 0 0.5 -0.2 0.5 -0.5z"/>
  <path d="M56.4 23.5 l-1.6 -2.5 0.6 -1.5 0.5 -1.5 1.2 0 1.1 0 -1.2 1.5 -1.2 1.5 1.5 0 1.6 0 -0.6 1.6 -0.6 1.7 1.4 -0.5 1.4 -0.5 -0.4 -1.4 c-0.2 -0.8 -0.5 -2.3 -0.7 -3.4 l-0.4 -2 0.6 1.3 c0.3 0.6 1 1.2 1.5 1.2 l0.8 0 -0.5 -1.5 -0.6 -1.5 0.6 0 c0.6 0 3.6 5.5 3.6 6.7 0 0.4 -0.7 -0.1 -1.5 -1.1 l-1.5 -2 0 2.2 0 2.1 -2 1.1 -1.9 1 -1.7 -2.5z"/>
  <path d="M141.3 24.4 l-1.2 -0.5 0.6 -1.7 0.7 -1.7 -1.9 1.5 -1.9 1.5 0.8 -2 c0.4 -1.1 1 -2.7 1.4 -3.5 l0.5 -1.5 -2.6 2.4 -2.7 2.4 -0.7 -0.6 -0.6 -0.7 1.1 0 1.2 0 0 -2.6 0 -2.6 1.8 0.7 c0.9 0.4 2.3 0.8 3 0.8 l1.3 0 -0.6 1.5 -0.5 1.4 1.6 -0.6 1.6 -0.6 -0.6 1.5 c-0.3 0.8 -0.9 2.3 -1.2 3.3 l-0.5 1.7 1.6 -2.7 c0.8 -1.6 1.8 -2.8 2.1 -2.8 l0.6 0 -0.7 1.8 -0.6 1.7 1.2 -1.2 c0.7 -0.7 1.7 -1.3 2.1 -1.3 l0.9 0 -1.1 2 -1.1 2.1 -0.9 -0.6 -0.9 -0.5 -0.6 1 c-0.7 1.1 -1.3 1.1 -3.2 0.4z m-3.3 -7.9 c0 -0.3 -0.2 -0.5 -0.5 -0.5 -0.3 0 -0.5 0.2 -0.5 0.5 0 0.3 0.2 0.5 0.5 0.5 0.3 0 0.5 -0.2 0.5 -0.5z"/>
  <path d="M65.6 21.1 c-0.3 -0.4 -1 -2.1 -1.6 -3.6 l-1.1 -2.8 1.6 1.3 1.5 1.2 0 -1.8 0.1 -1.9 1.4 2.5 c0.8 1.4 1.4 3.1 1.5 3.9 l0 1.5 -1.6 -2 -1.5 -1.9 0.6 2.3 c0.6 2.2 0.1 3 -0.9 1.3z"/>
  <path d="M69.1 16.8 l-1.1 -3.1 0.5 -0.5 0.5 -0.5 0 1 0 1.1 2.1 0.5 2.1 0.6 -0.5 -2 c-0.7 -2.8 0.2 -2.3 1.3 0.7 l1 2.6 -1.7 1.4 c-2.6 1.9 -3 1.8 -4.2 -1.8z m2.9 0.7 c0 -0.3 -0.2 -0.5 -0.5 -0.5 -0.3 0 -0.5 0.2 -0.5 0.5 0 0.3 0.2 0.5 0.5 0.5 0.3 0 0.5 -0.2 0.5 -0.5z"/>
  <path d="M129.4 17.6 l0.6 -1.9 -1.5 1.3 -1.5 1.2 0.1 -1.3 c0 -0.8 0.4 -2.3 0.9 -3.4 l0.9 -2 0 1.4 0.1 1.3 1.7 -1.3 1.6 -1.4 -0.7 3 c-0.4 1.7 -1.2 3.5 -1.8 4 l-1.1 1 0.7 -1.9z"/>
  <path d="M75.6 15.8 c-0.3 -1.3 -0.5 -3 -0.5 -3.8 l0 -1.5 0.9 2 0.9 2 0 -2.2 0.1 -2.1 -1.2 -0.5 -1.3 -0.5 1.3 -0.1 1.3 -0.1 1.5 3.6 1.5 3.6 -0.5 0.6 -0.6 0.5 0 -0.8 0 -0.7 -1.4 1.1 -1.4 1.1 -0.6 -2.2z"/>
  <path d="M125.1 16.6 l-0.1 -1.8 -1.5 1.2 -1.5 1.2 0.7 -3.2 0.6 -3.3 -1.1 0.7 -1.2 0.7 -0.1 2.7 -0.1 2.7 -0.5 -1.3 -0.5 -1.2 -1.1 0.7 -1 0.6 0.6 -1.7 c0.4 -1 0.7 -2.3 0.7 -3 l0 -1.2 2.9 0 2.9 0 -0.6 1.5 -0.6 1.6 1.7 -1.4 1.7 -1.3 -0.1 1.3 c-0.1 0.8 -0.5 2.5 -0.9 3.9 l-0.8 2.5 -0.1 -1.9z"/>
  <path d="M83 13.5 l0 -2.5 -1 0 c-0.5 0 -1 -0.4 -1 -1 l0 -1 1.8 0 1.7 0 0 3.5 0 3.5 -0.7 0 -0.8 0 0 -2.5z"/>
  <path d="M86.7 15.3 c-0.4 -0.3 -0.7 -2.1 -0.7 -4 l0 -3.3 1.5 0 1.5 0 0 0.9 c0 0.5 -0.6 1.2 -1.2 1.4 l-1.3 0.5 1.4 0.1 1.3 0.1 -1.2 1.5 -1.2 1.5 2.2 0 2.2 0 -0.4 -2.8 -0.4 -2.8 1.6 -0.1 1.5 -0.1 0.1 3.4 0.1 3.5 -0.8 -1.2 -0.7 -1.1 -0.3 1 c-0.2 0.5 -1.3 1.2 -2.5 1.6 l-2 0.6 -0.7 -0.7z"/>
  <path d="M114 13.1 l0 -2.9 1.3 -1.1 1.4 -1.1 0.6 0.7 c0.4 0.3 0.7 1 0.7 1.4 l0 0.8 -1.5 -0.5 -1.5 -0.6 0 2.1 0 2.1 1 0 c0.6 0 1 0.5 1 1 l0 1 -1.5 0 -1.5 0 0 -2.9z"/>
  <path d="M95.1 11.5 l-0.1 -4 1 1.5 1 1.5 1 -1.5 1 -1.5 -0.1 4 -0.1 4 -0.5 -1.7 c-0.2 -1 -0.8 -1.8 -1.3 -1.8 -0.5 0 -1.1 0.8 -1.3 1.8 l-0.5 1.7 -0.1 -4z"/>
  <path d="M100.1 11 l0 -4.5 0.9 2 0.9 2 0 -1.2 0.1 -1.3 1 0 1 0 0 3.3 0 3.2 -0.9 -1.4 -0.9 -1.3 -1.1 1.8 -1 1.9 0 -4.5z"/>
  <path d="M107 13.5 l0 -1.5 -1 0 -1 0 0.1 -2.2 0 -2.3 0.9 2 0.9 2 0 -1.7 0.1 -1.8 0.8 0 0.8 0 -0.4 3.5 c-0.4 3.5 -1.2 4.8 -1.2 2z"/>
  <path d="M109 13.8 c0 -0.7 0.3 -2.3 0.6 -3.5 l0.6 -2.3 1.7 0 1.6 0 -1.5 1 -1.5 1 1.5 1 1.5 1 -1.7 0 -1.8 0 0 0.9 0 1 1.8 0.4 1.7 0.5 -2.2 0.1 -2.3 0.1 0 -1.2z"/>
  <path d="M130.3 10.3 l0.7 -0.6 0.7 0.6 0.6 0.7 -1.3 0 -1.3 0 0.6 -0.7z"/>
 </g>
</svg>
