<?xml version="1.0" encoding="UTF-8"?>
<svg width="217px" height="217px" viewBox="0 0 217 217" version="1.1" xmlns="http://www.w3.org/2000/svg" xmlns:xlink="http://www.w3.org/1999/xlink">
    <title>Group</title>
    <g id="Page-1" stroke="none" stroke-width="1" fill="none" fill-rule="evenodd">
        <g id="Group" transform="translate(0.000000, 0.000009)" fill-rule="nonzero">
            <polygon id="path2520" fill="#00925C" points="0 216.176256 216.182596 216.176256 216.182596 0 0 0"></polygon>
            <path d="M122.708514,23.9392577 C128.606132,26.3870865 152.386852,39.3872133 155.367369,43.4394479 C142.747734,45.1136106 118.713353,52.2478275 106.537624,58.6591096 C120.48898,55.6024944 139.925755,53.9727224 153.306373,53.2688131 C148.106323,60.9547417 145.252636,64.8864874 136.818408,74.0373084 C151.277085,65.3557603 155.303954,64.7533154 168.684572,56.9151901 C173.694377,64.3728238 174.99439,81.6154361 175.184636,95.281418 C179.560288,86.5998699 184.855462,53.9663809 182.635928,48.0370537 C190.689665,42.7609047 190.689665,40.6682014 192.782368,37.0979227 C184.665216,37.8208565 180.099318,37.9540286 175.66025,39.3174565 C164.499165,32.4559262 141.479429,25.3978085 122.708514,23.9392577 Z M91.0008876,65.3177111 C87.3862182,65.8503992 77.1763625,70.4289805 70.3909305,75.7812278 C70.3909305,75.7812278 65.8884475,75.2295151 58.3420325,75.4641515 C50.7956174,75.7939109 40.902838,77.6963684 37.0979228,79.2690667 C44.4540921,79.6115091 54.473702,81.4505514 58.3420325,85.2935157 C58.3420325,85.2935157 47.1175327,95.4082536 36.146694,117.476756 C36.146694,117.476756 56.3127444,98.6931535 65.000634,94.0131129 C65.000634,94.0131129 69.4397017,109.283506 72.6104643,116.842604 C72.6104643,116.842604 75.4324431,99.2321882 80.0617565,89.0984309 C80.0617565,89.0984309 81.3617692,88.2930521 87.830125,87.6715877 C94.2350655,87.1008504 103.271739,86.6886513 120.647518,89.7325834 C120.647518,89.7325834 104.698582,79.6051675 84.9764386,76.8909947 C85.7374216,74.189505 88.5276927,68.3933509 91.0008876,65.3177111 Z M34.2442364,125.245125 C32.9759314,136.095475 32.5637322,144.003357 34.0856983,152.672222 C29.1393086,154.01662 25.6197621,155.145417 21.5611859,156.952751 C27.2685586,160.45961 31.9612873,163.218178 38.3662279,166.147963 C41.7272363,173.45339 45.1833675,178.304667 50.8907403,183.904234 C49.55902,179.12907 49.2736513,175.298784 49.7809733,170.269954 C56.9468969,172.356321 62.9079307,173.497791 71.025083,173.757793 C63.2884222,170.904112 57.7712952,167.555781 51.6834309,161.867433 C53.5224733,156.882994 55.6151766,152.894175 58.976185,147.916078 C52.7614902,148.803886 48.195592,149.558533 42.8052956,150.611226 C38.4296431,142.931634 36.4637703,135.49303 34.2442364,125.245125 Z M129.050039,159.013747 C123.596327,162.85037 118.840184,165.84357 112.562073,168.843111 C112.244997,165.900654 112.054751,163.421107 111.927921,160.123514 C108.376667,164.841609 105.39615,168.46262 101.464404,172.806564 C94.8058027,174.620241 89.5423368,175.317808 83.073981,175.343174 C87.0057267,177.391487 91.0008876,178.634426 95.122879,179.465166 C91.0008876,183.238373 87.3862182,185.939863 83.3910573,188.501839 C90.1764893,186.891092 98.9912094,183.97399 105.586396,180.099318 C109.010819,180.213466 112.435243,180.061269 114.781607,179.623704 C114.21087,177.581733 113.766963,176.053425 113.196226,173.440717 C119.474336,168.602133 123.913404,164.258188 129.050039,159.013747 Z" id="path2524" fill="#FFFFFF"></path>
        </g>
    </g>
</svg>
