<?xml version="1.0" encoding="utf-8"?>
<!DOCTYPE svg PUBLIC "-//W3C//DTD SVG 20010904//EN" "http://www.w3.org/TR/2001/REC-SVG-20010904/DTD/svg10.dtd">
<svg version="1.0" xmlns="http://www.w3.org/2000/svg" width="880px" height="351px" viewBox="0 0 880 351" preserveAspectRatio="xMidYMid meet">
 <g fill="#ffffff">
  <path d="M0 175.5 l0 -175.5 440 0 440 0 0 175.5 0 175.5 -440 0 -440 0 0 -175.5z m290 0 l0 -114.5 -113.9 0 c-62.7 0 -114.1 0.3 -114.3 0.8 -0.2 0.4 -0.2 51.9 0 114.5 l0.2 113.7 114 0 114 0 0 -114.5z m502 78.5 c-3.6 -0.5 -7.7 -1.3 -9.2 -1.9 -1.7 -0.6 -2.8 -0.7 -2.8 -0.1 0 1.5 6 2.8 12.5 2.8 l6 -0.1 -6.5 -0.7z m-430.5 -18 l0 -18 -3.2 0 -3.2 0 -0.3 18 -0.3 18 3.5 0 3.5 0 0 -18z m48.5 4.5 l0 -13.5 3.3 0 c3 0 3.7 0.8 12.1 13.5 12.3 18.7 12.6 18.7 12.6 -4.5 l0 -18 -2.5 0 -2.5 0 0 11 0 11 -3.4 0 c-3.2 0 -3.7 -0.5 -10.1 -11 -6.4 -10.5 -6.8 -11 -10.1 -11 l-3.4 0 0 18 c0 17.3 0.1 18 2 18 1.9 0 2 -0.7 2 -13.5z m52 -4.5 l0 -18 -3.5 0 -3.5 0 0 18 0 18 3.5 0 3.5 0 0 -18z m64.6 0 l-0.1 -18 -3.5 0 -3.5 0 0 18 0 18 3.6 0 3.6 0 -0.1 -18z m38 13.5 c1 -2.8 2.3 -4.5 3.3 -4.5 1.3 0 1.5 -0.9 1.3 -4.2 -0.2 -2.8 0.4 -6 1.7 -9 1.8 -4.3 2.3 -4.8 5.3 -4.8 3.1 0 3.5 0.4 5.6 5.8 2.5 6.4 2.8 10.8 1 11.5 -0.7 0.3 -0.2 0.6 1.2 0.6 2.1 0.1 2.9 0.9 4.1 4.4 1.3 3.3 2.1 4.3 4.2 4.5 1.5 0.2 2.7 0.1 2.7 -0.1 0 -0.3 -3.1 -7.4 -6.9 -15.8 -3.8 -8.5 -7.2 -16.4 -7.5 -17.6 -0.5 -1.5 -1.5 -2.3 -3 -2.3 -1.9 0 -3.3 2.4 -10.3 18 -6.7 15 -7.8 18 -6.3 18 1.2 0 2.4 -1.5 3.6 -4.5z m52.4 -13.5 l0 -18 -3.5 0 -3.5 0 0 18 0 18 3.5 0 3.5 0 0 -18z m25.4 16.8 c-0.5 -0.7 -2.3 -3.2 -4.1 -5.6 -2 -2.6 -3.3 -5.5 -3.3 -7.3 0 -3.2 -0.3 -3.4 -3 -1.9 -2.1 1.1 -2.1 1.1 5.7 13.8 0.7 1.2 2.3 2.2 3.4 2.2 1.4 0 1.8 -0.4 1.3 -1.2z m24.6 -15.2 c0 -9 0.3 -17.1 0.6 -18 0.5 -1.3 -0.1 -1.6 -3.2 -1.6 l-3.9 0 0 18 0 18 3.2 0 3.3 0 0 -16.4z m23.5 -1.6 l0 -18 -3.5 0 -3.5 0 0 18 0 18 3.5 0 3.5 0 0 -18z m45.9 13.5 c1.1 -2.9 2.4 -4.5 3.5 -4.5 1.3 0 1.6 -0.8 1.3 -4 -0.2 -2.2 0.4 -5.9 1.3 -8.5 1.7 -4.2 2 -4.5 5.5 -4.5 3.5 0 3.7 0.3 5.8 5.3 2.5 5.9 2.8 10.3 1 11 -0.7 0.3 -0.2 0.6 1.2 0.6 2.1 0.1 2.9 0.9 4.1 4.4 1.3 3.4 2.1 4.3 4.3 4.5 1.6 0.2 2.7 -0.1 2.5 -0.6 -0.2 -0.5 -3.8 -8.6 -7.9 -18 -9.9 -22.7 -9.4 -22.8 -19.9 1.1 -6.5 14.6 -7.6 17.7 -6.1 17.7 1.1 0 2.3 -1.5 3.4 -4.5z m-349.7 1.5 c4.8 -2.9 5.7 -5.2 3.2 -8.4 -1.1 -1.4 -2.9 -3.1 -3.9 -3.6 -1.8 -1 -1.9 -0.7 -1.3 4 0.4 3.7 0.2 5.6 -1.1 7.5 -2 3 -1.2 3.2 3.1 0.5z m330.1 -0.8 c4.5 -2.9 4.7 -4.9 0.9 -8.7 -3.9 -3.9 -6.4 -4.7 -4.7 -1.6 1.4 2.7 1.2 7.1 -0.4 10.3 -1.3 2.4 -1.2 2.6 0.2 2.1 1 -0.4 2.7 -1.3 4 -2.1z m91.2 -2.5 c2.5 -4.5 0.2 -7.3 -9.8 -11.9 -11.3 -5.3 -12.2 -6.1 -12.2 -11.4 0 -3.4 0.5 -4.6 2.2 -5.5 2.2 -1.2 12.6 -0.8 16.1 0.6 1 0.4 1.7 0.3 1.7 -0.3 0 -1.6 -6.1 -2.5 -12.9 -2 -7 0.5 -13.1 4.3 -13.1 8.3 0 3 5.6 7.7 11.9 10 2.5 1 6.1 2.7 7.9 3.8 3.3 1.9 3.4 2.1 3 7.8 -0.3 5.6 -0.2 5.8 1.7 4.5 1.1 -0.7 2.7 -2.5 3.5 -3.9z m-425 -13.8 c0 -2.1 0.9 -3.8 3 -5.6 1.7 -1.3 3 -3 3 -3.7 0 -1.7 -2.9 -4.2 -6.3 -5.5 -2.8 -1.1 -2.8 -1.1 -1.3 1.1 2 2.7 2.1 8.8 0.3 11.2 -0.8 1 -3.1 2.2 -5.3 2.6 -3.5 0.7 -3.6 0.8 -0.9 0.9 1.7 0.1 3.7 0.6 4.5 1.1 2.4 1.6 3 1.2 3 -2.1z m329 0 c0 -2.1 0.9 -3.8 3 -5.6 1.7 -1.3 3 -3 3 -3.7 0 -1.7 -2.9 -4.2 -6.3 -5.5 -2.8 -1.1 -2.8 -1.1 -1.3 1.1 2 2.7 2.1 8.8 0.3 11.2 -0.8 1 -3.1 2.2 -5.3 2.6 -3.5 0.7 -3.6 0.8 -0.9 0.9 1.7 0.1 3.7 0.6 4.5 1.1 2.4 1.6 3 1.2 3 -2.1z m-223.2 -4.4 c1.5 -3.3 0.3 -5.9 -4.1 -8.5 -4 -2.5 -5.5 -2.5 -3.4 -0.2 2.2 2.4 2.2 10 0.1 13.1 l-1.6 2.3 3.9 -2 c2.1 -1.1 4.4 -3.2 5.1 -4.7z m63.2 1.8 c2.7 -3.5 2.5 -5.4 -0.7 -8.5 -2.9 -2.6 -8 -5.1 -5.5 -2.7 1.8 1.9 1.5 11.9 -0.5 14.1 -1.5 1.7 -1.5 1.8 1.5 0.7 1.8 -0.6 4.1 -2.2 5.2 -3.6z m89.9 0.3 c2.1 -2.2 2.3 -3.1 1.5 -5.3 -0.5 -1.5 -2.4 -3.8 -4.3 -5 -4 -2.7 -6 -3 -3.6 -0.7 1.3 1.3 1.6 3.2 1.3 8.5 -0.3 7.4 0.3 7.7 5.1 2.5z m60.5 -55.6 c3.2 -0.5 8.3 -1.6 11.2 -2.5 5.3 -1.5 5.4 -1.6 5.4 -5.4 l0 -3.8 -5.9 3 c-7.9 3.9 -19.3 4.8 -28.6 2.2 -8.7 -2.3 -15.5 -8.3 -18.4 -16.1 -3 -7.9 -3 -25 0 -33 2.5 -6.7 7.6 -12.7 13.3 -15.7 5.1 -2.6 22.2 -3.6 28.1 -1.7 3.9 1.3 4.9 0.8 5.9 -2.6 0.8 -2.8 -1 -3.3 -13.5 -4.1 -22.7 -1.4 -42.2 8.4 -50.5 25.2 -2.5 5.3 -2.9 7.1 -2.9 15 0 7.8 0.4 9.7 2.8 14.7 4.1 8.3 10.5 14.9 18.7 19.2 11.1 5.9 22.1 7.6 34.4 5.6z m-297.6 -2.5 c11 -2.6 17.5 -7.2 20.6 -14.5 1.2 -3 1.2 -4.1 0.1 -7.5 -1.7 -5 -8.9 -11.7 -15 -14.1 -4 -1.5 -4.5 -2 -4.5 -4.9 0 -2.8 0.5 -3.4 4 -5 4.7 -2.1 10.7 -8.3 11.6 -12.1 1.5 -5.8 -4.5 -12.5 -14.1 -16 -4.2 -1.5 -9 -1.9 -28.7 -2.2 l-23.8 -0.4 0 39.1 0 39.1 21.8 0 c15.6 0 23.5 -0.4 28 -1.5z m59.2 -3.5 l0 -5 -5 0 -5 0 0 5 0 5 5 0 5 0 0 -5z m57.2 -31.1 l-0.3 -36.2 14.1 0.5 14 0.4 0 -3.3 0 -3.3 -35.5 0 -35.5 0 0 3.3 0 3.4 13.4 -0.5 13.4 -0.5 0.7 6.8 c0.4 3.7 0.6 20 0.3 36.1 l-0.4 29.4 8 0 8.1 0 -0.3 -36.1z m110.8 33.4 l0 -2.6 -23.4 0.6 -23.3 0.5 -0.7 -8.1 c-0.3 -4.5 -0.6 -12 -0.6 -16.5 l0 -8.4 15.5 0.4 15.5 0.3 0 -3.4 0 -3.3 -15.2 0.3 -15.3 0.4 0.1 -14.4 c0.1 -10.9 0.5 -14.5 1.5 -15.3 0.8 -0.5 10.4 -0.8 22.7 -0.6 l21.2 0.4 0 -2.8 0 -2.8 -30.5 0 -30.5 0 0 39 0 39 31.5 0 31.5 0 0 -2.7z m124.4 -15.6 l-0.7 -18.4 3.9 -0.6 c4.9 -0.8 25.7 -0.9 30.6 -0.1 l3.7 0.6 -0.6 18.4 -0.6 18.4 7.9 0 8 0 0 -39 0 -39 -7.8 0 -7.8 0 0 17.4 0 17.3 -8.9 0.7 c-4.9 0.4 -13.3 0.4 -18.6 0 l-9.7 -0.7 0.7 -17.3 0.7 -17.4 -8.1 0 -8.1 0 0 39 0 39 8 0 8.1 0 -0.7 -18.3z"/>
  <path d="M148 261.6 c0 -2.6 0.7 -3.9 2.7 -5.4 l2.6 -1.9 -3.1 -1.1 c-2.8 -1 -3.2 -1.6 -3.2 -4.6 0 -3.6 0 -3.6 4.4 -3.6 2.5 0 6.7 -0.5 9.4 -1.1 4.4 -1.1 5.5 -1.9 10.3 -8 4.6 -5.8 5.9 -6.8 8.7 -6.8 2.9 -0.1 3.2 0.2 3.2 2.9 0 1.7 0.3 3 0.8 3 0.4 0 2.7 -1.4 5.2 -3 2.7 -1.8 5.8 -3 7.8 -3 3 0 3.2 0.2 3.2 3.4 0 2.9 -0.9 4.1 -7.2 9.6 -6.9 5.9 -7.2 6.4 -6.9 10.1 l0.3 3.9 -4.7 0 c-2.7 0 -6.3 0.9 -8.8 2.1 -6.3 3.3 -17.6 6.9 -21.4 6.9 -3.1 0 -3.3 -0.2 -3.3 -3.4z"/>
  <path d="M106.1 255.4 c-1.8 -1.9 -4.5 -6 -6.2 -8.9 -2.7 -4.8 -4 -5.9 -11.2 -9.8 -8.1 -4.2 -8.2 -4.3 -8.2 -8.2 0 -3.8 0.1 -3.9 5.8 -5.7 l5.7 -2 0 -13.4 0 -13.5 3.7 0.3 c3.5 0.3 3.7 0.5 5.3 6.4 0.9 3.3 2.6 8.5 3.9 11.5 l2.2 5.6 4.7 -0.8 c2.6 -0.4 6.6 -0.8 9 -0.8 4 -0.1 4.2 0 4.2 2.9 0 1.6 -1.2 5.3 -2.7 8.1 l-2.8 5 3.5 3 c1.9 1.6 5.6 4 8.2 5.2 4.2 1.9 4.7 2.6 4.8 5.5 l0 3.2 -6.2 0 c-3.5 -0.1 -8.1 -0.4 -10.4 -0.9 l-4 -0.8 0.4 5.9 0.4 5.8 -3.5 0 c-2.8 0 -4.1 -0.7 -6.6 -3.6z"/>
  <path d="M96 183.9 c0 -3.9 6.3 -15.5 13.5 -24.9 3 -3.9 5.5 -7.2 5.5 -7.5 0 -0.6 -9.9 -3.3 -13.5 -3.7 -2.7 -0.3 -3 -0.7 -3.3 -3.9 l-0.3 -3.7 6.3 -1.1 c3.5 -0.7 11.3 -1.5 17.3 -1.8 9.9 -0.5 11.5 -0.8 15.6 -3.4 6.3 -4 16.2 -7.9 19.9 -7.9 2.7 0 3 0.3 3 3.1 0 1.8 -0.9 4.7 -2 6.5 l-2.1 3.3 4.3 1.1 c7.9 1.9 16.2 4.8 23.1 7.9 6.5 2.9 6.7 3.1 6.7 6.7 l0 3.7 -9.2 -0.9 c-5.1 -0.5 -14.2 -0.9 -20.2 -0.8 -9.5 0 -11 0.3 -12.3 1.9 -1.6 2.2 -4.6 12.2 -6.4 21.3 l-1.3 6.2 -3.6 0 -3.6 0 -2.9 -9.1 c-1.6 -5 -3.2 -9.2 -3.6 -9.5 -0.7 -0.4 -7.7 5.2 -21.8 17.3 -1.5 1.3 -4 2.2 -5.8 2.3 -3 0 -3.3 -0.3 -3.3 -3.1z"/>
  <path d="M244.7 152.8 c-0.7 -11.5 -2.9 -24.4 -4.6 -26.1 -0.8 -0.8 -10.4 3.6 -22.9 10.7 -3.5 2 -7.7 3.6 -9.3 3.6 -2.6 0 -2.9 -0.3 -2.9 -3.3 0 -2.5 1.3 -4.8 5.5 -9.7 3 -3.6 5.5 -6.9 5.5 -7.4 0 -0.9 -10.3 -0.1 -24.5 2.1 -5.5 0.8 -12.1 1.7 -14.7 2 l-4.8 0.6 0 -3.6 0 -3.5 10.3 -4.1 c10.8 -4.2 30.6 -10.1 34.1 -10.1 2.1 0 -8.7 -6.8 -21.1 -13.3 -5.8 -2.9 -6.3 -3.5 -6.3 -6.4 0 -3.9 0 -3.9 14.6 -1.8 13 2 29.6 6.6 38.9 10.9 7 3.2 7.4 3.3 17.3 2.8 l10.2 -0.5 0 3.3 c0 3.9 -2.8 8.7 -6.8 11.7 -2.7 2 -2.9 2.7 -3.5 11.5 -0.8 11.1 -2.8 22.9 -5.8 33.8 -2.1 7.9 -2.2 8 -5.4 8 l-3.2 0 -0.6 -11.2z"/>
  <path d="M370.7 165.8 c-0.9 -6.9 -0.9 -45.9 0 -56.5 l0.6 -8.3 11.6 0 c19.1 0 23.3 2.3 23.8 13.3 0.2 3.8 -0.1 7.2 -0.9 8.7 -1.8 3.4 -9.2 7 -14.4 7 -3.7 0 -4.3 0.3 -5.2 2.9 l-1 2.9 5.9 0.7 c3.3 0.4 8.3 1.9 11.2 3.4 6.2 3.1 8.7 7.3 8.7 14.4 0 7.1 -2.1 11.2 -7.2 13.9 -3.8 2 -6.1 2.3 -18.4 2.6 l-14.1 0.4 -0.6 -5.4z"/>
 </g>
 <g fill="#81c5a8">
  <path d="M59 291 c0 -2 0.7 -2 117 -2 116.3 0 117 0 117 2 0 2 -0.7 2 -117 2 -116.3 0 -117 0 -117 -2z"/>
  <path d="M146.2 262.3 c0.2 -3 0.8 -3.9 2.4 -4.1 1.2 -0.2 2.4 -1.2 2.7 -2.2 0.4 -1.4 -0.3 -2.1 -2.4 -2.9 -2.5 -0.8 -2.9 -1.5 -2.9 -4.5 0 -3.4 0.2 -3.6 3.3 -3.6 1.8 0 3.8 0.5 4.5 1.2 0.9 0.9 1.2 0.9 1.2 -0.4 0 -1.1 1.4 -1.7 5 -2.2 2.7 -0.4 5.2 -1.1 5.5 -1.6 0.3 -0.6 1.7 -1 3.1 -1 2 0 2.4 -0.5 2.4 -3 0 -1.9 0.5 -3 1.4 -3 0.8 0 1.6 -1 1.8 -2.2 0.2 -1.9 1 -2.4 4.1 -2.6 3.4 -0.3 3.7 -0.1 3.7 2.3 0 2.2 0.3 2.6 1.8 2 0.9 -0.4 2.5 -1 3.5 -1.2 0.9 -0.3 1.7 -0.9 1.7 -1.4 0 -0.5 0.5 -0.9 1.1 -0.9 0.6 0 1.7 -0.7 2.5 -1.5 0.9 -0.8 3.1 -1.5 5 -1.5 3.2 0 3.4 0.2 3.4 3.5 0 2.8 -0.4 3.6 -2.5 4.1 -1.3 0.3 -2.7 1.6 -3.1 2.7 -0.9 3.1 -4.4 6.7 -6.5 6.7 -1.7 0 -2.9 2.7 -2.9 6.8 0 3.4 -2.3 5.2 -6.5 5.2 -2 0 -5.3 0.9 -7.5 2 -5.9 3 -18.8 7 -22.7 7 -3.3 0 -3.4 -0.1 -3.1 -3.7z m12.4 -2.7 c3.8 -1.3 8.8 -3.3 11.1 -4.5 2.5 -1.2 6.1 -2.1 8.7 -2.1 l4.5 0 -1 -3.2 c-0.8 -3.1 -0.6 -3.5 4.3 -7.8 2.9 -2.5 6.6 -5.8 8.3 -7.4 l3 -2.8 -3 1.8 c-5.5 3.3 -13 7.4 -13.7 7.4 -0.5 0 -0.8 -2.1 -0.8 -4.6 l0 -4.6 -5.6 6.9 c-6.1 7.5 -9.9 9.2 -19.7 9.3 -5.8 0 -5.4 1.3 0.8 3 2.5 0.7 4.8 1.6 5 2 0.3 0.5 -1.7 2.5 -4.5 4.5 -7.2 5.3 -7.1 5.4 2.6 2.1z"/>
  <path d="M108.2 258.7 c-1.2 -1.3 -2.2 -3.1 -2.2 -4 0 -0.9 -0.7 -1.7 -1.5 -1.7 -0.8 0 -1.5 -0.7 -1.5 -1.5 0 -0.8 -0.4 -1.5 -1 -1.5 -0.5 0 -1 -0.7 -1 -1.5 0 -0.8 -0.4 -1.5 -0.9 -1.5 -0.5 0 -1.4 -1.3 -2 -2.8 -0.9 -2 -3 -3.7 -7.2 -5.7 -3.2 -1.6 -5.9 -3.1 -5.9 -3.5 0 -0.3 -1.3 -1.1 -3 -1.7 -2.6 -1 -3 -1.6 -3 -4.7 0 -2.9 0.4 -3.6 2 -3.6 1.1 0 2 -0.4 2 -0.9 0 -0.4 1.9 -1.4 4.3 -2 l4.2 -1.2 -0.3 -9 c-0.3 -7.6 -0.2 -8.9 1.2 -8.9 1.8 0 2.1 -1.5 0.6 -2.5 -0.6 -0.3 -1 -2.6 -1 -5.1 0 -4.4 0 -4.4 3.5 -4.4 3 0 3.5 0.4 4.1 2.8 0.3 1.5 1.4 5.7 2.5 9.4 1 3.6 1.9 7.3 1.9 8.2 0 0.9 0.4 1.6 0.9 1.6 0.5 0 1.3 0.9 1.6 2.1 0.6 1.8 1.2 2 5.6 1.4 2.7 -0.4 6.7 -0.4 8.9 0 3.7 0.6 4 0.9 4 4 0 1.8 -0.3 3.5 -0.7 3.7 -0.7 0.3 -5.3 9.3 -5.3 10.3 0 0.3 1.1 0.5 2.5 0.5 1.4 0 2.5 0.5 2.5 1 0 0.6 0.7 1 1.5 1 0.8 0 1.5 0.4 1.5 0.8 0 0.4 1.6 1.4 3.5 2.1 1.9 0.7 3.5 1.7 3.5 2.2 0 0.5 0.9 0.9 2 0.9 1.6 0 2 0.7 2 3.6 l0 3.7 -8.6 -0.7 c-4.8 -0.3 -9.8 -0.9 -11.1 -1.2 -2.4 -0.6 -2.4 -0.6 -1.7 6 l0.7 6.6 -3.5 0 c-2.3 0 -4.2 -0.8 -5.6 -2.3z m4.2 -8.6 c-0.4 -3.2 -0.3 -6.1 0.2 -6.4 0.5 -0.2 3.8 0.1 7.4 0.9 3.6 0.7 8.1 1.4 9.9 1.4 l3.5 0 -5.1 -2.6 c-2.9 -1.4 -7.1 -4.3 -9.5 -6.4 l-4.3 -3.9 3.7 -7.1 3.8 -7.1 -4.8 0.6 c-2.6 0.4 -6.4 1.1 -8.5 1.5 l-3.9 0.8 -2.4 -5.4 c-1.3 -3 -3.2 -8.3 -4.1 -11.7 -2.8 -10.4 -3.5 -9.1 -3.1 5.4 l0.3 13.7 -5.8 1.8 c-3.2 1.1 -5.9 2.4 -5.9 2.9 -0.1 0.6 3.5 2.9 8 5.3 7.1 3.8 8.4 4.9 11.1 9.7 2.7 4.8 8.7 12.5 9.7 12.5 0.2 0 0.1 -2.6 -0.2 -5.9z"/>
  <path d="M289 236.5 l0 -18.5 -3 0 -3 0 0 -18.5 0 -18.5 3 0 3 0 0 -23 c0 -22.3 0.1 -23 2 -23 2 0 2 0.7 2 60 0 59.3 0 60 -2 60 -1.9 0 -2 -0.7 -2 -18.5z"/>
  <path d="M59 199.5 l0 -18.5 3.5 0 3.5 0 0 11.8 c0 6.4 0.3 14.7 0.7 18.5 l0.6 6.7 -4.2 0 -4.1 0 0 -18.5z"/>
  <path d="M95 185.5 c0 -3.4 2.7 -10.5 4.1 -10.5 0.4 0 1 -1.1 1.3 -2.5 0.5 -1.8 1.3 -2.5 3.1 -2.5 1.4 0 2.5 0.3 2.5 0.6 0 0.3 -1.7 3.6 -3.7 7.2 l-3.7 6.7 4.5 -3.8 c14.6 -12.3 24.2 -19.8 25.2 -19.4 0.6 0.2 2.7 5.1 4.6 11 2 5.9 3.8 10.7 4.1 10.7 0.3 0 1.2 -2.8 1.9 -6.2 1.8 -8.9 4.8 -19.1 6.3 -21 0.8 -1 3.5 -1.9 7.1 -2.3 5.4 -0.7 5.7 -0.6 5.7 1.4 0 1.6 -0.6 2.1 -2.7 2.1 -7.3 0 -9 3 -13 22.4 l-1.8 8.7 -3.4 -0.3 -3.5 -0.3 -3.5 -10.7 c-1.9 -6 -3.8 -10.8 -4.2 -10.8 -0.4 0 -0.9 0.9 -1.2 2 -0.3 1.1 -1.4 2 -2.5 2 -1.1 0 -2.2 0.9 -2.5 2 -0.3 1.4 -1.4 2 -3.1 2 -1.8 0 -2.6 0.5 -2.6 1.8 0 2.6 -2 4.2 -5.2 4.2 -2.3 0 -2.8 0.4 -2.8 2.3 0 3.3 -4 6.7 -7.8 6.7 -3 0 -3.2 -0.2 -3.2 -3.5z"/>
  <path d="M107 164.7 c0 -2 0.4 -3.7 0.9 -3.7 0.5 0 1.1 -0.9 1.4 -2 0.3 -1.1 1.2 -2 2.1 -2 0.9 0 1.6 -0.8 1.6 -1.8 0 -1 0.5 -2.3 1.1 -2.9 1.2 -1.2 -8.9 -4.3 -14.5 -4.3 -3.7 0 -3.7 0 -3.4 -3.7 l0.3 -3.8 8 -1.7 c10.4 -2.1 16.5 -2.3 16.5 -0.4 0 1.5 -0.9 1.8 -12.8 3.6 -6.9 1.1 -9 3 -3.3 3 4.3 0 12.1 2.7 14.1 4.8 1.7 1.8 1.6 2.1 -3.7 8.8 -8.4 10.5 -8.3 10.5 -8.3 6.1z"/>
  <path d="M246.3 157 c0.5 -4 0.3 -5 -0.8 -5 -1.1 0 -1.5 -1.1 -1.5 -3.8 0 -4.4 -1.6 -14.1 -3.1 -18.9 l-1 -3.3 -8.9 4.5 c-5 2.5 -10.3 4.5 -12 4.5 -2.3 0 -3 0.5 -3 1.9 0 2.1 -4.4 4.1 -9.1 4.1 -2.6 0 -2.9 -0.3 -2.9 -3.3 0 -3.9 1.5 -5.7 4.7 -5.7 1.9 0 2.3 -0.5 2.3 -3.1 0 -2.2 0.5 -3.2 2 -3.6 1.1 -0.3 2 -1.4 2 -2.4 0 -1.1 0.6 -1.9 1.4 -1.9 0.9 0 1.2 -0.7 0.9 -1.9 -0.4 -1.5 0.2 -2.1 2.7 -2.6 1.7 -0.4 3.4 -0.4 3.7 -0.1 0.5 0.5 -5.5 8.8 -13.3 18.4 l-2.7 3.3 6.4 -3.7 c4.9 -2.8 22.3 -11.9 27 -14.2 1 -0.5 3.7 7 4.9 13.9 0.7 3.5 1.5 11.1 1.9 16.9 l0.6 10.5 2.3 -8 c1.9 -6.8 3.4 -14.7 5.8 -31.2 0.3 -2.2 1.1 -3.3 2.1 -3.3 1.4 0 1.5 1 0.9 7.7 -0.8 9 -3 21.4 -5.3 29.6 -1.5 5.6 -1.7 5.7 -5.1 5.7 l-3.5 0 0.6 -5z"/>
  <path d="M176.3 157.7 c-7.2 -0.9 -8.3 -1.3 -8.3 -3 0 -2.1 -0.4 -2.1 15 -0.1 3.1 0.5 4.2 0.3 3.5 -0.4 -1.8 -1.9 -17.5 -8.2 -25.8 -10.3 -4.5 -1.1 -8.6 -2.4 -9 -2.8 -0.4 -0.4 0.6 -3.3 2.2 -6.4 l2.9 -5.6 -5.1 2 c-2.9 1.1 -7.7 3.6 -10.9 5.5 -3.1 1.8 -5.9 3.4 -6.2 3.4 -0.3 0 -0.6 -1.1 -0.6 -2.5 0 -1.6 0.6 -2.5 1.5 -2.5 0.8 0 1.5 -0.4 1.5 -1 0 -0.5 1.1 -1 2.5 -1 1.5 0 2.5 -0.6 2.5 -1.4 0 -1.8 10.9 -5.9 14.6 -5.4 2.5 0.3 2.9 0.8 3.2 3.7 0.2 1.9 -0.1 3.7 -0.6 4 -0.5 0.3 -1.2 1.6 -1.6 2.8 -0.7 2.3 -1 2.2 8.2 4.4 2.8 0.7 5.2 1.6 5.2 2.1 0 0.4 0.9 0.8 2 0.8 3.8 0 10 3.1 10 5.1 0 1.4 0.9 1.9 4.3 2.1 4.1 0.3 4.2 0.4 4.5 4.1 l0.3 3.7 -3.8 -0.2 c-2.1 -0.1 -7.5 -0.6 -12 -1.1z"/>
  <path d="M171 121.6 c0 -3.4 0 -3.5 10.3 -7.4 11.5 -4.5 24.4 -8.7 30 -9.7 3.6 -0.7 5.4 -3.5 2.2 -3.5 -0.8 0 -1.5 -0.6 -1.5 -1.4 0 -0.7 -1.5 -1.7 -3.2 -2.1 -2.5 -0.5 -65.9 -1.2 -143.7 -1.5 -1.2 0 -1.3 -1.9 -0.7 -10.7 0.3 -6 0.9 -12 1.2 -13.6 l0.6 -2.7 111.9 0 111.9 0 0 14.1 0 14.1 -9.5 -0.7 -9.5 -0.7 0 2.7 c0 3.9 -2.7 8.5 -5 8.5 -1.4 0 -2 0.7 -2 2.1 0 1.2 -0.8 2.3 -2 2.6 -1.1 0.3 -2 1.2 -2 1.9 0 2.3 -2.7 1.6 -3.3 -0.8 -0.4 -1.2 -0.5 -2.3 -0.4 -2.3 3 -1.8 7.6 -6.1 9 -8.4 l1.8 -3.1 -3.9 0 c-2.2 0 -6.3 0.4 -9.1 1 -4.8 0.9 -5.7 0.7 -11.2 -2.1 -8 -4 -21.7 -8.4 -33.9 -10.9 -16.4 -3.3 -17 -2.8 -4.5 4.1 12.7 7.1 21.5 12.8 21.5 13.9 0 0.4 -2.1 1.1 -4.6 1.5 -7.3 1.1 -25 6.3 -36.2 10.7 -5.7 2.2 -10.2 4.1 -10 4.3 0.2 0.2 3.5 -0.3 7.3 -1 3.9 -0.7 9.8 -1.6 13.3 -2 5.6 -0.6 6.2 -0.5 6.2 1.2 0 1.6 -1.6 2 -12.7 3.6 -18.2 2.5 -18.3 2.5 -18.3 -1.7z"/>
  <path d="M203 119.6 c0 -1.4 2.9 -2.6 6.8 -2.6 1.5 0 2.2 0.6 2.2 2 0 1.7 -0.7 2 -4.5 2 -3.2 0 -4.5 -0.4 -4.5 -1.4z"/>
  <path d="M58.5 70.7 c-0.4 -1.8 -0.5 -5.3 -0.3 -7.7 l0.3 -4.5 117.3 -0.3 c116.7 -0.2 117.2 -0.2 117.2 1.8 0 2 -0.6 2 -115.5 2 l-115.5 0 0 6 c0 4.6 -0.3 6 -1.5 6 -0.8 0 -1.7 -1.4 -2 -3.3z"/>
 </g>
 <g fill="#63bc99">
  <path d="M289 267 c0 -14.7 0.3 -18 1.4 -18 2.1 0 2.6 3.3 2.6 20.3 0 15 -0.1 15.7 -2 15.7 -1.9 0 -2 -0.7 -2 -18z"/>
  <path d="M151 263.6 c0 -1.3 2.8 -2.6 5.8 -2.6 0.6 0 1.2 0.9 1.2 2 0 1.6 -0.7 2 -3.5 2 -2.3 0 -3.5 -0.5 -3.5 -1.4z"/>
  <path d="M160.2 260.8 c0.3 -0.7 1.9 -1.8 3.6 -2.5 3.1 -1.3 3.2 -1.2 3.2 1.2 0 2.2 -0.4 2.5 -3.6 2.5 -2.3 0 -3.4 -0.4 -3.2 -1.2z"/>
  <path d="M151 259.5 c0 -0.8 0.7 -1.5 1.6 -1.5 1.4 0 1.4 0.3 0.4 1.5 -0.7 0.8 -1.4 1.5 -1.6 1.5 -0.2 0 -0.4 -0.7 -0.4 -1.5z"/>
  <path d="M110 257.5 c0 -0.9 -0.9 -1.5 -2.5 -1.5 -1.8 0 -2.5 -0.5 -2.5 -2 0 -1.1 -0.7 -2 -1.5 -2 -0.8 0 -1.5 -0.7 -1.5 -1.5 0 -0.8 -0.4 -1.5 -1 -1.5 -0.5 0 -1 -1.6 -1 -3.5 0 -1.9 0.3 -3.5 0.8 -3.5 0.4 0 1.9 1.9 3.4 4.3 1.5 2.3 4.3 6 6.2 8.2 l3.5 4 -0.6 -3.2 c-0.5 -2.9 -0.3 -3.3 1.6 -3.3 1.7 0 2.1 0.6 2.1 3.5 0 3.3 -0.2 3.5 -3.5 3.5 -2.4 0 -3.5 -0.5 -3.5 -1.5z"/>
  <path d="M178 255.6 c0 -0.8 1.2 -1.7 2.6 -2 1.7 -0.5 2.4 -1.2 2 -2.1 -0.3 -0.9 0.1 -1.5 0.9 -1.5 1 0 1.5 1.1 1.5 3.5 0 3.3 -0.2 3.5 -3.5 3.5 -2.3 0 -3.5 -0.5 -3.5 -1.4z"/>
  <path d="M155 255 c0 -0.5 -1.3 -1 -3 -1 -2.5 0 -3 -0.4 -3 -2.5 0 -2.5 0 -2.5 3.8 -1.1 2 0.8 4.5 1.7 5.6 2 1.5 0.5 1.6 0.9 0.6 2.1 -1.4 1.7 -4 2 -4 0.5z"/>
  <path d="M121.8 249.3 c-3 -0.3 -3.8 -0.8 -3.8 -2.4 0 -1.8 0.5 -2 3.8 -1.5 2 0.3 6 0.8 8.7 1.1 l5 0.6 -3.3 -1.9 c-3.8 -2.1 -3.3 -3.2 1.5 -3.2 3.1 0 3.3 0.2 3.3 3.4 0 3 -0.4 3.4 -3.1 4 -3.2 0.6 -5.3 0.6 -12.1 -0.1z"/>
  <path d="M150.8 247.3 c1.2 -0.2 3 -0.2 4 0 0.9 0.3 -0.1 0.5 -2.3 0.4 -2.2 0 -3 -0.2 -1.7 -0.4z"/>
  <path d="M113 245.1 c0 -1.4 0.5 -1.8 2 -1.4 1.1 0.3 2 1.2 2 1.9 0 0.8 -0.9 1.4 -2 1.4 -1.3 0 -2 -0.7 -2 -1.9z"/>
  <path d="M160 245 c0 -1.6 0.7 -2 3.5 -2 4 0 4.9 2.4 1.3 3.4 -3.8 1 -4.8 0.7 -4.8 -1.4z"/>
  <path d="M170 239.6 c0 -3.3 0.2 -3.6 3.1 -3.6 l3 0 -2.1 3 c-3.1 4.4 -4 4.5 -4 0.6z"/>
  <path d="M59 227.5 l0 -12.5 2.4 0 c2.3 0 2.4 -0.2 1.8 -6.5 -0.4 -6.1 -0.4 -6.5 1.7 -6.5 2 0 2.1 0.4 2.1 10.8 0 5.9 0.3 14.4 0.7 19 l0.6 8.2 -4.7 0 -4.6 0 0 -12.5z"/>
  <path d="M119 237 l-3.5 -2.9 3.8 -0.1 c3.5 0 3.7 0.2 3.7 3 0 1.7 -0.1 3 -0.3 3 -0.1 0 -1.8 -1.3 -3.7 -3z"/>
  <path d="M284 234.3 c0 -3.2 -0.3 -9.5 -0.7 -14 -0.5 -7.3 -0.4 -8.3 1.1 -8.3 0.9 0 1.6 0.7 1.6 1.5 0 1 1 1.5 3 1.5 l3 0 0 12.5 0 12.5 -4 0 -4 0 0 -5.7z"/>
  <path d="M83 232.5 c0 -3 0.3 -3 4.1 -0.8 3.8 2.3 3.7 3.3 -0.6 3.3 -3.1 0 -3.5 -0.3 -3.5 -2.5z"/>
  <path d="M91 217.5 c0 -4.9 2.3 -6.4 3.4 -2.2 1.2 4.4 0.7 6.7 -1.4 6.7 -1.7 0 -2 -0.7 -2 -4.5z"/>
  <path d="M121.6 220.5 c0.4 -1 0 -1.5 -1.5 -1.5 -1.4 0 -2.1 -0.6 -2.1 -2 0 -1.6 0.7 -2 3.5 -2 3.3 0 3.5 0.2 3.5 3.5 0 2.8 -0.4 3.5 -2 3.5 -1.3 0 -1.8 -0.5 -1.4 -1.5z"/>
  <path d="M91 205 c0 -2.8 0.4 -4 1.4 -4 0.8 0 1.7 -1 1.9 -2.2 0.2 -1.3 0.5 -0.6 0.6 1.7 0.1 5.3 -0.8 8.5 -2.5 8.5 -1 0 -1.4 -1.3 -1.4 -4z"/>
  <path d="M98.1 203.6 c-1.5 -6 -1.4 -6.6 0.8 -6.6 1.9 0 3.1 3.4 3.1 8.6 0 4.1 -2.7 2.7 -3.9 -2z"/>
  <path d="M63 185.5 c0 -0.8 -0.9 -1.5 -2 -1.5 -1.9 0 -2 -0.7 -2 -14 l0 -14 3.5 0 3.5 0 0 15.5 c0 13.1 -0.2 15.5 -1.5 15.5 -0.8 0 -1.5 -0.7 -1.5 -1.5z"/>
  <path d="M283 171.5 l0 -15.5 4.5 0 4.5 0 0 14 0 14 -3 0 c-2 0 -3 0.5 -3 1.5 0 0.8 -0.7 1.5 -1.5 1.5 -1.3 0 -1.5 -2.4 -1.5 -15.5z"/>
  <path d="M104.5 180 c0.3 -0.5 1.9 -1.9 3.5 -3 l3 -2.1 0 3 c0 2.9 -0.3 3.1 -3.6 3.1 -2 0 -3.3 -0.4 -2.9 -1z"/>
  <path d="M99 176.5 c0 -3.1 0.3 -3.5 2.5 -3.5 3 0 3 0.3 0.8 4.1 -2.3 3.8 -3.3 3.7 -3.3 -0.6z"/>
  <path d="M129.2 175.1 c-0.7 -2.1 -1.2 -4.8 -1.2 -6 0 -1.8 -0.6 -2.1 -3.7 -2.1 l-3.8 -0.1 3.5 -2.9 c1.9 -1.7 3.7 -3 4.1 -3 1.4 0 1.9 3.4 0.7 4.2 -1 0.6 -0.9 0.8 0.2 0.8 1.1 0 2.3 2.2 3.7 6.5 l2.1 6.5 -2.2 0 c-1.8 0 -2.5 -0.9 -3.4 -3.9z"/>
  <path d="M104 168.5 c0 -1.9 0.5 -3.5 1 -3.5 0.6 0 1 -0.7 1 -1.5 0 -1 1 -1.5 3 -1.5 l3 0 -3.2 5 c-1.8 2.7 -3.6 5 -4 5 -0.5 0 -0.8 -1.6 -0.8 -3.5z"/>
  <path d="M142 165.8 c0 -0.7 0.7 -3.4 1.7 -6 1.9 -5.3 5.3 -7.3 5.3 -3.2 0 1.3 -0.4 2.4 -0.9 2.4 -0.5 0 -1.1 1.8 -1.5 4 -0.5 3.1 -1.1 4 -2.6 4 -1.1 0 -2 -0.6 -2 -1.2z"/>
  <path d="M112 157.6 c0 -3.3 0.2 -3.6 3.1 -3.6 l3 0 -2.1 3 c-3.1 4.4 -4 4.5 -4 0.6z"/>
  <path d="M183 156.9 c0 -1.9 0.4 -2.1 3 -1.5 3.7 0.7 3.8 0.1 0.3 -1.8 l-2.8 -1.5 3.3 -0.1 c3 0 3.2 0.2 3.2 3.5 0 3.3 -0.2 3.5 -3.5 3.5 -2.9 0 -3.5 -0.4 -3.5 -2.1z"/>
  <path d="M152 155.6 c0 -1.3 2.8 -2.6 5.8 -2.6 0.6 0 1.2 0.9 1.2 2 0 1.6 -0.7 2 -3.5 2 -2.3 0 -3.5 -0.5 -3.5 -1.4z"/>
  <path d="M167 155 c0 -2.1 1 -2.4 4.8 -1.4 3.6 1 2.7 3.4 -1.3 3.4 -2.8 0 -3.5 -0.4 -3.5 -2z"/>
  <path d="M116 150.5 c0 -2.8 0.8 -3.1 3.5 -1.2 2.1 1.6 1.2 3.7 -1.6 3.7 -1.4 0 -1.9 -0.7 -1.9 -2.5z"/>
  <path d="M104 147 c0 -2.1 1 -2.4 4.8 -1.4 3.6 1 2.7 3.4 -1.3 3.4 -2.8 0 -3.5 -0.4 -3.5 -2z"/>
  <path d="M167.3 145.7 c-7 -2.4 -8.3 -4.7 -2.8 -4.7 1.9 0 3.5 0.5 3.5 1 0 0.6 1.4 1 3 1 2.5 0 3 0.4 3 2.5 0 1.4 -0.1 2.4 -0.2 2.4 -0.2 -0.1 -3.1 -1.1 -6.5 -2.2z"/>
  <path d="M253 147.4 c0 -0.3 0.7 -4.7 1.6 -9.8 0.8 -5 1.7 -10.6 2 -12.3 0.6 -4 3.4 -4.6 3.4 -0.7 0 1.4 -0.7 7.2 -1.6 13 -1.4 8.9 -1.9 10.4 -3.5 10.4 -1.1 0 -1.9 -0.3 -1.9 -0.6z"/>
  <path d="M153.8 142.3 c-3.2 -0.5 -3.4 -1.2 -1.2 -3.9 1.1 -1.3 1.7 -1.5 2 -0.6 0.3 0.6 1.7 1.2 3 1.2 1.7 0 2.4 0.6 2.4 2 0 2 -0.6 2.1 -6.2 1.3z"/>
  <path d="M105 140.2 c0 -1.5 0.9 -2.1 4.6 -2.6 6.9 -0.9 8.4 -0.8 8.4 0.8 0 1.4 -1.1 1.8 -9.2 3.2 -3.3 0.5 -3.8 0.4 -3.8 -1.4z"/>
  <path d="M204 138.5 c0 -3 0.3 -3.5 2.4 -3.5 2.1 0 2.5 -0.5 2.8 -3.7 0.2 -3.1 0.7 -3.9 2.6 -4.1 1.6 -0.3 2.2 -1 2.2 -2.8 0 -1.5 0.6 -2.4 1.5 -2.4 0.8 0 1.5 -0.9 1.5 -2 0 -1.9 4.4 -4 5.7 -2.6 0.7 0.6 -6.2 10 -12 16.4 -4.5 4.8 -4 5.3 1.8 1.7 5 -3.1 5.5 -3.1 5.5 0 0 2.2 -0.4 2.5 -3.5 2.5 -2.8 0 -3.5 0.4 -3.5 2 0 1.6 -0.7 2 -3.5 2 -3.3 0 -3.5 -0.2 -3.5 -3.5z"/>
  <path d="M289 126.4 l0 -14.7 -15.5 0.5 c-17.4 0.6 -18.3 0.2 -11.9 -5.4 3.4 -3.1 7.2 -8.8 5.7 -8.8 -0.5 0 -4.8 0.5 -9.7 1 -8.7 1 -8.9 1 -15.2 -2 -3.5 -1.6 -6.4 -3.2 -6.4 -3.5 0 -0.3 11.5 -0.4 25.5 -0.2 24.1 0.2 25.5 0.1 25.5 -1.6 0 -1.1 0.6 -1.7 1.3 -1.5 0.7 0.3 1.3 2.7 1.5 6.1 0.2 4.2 0.7 5.7 1.7 5.7 1.3 0 1.5 2.8 1.5 17.3 0 18.4 -0.4 21.7 -2.6 21.7 -1.1 0 -1.4 -2.8 -1.4 -14.6z"/>
  <path d="M135 137 c0 -2.5 0.4 -3 2.5 -3 1.6 0 2.5 -0.6 2.5 -1.5 0 -1 1 -1.5 3 -1.5 2 0 3 -0.5 3 -1.5 0 -0.9 0.9 -1.5 2.5 -1.5 1.4 0 2.5 -0.4 2.5 -1 0 -0.5 1.5 -1 3.4 -1 3.6 0 4.6 1.5 4.6 7.3 0 2.2 -0.4 2.7 -2.5 2.7 -2.9 0 -3.1 -0.7 -0.9 -3.8 0.9 -1.3 1.4 -2.5 1.1 -2.8 -0.8 -0.8 -10.6 3.5 -16.3 7.1 l-5.4 3.5 0 -3z"/>
  <path d="M240.5 129 c-0.5 -2.5 -1.1 -3 -3.6 -3 -3.7 0 -3.7 -1.1 0.1 -3.3 3.5 -2.1 4.7 -1.6 6.6 2.9 1.9 4.6 1.8 6.4 -0.5 6.4 -1.3 0 -2.1 -0.9 -2.6 -3z"/>
  <path d="M175 123.6 c0 -0.7 1 -1.6 2.3 -2 2.6 -0.7 7.7 -0.7 6 0.1 -0.7 0.2 -1.3 1.1 -1.3 1.9 0 0.9 -1.1 1.4 -3.5 1.4 -2.3 0 -3.5 -0.5 -3.5 -1.4z"/>
  <path d="M175 119.5 c0 -0.8 0.5 -1.5 1 -1.5 0.6 0 1 -0.7 1 -1.5 0 -0.9 0.9 -1.5 2.5 -1.5 1.4 0 2.5 -0.4 2.5 -0.9 0 -0.5 1.2 -1.2 2.8 -1.4 1.5 -0.3 -25.3 -0.5 -59.6 -0.5 -34.3 0 -62.5 -0.2 -62.8 -0.5 -0.3 -0.2 -0.2 -5.7 0.2 -12.1 0.6 -10.4 0.9 -11.6 2.5 -11.6 1.4 0 1.9 0.7 1.9 2.5 0 1.7 0.5 2.5 1.8 2.5 0.9 0 31.1 0 67 0.1 36 0 65.5 -0.1 65.7 -0.3 0.2 -0.2 -1.6 -1.4 -4.1 -2.7 -3.9 -2.1 -5.7 -4.1 -3.7 -4.1 2.6 0 32.7 17.9 31.7 18.9 -0.3 0.3 -1.7 0.7 -3.2 0.9 -7.8 1 -30.6 8 -42.4 13.1 -4 1.7 -4.8 1.8 -4.8 0.6z"/>
  <path d="M206 119.6 c0 -1.3 2.8 -2.6 5.8 -2.6 0.6 0 1.2 0.9 1.2 2 0 1.6 -0.7 2 -3.5 2 -2.3 0 -3.5 -0.5 -3.5 -1.4z"/>
  <path d="M64 83.8 c0.1 -7.4 2.9 -19 5.1 -21.4 l2.2 -2.4 107.2 0 107.2 0 2.3 2.5 c2 2.1 2.4 3.8 2.8 11 0.4 8.1 0.4 8.5 -1.7 8.5 -1.9 0 -2.1 -0.6 -2.1 -5 l0 -5 -108.9 0 -109 0 -0.6 4.7 c-1.1 8.6 -1.6 10.3 -3.1 10.3 -0.9 0 -1.4 -1.1 -1.4 -3.2z"/>
 </g>
 <g fill="#3cb28a">
  <path d="M289 285.5 c0 -4.9 0.3 -6.5 1.4 -6.5 1.7 0 2.6 3.1 2.6 8.8 0 3.5 -0.3 4.2 -2 4.2 -1.8 0 -2 -0.7 -2 -6.5z"/>
  <path d="M148 260.5 c0 -3.4 0.1 -3.5 3.8 -3.5 l3.7 0.1 -3.5 3 -3.5 2.9 3.3 -0.6 c2.1 -0.4 3.2 -0.3 3.2 0.5 0 0.6 -1.6 1.1 -3.5 1.1 -3.3 0 -3.5 -0.2 -3.5 -3.5z"/>
  <path d="M59 244.5 l0 -7.5 3.1 0 3.1 0 -0.6 -4.5 c-0.6 -4 -0.5 -4.5 1.2 -4.5 1.7 0 2 1.1 2.5 11.1 0.4 6.1 0.4 11.5 0.1 12 -0.3 0.5 -2.5 0.9 -5 0.9 l-4.4 0 0 -7.5z"/>
  <path d="M284 243 c0 -7.3 0.3 -9 1.5 -9 0.8 0 1.5 0.7 1.5 1.5 0 0.9 0.9 1.5 2.5 1.5 2.4 0 2.5 0.2 2.5 7.5 l0 7.5 -4 0 -4 0 0 -9z"/>
  <path d="M185.5 243.4 c3.8 -3.4 4 -3.4 4.3 -1.4 0.6 3.8 -0.5 5 -4.5 5 l-3.8 -0.1 4 -3.5z"/>
  <path d="M92.3 239.7 c-3.2 -1.5 -4.3 -2.7 -4.3 -4.4 0 -1.3 0.2 -2.3 0.5 -2.3 1.2 0 11.1 5.3 11.7 6.4 2.2 3.3 -1.7 3.5 -7.9 0.3z"/>
  <path d="M283 221.5 c0 -4.9 2.3 -6.4 3.4 -2.2 1.2 4.4 0.7 6.7 -1.4 6.7 -1.7 0 -2 -0.7 -2 -4.5z"/>
  <path d="M63.8 212.3 c-0.6 -2.8 0.2 -5.3 1.8 -5.3 0.9 0 1.4 1.1 1.4 3.5 0 3.7 -2.4 5 -3.2 1.8z"/>
  <path d="M91 203 c0 -3.3 0.3 -4 2 -4 2.1 0 2.5 1.6 1.4 5.8 -1.1 3.9 -3.4 2.7 -3.4 -1.8z"/>
  <path d="M103.5 181 c0.3 -0.5 1.9 -1.9 3.5 -3 l3 -2.1 0 3 c0 2.9 -0.3 3.1 -3.6 3.1 -2 0 -3.3 -0.4 -2.9 -1z"/>
  <path d="M131 178.4 c0 -4.4 1.8 -4.2 3.7 0.4 1.3 3.1 1.2 3.2 -1.2 3.2 -2.2 0 -2.5 -0.4 -2.5 -3.6z"/>
  <path d="M139 177.8 c0 -3 1.3 -5.8 2.6 -5.8 0.9 0 1.4 1.2 1.4 3.5 0 2.8 -0.4 3.5 -2 3.5 -1.1 0 -2 -0.6 -2 -1.2z"/>
  <path d="M102 171.5 c0 -3.1 0.3 -3.5 2.5 -3.5 3 0 3 0.3 0.8 4.1 -2.3 3.8 -3.3 3.7 -3.3 -0.6z"/>
  <path d="M111.5 174 c0.3 -0.5 1.9 -1.9 3.5 -3 l3 -2.1 0 3 c0 2.9 -0.3 3.1 -3.6 3.1 -2 0 -3.3 -0.4 -2.9 -1z"/>
  <path d="M127 166.5 c0 -4 2.4 -4.9 3.4 -1.2 1 3.7 0.7 4.7 -1.4 4.7 -1.6 0 -2 -0.7 -2 -3.5z"/>
  <path d="M245 161.5 c0 -1.9 0.5 -3.5 1 -3.5 0.6 0 1 -0.4 1 -1 0 -0.5 -0.7 -1 -1.5 -1 -1.1 0 -1.5 -1.2 -1.5 -5 0 -3.7 0.4 -5 1.5 -5 1.5 0 2.3 3.2 2.8 11 l0.2 4.5 1.4 -4.2 c1.7 -5.3 4.1 -5.7 4.1 -0.8 0 1.9 -0.4 3.5 -1 3.5 -0.5 0 -1 1.1 -1 2.5 0 2.2 -0.4 2.5 -3.5 2.5 -3.3 0 -3.5 -0.2 -3.5 -3.5z"/>
  <path d="M63 160.5 c0 -0.8 -0.9 -1.5 -2 -1.5 -1.8 0 -2 -0.7 -2 -5.5 l0 -5.5 3.5 0 3.5 0 0 7 c0 5.6 -0.3 7 -1.5 7 -0.8 0 -1.5 -0.7 -1.5 -1.5z"/>
  <path d="M283.2 155.3 l0.3 -6.8 4 0 4 0 0.3 5.3 0.3 5.2 -3 0 c-2.1 0 -3.1 0.5 -3.1 1.5 0 0.8 -0.7 1.5 -1.5 1.5 -1.3 0 -1.5 -1.2 -1.3 -6.7z"/>
  <path d="M145 157 c0 -1.2 3.3 -3 5.4 -3 0.9 0 1.6 0.9 1.6 2 0 1.6 -0.7 2 -3.5 2 -1.9 0 -3.5 -0.4 -3.5 -1z"/>
  <path d="M176 156 c0 -2.1 1 -2.4 4.8 -1.4 3.6 1 2.7 3.4 -1.3 3.4 -2.8 0 -3.5 -0.4 -3.5 -2z"/>
  <path d="M153 155.6 c0 -1.8 3.1 -2.6 10 -2.6 6.9 0 10 0.8 10 2.6 0 1.1 -2.2 1.4 -10 1.4 -7.8 0 -10 -0.3 -10 -1.4z"/>
  <path d="M177.3 149.4 c-4 -1.9 -7.3 -3.9 -7.3 -4.4 0 -0.6 1.6 -1 3.5 -1 2.4 0 3.5 0.5 3.5 1.5 0 1 1 1.5 2.9 1.5 4.5 0 6.1 1 6.1 3.6 0 3 0.1 3 -8.7 -1.2z"/>
  <path d="M114 151.1 c0 -0.5 -2.5 -1.2 -5.5 -1.6 -3.6 -0.4 -5.5 -1.1 -5.5 -2 0 -0.7 -0.8 -1.6 -1.7 -1.8 -1 -0.3 -0.5 -0.5 1.2 -0.6 6 -0.1 18.5 3.9 18.5 6 0 0.5 -1.6 0.9 -3.5 0.9 -1.9 0 -3.5 -0.4 -3.5 -0.9z"/>
  <path d="M100 141 c0 -1.6 0.7 -2 3.5 -2 4 0 4.9 2.4 1.3 3.4 -3.8 1 -4.8 0.7 -4.8 -1.4z"/>
  <path d="M242.6 138.4 c-0.9 -6.9 -0.8 -8.4 0.8 -8.4 1.4 0 1.8 1.1 3.2 9.3 0.5 3.2 0.4 3.7 -1.4 3.7 -1.5 0 -2.1 -0.9 -2.6 -4.6z"/>
  <path d="M151.7 140 c0.3 -1.1 1.2 -2 1.9 -2 0.8 0 1.4 0.9 1.4 2 0 1.3 -0.7 2 -1.9 2 -1.4 0 -1.8 -0.5 -1.4 -2z"/>
  <path d="M203 138.5 c0 -3.3 0.2 -3.5 3.2 -3.5 2.5 0 2.9 0.3 2 1.2 -1.7 1.7 -1.5 3.3 0.3 1.8 1.3 -1.1 1.5 -0.8 1.5 1.4 0 2.3 -0.4 2.6 -3.5 2.6 -3.3 0 -3.5 -0.2 -3.5 -3.5z"/>
  <path d="M132 138 c0 -1.6 0.7 -2 3.7 -2 3.5 0 3.6 0 1.8 2 -1 1.1 -2.6 2 -3.7 2 -1.1 0 -1.8 -0.7 -1.8 -2z"/>
  <path d="M213 136.2 c0 -0.8 7.1 -5.2 8.4 -5.2 1.4 0 0.5 4.8 -1 5.4 -2.3 0.9 -7.4 0.7 -7.4 -0.2z"/>
  <path d="M148 129.5 c0 -2.2 0.4 -2.5 3.6 -2.5 4.4 0 4.2 1.8 -0.4 3.7 -3.1 1.3 -3.2 1.2 -3.2 -1.2z"/>
  <path d="M216 122.6 c0 -3.3 0.2 -3.6 3.1 -3.6 l3 0 -2.1 3 c-3.1 4.4 -4 4.5 -4 0.6z"/>
  <path d="M236 124.2 c0 -0.5 1.2 -1.5 2.6 -2.2 2.2 -1.2 2.7 -1.2 3.4 0 1.6 2.5 1.1 3 -2.5 3 -1.9 0 -3.5 -0.4 -3.5 -0.8z"/>
  <path d="M181 122.6 c0 -1.4 1.4 -1.9 9.8 -3.1 3.7 -0.6 4.2 -0.5 4.2 1.3 0 1.6 -0.9 2 -5.2 2.6 -7.6 0.9 -8.8 0.8 -8.8 -0.8z"/>
  <path d="M196 120.6 c0 -0.7 1 -1.6 2.3 -2 4.1 -1.1 5.7 -0.7 5.7 1.4 0 1.7 -0.7 2 -4 2 -2.7 0 -4 -0.4 -4 -1.4z"/>
  <path d="M207 119.6 c0 -0.7 1 -1.6 2.3 -2 4.1 -1.1 5.7 -0.7 5.7 1.4 0 1.7 -0.7 2 -4 2 -2.7 0 -4 -0.4 -4 -1.4z"/>
  <path d="M62 109.5 c0 -10 0.1 -10.5 2.1 -10.5 2 0 2.1 0.4 1.5 4.9 -0.4 3 -0.2 5.2 0.4 5.6 0.5 0.3 1 0.1 1 -0.5 0 -0.6 0.4 -0.9 0.9 -0.6 0.7 0.5 130.3 1 132.7 0.5 0.5 -0.1 1.8 -0.1 2.9 0 1.1 0.1 -2.7 1.9 -8.5 4 -5.8 2.1 -12.2 4.5 -14.4 5.4 -3.4 1.5 -10 1.7 -61.2 1.7 l-57.4 0 0 -10.5z"/>
  <path d="M257 115.3 c0 -4.3 0.4 -5.1 3.6 -7.7 l3.6 -2.9 -1.8 2.9 c-1.1 1.7 -1.4 2.5 -0.6 2 0.8 -0.5 6.5 -0.8 12.8 -0.7 l11.4 0.2 0 -2.8 c0 -4.3 1.1 -7.3 2.6 -7.3 1.6 0 1.9 6.5 0.8 15.8 l-0.7 5.2 -15.8 0 -15.9 0 0 -4.7z"/>
  <path d="M214 99.3 c-4.7 -3 -9.2 -5.8 -10 -6.3 -0.8 -0.5 -1.2 -1.1 -0.9 -1.5 0.7 -0.7 15.9 8 19.9 11.4 4.9 4 -0.5 1.9 -9 -3.6z"/>
  <path d="M63 90.5 c0 -2.8 0.4 -3.5 2 -3.5 2.1 0 2.4 1 1.4 4.8 -1 3.6 -3.4 2.7 -3.4 -1.3z"/>
  <path d="M64 81.5 c0 -2.8 0.4 -3.5 2 -3.5 2.1 0 2.4 1 1.4 4.8 -1 3.6 -3.4 2.7 -3.4 -1.3z"/>
  <path d="M287.9 75.8 c0 -0.7 -0.2 -3 -0.5 -5 -0.4 -3.3 -0.2 -3.8 1.6 -3.8 1.7 0 2 0.6 2 5 0 3.8 -0.4 5 -1.5 5 -0.8 0 -1.5 -0.6 -1.6 -1.2z"/>
  <path d="M68.2 65.3 c0.3 -3.6 0.5 -3.8 4.1 -4.1 2 -0.2 3.7 -0.1 3.7 0.1 0 0.6 -7.1 7.7 -7.7 7.7 -0.2 0 -0.3 -1.7 -0.1 -3.7z"/>
 </g>
 <g fill="#39a37f">
  <path d="M152 257.1 c0 -2.9 0.3 -3.1 3.6 -3.1 3.9 0 3.8 0.9 -0.6 4 l-3 2.1 0 -3z"/>
  <path d="M110 256.4 c0 -1.4 0.3 -1.4 1.5 -0.4 0.8 0.7 1.5 1.4 1.5 1.6 0 0.2 -0.7 0.4 -1.5 0.4 -0.8 0 -1.5 -0.7 -1.5 -1.6z"/>
  <path d="M113.6 255.8 c-1 -3.8 -0.7 -4.8 1.4 -4.8 1.6 0 2 0.7 2 3.5 0 4 -2.4 4.9 -3.4 1.3z"/>
  <path d="M797 256 c0 -1.6 0.7 -2 3.5 -2 4 0 4.9 2.4 1.3 3.4 -3.8 1 -4.8 0.7 -4.8 -1.4z"/>
  <path d="M379 255.2 c0 -1.6 0.9 -2.2 4 -2.7 2.2 -0.4 4 -1.1 4 -1.6 0 -0.5 1.6 -0.9 3.6 -0.9 3.2 0 3.5 0.2 2.3 1.6 -1.8 2.1 -5.8 4.1 -10.2 4.9 -3.3 0.6 -3.7 0.5 -3.7 -1.3z"/>
  <path d="M428.6 253 l-2.6 -4 3 0 c2 0 3 0.5 3 1.5 0 0.8 0.5 1.5 1 1.5 0.6 0 1 1.1 1 2.5 0 3.7 -2.4 3.1 -5.4 -1.5z"/>
  <path d="M708 255 c0 -1.6 0.7 -2 3.5 -2 4 0 4.9 2.4 1.3 3.4 -3.8 1 -4.8 0.7 -4.8 -1.4z"/>
  <path d="M564 252.6 c0 -3.2 0.3 -3.6 2.5 -3.6 2.4 0 2.5 0.1 1.2 3.2 -1.9 4.6 -3.7 4.8 -3.7 0.4z"/>
  <path d="M667 251.5 c0 -4 2.4 -4.9 3.4 -1.2 1 3.7 0.7 4.7 -1.4 4.7 -1.6 0 -2 -0.7 -2 -3.5z"/>
  <path d="M182.3 250.5 c-0.3 -2.9 0 -3.5 1.7 -3.5 1.6 0 2 0.7 2 3.5 0 2.7 -0.4 3.5 -1.7 3.5 -1.3 0 -1.9 -0.9 -2 -3.5z"/>
  <path d="M719 250.6 c0 -3.7 1 -5.6 3.1 -5.6 2.3 0 2.5 2.7 0.3 5.8 -2 2.9 -3.4 2.8 -3.4 -0.2z"/>
  <path d="M641 248.4 c0 -3.9 0.9 -3.8 4 0.6 l2.1 3 -3 0 c-2.9 0 -3.1 -0.3 -3.1 -3.6z"/>
  <path d="M132 249 c0 -0.5 -1 -1.1 -2.2 -1.1 -1.3 -0.1 -0.5 -0.5 1.7 -0.8 l4 -0.6 -6.8 -3.3 c-3.7 -1.8 -6.7 -3.7 -6.7 -4.3 0 -0.5 1.6 -0.9 3.5 -0.9 2.4 0 3.5 0.5 3.5 1.5 0 1 1 1.5 3 1.5 1.7 0 3 0.5 3 1 0 0.6 0.9 1 2 1 1.6 0 2 0.7 2 3.5 0 3.3 -0.2 3.5 -3.5 3.5 -1.9 0 -3.5 -0.4 -3.5 -1z"/>
  <path d="M690 246.5 c0 -4 2.4 -4.9 3.4 -1.2 1 3.7 0.7 4.7 -1.4 4.7 -1.6 0 -2 -0.7 -2 -3.5z"/>
  <path d="M777 248 c0 -2.2 1.2 -2.5 4.1 -1 2.8 1.6 2.3 3 -1.1 3 -2.3 0 -3 -0.4 -3 -2z"/>
  <path d="M709.9 246.7 c1 -2.5 -0.1 -5.3 -2.8 -7.4 -1.3 -1 -1 -1.2 2 -1.3 3.3 0 3.7 0.3 4.3 3.1 1.2 6.2 0.8 7.9 -1.9 7.9 -2.1 0 -2.3 -0.3 -1.6 -2.3z"/>
  <path d="M154 246 c0 -1.6 0.7 -2 3.5 -2 4 0 4.9 2.4 1.3 3.4 -3.8 1 -4.8 0.7 -4.8 -1.4z"/>
  <path d="M361 244.5 c0 -4 2.4 -4.9 3.4 -1.2 1 3.7 0.7 4.7 -1.4 4.7 -1.6 0 -2 -0.7 -2 -3.5z"/>
  <path d="M164 244 c0 -1.5 0.7 -2 2.5 -2 2 0 2.5 -0.5 2.5 -2.5 0 -2.1 0.5 -2.5 3.1 -2.5 2.8 0 3 0.2 1.8 1.8 -5.3 7 -9.9 9.5 -9.9 5.2z"/>
  <path d="M800 245.1 c0 -0.6 -1.3 -1.8 -3 -2.8 -3.9 -2.3 -3.8 -3.3 0.5 -3.3 3.3 0 3.5 0.2 3.5 3.5 0 1.9 -0.2 3.5 -0.5 3.5 -0.3 0 -0.5 -0.4 -0.5 -0.9z"/>
  <path d="M635 240.5 c0 -3.4 0.1 -3.5 3.8 -3.5 3.5 0.1 3.6 0.1 1.5 1.3 -2.1 1.2 -2.2 1.4 -0.7 3.5 1.5 2.1 1.4 2.2 -1.5 2.2 -2.9 0 -3.1 -0.3 -3.1 -3.5z"/>
  <path d="M740 240.5 c0 -1.9 0.5 -3.5 1 -3.5 0.6 0 1 -1.1 1 -2.5 0 -1.4 0.5 -2.5 1 -2.5 0.6 0 1 -1.1 1 -2.4 0 -1.9 -0.6 -2.5 -2.4 -2.8 l-2.4 -0.3 2.3 -5.5 c2.5 -6 5.5 -7.9 5.5 -3.6 0 1.6 -0.6 2.6 -1.5 2.6 -1 0 -1.5 1.1 -1.5 3.5 0 3.4 0.1 3.5 4 3.5 3.6 0 4 0.3 4 2.5 0 1.4 0.5 2.5 1 2.5 0.6 0 1 1.6 1 3.5 0 4.7 -1.8 4.4 -3.7 -0.5 -0.9 -2.2 -1.9 -4 -2.3 -4 -0.4 0 -1.5 2.1 -2.5 4.7 -1.7 4.3 -1.7 4.7 -0.1 5.8 2.4 1.8 2 2.5 -1.9 2.5 -3.3 0 -3.5 -0.2 -3.5 -3.5z"/>
  <path d="M381 242 c0 -0.5 -1.3 -1.6 -3 -2.5 -4 -2.1 -3.8 -3.5 0.5 -3.5 3.3 0 3.5 0.2 3.5 3.5 0 1.9 -0.2 3.5 -0.5 3.5 -0.3 0 -0.5 -0.4 -0.5 -1z"/>
  <path d="M625.7 240.1 c-2.2 -3.8 -2.2 -4.1 0.8 -4.1 2.2 0 2.5 0.4 2.5 3.5 0 4.3 -1 4.4 -3.3 0.6z"/>
  <path d="M180.7 239.4 c-1.6 -1.6 -0.7 -4.4 1.4 -4.4 1.5 0 2 0.5 1.7 2.2 -0.3 2.2 -1.9 3.3 -3.1 2.2z"/>
  <path d="M540 238.5 c0 -0.9 -0.9 -1.5 -2.5 -1.5 -3.7 0 -3 -2.5 1 -3.7 3.2 -1 3.5 -0.9 3.5 0.8 0 1.4 0.7 1.9 2.5 1.9 3.1 0 3.3 2.5 0.3 3.4 -3.6 0.9 -4.8 0.7 -4.8 -0.9z"/>
  <path d="M805 237.5 c0 -2.9 0.7 -3.1 3.8 -0.9 3 2.1 2.8 3.4 -0.8 3.4 -2.5 0 -3 -0.4 -3 -2.5z"/>
  <path d="M191 238.6 c0 -0.2 0.7 -0.9 1.5 -1.6 1.2 -1 1.5 -1 1.5 0.4 0 0.9 -0.7 1.6 -1.5 1.6 -0.8 0 -1.5 -0.2 -1.5 -0.4z"/>
  <path d="M786.3 237.5 c-4.3 -1.8 -4.2 -3.5 0.2 -3.5 3.1 0 3.5 0.3 3.5 2.5 0 1.4 -0.1 2.5 -0.2 2.5 -0.2 -0.1 -1.8 -0.7 -3.5 -1.5z"/>
  <path d="M549 235.5 c0 -2.2 0.4 -2.5 3.8 -2.5 l3.7 0.1 -2.8 2.4 c-3.6 3.2 -4.7 3.1 -4.7 0z"/>
  <path d="M187 234.5 c0 -2.2 0.4 -2.5 3.5 -2.5 4.3 0 4.4 1 0.6 3.3 -3.8 2.2 -4.1 2.2 -4.1 -0.8z"/>
  <path d="M526 233.5 c0 -3.9 2.4 -5 3.3 -1.5 0.3 1.1 1.2 2 2.1 2 0.9 0 1.6 0.7 1.6 1.5 0 1 -1.1 1.5 -3.5 1.5 -3.3 0 -3.5 -0.2 -3.5 -3.5z"/>
  <path d="M116.1 234.6 c-0.9 -1.1 -1 -2 -0.1 -3.5 1.6 -3.2 3 -2.5 3 1.4 0 3.7 -1 4.4 -2.9 2.1z"/>
  <path d="M697.9 233.8 c1.2 -3.4 4.1 -3.6 4.1 -0.4 0 2.1 -0.5 2.6 -2.5 2.6 -2.1 0 -2.3 -0.3 -1.6 -2.2z"/>
  <path d="M736.3 232.8 c1.9 -4.6 3.7 -4.8 3.7 -0.4 0 3.2 -0.3 3.6 -2.5 3.6 -2.4 0 -2.5 -0.1 -1.2 -3.2z"/>
  <path d="M758 231.4 c0 -4.4 1.8 -4.2 3.7 0.4 1.3 3.1 1.2 3.2 -1.2 3.2 -2.2 0 -2.5 -0.4 -2.5 -3.6z"/>
  <path d="M64.6 231.8 c-1.2 -4.8 -0.7 -7.8 1.4 -7.8 1.7 0 2 0.7 2 5 0 3.6 -0.4 5 -1.4 5 -0.7 0 -1.6 -1 -2 -2.2z"/>
  <path d="M283 226.5 c0 -4.9 0.3 -6.5 1.4 -6.5 1.7 0 2.6 3.1 2.6 8.8 0 3.5 -0.3 4.2 -2 4.2 -1.8 0 -2 -0.7 -2 -6.5z"/>
  <path d="M80 227.5 c0 -3.1 0.3 -3.5 2.5 -3.5 1.4 0 2.5 -0.4 2.5 -0.8 0 -0.9 6.6 -3.2 8.9 -3.2 0.6 0 1.1 0.9 1.1 2 0 1.1 -0.4 2 -1 2 -0.5 0 -3.5 1 -6.6 2.1 -5.3 2 -5.6 2.3 -3.9 3.5 1.8 1.3 1.7 1.4 -0.8 1.4 -2.4 0 -2.7 -0.4 -2.7 -3.5z"/>
  <path d="M634 228.1 c0 -3.4 -2 -5.8 -5.6 -6.7 -3.5 -0.9 -3.1 -3.4 0.6 -3.4 2 0 3 -0.5 3 -1.5 0 -1.6 1.2 -1.8 4.8 -0.9 3.3 0.9 2.8 3.4 -0.8 3.4 -1.6 0 -3 0.5 -3 1 0 0.6 0.8 1 1.9 1 2 0 3.1 2.5 3.1 7.3 0 2 -0.5 2.7 -2 2.7 -1.5 0 -2 -0.7 -2 -2.9z"/>
  <path d="M786.7 230.3 c-1.1 -1 -0.8 -7.3 0.3 -7.3 0.6 0 1 -1 1 -2.3 0 -2 -0.4 -2.2 -4 -1.9 -4.9 0.5 -5.2 -1 -0.6 -3.2 4.6 -2.2 6.6 -2 6.6 0.4 0 1.5 0.7 2 2.5 2 3.5 0 3.1 2.3 -0.5 3.7 -3.7 1.4 -3.8 3.5 -0.5 6.1 1.4 1.1 2.5 2.3 2.5 2.6 0 0.8 -6.5 0.8 -7.3 -0.1z"/>
  <path d="M379.5 227 c0.4 -0.6 -0.1 -2.2 -0.9 -3.5 -1.6 -2.5 -1.6 -2.5 1.4 -2.5 2.8 0 3 0.3 3 3.5 0 2.9 -0.4 3.5 -2.1 3.5 -1.1 0 -1.7 -0.4 -1.4 -1z"/>
  <path d="M119 225.2 c0 -0.5 0.7 -1.7 1.5 -2.8 1.9 -2.5 1.9 -4.5 0 -3.8 -1 0.4 -1.5 0 -1.5 -1.5 0 -1.7 0.6 -2.1 3.5 -2.1 3.3 0 3.5 0.2 3.5 3.5 0 1.9 -0.4 3.5 -1 3.5 -0.5 0 -1 0.9 -1 2 0 1.5 -0.7 2 -2.5 2 -1.4 0 -2.5 -0.4 -2.5 -0.8z"/>
  <path d="M526 222.5 c0 -3.3 0.2 -3.5 3.5 -3.5 1.9 0 3.5 0.5 3.5 1 0 0.6 -0.7 1 -1.5 1 -0.8 0 -1.7 1.1 -2.1 2.5 -1 3.9 -3.4 3.1 -3.4 -1z"/>
  <path d="M539.3 221.8 c-4.5 -1.5 -4.3 -3.8 0.2 -3.8 3.1 0 3.5 0.3 3.5 2.5 0 1.4 -0.1 2.5 -0.2 2.4 -0.2 -0.1 -1.8 -0.6 -3.5 -1.1z"/>
  <path d="M105 219.2 c0 -1.1 -0.6 -2.2 -1.4 -2.5 -1.3 -0.5 -4.6 -8.6 -4.6 -11.4 0 -0.7 0.8 -1.3 1.8 -1.3 2 0 4.2 5.5 4.2 10.4 l0 2.8 6.5 -0.7 c5.5 -0.6 6.5 -0.5 6.5 0.8 0 1.5 -1 1.9 -9.2 3.3 -3.4 0.5 -3.8 0.4 -3.8 -1.4z"/>
  <path d="M580 218 c0 -1.9 0.5 -3 1.4 -3 0.8 0 1.9 1.4 2.5 3 0.9 2.8 0.8 3 -1.5 3 -2 0 -2.4 -0.5 -2.4 -3z"/>
  <path d="M606.6 218.8 c-0.9 -3.5 -0.8 -3.8 1.4 -3.8 1.6 0 2 0.7 2 3 0 3.6 -2.5 4.1 -3.4 0.8z"/>
  <path d="M714 218.5 c0 -3.1 1.1 -3.2 4.7 0 l2.8 2.4 -3.7 0.1 c-3.4 0 -3.8 -0.3 -3.8 -2.5z"/>
  <path d="M478 217 c0 -2.1 1 -2.4 4.8 -1.4 3.6 1 2.7 3.4 -1.3 3.4 -2.8 0 -3.5 -0.4 -3.5 -2z"/>
  <path d="M63.6 205.8 c-0.3 -1.3 -0.6 -4.4 -0.6 -7 0 -4.1 0.3 -4.8 2 -4.8 1.8 0 2 0.7 2 7 0 5.3 -0.3 7 -1.4 7 -0.7 0 -1.6 -1 -2 -2.2z"/>
  <path d="M93 195.5 c0 -3.3 0.2 -3.5 3.5 -3.5 3.3 0 3.5 0.2 3.5 3.5 0 4.3 -2.1 4.7 -3.7 0.8 l-1.1 -2.8 -0.1 2.8 c-0.2 4 -2.1 3.3 -2.1 -0.8z"/>
  <path d="M138 182.8 c0 -3 1.3 -5.8 2.6 -5.8 0.9 0 1.4 1.2 1.4 3.5 0 2.8 -0.4 3.5 -2 3.5 -1.1 0 -2 -0.6 -2 -1.2z"/>
  <path d="M682.8 179.3 c-3.3 -0.8 -2 -3.3 1.7 -3.3 2.8 0 3.5 0.4 3.5 2 0 2 -1.4 2.3 -5.2 1.3z"/>
  <path d="M698 178 c0 -1.6 0.7 -2 3.5 -2 4 0 4.9 2.4 1.3 3.4 -3.8 1 -4.8 0.7 -4.8 -1.4z"/>
  <path d="M757 176 c0 -1.1 0.6 -2 1.4 -2 0.7 0 1.6 0.9 1.9 2 0.4 1.5 0 2 -1.4 2 -1.2 0 -1.9 -0.7 -1.9 -2z"/>
  <path d="M565 175.8 c0 -3 1.3 -5.8 2.6 -5.8 0.9 0 1.4 1.2 1.4 3.5 0 2.8 -0.4 3.5 -2 3.5 -1.1 0 -2 -0.6 -2 -1.2z"/>
  <path d="M716 174.4 c0 -2 0.5 -2.4 3 -2.4 1.9 0 3 0.5 3 1.4 0 0.8 -1.3 1.9 -3 2.5 -2.8 0.9 -3 0.8 -3 -1.5z"/>
  <path d="M591 169.6 c0 -1.3 2.8 -2.6 5.8 -2.6 0.6 0 1.2 0.9 1.2 2 0 1.6 -0.7 2 -3.5 2 -2.3 0 -3.5 -0.5 -3.5 -1.4z"/>
  <path d="M697 169.6 c0 -1.3 2.8 -2.6 5.8 -2.6 0.6 0 1.2 0.9 1.2 2 0 1.6 -0.7 2 -3.5 2 -2.3 0 -3.5 -0.5 -3.5 -1.4z"/>
  <path d="M683 168.5 c0 -1 -1.1 -1.5 -3.5 -1.5 -3.2 0 -3.5 -0.2 -3.5 -3.1 l0 -3 2.8 1.9 c1.5 1.1 4.6 2.5 7 3.2 5.2 1.6 5.6 4 0.7 4 -2.4 0 -3.5 -0.5 -3.5 -1.5z"/>
  <path d="M426 158.5 c0 -2.8 0.4 -3.5 2 -3.5 2.1 0 2.4 1 1.4 4.8 -1 3.6 -3.4 2.7 -3.4 -1.3z"/>
  <path d="M63 153.1 c0 -1.4 -0.5 -1.8 -2 -1.4 -1.9 0.5 -2 0 -2 -12.1 l0 -12.6 3.9 0 4 0 -0.5 12.8 c-0.3 7 -0.7 13.3 -1 14 -0.6 1.9 -2.4 1.4 -2.4 -0.7z"/>
  <path d="M283 142.6 c0 -6.8 0.3 -13.1 0.6 -14 0.4 -1.1 1.9 -1.6 4.5 -1.6 l3.9 0 0 12.6 0 12.6 -2.6 -0.5 c-2 -0.3 -2.8 0 -3.1 1.4 -0.3 1.1 -1.2 1.9 -1.9 1.9 -1.1 0 -1.4 -2.5 -1.4 -12.4z"/>
  <path d="M407.3 151.5 c-1.1 -3.3 -1 -3.5 1.3 -3.5 2.1 0 2.4 0.5 2.4 3.5 0 2.2 -0.5 3.5 -1.3 3.5 -0.8 0 -1.8 -1.6 -2.4 -3.5z"/>
  <path d="M645 151.1 c-1.6 -3.1 -1.2 -5.1 1 -5.1 1.6 0 2 0.7 2 3.5 0 3.9 -1.4 4.6 -3 1.6z"/>
  <path d="M790 147.8 c0 -3 1.3 -5.8 2.6 -5.8 0.9 0 1.4 1.2 1.4 3.5 0 2.8 -0.4 3.5 -2 3.5 -1.1 0 -2 -0.6 -2 -1.2z"/>
  <path d="M407 131.5 c0 -3.2 0.2 -3.5 3 -3.5 2 0 3 -0.5 3 -1.5 0 -1.1 1.1 -1.5 3.7 -1.5 3.5 0 3.5 0.1 1.9 1.9 -0.9 1 -3.5 2.7 -5.8 3.7 l-4.1 1.8 2.9 1.3 2.9 1.2 -3.7 0.1 c-3.7 0 -3.8 -0.1 -3.8 -3.5z"/>
  <path d="M643.5 127.3 c1.2 -6.6 4.5 -10.2 4.5 -4.9 0 5.4 -1.2 8.6 -3.2 8.6 -1.8 0 -1.9 -0.4 -1.3 -3.7z"/>
  <path d="M390 128.7 c0 -0.8 1.6 -1.8 3.5 -2.4 3.3 -1.1 3.5 -1 3.5 1.3 0 2.1 -0.5 2.4 -3.5 2.4 -2.2 0 -3.5 -0.5 -3.5 -1.3z"/>
  <path d="M665 124.5 c0 -3 0.3 -3.5 2.4 -3.5 2.3 0 2.4 0.2 1.3 3.5 -0.6 1.9 -1.6 3.5 -2.4 3.5 -0.8 0 -1.3 -1.3 -1.3 -3.5z"/>
  <path d="M61 114 c0 -4.3 0.3 -5 2 -5 1.7 0 2 0.7 2 4 0 2.9 0.4 4 1.5 4 0.8 0 1.5 0.5 1.5 1 0 0.6 -1.6 1 -3.5 1 l-3.5 0 0 -5z"/>
  <path d="M283 118 c0 -0.5 0.7 -1 1.5 -1 1 0 1.5 -1 1.5 -3.4 0 -1.9 0.7 -4.1 1.5 -5 1.8 -1.7 2.2 -19.6 0.5 -19.6 -1.3 0 -1.3 -8.1 0 -11.5 1.4 -3.7 -0.6 -10 -4.2 -13 -3.7 -3.1 -3.5 -3.7 1 -3.3 3 0.2 3.8 0.7 4 2.5 0.2 1.3 0.8 2.3 1.3 2.3 0.5 0 0.9 0.7 0.9 1.5 0 0.8 0.5 1.5 1.1 1.5 1.6 0 0.8 38.2 -0.8 38.8 -0.8 0.2 -1.3 2.3 -1.3 5.8 l0 5.4 -3.5 0 c-1.9 0 -3.5 -0.4 -3.5 -1z"/>
  <path d="M403.3 112.5 c-1.1 -3.3 -1 -3.5 1.3 -3.5 2.1 0 2.4 0.5 2.4 3.5 0 2.2 -0.5 3.5 -1.3 3.5 -0.8 0 -1.8 -1.6 -2.4 -3.5z"/>
  <path d="M706.3 106.8 c-4.5 -1.5 -4.3 -3.8 0.2 -3.8 3.1 0 3.5 0.3 3.5 2.5 0 1.4 -0.1 2.5 -0.2 2.4 -0.2 -0.1 -1.8 -0.6 -3.5 -1.1z"/>
  <path d="M482 105 c0 -1.6 0.7 -2 3.5 -2 4 0 4.9 2.4 1.3 3.4 -3.8 1 -4.8 0.7 -4.8 -1.4z"/>
  <path d="M62 100.5 c0 -3.8 0.3 -4.5 2 -4.5 2.1 0 2.6 2.3 1.4 6.8 -1.1 4.1 -3.4 2.6 -3.4 -2.3z"/>
  <path d="M737.6 100.8 c-1 -3.8 -0.7 -4.8 1.4 -4.8 1.6 0 2 0.7 2 3.5 0 4 -2.4 4.9 -3.4 1.3z"/>
  <path d="M412 99.4 c0 -1.4 0.3 -2.4 0.8 -2.2 7.3 3.5 8 4.8 2.7 4.8 -3.1 0 -3.5 -0.3 -3.5 -2.6z"/>
  <path d="M565.6 99.8 c-1 -3.8 -0.7 -4.8 1.4 -4.8 1.6 0 2 0.7 2 3.5 0 4 -2.4 4.9 -3.4 1.3z"/>
  <path d="M715 98 c0 -2.3 0.4 -3 2 -3 2.2 0 2.5 1.2 1 4.1 -1.6 2.8 -3 2.3 -3 -1.1z"/>
  <path d="M398 96 c0 -2.1 1 -2.4 4.8 -1.4 3.6 1 2.7 3.4 -1.3 3.4 -2.8 0 -3.5 -0.4 -3.5 -2z"/>
  <path d="M63 89 c0 -3.3 0.3 -4 2 -4 2.1 0 2.5 1.6 1.4 5.8 -1.1 3.9 -3.4 2.7 -3.4 -1.8z"/>
  <path d="M64.4 77.8 c1.3 -10.7 1.6 -11.8 4.1 -11.8 2.1 0 2.2 0.1 0.9 5.3 -0.7 2.8 -1.5 6.9 -1.9 9 -0.4 2.4 -1.1 3.7 -2.2 3.7 -1.3 0 -1.5 -0.9 -0.9 -6.2z"/>
 </g>
 <g fill="#11ac82">
  <path d="M148 262.5 c0 -3.1 0.3 -3.5 2.6 -3.5 l2.6 0 -2.3 2 -2.4 2 3.3 -0.6 c2.8 -0.6 3.2 -0.4 3.2 1.5 0 1.7 -0.6 2.1 -3.5 2.1 -3.3 0 -3.5 -0.2 -3.5 -3.5z"/>
  <path d="M59 256.1 l0 -7 3.3 -0.3 c2.3 -0.2 3.2 -0.8 3.1 -2 -0.1 -1.1 0.5 -1.8 1.7 -1.8 1.4 0 1.9 0.7 1.9 2.9 0 1.5 0.3 5.6 0.6 9 l0.7 6.1 -5.7 0 -5.6 0 0 -6.9z"/>
  <path d="M284.6 259.3 c-1.1 -7.2 -0.7 -13.3 0.9 -13.3 0.8 0 1.5 0.7 1.5 1.5 0 0.9 0.9 1.5 2.5 1.5 2.4 0 2.5 0.2 2.5 7 l0 7 -3.4 0 c-3.1 0 -3.4 -0.3 -4 -3.7z"/>
  <path d="M165 259 c0 -1.1 7.3 -5 9.5 -5 2.5 0 1.7 3.6 -1 4.8 -3.1 1.5 -8.5 1.6 -8.5 0.2z"/>
  <path d="M104 253 c0 -1.1 -0.7 -2 -1.5 -2 -1 0 -1.5 -1.1 -1.5 -3.5 0 -2.8 -0.4 -3.5 -2 -3.5 -1.6 0 -2 -0.7 -2 -3 0 -3.7 1.4 -3.8 3.6 -0.2 0.9 1.5 3.4 5.3 5.6 8.5 l3.9 5.7 -3.1 0 c-2.3 0 -3 -0.4 -3 -2z"/>
  <path d="M113 246 c0 -2.1 1 -2.4 4.8 -1.4 3.6 1 2.7 3.4 -1.3 3.4 -2.8 0 -3.5 -0.4 -3.5 -2z"/>
  <path d="M86 235.5 c0 -0.9 -0.9 -1.5 -2.5 -1.5 -2.2 0 -2.5 -0.4 -2.5 -3.5 0 -1.9 0.5 -3.5 1.1 -3.5 0.5 0 0.8 0.4 0.4 0.9 -0.3 0.5 1.9 2.5 5 4.3 3 1.8 5.5 3.6 5.5 4 0 0.5 -1.6 0.8 -3.5 0.8 -2.4 0 -3.5 -0.5 -3.5 -1.5z"/>
  <path d="M283 225.5 c0 -3.3 0.4 -4.5 1.5 -4.5 1.4 0 1.8 0.9 1.8 4.5 0 3.6 -0.4 4.5 -1.8 4.5 -1.1 0 -1.5 -1.2 -1.5 -4.5z"/>
  <path d="M132 181.4 c0 -4.4 1.8 -4.2 3.7 0.4 1.3 3.1 1.2 3.2 -1.2 3.2 -2.2 0 -2.5 -0.4 -2.5 -3.6z"/>
  <path d="M113 172.8 c8.5 -7.4 15.3 -11.9 16.2 -10.6 1.8 2.8 0.8 4.7 -2.7 5.4 -2 0.3 -3.5 1.2 -3.5 2 0 0.9 -1.1 1.4 -3 1.4 -2.5 0 -3 0.4 -3 2.5 0 2.2 -0.4 2.5 -3.7 2.5 l-3.8 -0.1 3.5 -3.1z"/>
  <path d="M140 173.9 c0 -3.2 2.4 -9.9 3.6 -9.9 1.5 0 1.8 2.8 0.8 7.9 -0.5 2.1 -1.2 3.1 -2.5 3.1 -1.1 0 -1.9 -0.5 -1.9 -1.1z"/>
  <path d="M108 162.6 c0 -3.3 0.2 -3.6 3.1 -3.6 l3 0 -2.1 3 c-3.1 4.4 -4 4.5 -4 0.6z"/>
  <path d="M246 160 c0 -1.6 -0.4 -3 -1 -3 -0.5 0 -1 -1.6 -1 -3.5 0 -2.3 0.5 -3.5 1.4 -3.5 1.6 0 2.6 3 2.6 8.5 l0.1 4 1.4 -3.2 c1.8 -4.3 3.5 -4.2 3.5 0.2 0 3.3 -0.2 3.5 -3.5 3.5 -3.2 0 -3.5 -0.2 -3.5 -3z"/>
  <path d="M178.8 158.3 c-3 -0.3 -3.8 -0.8 -3.8 -2.4 0 -1.9 0.4 -2 4.3 -1.4 8.3 1.2 9.7 1.7 9.7 3.1 0 1.4 -1.9 1.5 -10.2 0.7z"/>
  <path d="M184.7 152.7 c-4.6 -2.6 -4.7 -3.7 -0.3 -3.7 2.8 0 3.5 0.4 4 2.6 0.4 1.5 0.6 2.8 0.4 3 -0.2 0.1 -2 -0.7 -4.1 -1.9z"/>
  <path d="M252 151.8 c0 -3 1.3 -5.8 2.6 -5.8 0.9 0 1.4 1.2 1.4 3.5 0 2.8 -0.4 3.5 -2 3.5 -1.1 0 -2 -0.6 -2 -1.2z"/>
  <path d="M158.1 142.8 c-6 -1.7 -6.7 -3.2 -3.6 -8.4 1.5 -2.5 2.4 -4.9 2 -5.2 -0.4 -0.4 -22 -0.8 -48.1 -1 l-47.4 -0.3 0 -7.4 c0 -5.7 0.3 -7.5 1.4 -7.5 0.7 0 1.6 0.9 1.9 2 0.5 2 1.4 2 59.4 2 l58.8 0.1 -4.5 2.5 -4.5 2.5 4.5 -0.6 c17.5 -2.4 26.8 -3.5 35.4 -4.1 11.2 -0.8 10.8 -1.4 4.3 7.5 -2.2 2.9 -4.2 4.9 -4.6 4.4 -0.4 -0.6 -10.6 -1 -26.3 -0.9 l-25.8 0.1 0 2.3 c0 1.2 -0.6 2.2 -1.4 2.2 -0.8 0 -1.6 1.3 -1.8 2.9 -0.4 2.8 -0.2 3 3.4 3.6 2.8 0.5 3.8 1.2 3.8 2.6 0 2.1 -1.6 2.3 -6.9 0.7z"/>
  <path d="M243 140.5 c0 -4 2.4 -4.9 3.4 -1.2 1 3.7 0.7 4.7 -1.4 4.7 -1.6 0 -2 -0.7 -2 -3.5z"/>
  <path d="M206 140.2 c0 -0.8 5.2 -4.2 6.4 -4.2 0.3 0 0.6 1.1 0.6 2.5 0 2.2 -0.4 2.5 -3.5 2.5 -1.9 0 -3.5 -0.4 -3.5 -0.8z"/>
  <path d="M206 136 c0 -1.4 0.7 -2 2.2 -2 2 0 2.1 0.1 0.3 2 -1 1.1 -2 2 -2.2 2 -0.1 0 -0.3 -0.9 -0.3 -2z"/>
  <path d="M255.4 134.8 c0.4 -1.8 0.9 -6.6 1.3 -10.5 l0.6 -7.2 14.6 -0.3 14.6 -0.3 0.2 -3 c0 -1.6 0.2 -3.8 0.2 -4.7 0.1 -1 0.8 -1.8 1.7 -1.8 1.4 0 1.6 0.8 1 5.3 -0.3 2.8 -0.6 7.6 -0.6 10.5 l0 5.2 -14.4 0 c-14.1 0 -14.4 0 -15 2.3 -0.3 1.2 -0.6 3.4 -0.6 5 0 2.1 -0.5 2.7 -2.1 2.7 -1.9 0 -2.1 -0.4 -1.5 -3.2z"/>
  <path d="M138 134.5 c0 -2.2 0.4 -2.5 3.5 -2.5 4.3 0 4.4 1 0.6 3.3 -3.8 2.2 -4.1 2.2 -4.1 -0.8z"/>
  <path d="M234.7 128.3 c-1.7 -1.6 -0.4 -4.1 2.8 -5.6 2 -0.9 3.7 -1.7 3.9 -1.7 0.2 0 0.9 1.4 1.5 3.2 0.9 2.4 0.8 3.4 -0.1 4 -1.6 0.9 -7.2 1.1 -8.1 0.1z"/>
  <path d="M257 110.7 c0 -0.2 1.5 -1.4 3.3 -2.7 l3.2 -2.3 -2.4 2.6 c-2.1 2.3 -4.1 3.5 -4.1 2.4z"/>
  <path d="M213 98.4 c-3 -1.9 -9.1 -5.3 -13.5 -7.6 -9 -4.5 -9.1 -4.6 -8.3 -5.4 1.1 -1 28.8 14.2 28.8 15.8 0 1.3 -1.2 0.8 -7 -2.8z"/>
 </g>
 <g fill="#159974">
  <path d="M410 254.5 c0 -1.6 0.6 -2.5 1.5 -2.5 0.8 0 1.5 0.4 1.5 0.9 0 0.5 0.3 1.6 0.6 2.5 0.4 1.2 0 1.6 -1.5 1.6 -1.6 0 -2.1 -0.6 -2.1 -2.5z"/>
  <path d="M585.5 253.4 c-0.8 -2 -1.5 -4 -1.5 -4.4 0 -0.5 -0.8 -1.1 -1.7 -1.3 -1 -0.3 -0.1 -0.5 2 -0.6 3.3 -0.1 3.7 0.2 3.7 2.4 0 1.4 0.5 2.5 1 2.5 0.6 0 1 1.1 1 2.5 0 3.8 -2.7 3.1 -4.5 -1.1z"/>
  <path d="M596 253.5 c0 -4.3 1.4 -4.5 3.5 -0.5 2 3.8 1.9 4 -1 4 -2.2 0 -2.5 -0.4 -2.5 -3.5z"/>
  <path d="M635.3 255.8 c-1.4 -1.9 -6.3 -10.6 -6.3 -11.2 0 -0.3 1.1 -0.6 2.5 -0.6 2.2 0 2.5 0.4 2.5 3.5 0 2.8 0.4 3.5 2 3.5 1.6 0 2 0.7 2 3 0 3.1 -1.1 3.9 -2.7 1.8z"/>
  <path d="M758.3 255.3 c-0.3 -1 -0.8 -2.1 -1 -2.5 -0.2 -0.5 0.7 -0.8 2.1 -0.8 2.1 0 2.6 0.5 2.6 2.5 0 2.9 -2.7 3.5 -3.7 0.8z"/>
  <path d="M767.6 255.4 c-0.9 -2.5 -0.7 -7.4 0.4 -7.4 1 0 2.4 2.2 4 6.4 0.9 2.3 0.7 2.6 -1.4 2.6 -1.3 0 -2.7 -0.7 -3 -1.6z"/>
  <path d="M644 252.4 c0 -3.9 0.9 -3.8 4 0.6 l2.1 3 -3 0 c-2.9 0 -3.1 -0.3 -3.1 -3.6z"/>
  <path d="M714 253.6 c0 -2.3 0.4 -2.6 3.5 -2.6 5.3 0 4.6 1.3 -2.7 4.8 -0.5 0.2 -0.8 -0.8 -0.8 -2.2z"/>
  <path d="M727 253.4 c2.6 -6.9 5 -8.5 5 -3.5 0 4.4 -1 6.1 -3.6 6.1 -2.1 0 -2.3 -0.3 -1.4 -2.6z"/>
  <path d="M374 252.8 c0.1 -0.7 1.6 -2 3.5 -2.9 l3.5 -1.6 0 2.8 c0 2.6 -0.3 2.9 -3.5 2.9 -2.2 0 -3.5 -0.5 -3.5 -1.2z"/>
  <path d="M556.3 250.8 c1.9 -4.6 3.7 -4.8 3.7 -0.4 0 3.2 -0.3 3.6 -2.5 3.6 -2.4 0 -2.5 -0.1 -1.2 -3.2z"/>
  <path d="M787 252 c0 -2.1 1 -2.4 4.8 -1.4 3.6 1 2.7 3.4 -1.3 3.4 -2.8 0 -3.5 -0.4 -3.5 -2z"/>
  <path d="M426.8 250 l-2.8 -3.5 2.6 -0.3 c3.3 -0.4 3.6 -0.1 3.2 3.9 l-0.3 3.4 -2.7 -3.5z"/>
  <path d="M737 249.5 c0 -3.3 0.2 -3.5 3.5 -3.5 1.9 0 3.5 0.5 3.5 1 0 0.6 -0.6 1 -1.3 1 -0.8 0 -1.9 1.1 -2.5 2.5 -1.6 3.6 -3.2 3.1 -3.2 -1z"/>
  <path d="M145 248.5 c0 -3.3 0.2 -3.5 3.5 -3.5 2.4 0 3.5 0.5 3.5 1.5 0 0.8 -0.8 1.5 -1.7 1.5 -1.7 0.1 -1.7 0.1 0 1.4 2.5 2 2.1 2.6 -1.8 2.6 -3.3 0 -3.5 -0.2 -3.5 -3.5z"/>
  <path d="M391 248.5 c0 -2.8 0.4 -3.5 2 -3.5 2.2 0 2.6 2 1 5.1 -1.6 3 -3 2.3 -3 -1.6z"/>
  <path d="M778 248.5 c0 -2.4 0.1 -2.5 3.2 -1.2 4.6 1.9 4.8 3.7 0.4 3.7 -3.2 0 -3.6 -0.3 -3.6 -2.5z"/>
  <path d="M153 246 c0 -1.6 0.7 -2 3.5 -2 4 0 4.9 2.4 1.3 3.4 -3.8 1 -4.8 0.7 -4.8 -1.4z"/>
  <path d="M381.4 244.5 c-0.2 -3.4 -1.9 -5.2 -5.5 -6 -4.2 -0.9 -3.8 -3.5 0.6 -3.5 3.1 0 3.5 0.3 3.5 2.5 0 2 0.5 2.5 2.5 2.5 2.2 0 2.5 0.4 2.5 3.5 0 2.7 -0.4 3.5 -1.7 3.5 -1.2 0 -1.8 -0.8 -1.9 -2.5z"/>
  <path d="M526 242 l0 -5 3.5 0 c3.9 0 5 2.4 1.5 3.3 -1.6 0.4 -1.9 1.1 -1.4 3.6 0.6 2.7 0.4 3.1 -1.5 3.1 -1.9 0 -2.1 -0.6 -2.1 -5z"/>
  <path d="M65 242.5 c0 -2.8 0.4 -3.5 2 -3.5 1.6 0 2 0.7 2 3.5 0 2.8 -0.4 3.5 -2 3.5 -1.6 0 -2 -0.7 -2 -3.5z"/>
  <path d="M591 242.4 c0 -4.4 1.8 -4.2 3.7 0.4 1.3 3.1 1.2 3.2 -1.2 3.2 -2.2 0 -2.5 -0.4 -2.5 -3.6z"/>
  <path d="M720 242.5 c0 -3.9 1.4 -4.6 3 -1.6 1.6 3.1 1.2 5.1 -1 5.1 -1.6 0 -2 -0.7 -2 -3.5z"/>
  <path d="M127.5 242.5 c-2.7 -1.5 -5.9 -3.5 -7 -4.6 -1.9 -1.9 -1.9 -1.9 1.8 -1.9 2.6 0 3.7 0.4 3.7 1.5 0 0.9 0.9 1.5 2.3 1.5 3.3 0 4.9 1.4 4.5 3.9 l-0.3 2.2 -5 -2.6z"/>
  <path d="M576 243.7 c0 -0.7 1.1 -1.7 2.4 -2.3 l2.3 -0.9 -2.3 -5.5 -2.2 -5.5 -2.2 4.9 c-2 4.9 -2.1 7.6 0 7.6 0.5 0 1 0.5 1 1 0 0.6 -1.6 1 -3.5 1 -3.3 0 -3.5 -0.2 -3.5 -3.5 0 -1.9 0.5 -3.5 1 -3.5 0.6 0 1 -1.1 1 -2.5 0 -1.4 0.5 -2.5 1 -2.5 0.6 0 1 -1.1 1 -2.5 0 -2.2 0.4 -2.5 3.5 -2.5 3.3 0 3.5 0.2 3.5 3.5 0 2.8 0.4 3.5 2 3.5 1.8 0 2 0.7 2 5.5 l0 5.5 -3.5 0 c-2.2 0 -3.5 -0.5 -3.5 -1.3z"/>
  <path d="M732.3 241.8 c1.9 -4.6 3.7 -4.8 3.7 -0.4 0 3.2 -0.3 3.6 -2.5 3.6 -2.4 0 -2.5 -0.1 -1.2 -3.2z"/>
  <path d="M762 240.4 c0 -4.4 1.8 -4.2 3.7 0.4 1.3 3.1 1.2 3.2 -1.2 3.2 -2.2 0 -2.5 -0.4 -2.5 -3.6z"/>
  <path d="M561.3 239.8 c1.9 -4.6 3.7 -4.8 3.7 -0.4 0 3.2 -0.3 3.6 -2.5 3.6 -2.4 0 -2.5 -0.1 -1.2 -3.2z"/>
  <path d="M426 238.5 c0 -1.6 -0.6 -2.5 -1.5 -2.5 -1 0 -1.5 -1.1 -1.5 -3.5 0 -4.6 1.1 -4.4 4 0.8 1.8 3 2.5 3.7 2.8 2.5 0.7 -3.4 3.2 -2 3.2 1.7 0 3.3 -0.2 3.5 -3.5 3.5 -3.1 0 -3.5 -0.3 -3.5 -2.5z"/>
  <path d="M789.1 238.6 c-6.6 -2.8 -11.6 -6.8 -12.4 -9.5 -0.4 -1.7 0 -2.1 1.9 -2.1 2 0 2.4 0.5 2.4 3 0 2.8 0.3 3 3.5 3 2.4 0 3.5 0.5 3.5 1.5 0 1 1.1 1.5 3.5 1.5 3.1 0 3.5 0.3 3.5 2.5 0 1.4 -0.1 2.5 -0.2 2.5 -0.2 -0.1 -2.7 -1.1 -5.7 -2.4z"/>
  <path d="M180.6 238.5 c-1.2 -3.3 -0.7 -5.5 1.5 -5.5 1.7 0 2 0.5 1.7 3.2 -0.3 3.5 -2.2 4.8 -3.2 2.3z"/>
  <path d="M704.8 238.7 c-4 -1.6 -3.6 -3.7 0.7 -3.7 3.1 0 3.5 0.3 3.5 2.5 0 2.7 -0.2 2.8 -4.2 1.2z"/>
  <path d="M173 235.6 c0 -3.3 0.2 -3.6 3.1 -3.6 l3 0 -2.1 3 c-3.1 4.4 -4 4.5 -4 0.6z"/>
  <path d="M480 237 c0 -1.5 0.7 -2 2.9 -2 2 0 3 -0.6 3.4 -2 0.3 -1.4 1.4 -2 3.1 -2 2.8 0 2.9 0.1 2 2.5 -0.7 1.7 -7.4 5.5 -9.9 5.5 -0.8 0 -1.5 -0.9 -1.5 -2z"/>
  <path d="M547 236.6 c0 -2.3 0.4 -2.6 3.5 -2.6 5.3 0 4.6 1.3 -2.7 4.8 -0.5 0.2 -0.8 -0.8 -0.8 -2.2z"/>
  <path d="M185 235.5 c0 -2 0.5 -2.5 2.5 -2.5 1.6 0 2.5 -0.6 2.5 -1.5 0 -0.8 0.7 -1.5 1.5 -1.5 0.8 0 1.5 -0.4 1.5 -1 0 -0.5 1.6 -1 3.5 -1 3.3 0 3.5 0.2 3.5 3.5 0 2.4 -0.5 3.5 -1.5 3.5 -0.8 0 -1.5 0.5 -1.5 1 0 0.6 -1 1 -2.2 1 -2.1 0 -2 -0.1 0.8 -3.2 l2.9 -3.1 -4 2.3 c-2.2 1.3 -4.9 3 -6 3.7 -2.8 1.9 -3.5 1.6 -3.5 -1.2z"/>
  <path d="M368 236.9 c0 -1.7 2 -4.9 3 -4.9 0.6 0 1 1.4 1 3 0 2.3 -0.4 3 -2 3 -1.1 0 -2 -0.5 -2 -1.1z"/>
  <path d="M627 237.1 c0 -0.5 1.6 -1.8 3.5 -3 3.3 -1.9 4.1 -3.7 3.6 -7.8 -0.1 -0.7 0.7 -1.3 1.9 -1.3 1.6 0 2 0.6 2 3.5 0 2.8 -0.4 3.5 -2 3.5 -1.6 0 -2 0.7 -2 3 0 2.8 -0.3 3 -3.5 3 -1.9 0 -3.5 -0.4 -3.5 -0.9z"/>
  <path d="M471 235.6 c0 -0.7 1.5 -1.7 3.2 -2.2 4 -1.2 6.8 -5.5 5.2 -8.1 -0.6 -1 -2.5 -2.5 -4.2 -3.3 -4.3 -2 -4.1 -4 0.3 -4 1.9 0 3.5 0.5 3.5 1 0 0.6 0.6 1 1.4 1 0.8 0 1.6 1.7 2 4.6 1 7.7 0.9 8.4 -1.9 8.4 -1.8 0 -2.5 0.5 -2.5 2 0 1.6 -0.7 2 -3.5 2 -2.3 0 -3.5 -0.5 -3.5 -1.4z"/>
  <path d="M539 234.6 c0 -0.6 6 -6.6 6.6 -6.6 0.2 0 0.4 1.6 0.4 3.5 0 3.3 -0.2 3.5 -3.5 3.5 -1.9 0 -3.5 -0.2 -3.5 -0.4z"/>
  <path d="M586 231.4 c0 -4.4 1.8 -4.2 3.7 0.4 1.3 3.1 1.2 3.2 -1.2 3.2 -2.2 0 -2.5 -0.4 -2.5 -3.6z"/>
  <path d="M795 232.5 c0 -2.4 0.1 -2.5 3.2 -1.2 4.6 1.9 4.8 3.7 0.4 3.7 -3.2 0 -3.6 -0.3 -3.6 -2.5z"/>
  <path d="M283 230.5 c0 -4 2.4 -4.9 3.4 -1.2 1 3.7 0.7 4.7 -1.4 4.7 -1.6 0 -2 -0.7 -2 -3.5z"/>
  <path d="M373 232.5 c0 -0.8 0.7 -1.5 1.5 -1.5 0.8 0 2.4 -0.9 3.5 -2 l2 -2 0 3.5 c0 3.3 -0.2 3.5 -3.5 3.5 -2.4 0 -3.5 -0.5 -3.5 -1.5z"/>
  <path d="M565.3 230.8 c1.9 -4.6 3.7 -4.8 3.7 -0.4 0 3.2 -0.3 3.6 -2.5 3.6 -2.4 0 -2.5 -0.1 -1.2 -3.2z"/>
  <path d="M737.3 230.8 c1.9 -4.6 3.7 -4.8 3.7 -0.4 0 3.2 -0.3 3.6 -2.5 3.6 -2.4 0 -2.5 -0.1 -1.2 -3.2z"/>
  <path d="M757 229.5 c0 -2.4 -0.5 -3.5 -1.5 -3.5 -1 0 -1.5 -1.1 -1.5 -3.5 0 -6.5 2.4 -3.7 7.1 8.3 0.7 1.9 0.5 2.2 -1.6 2.2 -2.2 0 -2.5 -0.4 -2.5 -3.5z"/>
  <path d="M554 226.5 c0 -3.9 2.4 -4.9 3.3 -1.4 0.7 2.7 -0.1 4.9 -1.9 4.9 -0.9 0 -1.4 -1.2 -1.4 -3.5z"/>
  <path d="M64.6 227.4 c-0.3 -0.9 -0.6 -2.9 -0.6 -4.5 0 -2.2 0.5 -2.9 2 -2.9 1.7 0 2 0.7 2 4.5 0 3.2 -0.4 4.5 -1.4 4.5 -0.8 0 -1.7 -0.7 -2 -1.6z"/>
  <path d="M644 225.5 c0 -3.9 1.4 -4.6 3 -1.6 1.6 3.1 1.2 5.1 -1 5.1 -1.6 0 -2 -0.7 -2 -3.5z"/>
  <path d="M690 225.5 c0 -2.8 0.4 -3.5 2 -3.5 2.1 0 2.4 1 1.4 4.8 -1 3.6 -3.4 2.7 -3.4 -1.3z"/>
  <path d="M708.5 227 c0.4 -0.6 -0.1 -2.2 -0.9 -3.5 -1.6 -2.5 -1.6 -2.5 1.4 -2.5 2.8 0 3 0.3 3 3.5 0 2.9 -0.4 3.5 -2.1 3.5 -1.1 0 -1.7 -0.4 -1.4 -1z"/>
  <path d="M582 222.4 c0 -4.4 1.8 -4.2 3.7 0.4 1.3 3.1 1.2 3.2 -1.2 3.2 -2.2 0 -2.5 -0.4 -2.5 -3.6z"/>
  <path d="M667 222.5 c0 -2.8 0.4 -3.5 2 -3.5 2.1 0 2.4 1 1.4 4.8 -1 3.6 -3.4 2.7 -3.4 -1.3z"/>
  <path d="M680.6 223.8 c-1 -3.8 -0.7 -4.8 1.4 -4.8 1.6 0 2 0.7 2 3.5 0 4 -2.4 4.9 -3.4 1.3z"/>
  <path d="M718 223 c0 -2.4 -0.4 -3 -2.2 -3 -4.3 0 -6.8 -1.2 -6.8 -3.1 0 -2.3 2.1 -2.4 6.6 -0.3 5.8 2.7 8.9 9.4 4.4 9.4 -1.6 0 -2 -0.7 -2 -3z"/>
  <path d="M786 222.5 c0 -3.3 0.2 -3.5 3.5 -3.5 3.9 0 4.4 0.9 1.5 2.8 -1.1 0.7 -2 1.9 -2 2.7 0 0.8 -0.7 1.5 -1.5 1.5 -1 0 -1.5 -1.1 -1.5 -3.5z"/>
  <path d="M516.6 222.8 c-1 -3.8 -0.7 -4.8 1.4 -4.8 1.6 0 2 0.7 2 3.5 0 4 -2.4 4.9 -3.4 1.3z"/>
  <path d="M569.3 221.8 c1.9 -4.6 3.7 -4.8 3.7 -0.4 0 3.2 -0.3 3.6 -2.5 3.6 -2.4 0 -2.5 -0.1 -1.2 -3.2z"/>
  <path d="M351.6 221.8 c-1 -3.8 -0.7 -4.8 1.4 -4.8 1.6 0 2 0.7 2 3.5 0 4 -2.4 4.9 -3.4 1.3z"/>
  <path d="M438 220.5 c0 -2.8 0.4 -3.5 2 -3.5 2.1 0 2.4 1 1.4 4.8 -1 3.6 -3.4 2.7 -3.4 -1.3z"/>
  <path d="M776.7 222.1 c0.3 -1.1 1.4 -2.7 2.4 -3.7 1.8 -1.7 1.9 -1.6 1.9 1.9 0 3.2 -0.3 3.7 -2.4 3.7 -1.9 0 -2.3 -0.4 -1.9 -1.9z"/>
  <path d="M121 222.4 c0 -0.3 0.5 -1.4 1 -2.4 1 -1.8 0.8 -1.9 -2 -1.4 -2.6 0.6 -3 0.4 -3 -1.5 0 -1.7 0.6 -2.1 2.9 -2.1 4.9 0 6.1 0.9 6.1 4.6 0 3 -0.3 3.4 -2.5 3.4 -1.4 0 -2.5 -0.3 -2.5 -0.6z"/>
  <path d="M415 219.5 c0 -4.3 1 -4.4 3.3 -0.6 2.2 3.8 2.2 4.1 -0.8 4.1 -2.2 0 -2.5 -0.4 -2.5 -3.5z"/>
  <path d="M374.3 220.8 c-4.5 -1.5 -4.3 -3.8 0.2 -3.8 3.1 0 3.5 0.3 3.5 2.5 0 1.4 -0.1 2.5 -0.2 2.4 -0.2 -0.1 -1.8 -0.6 -3.5 -1.1z"/>
  <path d="M382.8 219.7 c-3 -1.2 -3.9 -4.7 -1.3 -4.7 2.4 0 7.9 2.5 9.4 4.3 1.2 1.5 1 1.7 -2 1.6 -1.9 -0.1 -4.6 -0.6 -6.1 -1.2z"/>
  <path d="M548 218.6 c0 -1.9 0.4 -2.3 1.9 -1.9 1.1 0.3 2.7 1.4 3.7 2.4 1.7 1.8 1.6 1.9 -1.9 1.9 -3.2 0 -3.7 -0.3 -3.7 -2.4z"/>
  <path d="M103.6 218.1 c-0.3 -0.4 -1 -2 -1.5 -3.5 -1 -2.4 -0.8 -2.6 1.4 -2.6 2.2 0 2.5 0.4 2.5 3.5 0 3.3 -1.2 4.6 -2.4 2.6z"/>
  <path d="M402.7 217 c-0.4 -1.5 0 -2 1.4 -2 1.2 0 1.9 0.7 1.9 2 0 1.1 -0.6 2 -1.4 2 -0.7 0 -1.6 -0.9 -1.9 -2z"/>
  <path d="M802 216 c0 -2.1 1 -2.4 4.8 -1.4 3.6 1 2.7 3.4 -1.3 3.4 -2.8 0 -3.5 -0.4 -3.5 -2z"/>
  <path d="M97.6 200.8 c-1 -3.8 -0.7 -4.8 1.4 -4.8 1.6 0 2 0.7 2 3.5 0 4 -2.4 4.9 -3.4 1.3z"/>
  <path d="M94.2 199 c0 -1.9 0.2 -2.7 0.5 -1.7 0.2 0.9 0.2 2.5 0 3.5 -0.3 0.9 -0.5 0.1 -0.5 -1.8z"/>
  <path d="M673.6 177.2 c-9.2 -3.2 -6 -5.6 3.9 -3 3.2 0.9 4.5 1.7 4.5 3 0 2.2 -2 2.2 -8.4 0z"/>
  <path d="M705 177 c0 -1.6 0.7 -2 3.5 -2 4 0 4.9 2.4 1.3 3.4 -3.8 1 -4.8 0.7 -4.8 -1.4z"/>
  <path d="M713 175 c0 -1.6 0.7 -2 3.5 -2 3.9 0 4.6 1.4 1.6 3 -3.1 1.6 -5.1 1.2 -5.1 -1z"/>
  <path d="M737 175.8 c0 -3 1.3 -5.8 2.6 -5.8 0.9 0 1.4 1.2 1.4 3.5 0 2.8 -0.4 3.5 -2 3.5 -1.1 0 -2 -0.6 -2 -1.2z"/>
  <path d="M351 174.8 c0 -3 1.3 -5.8 2.6 -5.8 0.9 0 1.4 1.2 1.4 3.5 0 2.8 -0.4 3.5 -2 3.5 -1.1 0 -2 -0.6 -2 -1.2z"/>
  <path d="M411 173.5 c0 -2.1 0.5 -2.5 3 -2.5 2 0 3 -0.5 3 -1.5 0 -1.1 1.1 -1.5 3.6 -1.5 3.2 0 3.5 0.2 2.3 1.6 -1.3 1.6 -5.1 3.7 -9.4 5.4 -2.3 0.9 -2.5 0.7 -2.5 -1.5z"/>
  <path d="M521 170.5 c0 -4 2.4 -4.9 3.4 -1.2 1 3.7 0.7 4.7 -1.4 4.7 -1.6 0 -2 -0.7 -2 -3.5z"/>
  <path d="M658 169 l-3.5 -2.9 3.8 -0.1 c3.5 0 3.7 0.2 3.7 3 0 1.7 -0.1 3 -0.3 3 -0.1 0 -1.8 -1.3 -3.7 -3z"/>
  <path d="M391 169.7 c0 -0.7 2.1 -2 4.8 -2.8 2.6 -0.9 5.5 -1.9 6.5 -2.3 1.4 -0.7 1.7 -0.3 1.7 1.8 0 2.2 -0.4 2.6 -3 2.6 -1.6 0 -3 0.5 -3 1 0 0.6 -1.6 1 -3.5 1 -2.2 0 -3.5 -0.5 -3.5 -1.3z"/>
  <path d="M680 166.5 c0 -2.4 0.1 -2.5 3.2 -1.2 4.6 1.9 4.8 3.7 0.4 3.7 -3.2 0 -3.6 -0.3 -3.6 -2.5z"/>
  <path d="M671.1 162.6 c-0.7 -0.8 -1.1 -2.9 -0.9 -4.6 l0.3 -3.1 4.5 4.5 4.4 4.6 -3.6 0 c-1.9 0 -4.1 -0.6 -4.7 -1.4z"/>
  <path d="M717 160.4 c0.8 -0.8 2.2 -2 3.2 -2.5 1.5 -0.8 1.8 -0.6 1.8 1.6 0 2.1 -0.4 2.5 -3.1 2.5 -2.7 0 -3 -0.2 -1.9 -1.6z"/>
  <path d="M407.3 157.5 c0.6 -1.9 1.6 -3.5 2.4 -3.5 0.8 0 1.3 1.3 1.3 3.5 0 3 -0.3 3.5 -2.4 3.5 -2.3 0 -2.4 -0.2 -1.3 -3.5z"/>
  <path d="M584 157.5 c0 -4 2.4 -4.9 3.4 -1.2 1 3.7 0.7 4.7 -1.4 4.7 -1.6 0 -2 -0.7 -2 -3.5z"/>
  <path d="M647.1 155.8 l-2.1 -4.3 2.1 -0.3 c2.7 -0.5 3.9 1.3 3.9 5.6 0 4.4 -1.4 4 -3.9 -1z"/>
  <path d="M665 149.5 c0 -2.2 0.5 -3.5 1.3 -3.5 0.8 0 1.8 1.6 2.4 3.5 1.1 3.3 1 3.5 -1.3 3.5 -2.1 0 -2.4 -0.5 -2.4 -3.5z"/>
  <path d="M808 149.5 c0 -4 2.4 -4.9 3.4 -1.2 1 3.7 0.7 4.7 -1.4 4.7 -1.6 0 -2 -0.7 -2 -3.5z"/>
  <path d="M643.6 146.8 c-1 -3.8 -0.7 -4.8 1.4 -4.8 1.6 0 2 0.7 2 3.5 0 4 -2.4 4.9 -3.4 1.3z"/>
  <path d="M398.8 142.4 c-3.8 -2 -3.5 -3.4 0.7 -3.4 3.1 0 3.5 0.3 3.5 2.5 0 2.9 -0.5 3 -4.2 0.9z"/>
  <path d="M784.8 140.3 c-3.3 -0.8 -2 -3.3 1.7 -3.3 2.8 0 3.5 0.4 3.5 2 0 2 -1.4 2.3 -5.2 1.3z"/>
  <path d="M382 133 c1.1 -2.8 2 -5.3 2 -5.5 0 -0.3 0.7 -0.5 1.5 -0.5 1 0 1.5 1 1.5 3 0 1.7 -0.4 3 -1 3 -0.5 0 -1 1.1 -1 2.5 0 2 -0.5 2.5 -2.5 2.5 l-2.5 0 2 -5z"/>
  <path d="M63.3 131.6 c0.5 -1.2 0 -1.6 -1.8 -1.6 -2.5 0 -2.5 0 -2.5 -10 0 -6 0.4 -10 1 -10 0.6 0 1 -1.1 1 -2.5 0 -1.8 0.5 -2.5 2 -2.5 1.9 0 2 0.4 1.4 10 -0.6 9 -0.5 10 1 10 2.6 0 1.8 7.3 -0.8 7.8 -1.4 0.3 -1.7 0 -1.3 -1.2z"/>
  <path d="M283.6 131.4 c-1.1 -2.9 -0.7 -6.4 0.9 -6.4 1 0 1.5 -1 1.5 -2.9 0 -1.5 0.3 -4.9 0.6 -7.5 0.6 -4 1 -4.6 3 -4.6 2.4 0 2.4 0.2 2.4 10 0 9.9 0 10 -2.4 10 -1.3 0 -2.6 0.7 -3 1.5 -0.7 2 -2.2 1.9 -3 -0.1z"/>
  <path d="M393 128 c0 -0.5 1.5 -1.7 3.3 -2.6 4.7 -2.4 6.5 -4.3 7.2 -7.5 0.9 -4.2 3.5 -3.8 3.5 0.6 0 3.1 -0.3 3.5 -2.5 3.5 -2.1 0 -2.5 0.5 -2.5 2.9 0 1.7 -0.6 3.1 -1.6 3.5 -2.5 0.9 -7.4 0.7 -7.4 -0.4z"/>
  <path d="M808 124.5 c0 -2.8 0.4 -3.5 2 -3.5 2.1 0 2.4 1 1.4 4.8 -1 3.6 -3.4 2.7 -3.4 -1.3z"/>
  <path d="M666 122.1 c0 -4.2 1 -6.1 3.1 -6.1 1.4 0 1.9 -0.7 1.9 -2.8 0 -3.6 1.6 -5.2 5.2 -5.2 2.1 0 2.8 -0.5 2.8 -2 0 -1.6 0.7 -2 3 -2 1.7 0 3 -0.4 3 -1 0 -0.5 1.6 -1 3.5 -1 4.6 0 4.7 2.6 0.3 3.5 -7.9 1.7 -14.7 7.3 -18.7 15.3 -2.5 4.9 -4.1 5.4 -4.1 1.3z"/>
  <path d="M646.1 119.3 c1.3 -3.8 7.7 -12.1 11.7 -15.1 l3.2 -2.5 0 3.2 c0 2.8 -0.3 3.1 -3 3.1 -2.7 0 -3 0.3 -3 3 0 2.3 -0.4 3 -2 3 -1.4 0 -2 0.7 -2 2.4 0 3.9 -1.1 5.6 -3.6 5.6 -2.1 0 -2.2 -0.3 -1.3 -2.7z"/>
  <path d="M370 114.5 c0 -2.8 0.4 -3.5 2 -3.5 2.1 0 2.4 1 1.4 4.8 -1 3.6 -3.4 2.7 -3.4 -1.3z"/>
  <path d="M584 113.5 c0 -2.8 0.4 -3.5 2 -3.5 2.1 0 2.4 1 1.4 4.8 -1 3.6 -3.4 2.7 -3.4 -1.3z"/>
  <path d="M401.2 108.9 c-1.5 -1.9 -3.9 -3.3 -6.8 -4 -5.4 -1.4 -6 -3.9 -0.9 -3.9 2.4 0 3.5 0.5 3.5 1.4 0 1 1.3 1.6 3.8 1.8 3.5 0.3 3.7 0.5 4 4.1 0.4 4.4 -0.5 4.6 -3.6 0.6z"/>
  <path d="M709.8 107.9 c-4.7 -2.4 -4.9 -3.9 -0.5 -3.8 5.1 0.1 6.6 1 5.6 3.7 -0.5 1.2 -1 2.2 -1.1 2.2 -0.2 -0.1 -2 -1 -4 -2.1z"/>
  <path d="M539.8 106.3 c-3.3 -0.8 -2 -3.3 1.7 -3.3 2.8 0 3.5 0.4 3.5 2 0 2 -1.4 2.3 -5.2 1.3z"/>
  <path d="M62 97.5 c0 -3.8 0.3 -4.5 2 -4.5 2.1 0 2.6 2.3 1.4 6.8 -1.1 4.1 -3.4 2.6 -3.4 -2.3z"/>
  <path d="M351.6 99.8 c-1 -3.8 -0.7 -4.8 1.4 -4.8 1.6 0 2 0.7 2 3.5 0 4 -2.4 4.9 -3.4 1.3z"/>
  <path d="M666.2 99.8 c0.3 -0.7 1.9 -1.8 3.6 -2.5 3.1 -1.3 3.2 -1.2 3.2 1.2 0 2.2 -0.4 2.5 -3.6 2.5 -2.3 0 -3.4 -0.4 -3.2 -1.2z"/>
  <path d="M407 98 c0 -2.2 2 -2.6 5.1 -1 3 1.6 2.3 3 -1.6 3 -2.8 0 -3.5 -0.4 -3.5 -2z"/>
  <path d="M789.6 97.8 c-0.9 -3.5 -0.8 -3.8 1.4 -3.8 1.6 0 2 0.7 2 3 0 3.6 -2.5 4.1 -3.4 0.8z"/>
  <path d="M715 97 c0 -1.4 0.7 -2 2.1 -2 1.5 0 1.9 0.4 1.5 1.6 -0.3 0.9 -0.6 1.8 -0.6 2 0 0.2 -0.7 0.4 -1.5 0.4 -0.8 0 -1.5 -0.9 -1.5 -2z"/>
  <path d="M287 92.3 c0 -6.2 0.9 -9.3 2.6 -9.3 1.1 0 1.4 1.7 1.4 7 0 6.3 -0.2 7 -2 7 -1.7 0 -2 -0.7 -2 -4.7z"/>
  <path d="M63 87.5 c0 -2.8 0.4 -3.5 2 -3.5 2.1 0 2.4 1 1.4 4.8 -1 3.6 -3.4 2.7 -3.4 -1.3z"/>
  <path d="M64 79.5 c0 -2.8 0.4 -3.5 2 -3.5 2.1 0 2.4 1 1.4 4.8 -1 3.6 -3.4 2.7 -3.4 -1.3z"/>
  <path d="M289 67 c0 -7.3 0.2 -8 2 -8 1.8 0 2 0.7 2 5.8 0 7.1 -0.8 10.2 -2.6 10.2 -1.1 0 -1.4 -1.9 -1.4 -8z"/>
  <path d="M67 66.5 c0 -2.4 0.5 -3.5 1.5 -3.5 0.8 0 1.5 -0.6 1.5 -1.4 0 -0.7 1.4 -1.6 3.1 -2 1.7 -0.3 49.7 -0.6 106.5 -0.6 102.7 0 103.4 0 103.4 2 0 2 -0.7 2 -103.9 2 -57.2 0 -104.7 0.3 -105.6 0.6 -0.8 0.4 -2.2 1.9 -3.1 3.5 -2 3.9 -3.4 3.6 -3.4 -0.6z"/>
 </g>
 <g fill="#00a577">
  <path d="M59 269.5 l0 -9.5 3.3 -0.1 c1.7 -0.1 3.5 -0.1 3.9 -0.1 0.3 0.1 0.4 -1.7 0.1 -3.8 -0.5 -3.5 -0.3 -4 1.4 -4 1.8 0 2.1 0.9 2.6 8.3 0.4 4.5 0.7 10.6 0.7 13.5 l0 5.2 -6 0 -6 0 0 -9.5z"/>
  <path d="M285 275.3 c0 -2.1 -0.3 -8.2 -0.7 -13.5 -0.5 -8.7 -0.4 -9.8 1 -9.8 1.2 0 1.9 1.2 2.3 4 0.5 3 1.1 4 2.5 4 1.7 0 1.9 0.9 1.9 9.5 l0 9.5 -3.5 0 c-3.4 0 -3.5 -0.1 -3.5 -3.7z"/>
  <path d="M146 263.7 c0 -2.8 0.4 -3.6 2.4 -4.1 1.3 -0.3 3.2 -0.9 4.3 -1.2 1.1 -0.4 0.7 0.3 -1.2 2.1 l-3 2.6 3 -0.6 c1.7 -0.4 7.1 -2.3 12 -4.2 5 -2 11.2 -3.8 13.8 -4 2.9 -0.3 5.1 -1.1 5.4 -1.9 1 -2.6 2.3 -1.4 2.3 2 0 3.4 0 3.4 -5.2 3.9 -2.9 0.2 -9.6 2.1 -14.8 4.2 -5.2 2.1 -11.6 4 -14.2 4.3 l-4.8 0.5 0 -3.6z"/>
  <path d="M104.5 255.8 c-2.6 -3.5 -5.5 -7.8 -6.4 -9.7 -1 -2.2 -3.2 -4.1 -6.6 -5.8 -10.7 -5.5 -12.5 -7 -12.5 -10.8 0 -3.4 0.1 -3.5 3.8 -3.4 3.4 0 3.5 0.1 1.3 1 -2.1 0.8 -2.3 1.2 -1 2.4 0.8 0.7 4.8 3.2 9 5.4 6.4 3.5 8 4.9 10.3 9 1.4 2.7 4.7 7.1 7.2 9.8 l4.5 4.8 -0.5 -3.4 c-0.5 -2.9 -0.4 -3.2 0.9 -2.1 0.9 0.7 1.5 2.9 1.5 5.1 0 3.8 -0.1 3.9 -3.4 3.9 -3 0 -4 -0.7 -8.1 -6.2z"/>
  <path d="M150.5 255.1 c-4.7 -1.6 -5 -2 -5.3 -5.4 -0.3 -3.6 -0.2 -3.7 3.2 -3.7 1.9 0 4.3 0.3 5.3 0.7 1.3 0.6 0.8 0.9 -2.2 1.3 l-4 0.6 6.3 2.3 c6 2.3 6.2 2.5 4.6 4.2 -2 2.3 -1.7 2.3 -7.9 0z"/>
  <path d="M119.3 249.8 c-5.7 -0.9 -6.3 -1.2 -6.3 -3.4 0 -1.3 0.1 -2.4 0.3 -2.4 0.1 0 3.8 0.7 8.2 1.5 4.4 0.8 9.6 1.4 11.5 1.4 l3.5 0 -2.5 -1.4 -2.5 -1.4 3.3 -0.1 c3 0 3.2 0.2 3.2 3.5 l0 3.5 -6.2 -0.1 c-3.5 -0.1 -9.1 -0.6 -12.5 -1.1z"/>
  <path d="M65.9 247.8 c-0.8 -7 -0.7 -7.8 1.2 -7.8 1.6 0 1.9 0.7 1.9 4.5 0 3.3 -0.4 4.5 -1.5 4.5 -0.8 0 -1.6 -0.6 -1.6 -1.2z"/>
  <path d="M182 247.1 c0 -0.5 1.4 -1.9 3 -3.1 l3 -2.1 0 3 c0 2.8 -0.3 3.1 -3 3.1 -1.6 0 -3 -0.4 -3 -0.9z"/>
  <path d="M91 219.5 c0 -4 2.4 -4.9 3.4 -1.2 1 3.7 0.7 4.7 -1.4 4.7 -1.6 0 -2 -0.7 -2 -3.5z"/>
  <path d="M133 184.5 c0 -4 1.1 -4.5 3.3 -1.2 l1.6 2.2 0 -2.2 c0.1 -3.8 2.1 -2.6 2.1 1.2 0 3.3 -0.2 3.5 -3.5 3.5 -3.3 0 -3.5 -0.2 -3.5 -3.5z"/>
  <path d="M101 183.7 c0 -0.4 14.7 -13 19.3 -16.6 1.5 -1.2 1.7 -1 1.7 1.8 0 2.8 -0.3 3.1 -3 3.1 -2.5 0 -3 0.4 -3 2.5 0 2.2 -0.4 2.5 -3.4 2.5 -3.2 0 -3.5 0.3 -3.8 3.3 -0.3 2.9 -0.6 3.2 -4 3.5 -2.1 0.2 -3.8 0.1 -3.8 -0.1z"/>
  <path d="M100 174.5 c0 -3.1 0.3 -3.5 2.5 -3.5 3 0 3 0.3 0.8 4.1 -2.3 3.8 -3.3 3.7 -3.3 -0.6z"/>
  <path d="M125.4 163.3 c2.8 -2.4 3 -2.4 3.7 -0.7 1.3 3.2 1 3.4 -2.8 3.4 l-3.8 -0.1 2.9 -2.6z"/>
  <path d="M111 158.8 c0 -3.6 0.2 -3.8 3 -3.8 2.3 0 3 -0.4 3 -2 0 -1.6 -0.7 -2 -3 -2 -2.3 0 -3 -0.4 -3 -2 0 -1.1 0.7 -2 1.5 -2 1.7 0 8.5 3.1 8.5 3.9 -0.1 0.3 -2.3 3.1 -5 6.1 l-5 5.5 0 -3.7z"/>
  <path d="M186 158 c0 -0.5 -0.7 -1 -1.5 -1 -0.8 0 -1.5 -0.4 -1.5 -1 0 -0.5 1.4 -0.7 3.3 -0.4 l3.2 0.6 -2.5 -2.1 c-1.4 -1.1 -2.8 -2.1 -3.2 -2.1 -0.5 0 -0.8 -0.4 -0.8 -1 0 -0.5 1.6 -1 3.5 -1 1.9 0 3.5 0.5 3.5 1 0 0.6 0.7 1 1.5 1 1 0 1.5 1.1 1.5 3.5 0 3.3 -0.2 3.5 -3.5 3.5 -1.9 0 -3.5 -0.4 -3.5 -1z"/>
  <path d="M157 155.6 c0 -0.8 1.4 -1.7 3 -2.1 4 -0.9 9 0.3 9 2.1 0 1 -1.5 1.4 -6 1.4 -4.5 0 -6 -0.4 -6 -1.4z"/>
  <path d="M251 155.8 c0 -3 1.3 -5.8 2.6 -5.8 0.9 0 1.4 1.2 1.4 3.5 0 2.8 -0.4 3.5 -2 3.5 -1.1 0 -2 -0.6 -2 -1.2z"/>
  <path d="M178.3 149.5 c-4.3 -1.8 -4.2 -3.5 0.2 -3.5 3.1 0 3.5 0.3 3.5 2.5 0 1.4 -0.1 2.5 -0.2 2.5 -0.2 -0.1 -1.8 -0.7 -3.5 -1.5z"/>
  <path d="M95.2 144 c0.2 -2.7 -0.1 -4.1 -1 -4.5 -0.8 -0.3 -7.2 -0.5 -14.3 -0.5 l-12.9 0 0 2.5 c0 1.9 -0.5 2.5 -2.1 2.5 -1.9 0 -2 -0.5 -1.8 -7.1 0.1 -4 0.4 -8.2 0.7 -9.6 l0.4 -2.3 76.4 0.1 c42 0 76.4 0.2 76.4 0.5 0 0.2 -2.5 3.3 -5.5 6.9 -3.1 3.6 -5.3 6.5 -5 6.5 0.3 0 4 -2 8.3 -4.4 7.7 -4.4 25.8 -13.6 26.6 -13.6 0.7 0 3.5 9.1 4.2 13.8 l0.7 4.3 -17.4 0 c-50.5 -0.1 -72.2 0.4 -72.7 1.7 -0.5 1.7 -4.2 1.5 -4.2 -0.3 0 -0.8 1.3 -3.7 3 -6.5 2.5 -4.3 2.7 -5 1.2 -5 -2 0 -14.2 5.8 -18.7 8.9 -2.5 1.7 -4.5 2.1 -12.2 2.1 -5 0 -12.6 0.7 -16.9 1.5 -8.9 1.7 -11.9 3.5 -5.8 3.5 l3.9 0 -2.9 1.5 c-1.5 0.8 -4.2 1.5 -5.8 1.5 -2.9 0 -3 -0.1 -2.6 -4z m145.8 -20.2 c0 -0.6 -0.7 -0.7 -1.6 -0.4 -0.9 0.3 -1.8 0.6 -2 0.6 -0.3 0 -0.3 0.4 0.1 1 0.7 1.1 3.5 0.2 3.5 -1.2z"/>
  <path d="M168.3 145.8 c-4.5 -1.5 -4.3 -3.8 0.2 -3.8 3.1 0 3.5 0.3 3.5 2.5 0 1.4 -0.1 2.5 -0.2 2.4 -0.2 -0.1 -1.8 -0.6 -3.5 -1.1z"/>
  <path d="M254 143 c0 -0.5 0.4 -3.1 0.9 -5.7 0.5 -2.6 1.2 -6.5 1.6 -8.5 l0.6 -3.8 14.3 0 c16.4 0 15.9 -0.3 14.9 9.4 l-0.5 5.2 -13.9 -0.4 -13.9 -0.5 0 2.7 c0 1.9 -0.5 2.6 -2 2.6 -1.1 0 -2 -0.4 -2 -1z"/>
  <path d="M173 123.3 c0 -0.6 2.1 -1.3 4.8 -1.7 16.9 -2.4 27 -3.6 29.6 -3.5 l3.1 0.1 -3 0.8 c-1.6 0.5 -8.8 1.6 -16 2.5 -7.1 0.8 -14.2 1.8 -15.7 2.1 -1.6 0.4 -2.8 0.2 -2.8 -0.3z"/>
  <path d="M212 118 c0.8 -0.5 3.8 -1 6.5 -1 3.6 0 4.6 0.3 3.5 1 -0.8 0.5 -3.7 1 -6.5 1 -3.6 0 -4.6 -0.3 -3.5 -1z"/>
  <path d="M216.5 100.4 c-3.8 -2.5 -7.7 -4.9 -8.5 -5.4 -0.8 -0.5 -1.2 -1.1 -0.9 -1.4 0.5 -0.6 14.3 7.6 16.9 10 2.9 2.8 -0.6 1.3 -7.5 -3.2z"/>
  <path d="M198.5 90.2 c-3.8 -2 -7.2 -3.8 -7.4 -3.9 -0.2 -0.2 -0.2 -0.6 0.2 -0.9 0.7 -0.8 14.7 6.6 14.7 7.7 0 1.2 0.5 1.4 -7.5 -2.9z"/>
 </g>
 <g fill="#009d6a">
  <path d="M59 284 l0 -8 4.6 0 4.7 0 -0.6 -7.5 c-0.6 -7 -0.5 -7.5 1.3 -7.5 1.4 0 2 0.7 2 2.3 0 1.2 0.3 3.2 0.6 4.5 l0.6 2.2 105.9 0 105.9 0 0 -5.5 c0 -4 0.4 -5.5 1.4 -5.5 1.8 0 2.6 3.1 2.6 10.8 0 5.5 0.2 6.2 2 6.2 1.8 0 2 0.7 2 8 l0 8 -116.5 0 -116.5 0 0 -8z"/>
  <path d="M145 263.6 c0 -3.1 0.3 -3.6 2.4 -3.6 1.3 0 3.3 -0.3 4.3 -0.7 1.2 -0.4 1 0 -0.7 1.4 -4.2 3.6 -1.7 3.5 8.4 -0.1 l9.6 -3.4 0 2.4 c0 1.9 -0.5 2.4 -2.5 2.4 -1.4 0 -2.5 0.4 -2.5 0.8 0 1.2 -6.3 3 -13.2 3.8 l-5.8 0.7 0 -3.7z"/>
  <path d="M110 260.6 c0 -0.8 -1 -1.6 -2.2 -1.8 -1.5 -0.2 -2.4 -1.1 -2.6 -2.5 -0.2 -1.3 -1 -2.3 -1.8 -2.3 -0.8 0 -1.4 -0.7 -1.4 -1.5 0 -0.8 -0.4 -1.5 -1 -1.5 -0.5 0 -1 -1.6 -1 -3.5 0 -1.9 0.3 -3.5 0.8 -3.5 0.4 0 1.9 1.9 3.4 4.3 1.6 2.3 4.1 5.8 5.8 7.7 2.9 3.4 3 3.4 3.6 1.3 1 -3.7 3.4 -2.8 3.4 1.2 0 3.3 -0.2 3.5 -3.5 3.5 -2.4 0 -3.5 -0.5 -3.5 -1.4z"/>
  <path d="M154 256 c0 -0.5 -1.3 -1 -3 -1 -2.5 0 -3 -0.4 -3 -2.5 0 -2.5 0 -2.5 3.8 -1.1 2 0.8 4.5 1.7 5.6 2 1.5 0.5 1.6 0.9 0.6 2.1 -1.4 1.7 -4 2 -4 0.5z"/>
  <path d="M179 256 c0 -0.5 0.7 -1 1.5 -1 0.8 0 1.7 -1.1 2.1 -2.5 1 -3.9 3.4 -3.1 3.4 1 0 3.3 -0.2 3.5 -3.5 3.5 -1.9 0 -3.5 -0.4 -3.5 -1z"/>
  <path d="M120.3 250.3 c-2.5 -0.3 -3.3 -0.9 -3.3 -2.5 0 -1.8 0.4 -1.9 4.3 -1.3 8.3 1.2 9.7 1.7 9.7 3.1 0 1.4 -3.2 1.6 -10.7 0.7z"/>
  <path d="M84 235.5 c0 -0.9 -0.9 -1.5 -2.5 -1.5 -2.2 0 -2.5 -0.4 -2.5 -3.5 0 -2.8 0.4 -3.5 2 -3.5 1.3 0 1.8 0.5 1.4 1.5 -0.4 0.9 0.9 2.4 4 4.2 2.5 1.5 4.6 3.1 4.6 3.5 0 0.5 -1.6 0.8 -3.5 0.8 -2.4 0 -3.5 -0.5 -3.5 -1.5z"/>
  <path d="M91 220.5 c0 -4.2 2.4 -4.9 3.4 -1 0.8 3 0.1 4.5 -2 4.5 -0.9 0 -1.4 -1.1 -1.4 -3.5z"/>
  <path d="M91 201.5 c0 -2.8 0.4 -3.5 2 -3.5 2.1 0 2.4 1 1.4 4.8 -1 3.6 -3.4 2.7 -3.4 -1.3z"/>
  <path d="M130.1 180.4 c-1.7 -4.7 -3.1 -9.2 -3.1 -10.1 0 -1 -0.6 -1.3 -1.6 -0.9 -0.9 0.3 -2.1 0.6 -2.9 0.6 -0.7 0 -1.5 0.9 -1.8 2 -0.3 1.3 -1.4 2 -3 2 -1.9 0 -2.6 0.6 -2.9 2.3 -0.2 1.8 -1 2.3 -4 2.5 -3.5 0.3 -3.8 0.6 -3.8 3.3 0 3.3 -1.4 4.2 -5.6 3.7 -2.6 -0.3 -2 -1 8.2 -9.7 6 -5.1 12.7 -10.6 15 -12.1 l4 -2.8 3.9 11.9 c3.7 11.2 5.5 14.5 5.5 9.8 0 -1.1 0.5 -1.7 1 -1.4 0.6 0.3 1 2.2 1 4.1 0 3.2 -0.2 3.4 -3.4 3.4 -3.4 0 -3.4 -0.1 -6.5 -8.6z"/>
  <path d="M103 169.5 c0 -1.9 0.5 -3.5 1 -3.5 0.6 0 1 -0.7 1 -1.5 0 -0.8 0.5 -1.5 1 -1.5 0.6 0 1 -0.7 1 -1.5 0 -0.8 0.7 -1.5 1.5 -1.5 0.8 0 1.5 -0.9 1.5 -2 0 -1.5 0.7 -2 2.5 -2 3.4 0 3.2 -2.6 -0.2 -3.3 -1.6 -0.4 -12.4 -0.9 -24 -1.3 -19.5 -0.7 -21.3 -0.6 -21.3 0.9 0 1 -0.8 1.7 -2 1.7 -1.7 0 -2 -0.7 -2 -5.2 0 -2.9 0.3 -7 0.6 -9.1 l0.7 -3.8 36.8 0.3 c20.3 0.1 36.9 0.4 36.9 0.6 0 0.3 -0.8 1.1 -1.7 1.8 -1.2 0.9 -5 1.3 -11.5 1.4 -9.6 0 -24.4 2.2 -26 3.8 -0.5 0.5 1.6 1.2 4.9 1.5 7.1 0.8 15.3 3.5 16 5.3 0.3 0.8 -1.3 3.4 -3.5 5.9 -2.2 2.6 -5.8 7.3 -7.9 10.6 -2.1 3.2 -4.1 5.9 -4.5 5.9 -0.5 0 -0.8 -1.6 -0.8 -3.5z"/>
  <path d="M142 166.7 c0 -0.7 0.7 -3.5 1.6 -6.1 1.2 -3.4 2.4 -5 4.3 -5.7 3.4 -1.4 25.8 -1.3 33.6 0.1 8.3 1.4 9.5 1.2 6.3 -0.8 -1.6 -0.9 -2.8 -2 -2.8 -2.4 0 -0.5 -0.6 -0.8 -1.4 -0.8 -0.7 0 -4.5 -1.3 -8.3 -2.9 -3.8 -1.6 -10.3 -3.7 -14.4 -4.7 -8.8 -2.1 -9.4 -2.6 -8 -5.2 1 -1.9 2.1 -2 28.2 -2 23.4 -0.1 26.9 0.1 25.9 1.4 -1.8 2.1 -1.1 1.8 9.4 -3.7 5.3 -2.8 9.6 -4.8 9.6 -4.5 0 0.3 -2.2 1.7 -5 3.1 -2.7 1.4 -5 2.8 -5 3 0 0.3 6.5 0.5 14.5 0.5 l14.5 0 -0.5 -3.2 -0.5 -3.3 1 3 c0.8 2.5 2.7 19.8 3.1 28 0 1.6 0.4 1.4 1.4 -1 l1.4 -3 0.1 4.8 0 4.7 -3.5 0 -3.5 0 0 -6.5 c0 -6.3 -0.1 -6.5 -2.5 -6.5 -1.4 0 -2.5 -0.4 -2.5 -1 0 -0.6 -8.5 -1 -23.5 -1 l-23.5 0 0 4.6 0 4.7 -8.2 -0.6 c-4.6 -0.4 -11.9 -0.9 -16.4 -1.3 -4.5 -0.4 -10.6 -0.4 -13.6 0 -5.6 0.7 -5.6 0.7 -6.8 5.2 -0.9 3.2 -1.8 4.4 -3.1 4.4 -1.1 0 -1.9 -0.6 -1.9 -1.3z"/>
  <path d="M282 159.6 l0 -7.3 -3.7 -0.7 c-2.1 -0.3 -8.8 -0.6 -14.9 -0.6 l-11.1 0 1.6 -7.5 1.5 -7.6 15.3 0.2 15.3 0.1 0 15.4 c0 14.7 -0.1 15.4 -2 15.4 -1.8 0 -2 -0.7 -2 -7.4z"/>
  <path d="M241.8 125 c-0.9 -2.2 -1.5 -4 -1.3 -4 0.8 0 3.6 6.1 3.3 7 -0.2 0.5 -1.1 -0.9 -2 -3z"/>
  <path d="M183.5 121 c6.4 -1.3 35.1 -4.2 37.7 -3.8 1.3 0.2 -2 0.8 -7.2 1.2 -5.2 0.4 -14.4 1.4 -20.5 2.2 -11.8 1.5 -16.5 1.7 -10 0.4z"/>
  <path d="M218.6 101.5 c-2.6 -1.8 -9.9 -6.1 -16.2 -9.5 -10.7 -5.8 -13.8 -7.8 -9.6 -6.3 5.5 2.1 32.2 17.7 32.2 18.9 0 0.9 -1.9 0 -6.4 -3.1z"/>
 </g>
 <g fill="#009366">
  <path d="M68.6 270.3 c-1 -4.3 -2.5 -17.4 -2.6 -21 0 -2.6 0.4 -3.3 2 -3.3 1.8 0 2 0.7 2 5.5 l0 5.5 16.5 0 c15.8 0 16.5 -0.1 16.5 -2 0 -1.1 -0.4 -2 -1 -2 -0.5 0 -1 -1.1 -1 -2.5 0 -1.4 -0.6 -2.5 -1.3 -2.5 -0.8 0 -1.9 -1.1 -2.5 -2.5 -0.6 -1.4 -3.4 -3.6 -6.4 -5.1 -2.9 -1.5 -5.4 -3 -5.6 -3.5 -0.2 -0.5 -0.9 -0.9 -1.6 -0.9 -2.6 0 -5.6 -3.7 -5.6 -6.9 0 -2.4 0.4 -3.1 2 -3.1 1.1 0 2 -0.7 2 -1.5 0 -1 1.1 -1.5 3.5 -1.5 1.9 0 3.5 0.5 3.5 1.1 0 0.5 -1.6 1.7 -3.5 2.5 -1.9 0.8 -3.5 2 -3.5 2.7 0 0.8 3.9 3.4 8.8 6 7.6 4 9 5.2 10.8 8.9 2.5 5 10 14.8 11.4 14.8 0.6 0 1 -0.8 1 -1.8 0 -1.7 0.5 -1.8 4.8 -1.1 5.8 1 19.9 1 26.7 0 4.5 -0.6 4.7 -0.7 2.3 -1.4 -2.4 -0.6 -2.8 -1.3 -2.8 -4.2 0 -3.3 0.2 -3.5 3.5 -3.5 2.3 0 3.5 -0.5 3.5 -1.4 0 -0.9 1.8 -1.5 5.3 -2 7.5 -0.9 8.7 -0.8 8.7 0.8 0 1.6 -2.2 2.3 -11.3 3.2 -8.1 0.8 -8.2 2.1 -0.7 4.8 l5.3 2 -3.3 2.5 c-1.9 1.4 -4.5 3.6 -5.9 4.9 l-2.6 2.3 3.5 -0.6 c1.9 -0.4 7.3 -2.3 12 -4.2 4.7 -2 10.9 -3.8 13.9 -4 4.2 -0.4 5.4 -0.9 5.8 -2.4 0.8 -3.1 3.3 -2.3 3.3 1.1 l0 3 50.5 0 50.5 0 0 8 0 8 -108.9 0 -108.9 0 -0.6 -2.7z"/>
  <path d="M119.5 250.3 c-1.1 -0.2 -3 -0.6 -4.2 -0.9 -1.5 -0.3 -2.3 -1.2 -2.3 -2.4 0 -2.3 0.2 -2.3 5 -1.1 1.9 0.5 5.2 1.2 7.3 1.6 2.3 0.3 3.7 1.1 3.7 2 0 1.5 -4.6 1.9 -9.5 0.8z"/>
  <path d="M283 239.5 c0 -9.1 0.3 -11.5 1.4 -11.5 2 0 2.6 3.2 2.6 13.8 0 8.5 -0.1 9.2 -2 9.2 -1.9 0 -2 -0.7 -2 -11.5z"/>
  <path d="M182 248.6 c0 -0.9 3.6 -5 8 -9.2 7.9 -7.6 9.8 -10.5 4.3 -6.7 -6.9 4.9 -7.9 4.7 -3.3 -0.4 3.6 -4.1 5.2 -5.1 7.8 -5.2 3 -0.1 3.2 0.1 3.2 3.5 0 3 -0.9 4.5 -5.2 9 -3.2 3.2 -6.2 5.4 -7.5 5.4 -1.5 0 -2.3 0.7 -2.5 2.3 -0.4 2.6 -4.8 3.8 -4.8 1.3z"/>
  <path d="M65.6 242.8 c-1.2 -4.5 -0.7 -6.8 1.4 -6.8 1.7 0 2 0.7 2 4.5 0 4.9 -2.3 6.4 -3.4 2.3z"/>
  <path d="M168 241.6 c0 -3.3 0.2 -3.6 3.1 -3.6 l3 0 -2.1 3 c-3.1 4.4 -4 4.5 -4 0.6z"/>
  <path d="M118 236 l-3.5 -2.9 3.8 -0.1 c3.5 0 3.7 0.2 3.7 3 0 1.7 -0.1 3 -0.3 3 -0.1 0 -1.8 -1.3 -3.7 -3z"/>
  <path d="M180.4 235.5 c-0.6 -3.4 -0.7 -3.5 -2.5 -1.9 -1.8 1.6 -1.9 1.6 -1.9 -1.9 0 -3.5 0.2 -3.7 3.4 -3.7 3 0 3.4 0.4 4 3.1 1 5.2 0.7 7.9 -0.9 7.9 -0.8 0 -1.7 -1.4 -2.1 -3.5z"/>
  <path d="M65 229.3 c-0.1 -0.5 -0.3 -3.8 -0.6 -7.5 -0.5 -6.4 -0.5 -6.8 1.5 -6.8 1.9 0 2.1 0.6 2.1 7.5 0 6 -0.3 7.5 -1.5 7.5 -0.8 0 -1.5 -0.3 -1.5 -0.7z"/>
  <path d="M118 227.4 c0 -1.2 3.4 -6.4 4.2 -6.4 0.4 0 0.8 1.6 0.8 3.5 0 3.1 -0.3 3.5 -2.5 3.5 -1.4 0 -2.5 -0.3 -2.5 -0.6z"/>
  <path d="M91 221.5 c0 -3 2.5 -3.4 3.3 -0.6 0.5 2.2 0 3.1 -2 3.1 -0.7 0 -1.3 -1.1 -1.3 -2.5z"/>
  <path d="M103.6 217.8 c-1.4 -3.1 -1.3 -3.3 0.6 -3.6 1.2 -0.2 2.5 0.3 2.9 1.1 0.6 1.1 2 1.3 5.4 0.9 3.6 -0.4 4.5 -0.2 4.5 1.1 0 0.9 -1.2 1.8 -3 2.1 -1.6 0.3 -4.4 0.9 -6 1.2 -2.7 0.5 -3.2 0.2 -4.4 -2.8z"/>
  <path d="M282 192.5 l0 -16.5 -66.4 0 c-36.5 0 -67.7 0.3 -69.4 0.6 -2.9 0.6 -3.2 1.1 -4.3 6.5 -1.1 5.8 -1.2 5.9 -4.5 5.9 -3.1 0 -3.4 -0.3 -3.4 -3 0 -2.3 -0.4 -3 -2 -3 -1.5 0 -2 -0.7 -2 -3 0 -2.5 -0.4 -3 -3.5 -3.6 -2 -0.3 -6.2 0 -9.5 0.7 -4.7 1 -6 1.7 -6.2 3.3 -0.2 1.6 -1.2 2.2 -4 2.4 -3.4 0.3 -3.8 0.6 -3.8 3.2 0 3 -1.4 4 -6.1 4 -2.7 0 -2.9 -0.3 -2.9 -3.7 0.1 -2.1 0.7 -4.9 1.5 -6.3 0.8 -1.4 1.4 -2.8 1.5 -3.2 0 -0.5 -7.6 -0.8 -17 -0.8 l-17 0 0 -4.5 0 -4.5 13.8 0 c7.5 0 17.4 -0.5 22 -1.2 4.5 -0.6 8.5 -0.8 8.9 -0.4 0.4 0.4 0.1 1.7 -0.7 2.9 -3.1 4.9 -9.2 16.8 -8.8 17.2 0.2 0.2 5.3 -3.9 11.3 -9 10.5 -9 11.2 -9.5 15.8 -9.5 2.6 0 4.7 0.4 4.7 0.9 0 2.1 6.3 18.2 6.9 17.6 0.3 -0.4 1.7 -5.2 3.1 -10.8 1.9 -7.7 2.9 -10.3 4.3 -10.5 1 -0.2 1.7 0.3 1.7 1.2 0 1.4 5.5 1.6 53 1.6 46.4 0 53 -0.2 53 -1.5 0 -1 1.1 -1.5 3.5 -1.5 2.4 0 3.5 0.5 3.5 1.5 0 1.2 1.9 1.5 11.5 1.5 l11.5 0 0 -3 c0 -3.6 2.5 -4.1 3.4 -0.7 0.3 1.2 0.6 12 0.6 24 0 21 -0.1 21.7 -2 21.7 -1.9 0 -2 -0.7 -2 -16.5z"/>
  <path d="M98.6 204.8 c-1 -3.8 -0.7 -4.8 1.4 -4.8 1.6 0 2 0.7 2 3.5 0 4 -2.4 4.9 -3.4 1.3z"/>
  <path d="M91 199.5 c0 -3.8 0.3 -4.5 2 -4.5 2.1 0 2.6 2.3 1.4 6.8 -1.1 4.1 -3.4 2.6 -3.4 -2.3z"/>
  <path d="M63.6 197.8 c-0.3 -1.3 -0.6 -5.3 -0.6 -9 0 -6.1 0.2 -6.8 2 -6.8 1.9 0 2 0.7 2 9 0 7 -0.3 9 -1.4 9 -0.7 0 -1.6 -1 -2 -2.2z"/>
  <path d="M59 100.5 c0 -10.3 0.3 -12.5 1.5 -12.5 1.3 0 3.5 -5.5 3.5 -8.9 0 -0.8 0.5 -4.3 1.1 -7.8 1 -5.6 1.4 -6.3 3.4 -6.3 2.3 0 2.3 0.1 1 4.5 -1.2 3.8 -2.9 16.3 -5.1 38.3 -0.5 4.7 -0.8 5.2 -3 5.2 l-2.4 0 0 -12.5z"/>
  <path d="M287.3 99.3 c0.3 -7.6 0.6 -13.9 0.6 -14 0.1 -0.2 0.7 -0.3 1.5 -0.3 2 0 2.6 3.3 2.6 16.3 l0 11.7 -2.6 0 -2.6 0 0.5 -13.7z"/>
  <path d="M286.9 68.1 c-1.4 -3.2 -2.4 -4.2 -5.8 -5.2 -4.7 -1.4 -5.6 -3.9 -1.3 -3.9 4.2 0 7.2 1.1 7.2 2.6 0 0.8 0.6 1.4 1.4 1.4 1.7 0 2.6 2.2 2.6 6.1 0 4.1 -2.2 3.6 -4.1 -1z"/>
  <path d="M73 61 c0 -1.6 0.7 -2 3.5 -2 4 0 4.9 2.4 1.3 3.4 -3.8 1 -4.8 0.7 -4.8 -1.4z"/>
 </g>
 <g fill="#00965e">
  <path d="M91 199.5 c0 -2.8 0.4 -3.5 2 -3.5 1.5 0 1.9 0.5 1.6 2.3 -0.3 1.2 -0.5 2.8 -0.5 3.5 -0.1 0.6 -0.8 1.2 -1.6 1.2 -1 0 -1.5 -1.1 -1.5 -3.5z"/>
  <path d="M95 187 c0 -2.8 2.5 -7 4.2 -7 0.5 0 0.1 1.4 -0.7 3.1 -2.1 3.9 -1.5 4.5 1.7 1.7 1.4 -1.3 4.4 -3.9 6.7 -5.8 2.3 -1.9 5.3 -4.6 6.7 -6 1.4 -1.4 2.2 -1.8 1.9 -1 -0.4 1.3 0.3 1.5 3.7 1.3 2.4 -0.2 3.7 0 3.1 0.3 -0.7 0.3 -1.3 1.2 -1.3 2 0 1 -1.2 1.4 -3.9 1.4 -3 0 -4 0.4 -4.4 2 -0.4 1.5 -1.4 2 -4.1 2 -3.3 0 -3.6 0.3 -3.6 2.8 0 3.5 -3.1 6.2 -7 6.2 -2.7 0 -3 -0.3 -3 -3z"/>
  <path d="M132.1 186.9 c-0.6 -1.8 -1.1 -4 -1.1 -5 0 -1.1 -0.4 -1.9 -0.9 -1.9 -0.5 0 -1.2 -1.2 -1.6 -2.7 -0.3 -1.5 -1.2 -3.1 -1.8 -3.5 -0.7 -0.5 0.2 -0.7 2 -0.6 2.5 0.2 3.3 0.8 3.8 2.8 1 3.9 3.8 10 4.7 10 0.4 0 0.8 -0.9 0.8 -2.1 0 -1.1 0.5 -1.7 1 -1.4 0.6 0.3 1 2.2 1 4.1 0 3.2 -0.2 3.4 -3.4 3.4 -2.9 0 -3.6 -0.4 -4.5 -3.1z"/>
  <path d="M101 174.3 c0 -0.9 0.3 -1.3 0.7 -1 0.3 0.4 1.3 0.1 2.1 -0.6 1.3 -1.1 1.4 -0.9 0.1 1.1 -1.6 2.6 -2.9 2.9 -2.9 0.5z"/>
  <path d="M140 174.6 c0 -1.9 1.7 -2.9 2.5 -1.6 0.4 0.6 1.1 0.8 1.6 0.5 0.5 -0.4 0.9 0.1 0.9 0.9 0 1 -0.9 1.6 -2.5 1.6 -1.5 0 -2.5 -0.6 -2.5 -1.4z"/>
  <path d="M94.8 173.3 c1.2 -0.2 3 -0.2 4 0 0.9 0.3 -0.1 0.5 -2.3 0.4 -2.2 0 -3 -0.2 -1.7 -0.4z"/>
  <path d="M278.8 173.3 c1.2 -0.2 3 -0.2 4 0 0.9 0.3 -0.1 0.5 -2.3 0.4 -2.2 0 -3 -0.2 -1.7 -0.4z"/>
  <path d="M79.8 170.2 l-16.8 -0.2 0 -8.8 c0 -4.8 0.3 -9.7 0.6 -11 l0.7 -2.3 23.1 0.2 c22 0.3 30.5 1.2 31.3 3.6 0.2 0.5 -1.9 3.8 -4.7 7.4 -8.5 10.8 -10.2 12.6 -9.5 10.5 0.6 -1.9 0.5 -1.9 -1.3 -0.3 -1 0.9 -2.2 1.4 -2.6 1 -0.9 -0.9 -2.9 -1.1 -3.6 -0.3 -0.3 0.3 -8 0.4 -17.2 0.2z"/>
  <path d="M118 169.8 c0 -0.7 8.8 -7.3 9.8 -7.3 0.3 0 1.1 1.8 1.8 4 l1.1 4 -6.3 0 c-3.5 0 -6.4 -0.3 -6.4 -0.7z"/>
  <path d="M210.8 170.2 c-45.4 -0.1 -69.8 -0.6 -69.8 -1.2 0 -0.6 0.5 -1 1.1 -1 0.5 0 0.8 -0.4 0.5 -0.8 -0.3 -0.5 0.2 -3.2 1.1 -5.9 1.5 -4.6 1.9 -5.1 5.2 -5.7 5.8 -0.9 20.8 -0.7 30.3 0.5 11.8 1.5 13.4 0.2 4.9 -4 -3.3 -1.7 -6.1 -3.3 -6.1 -3.6 0 -0.2 15.3 -0.4 33.9 -0.4 38.4 0 35.1 -0.9 35.1 9 0 7.6 1.3 6.9 4.1 -2.2 l2.1 -7 15.9 0.2 15.9 0.1 0 10.8 c0 10.4 -0.1 10.8 -2.2 11.1 -1.3 0.2 -33.7 0.3 -72 0.1z"/>
  <path d="M220.5 102.4 c-5.1 -3.4 -6.9 -5.2 -2.9 -2.9 3.5 2 8.2 5.4 7.4 5.5 -0.3 0 -2.3 -1.2 -4.5 -2.6z"/>
  <path d="M199.8 90.4 c-4.9 -2.4 -8.8 -4.6 -8.8 -4.9 0 -0.3 4.1 1.5 9 4 5 2.5 9 4.7 9 5 0 0.7 0.5 0.9 -9.2 -4.1z"/>
 </g>
 <g fill="#008a56">
  <path d="M107.5 260.2 c-0.2 -0.2 -9.4 -0.3 -20.4 -0.2 l-20.1 0.1 0 -3.9 0 -3.9 18 0.5 c13 0.3 18 0.2 18 -0.7 0 -2 2.1 -1.1 4.8 2.1 3.8 4.4 4.4 6.4 2 6.4 -1 0 -2.1 -0.2 -2.3 -0.4z"/>
  <path d="M116.3 259.9 c-1.3 -0.5 -2.3 -1.7 -2.3 -2.8 0 -1.1 -0.2 -2.6 -0.5 -3.3 -0.5 -1.1 2.2 -1.3 15.2 -1 8.7 0.2 16.9 0 18.2 -0.6 1.7 -0.6 3.9 -0.4 7.1 0.7 l4.7 1.6 -3.3 2.6 c-3.3 2.6 -3.7 2.6 -19.5 2.8 -8.9 0.1 -16.5 0.3 -16.8 0.5 -0.3 0.2 -1.6 0 -2.8 -0.5z"/>
  <path d="M168 258.1 c1.9 -1 6.1 -2.2 9.4 -2.6 l5.8 -0.7 -0.6 -3.8 c-0.6 -3.6 -0.3 -4 4.7 -8.5 5.2 -4.6 5.2 -4.6 5.5 -2.1 0.4 3 -1.8 5.6 -4.7 5.6 -2.1 0 -2.7 2.2 -1.5 5.4 0.5 1.4 5.8 1.6 48.5 1.6 31.3 0 47.9 -0.3 47.9 -1 0 -0.5 0.9 -1 2 -1 1.7 0 2 0.7 2 4.5 l0 4.5 -61.2 -0.1 c-59.7 0 -61.2 -0.1 -57.8 -1.8z"/>
  <path d="M129 250.1 c0 -1.6 0.6 -2.1 2.8 -2.1 3.9 0 4.7 -1.1 2 -2.7 -2.2 -1.2 -2.1 -1.2 1.5 -1.3 3.8 0 3.8 0 3.5 3.8 -0.3 3.7 -0.3 3.7 -5 4 -4.3 0.3 -4.8 0.1 -4.8 -1.7z"/>
  <path d="M120 249 c0 -2.1 1 -2.4 4.8 -1.4 3.6 1 2.7 3.4 -1.3 3.4 -2.8 0 -3.5 -0.4 -3.5 -2z"/>
  <path d="M99 246.5 c0 -4.3 1 -4.4 3.3 -0.6 2.2 3.8 2.2 4.1 -0.8 4.1 -2.2 0 -2.5 -0.4 -2.5 -3.5z"/>
  <path d="M283 243 c0 -4.6 0.3 -6 1.5 -6 1.5 0 2.6 4.6 2.2 9.2 -0.1 1.9 -0.8 2.8 -1.9 2.8 -1.5 0 -1.8 -1 -1.8 -6z"/>
  <path d="M90 212.5 c0 -6.8 0.2 -7.5 2 -7.5 1.8 0 2 0.7 2 7.5 0 6.8 -0.2 7.5 -2 7.5 -1.8 0 -2 -0.7 -2 -7.5z"/>
  <path d="M90.8 199.8 c-0.3 -0.9 -4.2 -1.4 -13.6 -1.7 l-13.2 -0.3 0 -3.2 c0 -1.8 -0.3 -7.4 -0.7 -12.5 l-0.6 -9.2 20.6 0.2 20.5 0.2 -3.5 6.4 c-1.9 3.5 -3.3 6.6 -3 6.9 0.3 0.3 4.1 -2.5 8.5 -6.3 l7.9 -6.9 7.9 -0.2 c4.4 -0.1 8.4 0.1 9 0.5 0.5 0.5 2.1 3.6 3.3 7 1.3 3.5 2.7 6.1 3.1 5.8 0.4 -0.3 1.3 -3.4 2 -7 l1.2 -6.5 72.4 0 72.4 0 0 12.5 0 12.5 -88.7 0 c-48.9 0 -91.2 0.3 -94 0.6 -4.9 0.6 -5.3 0.5 -5.3 -1.4 0 -3.6 -1.7 -3.4 -2.4 0.3 -0.7 3.4 -3 4.8 -3.8 2.3z"/>
  <path d="M59 88.6 c0 -1.6 0.7 -2.6 2.3 -3 4.1 -1.1 4.7 -0.7 4.5 2.4 -0.2 2.7 -0.6 3 -3.5 3 -2.8 0 -3.3 -0.4 -3.3 -2.4z"/>
  <path d="M288 88.5 c0 -1.8 0.5 -2.5 2 -2.5 1.5 0 2 0.7 2 2.5 0 1.8 -0.5 2.5 -2 2.5 -1.5 0 -2 -0.7 -2 -2.5z"/>
  <path d="M72 61.4 c0 -2.1 0.5 -2.4 3.5 -2.4 2.2 0 3.5 0.5 3.5 1.3 0 0.8 -1.6 1.8 -3.5 2.4 -3.3 1.1 -3.5 1 -3.5 -1.3z"/>
 </g>
 <g fill="#008353">
  <path d="M67.5 254.7 c-0.5 -1.3 -2.5 -18.1 -2.5 -20.9 0 -1.1 0.8 -1.8 2 -1.8 1.7 0 2 0.7 2 4.4 0 4.2 0.1 4.4 3.8 5 2 0.3 7.3 0.6 11.7 0.5 6.5 0 7.6 -0.2 5.8 -1.1 -1.3 -0.6 -2.3 -1.7 -2.3 -2.5 0 -0.7 -1.1 -1.3 -2.5 -1.3 -1.6 0 -2.5 -0.6 -2.5 -1.5 0 -0.9 -0.9 -1.5 -2.5 -1.5 -2.2 0 -2.5 -0.4 -2.5 -3.5 0 -3.1 0.3 -3.5 2.6 -3.5 2.2 0 2.4 0.2 1.4 1.4 -1.3 1.6 1.6 3.8 11.7 9 3.4 1.7 5.8 3.7 6.9 5.9 0.9 1.7 3 5.1 4.5 7.4 1.6 2.3 2.9 4.4 2.9 4.8 0 0.3 -9 0.5 -20.1 0.5 -14.3 -0.1 -20.1 -0.5 -20.4 -1.3z"/>
  <path d="M114.2 254.8 c-0.7 -0.7 -1.2 -3.1 -1.2 -5.4 l0 -4.1 5.5 1.2 c11.8 2.8 22 1.9 15 -1.3 -5.5 -2.5 -2.5 -3.2 13.8 -3.2 12.8 0 16.7 -0.3 18.3 -1.5 1 -0.8 2.7 -1.5 3.7 -1.5 1.1 0 1.7 -0.8 1.7 -2.5 0 -2.8 1.6 -3.9 4.9 -3.3 1.9 0.3 1.7 0.8 -2.3 5.7 -2.5 3 -5.1 5.8 -5.9 6.2 -0.8 0.5 -5.5 1.4 -10.5 2 -5.9 0.8 -9.2 1.7 -9.2 2.5 0 1.2 6.8 4.3 9.8 4.5 1.4 0 1.4 0.2 -0.3 0.9 -3.4 1.4 -41.9 1.2 -43.3 -0.2z"/>
  <path d="M182.6 255.4 c0.8 -0.3 0.9 -1.6 0.3 -4.2 -0.8 -3.5 -0.7 -3.9 2.8 -7 2.6 -2.3 4.4 -3.1 5.8 -2.8 1.1 0.3 22.8 0.6 48.1 0.6 l46.2 0 0.6 5.3 c1.2 9.5 6.3 8.7 -52.8 8.6 -28.6 0 -51.6 -0.3 -51 -0.5z"/>
  <path d="M385 253.6 c0 -2.3 0.4 -2.6 3.5 -2.6 5.3 0 4.6 1.3 -2.7 4.8 -0.5 0.2 -0.8 -0.8 -0.8 -2.2z"/>
  <path d="M438 252.5 c0 -4 2.4 -4.9 3.4 -1.2 1 3.7 0.7 4.7 -1.4 4.7 -1.6 0 -2 -0.7 -2 -3.5z"/>
  <path d="M756.7 251 c-0.6 -1.6 -1.8 -3.1 -2.7 -3.4 -0.8 -0.2 0.2 -0.4 2.3 -0.5 3.6 -0.1 3.7 0 3.7 3.4 0 4.3 -1.8 4.6 -3.3 0.5z"/>
  <path d="M794 252.5 c0 -0.8 0.7 -1.5 1.5 -1.5 0.8 0 2.4 -0.9 3.5 -2 l2 -2 0 3.5 c0 3.3 -0.2 3.5 -3.5 3.5 -2.4 0 -3.5 -0.5 -3.5 -1.5z"/>
  <path d="M391 242.5 c0 -3.9 1.4 -4.6 3 -1.6 1.6 3.1 1.2 5.1 -1 5.1 -1.6 0 -2 -0.7 -2 -3.5z"/>
  <path d="M733.3 239.8 c1.9 -4.6 3.7 -4.8 3.7 -0.4 0 3.2 -0.3 3.6 -2.5 3.6 -2.4 0 -2.5 -0.1 -1.2 -3.2z"/>
  <path d="M120.7 238 l-5.7 -4.1 1.4 -3.3 c0.7 -1.8 2.5 -5.1 4 -7.4 1.4 -2.3 2.6 -4.3 2.6 -4.4 0 -0.2 -4.2 -0.4 -9.2 -0.6 -10.8 -0.3 -10.9 -0.3 -13.9 -10.2 -2.6 -8.6 -2.9 -12.4 -0.9 -12.6 0.8 0 2 -0.2 2.5 -0.3 1.6 -0.2 182.8 -0.1 183.1 0.2 0.1 0.1 0.5 5.3 0.9 11.5 l0.8 11.2 -80.7 0 -80.6 0 0 3.5 c0 2.3 -0.5 3.5 -1.4 3.5 -0.8 0 -1.6 1.5 -2 3.8 -0.9 5.6 -0.8 6.2 1.4 6.2 1.1 0 2 0.5 2 1 0 0.6 0.7 1 1.5 1 0.9 0 1.5 0.9 1.5 2.5 0 1.4 -0.4 2.5 -0.8 2.5 -0.5 0 -3.4 -1.8 -6.5 -4z"/>
  <path d="M181 237.6 c0 -2.6 1.6 -3.6 6.1 -3.6 4 0 3.6 1.2 -1 3.8 -4.8 2.7 -5.1 2.7 -5.1 -0.2z"/>
  <path d="M197.7 232.4 c1.7 -2.7 1.7 -2.7 -0.5 -1.5 -1.9 1 -2.2 0.9 -2.2 -0.9 0 -1.6 0.6 -2 3.5 -2 3.3 0 3.5 0.2 3.5 3.5 0 3.2 -0.2 3.5 -3 3.5 l-3 0 1.7 -2.6z"/>
  <path d="M489 223.5 c0 -3.9 1.4 -4.6 3 -1.6 1.6 3.1 1.2 5.1 -1 5.1 -1.6 0 -2 -0.7 -2 -3.5z"/>
  <path d="M741.3 221.8 c1.9 -4.6 3.7 -4.8 3.7 -0.4 0 3.2 -0.3 3.6 -2.5 3.6 -2.4 0 -2.5 -0.1 -1.2 -3.2z"/>
  <path d="M64.6 218.8 c-0.3 -1.3 -0.6 -7.1 -0.6 -13 l0 -10.7 13 -0.3 c7.2 -0.2 13 0 13 0.4 0 0.4 1 0.5 2.3 0.3 l2.3 -0.5 -0.8 8.8 c-0.5 4.8 -0.6 10.6 -0.3 13 0.6 3.8 0.4 4.2 -1.4 4.2 -1.2 0 -2.1 -0.7 -2.1 -1.5 0 -1.2 -1.9 -1.5 -11 -1.5 -9.1 0 -11 0.3 -11 1.5 0 2.4 -2.7 1.8 -3.4 -0.7z"/>
  <path d="M370 161.5 c0 -4 2.4 -4.9 3.4 -1.2 1 3.7 0.7 4.7 -1.4 4.7 -1.6 0 -2 -0.7 -2 -3.5z"/>
  <path d="M760 139 c0 -1.6 0.7 -2 3.5 -2 4 0 4.9 2.4 1.3 3.4 -3.8 1 -4.8 0.7 -4.8 -1.4z"/>
  <path d="M712 105.6 c0 -3.2 0.3 -3.6 2.5 -3.6 2.4 0 2.5 0.1 1.2 3.2 -1.9 4.6 -3.7 4.8 -3.7 0.4z"/>
  <path d="M618.8 105.3 c-3.3 -0.8 -2 -3.3 1.7 -3.3 2.8 0 3.5 0.4 3.5 2 0 2 -1.4 2.3 -5.2 1.3z"/>
  <path d="M59 77.6 l0 -11.4 4.5 -1.1 c2.7 -0.7 4.5 -1.7 4.5 -2.6 0 -1.9 3.1 -3.5 6.9 -3.5 4 0 4.1 2.2 0.2 3.7 -4.3 1.6 -5.8 4.8 -7.5 15.1 -0.8 5.1 -1.8 9.7 -2.1 10.2 -0.3 0.6 -1.9 1 -3.6 1 l-2.9 0 0 -11.4z"/>
  <path d="M288 78.6 c0 -11.6 -1.4 -14.9 -7 -16.1 -4.3 -0.9 -3.9 -3.5 0.5 -3.5 1.9 0 3.5 0.5 3.5 1 0 0.6 0.9 1 2 1 1.1 0 2 0.6 2 1.4 0 0.8 0.7 1.6 1.5 2 1.2 0.4 1.5 2.8 1.5 12.6 0 11.3 -0.1 12 -2 12 -1.9 0 -2 -0.7 -2 -10.4z"/>
 </g>
 <g fill="#00794c">
  <path d="M781.8 257.3 c-3.3 -0.8 -2 -3.3 1.7 -3.3 2.8 0 3.5 0.4 3.5 2 0 2 -1.4 2.3 -5.2 1.3z"/>
  <path d="M462 254.5 c0 -1.6 0.6 -2.5 1.5 -2.5 0.8 0 1.5 0.4 1.5 0.9 0 0.5 0.3 1.6 0.6 2.5 0.4 1.2 0 1.6 -1.5 1.6 -1.6 0 -2.1 -0.6 -2.1 -2.5z"/>
  <path d="M800 255 c0 -1.3 0.7 -2 2 -2 1.1 0 2 -0.4 2 -1 0 -0.5 1.1 -1 2.5 -1 2.2 0 2.5 -0.4 2.5 -3.5 0 -2.8 0.4 -3.5 2 -3.5 2.6 0 2.6 2.5 0 6.7 -3.2 5.3 -11 8.3 -11 4.3z"/>
  <path d="M606 254.8 c0 -3 1.3 -5.8 2.6 -5.8 0.9 0 1.4 1.2 1.4 3.5 0 2.8 -0.4 3.5 -2 3.5 -1.1 0 -2 -0.6 -2 -1.2z"/>
  <path d="M703 252.8 c0.1 -0.7 1.6 -2 3.5 -2.9 l3.5 -1.6 0 2.8 c0 2.6 -0.3 2.9 -3.5 2.9 -2.2 0 -3.5 -0.5 -3.5 -1.2z"/>
  <path d="M390 250 c0 -2.5 0.4 -3 2.5 -3 1.9 0 2.3 0.4 1.8 1.8 -1.7 4.8 -4.3 5.5 -4.3 1.2z"/>
  <path d="M516 251.8 c0 -3 1.3 -5.8 2.6 -5.8 0.9 0 1.4 1.2 1.4 3.5 0 2.8 -0.4 3.5 -2 3.5 -1.1 0 -2 -0.6 -2 -1.2z"/>
  <path d="M565 249.5 c0 -3.3 0.2 -3.5 3.5 -3.5 1.9 0 3.5 0.5 3.5 1 0 0.6 -0.6 1 -1.3 1 -0.8 0 -1.9 1.1 -2.5 2.5 -1.6 3.6 -3.2 3.1 -3.2 -1z"/>
  <path d="M783 250.6 c0 -2.3 0.2 -2.4 3.5 -1.3 1.9 0.6 3.5 1.6 3.5 2.4 0 0.8 -1.3 1.3 -3.5 1.3 -3 0 -3.5 -0.3 -3.5 -2.4z"/>
  <path d="M379.4 248.9 c1.4 -1.7 2.6 -3.7 2.6 -4.5 0 -0.8 0.7 -1.4 1.5 -1.4 1 0 1.5 1 1.5 2.9 0 4.9 -0.9 6.1 -4.7 6.1 l-3.5 0 2.6 -3.1z"/>
  <path d="M557.3 248.8 c1.9 -4.6 3.7 -4.8 3.7 -0.4 0 3.2 -0.3 3.6 -2.5 3.6 -2.4 0 -2.5 -0.1 -1.2 -3.2z"/>
  <path d="M425.9 248.4 c-0.9 -1.1 -2.6 -3.4 -3.8 -5.1 l-2.2 -3.3 3 0 c2 0 3.1 0.5 3.1 1.4 0 0.8 0.5 1.6 1.1 1.8 0.6 0.2 0.9 1.9 0.7 3.7 -0.3 3.2 -0.4 3.2 -1.9 1.5z"/>
  <path d="M67.3 245.2 c-0.8 -0.5 -1.4 -5.2 -1.8 -12.7 -0.3 -6.6 -0.8 -13.2 -1 -14.7 l-0.4 -2.8 14.3 0 c14.1 0 14.4 0 15 2.3 1.4 5.3 0.8 6.3 -4.8 8 -4.8 1.5 -8.6 4.1 -7.5 5.1 0.2 0.2 4.4 2.7 9.4 5.5 7.8 4.5 11 7.3 10 9.1 -0.2 0.3 -7.1 0.3 -15.5 0 -8.3 -0.3 -15.4 -0.2 -15.8 0.2 -0.4 0.4 -1.3 0.4 -1.9 0z"/>
  <path d="M142 245 c-11.2 -0.5 -14.4 -1.7 -23.2 -8.7 l-3.6 -3 3.9 -7.3 c2.2 -4 3.8 -7.5 3.5 -7.7 -0.3 -0.4 -9.3 0.9 -15.2 2.2 -1.5 0.3 -2.4 -0.2 -3.2 -2.1 -0.7 -1.4 -1.2 -2.7 -1.2 -2.9 0 -0.3 41.2 -0.5 91.5 -0.5 l91.5 0 0 15 0 15 -49.1 0.2 c-27 0.2 -49.5 0.1 -50 -0.2 -0.5 -0.3 2.1 -3.5 5.6 -7 7.1 -7 8.4 -9.4 3.3 -6.1 -1.8 1.2 -5.8 3.5 -8.9 5.1 l-5.7 2.9 -0.7 -4.5 -0.6 -4.4 -5.7 6.7 c-4.3 5.1 -6.4 6.9 -8.6 7.1 -5.3 0.7 -12.9 0.7 -23.6 0.2z"/>
  <path d="M627.7 243.1 c-2.2 -3.8 -2.2 -4.1 0.8 -4.1 2.2 0 2.5 0.4 2.5 3.5 0 4.3 -1 4.4 -3.3 0.6z"/>
  <path d="M657 244.8 c0 -3 1.3 -5.8 2.6 -5.8 0.9 0 1.4 1.2 1.4 3.5 0 2.8 -0.4 3.5 -2 3.5 -1.1 0 -2 -0.6 -2 -1.2z"/>
  <path d="M741 241.5 c0 -2.5 0.4 -3.5 1.6 -3.5 1 0 1.4 0.6 1 1.5 -0.7 1.8 3.2 3 6.9 2.1 1.6 -0.4 2.2 -1.1 1.9 -2.1 -0.4 -0.9 0 -1.5 1 -1.5 1.2 0 1.6 1 1.6 3.5 l0 3.5 -7 0 -7 0 0 -3.5z"/>
  <path d="M590 240.4 c0 -4.4 1.8 -4.2 3.7 0.4 1.3 3.1 1.2 3.2 -1.2 3.2 -2.2 0 -2.5 -0.4 -2.5 -3.6z"/>
  <path d="M710.1 242.3 c0 -0.6 -1.4 -2 -3.1 -3 -3.9 -2.3 -3.8 -3.3 0.5 -3.3 3.1 0 3.5 -0.3 3.5 -2.5 0 -2.2 0.4 -2.5 3.8 -2.5 3.5 0.1 3.6 0.1 1.7 1.6 -1.5 1.2 -1.6 1.8 -0.7 2.1 0.7 0.3 2.5 1.6 4 2.9 l2.7 2.3 -3.7 0.1 c-2.1 0 -3.8 -0.4 -3.8 -1 0 -0.5 -0.9 -1 -1.9 -1 -1.4 0 -2.1 0.8 -2.4 2.8 -0.2 1.5 -0.5 2.2 -0.6 1.5z"/>
  <path d="M807 239 c0 -2.2 0.4 -2.8 1.5 -2.4 1.4 0.6 3.5 3.5 3.5 4.8 0 0.3 -1.1 0.6 -2.5 0.6 -2.1 0 -2.5 -0.5 -2.5 -3z"/>
  <path d="M544 237 c0 -1.6 0.7 -2 3.5 -2 3.9 0 4.6 1.4 1.6 3 -3.1 1.6 -5.1 1.2 -5.1 -1z"/>
  <path d="M638 236.5 c0 -2.2 0.4 -2.5 3.8 -2.5 l3.7 0.1 -2.8 2.4 c-3.6 3.2 -4.7 3.1 -4.7 0z"/>
  <path d="M697 236.9 c0 -1.7 2 -4.9 3 -4.9 0.6 0 1 1.4 1 3 0 2.3 -0.4 3 -2 3 -1.1 0 -2 -0.5 -2 -1.1z"/>
  <path d="M577.7 233 c-1.3 -3.4 -2.3 -3.8 -3 -1.2 -0.4 1.3 -0.5 1.1 -0.6 -0.5 -0.1 -2 0.4 -2.3 3.4 -2.3 3.3 0 3.5 0.2 3.5 3.5 0 4.3 -1.8 4.6 -3.3 0.5z"/>
  <path d="M566.3 228.8 c1.9 -4.6 3.7 -4.8 3.7 -0.4 0 3.2 -0.3 3.6 -2.5 3.6 -2.4 0 -2.5 -0.1 -1.2 -3.2z"/>
  <path d="M378.8 227.9 c1.7 -3 1.7 -3 -1 -5.4 -3.6 -3.1 -3.5 -3.5 0.6 -3.5 3.1 0 3.4 0.3 4 3.8 1.2 7.2 0.9 8.2 -2.4 8.2 l-2.9 0 1.7 -3.1z"/>
  <path d="M553.6 227.3 c-0.3 -2.1 -0.6 -4.9 -0.6 -6.3 0 -2.4 0 -2.4 1.9 -0.5 2.7 2.8 3.3 10.5 0.7 10.5 -0.8 0 -1.6 -1.5 -2 -3.7z"/>
  <path d="M776.8 228.5 c-1.3 -2.9 -0.2 -7.5 2 -8.3 0.9 -0.3 1.2 1.2 1.2 5.2 0 6 -1.3 7.2 -3.2 3.1z"/>
  <path d="M718 226.5 c0 -2.8 0.4 -3.5 2 -3.5 2.2 0 2.6 2 1 5.1 -1.6 3 -3 2.3 -3 -1.6z"/>
  <path d="M389 222.5 c0 -3.9 1.4 -4.6 3 -1.6 1.6 3.1 1.2 5.1 -1 5.1 -1.6 0 -2 -0.7 -2 -3.5z"/>
  <path d="M478.1 223.5 c-1.3 -1.4 -2.7 -2.5 -3.2 -2.5 -0.5 0 -0.9 -0.4 -0.9 -1 0 -0.5 1.6 -1 3.5 -1 3.3 0 3.5 0.2 3.5 3.5 0 1.9 -0.1 3.5 -0.2 3.5 -0.2 0 -1.4 -1.2 -2.7 -2.5z"/>
  <path d="M634.2 225.3 c-0.1 -0.6 -1.5 -2 -3.2 -3 -3.9 -2.3 -3.8 -3.3 0.5 -3.3 2.4 0 3.5 -0.5 3.5 -1.5 0 -1.7 2.3 -2 5.1 -0.5 3 1.6 2.3 3 -1.5 3 -3.2 0 -3.5 0.3 -3.9 3.3 -0.2 1.7 -0.5 2.7 -0.5 2z"/>
  <path d="M799.3 222.1 c-3.4 -0.9 -5.3 -1.9 -5.3 -2.9 0 -1.2 1 -1.4 5.1 -0.9 5.9 0.7 6.2 0.9 5.7 3.4 -0.3 1.7 -0.6 1.8 -5.5 0.4z"/>
  <path d="M703.3 220.8 c-4.5 -1.5 -4.3 -3.8 0.2 -3.8 3.1 0 3.5 0.3 3.5 2.5 0 1.4 -0.1 2.5 -0.2 2.4 -0.2 -0.1 -1.8 -0.6 -3.5 -1.1z"/>
  <path d="M542 217 c0 -2.1 1 -2.4 4.8 -1.4 3.6 1 2.7 3.4 -1.3 3.4 -2.8 0 -3.5 -0.4 -3.5 -2z"/>
  <path d="M751 217 c0 -1.3 0.7 -2 1.9 -2 1 0 2.1 0.9 2.4 2 0.4 1.6 0 2 -1.9 2 -1.7 0 -2.4 -0.6 -2.4 -2z"/>
  <path d="M789.4 175.8 c0.3 -1.3 0.6 -2.6 0.6 -3 0 -0.5 0.7 -0.8 1.5 -0.8 1 0 1.5 1 1.5 3 0 2.4 -0.4 3 -2.1 3 -1.7 0 -2 -0.4 -1.5 -2.2z"/>
  <path d="M408 174 c0 -1.6 0.7 -2 3.5 -2 3.9 0 4.6 1.4 1.6 3 -3.1 1.6 -5.1 1.2 -5.1 -1z"/>
  <path d="M628 168.6 c0 -1.3 2.8 -2.6 5.8 -2.6 0.6 0 1.2 0.9 1.2 2 0 1.6 -0.7 2 -3.5 2 -2.3 0 -3.5 -0.5 -3.5 -1.4z"/>
  <path d="M702 168.7 c0 -0.8 1.6 -1.8 3.5 -2.4 3.3 -1.1 3.5 -1 3.5 1.3 0 2.1 -0.5 2.4 -3.5 2.4 -2.2 0 -3.5 -0.5 -3.5 -1.3z"/>
  <path d="M399 167.3 c0 -0.5 1.6 -1.8 3.5 -3.1 l3.5 -2.2 0 3 c0 2.8 -0.3 3 -3.5 3 -1.9 0 -3.5 -0.3 -3.5 -0.7z"/>
  <path d="M712 164.3 c0 -0.5 1.6 -1.8 3.5 -3.1 l3.5 -2.2 0 3 c0 2.8 -0.3 3 -3.5 3 -1.9 0 -3.5 -0.3 -3.5 -0.7z"/>
  <path d="M425.6 152.9 c-0.9 -4.6 -0.7 -7.9 0.4 -7.9 1.3 0 2.7 2.8 3.5 7.3 0.6 3.3 0.5 3.7 -1.3 3.7 -1.4 0 -2.1 -0.9 -2.6 -3.1z"/>
  <path d="M607.8 141.3 c-3.3 -0.8 -2 -3.3 1.7 -3.3 2.8 0 3.5 0.4 3.5 2 0 2 -1.4 2.3 -5.2 1.3z"/>
  <path d="M386.8 139.3 c-3.3 -0.8 -2 -3.3 1.7 -3.3 2.8 0 3.5 0.4 3.5 2 0 2 -1.4 2.3 -5.2 1.3z"/>
  <path d="M410 135.5 c0 -2.4 0.1 -2.5 3.2 -1.2 4.6 1.9 4.8 3.7 0.4 3.7 -3.2 0 -3.6 -0.3 -3.6 -2.5z"/>
  <path d="M383.7 129 c0.3 -1.1 1.4 -2 2.4 -2 1.2 0 1.9 0.7 1.9 2 0 1.4 -0.7 2 -2.4 2 -1.9 0 -2.3 -0.4 -1.9 -2z"/>
  <path d="M664 127.5 c0 -2.8 0.4 -3.5 2 -3.5 2.1 0 2.4 1 1.4 4.8 -1 3.6 -3.4 2.7 -3.4 -1.3z"/>
  <path d="M421 118.5 c0 -2.8 0.4 -3.5 2 -3.5 2.2 0 2.6 2 1 5.1 -1.6 3 -3 2.3 -3 -1.6z"/>
  <path d="M421 108.5 c0 -3.9 1.4 -4.6 3 -1.6 1.6 3.1 1.2 5.1 -1 5.1 -1.6 0 -2 -0.7 -2 -3.5z"/>
  <path d="M701.8 105.3 c-3.3 -0.8 -2 -3.3 1.7 -3.3 2.8 0 3.5 0.4 3.5 2 0 2 -1.4 2.3 -5.2 1.3z"/>
  <path d="M415 101.5 c0 -3.1 1.1 -3.2 4.7 0 l2.8 2.4 -3.7 0.1 c-3.4 0 -3.8 -0.3 -3.8 -2.5z"/>
  <path d="M672 97.6 c0 -1.3 2.8 -2.6 5.8 -2.6 0.6 0 1.2 0.9 1.2 2 0 1.6 -0.7 2 -3.5 2 -2.3 0 -3.5 -0.5 -3.5 -1.4z"/>
  <path d="M809 96.5 c0 -1.9 0.5 -2.5 2.1 -2.5 1.5 0 1.9 0.4 1.5 1.6 -0.3 0.9 -0.6 2 -0.6 2.5 0 0.5 -0.7 0.9 -1.5 0.9 -0.9 0 -1.5 -0.9 -1.5 -2.5z"/>
  <path d="M710 96 c0 -2.1 1 -2.4 4.8 -1.4 3.6 1 2.7 3.4 -1.3 3.4 -2.8 0 -3.5 -0.4 -3.5 -2z"/>
  <path d="M681 95.6 c0 -1.3 2.8 -2.6 5.8 -2.6 0.6 0 1.2 0.9 1.2 2 0 1.6 -0.7 2 -3.5 2 -2.3 0 -3.5 -0.5 -3.5 -1.4z"/>
  <path d="M59 64 l0 -5 116.5 0 116.5 0 0 4.9 c0 4.3 -0.3 5 -1.9 4.8 -1.1 -0.1 -2.5 -1.1 -3.2 -2.3 -0.6 -1.2 -2.2 -2.7 -3.6 -3.3 -1.7 -0.8 -32.2 -1.1 -105.9 -1.1 l-103.5 0 -2.4 2.6 c-1.4 1.5 -2.5 3 -2.5 3.4 0 0.4 -2.2 0.8 -5 0.9 l-5 0.1 0 -5z"/>
 </g>
 <g fill="#1d1d1b">
  <path d="M783.5 257.5 c-0.5 -0.2 -2.2 -0.6 -3.7 -0.9 -2.6 -0.6 -2.8 -1 -2.8 -5.7 0 -4.5 0.2 -5 1.8 -4.4 14.8 6.1 22 5.9 21 -0.7 -0.2 -1.8 -2.5 -3.4 -10.3 -7.3 -8.5 -4.3 -10.3 -5.6 -11.9 -8.8 -1.6 -3.4 -1.7 -4.2 -0.4 -7.5 2 -5.5 7.9 -8.2 17.9 -8.2 4.2 0 9.1 0.3 10.8 0.6 3 0.6 3.1 0.8 3.1 6 l0 5.4 -3.8 -1.9 c-8.2 -4.2 -16.2 -4 -16.2 0.4 0 2.2 1.3 3.2 10.3 7.5 8.4 4 10.7 5.5 12.2 8.4 1.6 3 1.7 4 0.7 7.5 -2.1 6.8 -9 10.2 -20.6 10 -3.9 0 -7.5 -0.2 -8.1 -0.4z"/>
  <path d="M351.5 236.1 l0 -21.1 15.5 0 c17.5 0 23.1 1.5 25 6.5 1.6 4.2 1.2 5.5 -2.6 9.3 -2 2 -3.1 3.8 -2.5 4 2.8 0.9 7 5.5 7.6 8.3 1 4.5 -1.2 8.7 -5.9 11.2 -3.6 1.9 -5.9 2.2 -20.6 2.5 l-16.5 0.4 0 -21.1z m28.3 12.9 c4.8 -4.5 0.6 -11 -7.3 -11 -2.5 0 -4.5 -0.2 -4.5 -0.4 0 -0.1 0.5 -1.7 1.1 -3.5 0.9 -2.6 1.6 -3.1 4.3 -3.1 6.6 0 8.8 -7.2 3.1 -9.8 -1.4 -0.7 -4.5 -1.2 -6.9 -1.2 l-4.3 0 -0.7 6.1 c-0.8 7.8 -0.8 14.4 0 20.3 l0.7 4.6 6.1 0 c4.9 0 6.7 -0.4 8.4 -2z"/>
  <path d="M402.4 254.8 c0.3 -1.3 0.6 -10.7 0.6 -21 l0 -18.8 6.4 0 6.4 0 7.1 11.7 7.1 11.8 0 -11.8 0 -11.7 5.8 0 5.7 0 0 21 0 21 -5 0 -5 -0.1 -9.3 -13.7 -9.3 -13.7 0.3 13.8 0.3 13.7 -5.9 0 c-5.6 0 -5.8 -0.1 -5.2 -2.2z"/>
  <path d="M452 236 l0 -21 13.8 0 c20.3 0 25.9 2.3 26.9 11.1 0.4 3.8 0.1 5 -2.2 7.7 -3.3 3.9 -10.4 6.2 -19.3 6.2 l-6.3 0 0.3 8.5 0.3 8.5 -6.7 0 -6.8 0 0 -21z m25.4 -4.1 c3.1 -2.5 3.4 -6.1 0.6 -8.9 -1.5 -1.5 -3.3 -2 -7.5 -2 l-5.5 0 0 6.5 0 6.5 4.9 0 c3.4 0 5.6 -0.6 7.5 -2.1z"/>
  <path d="M516.5 236 l0 -21 13.5 0 c15.4 0 20.2 1 24.2 5 3.8 3.8 4 10.9 0.4 14.5 -3.1 3.1 -11.4 5.5 -19.2 5.5 l-6.2 0 0.6 8.5 0.5 8.5 -6.9 0 -6.9 0 0 -21z m23.8 -3.1 c2.9 -1.6 3.7 -2.8 3.7 -6.1 0 -3.9 -3.6 -6 -9.7 -5.6 l-4.8 0.3 -0.3 6.3 -0.3 6.2 4.6 0 c2.6 0 5.6 -0.5 6.8 -1.1z"/>
  <path d="M554.2 256.1 c0.2 -0.4 4.3 -9.9 9.3 -21 l8.9 -20.1 5.3 0 c2.9 0 5.3 0.4 5.3 1 0 0.8 5.8 14 15.6 35.8 l2.4 5.2 -6.9 0 -6.9 0 -1.8 -4.5 -1.7 -4.6 -7.5 0.3 -7.5 0.3 -1.5 4.3 -1.4 4.2 -6 0 c-3.3 0 -5.8 -0.4 -5.6 -0.9z m26.1 -14.8 c0.6 -1 -3.3 -11.3 -4.2 -11.3 -0.3 0 -1.6 2.5 -2.7 5.5 -1.5 3.7 -1.8 5.5 -1 5.9 1.8 0.7 7.4 0.7 7.9 -0.1z"/>
  <path d="M606.5 236 l0 -21 14 0.1 c10.7 0 15 0.4 18.4 1.7 5.6 2.2 8.6 6.1 8.6 11.3 0 3.3 -0.6 4.6 -3.2 6.9 -1.7 1.5 -3.9 3.2 -4.9 3.8 -1.5 0.9 -1 1.9 4.9 9.6 l6.7 8.6 -7.5 0 -7.4 0 -5.8 -9.7 c-3.2 -5.4 -5.9 -10.1 -6.1 -10.4 -0.2 -0.4 1.2 -0.9 3.1 -1.3 4.4 -0.8 7 -3.8 7 -7.8 0 -4.4 -3.2 -6.8 -9.4 -6.8 l-4.9 0 0 18 0 18 -6.7 0 -6.8 0 0 -21z"/>
  <path d="M657.3 236 l0 -21 6.6 0 6.6 0 0 21 0 21 -6.6 0 -6.6 0 0 -21z"/>
  <path d="M680.5 236.1 l0 -21.1 15.5 0 c13.2 0 16.1 0.3 19.8 2 7.3 3.3 7.9 9.7 1.4 15 -2 1.7 -3 3 -2.3 3 0.8 0 2.9 1.1 4.7 2.5 6.3 4.8 5.4 12.9 -2 16.8 -3.6 1.9 -5.9 2.2 -20.6 2.5 l-16.5 0.4 0 -21.1z m28.4 12.2 c3.9 -4.9 0 -10.3 -7.5 -10.3 -2.4 0 -4.4 -0.2 -4.4 -0.4 0 -0.1 0.5 -1.7 1.1 -3.5 0.9 -2.5 1.6 -3.1 4 -3.1 3.1 0 6.9 -3 6.9 -5.4 0 -2.8 -5 -5.6 -10 -5.6 -4.7 0 -4.7 0 -5.4 3.8 -0.8 4.8 -0.8 20.1 0 24.1 0.6 3.1 0.7 3.1 7 3.1 5.6 0 6.5 -0.3 8.3 -2.7z"/>
  <path d="M726.2 256.1 c0.2 -0.5 4.3 -10 9.3 -21.1 l9 -20.1 4.9 0.3 4.9 0.3 7.4 16.5 c4 9.1 8.2 18.4 9.3 20.8 l1.9 4.2 -6.9 0 -6.8 0 -1.8 -4.5 -1.7 -4.6 -7.5 0.3 -7.5 0.3 -1.5 4.3 -1.4 4.2 -6 0 c-3.3 0 -5.8 -0.4 -5.6 -0.9z m26 -14.7 c0.6 -0.6 -3.4 -11.4 -4.2 -11.4 -0.8 0 -4.8 10.8 -4.2 11.4 0.3 0.4 2.2 0.6 4.2 0.6 2 0 3.9 -0.2 4.2 -0.6z"/>
  <path d="M679.1 178.5 c-15.2 -3.3 -25.8 -11.1 -31.8 -23.3 -3.7 -7.4 -3.8 -7.9 -3.8 -18.6 0 -10 0.3 -11.7 2.7 -16.9 7.9 -16.8 22.6 -25.3 45.6 -26.4 10.4 -0.5 25.7 1 26.6 2.6 0.2 0.3 -0.7 3.6 -2.1 7.2 l-2.4 6.6 -4.2 -2.1 c-5.8 -2.9 -21.4 -3 -27.1 -0.2 -5.3 2.7 -9.8 7.4 -12.7 13.2 -2.1 4.3 -2.4 6.3 -2.4 16.4 0 11 0.1 11.7 3.1 17 9.1 16 30.9 18.4 48.2 5.2 l3.2 -2.4 0 8.9 0 8.9 -5.2 1.7 c-12.3 3.8 -26.4 4.6 -37.7 2.2z"/>
  <path d="M351.5 136.1 l0 -42.1 23.6 0 c13 0 26.1 0.4 29 1 6.8 1.3 15.6 5.7 18.2 9.1 2.4 3.4 3.3 10.6 1.8 15.2 -1.4 4.1 -6.8 9.3 -12 11.4 l-3.6 1.5 6.2 2.9 c11.4 5.4 16.9 15.1 14.3 25 -1.7 6.1 -8 12 -16.1 15 -6 2.1 -8.1 2.3 -33.9 2.7 l-27.5 0.3 0 -42z m47.5 30.1 c10.3 -4 12 -15.8 3.1 -22.1 -3.4 -2.4 -13 -5.1 -18.3 -5.1 -2.1 0 -3.8 -0.2 -3.8 -0.5 0 -0.2 1.1 -2.9 2.4 -6 2.4 -5.4 2.6 -5.5 6.6 -5.5 11.2 0 17.9 -8.4 13.5 -16.9 -2.2 -4.3 -7.8 -6.1 -18.9 -6.1 l-9.3 0 -0.7 7.7 c-0.8 9.8 -0.8 45.6 0 51.7 l0.7 4.6 10.1 -0.1 c7 0 11.5 -0.5 14.6 -1.7z"/>
  <path d="M451 170 l0 -8 8 0 8 0 0 8 0 8 -8 0 -8 0 0 -8z"/>
  <path d="M502.7 148.8 c0.3 -16.1 0.3 -32.4 -0.1 -36.2 l-0.8 -6.9 -13.4 0.7 -13.4 0.7 0 -6.6 0 -6.5 38.5 0 38.5 0 0 6.5 0 6.5 -14.1 -0.6 -14.1 -0.7 0.4 36.1 0.3 36.2 -11.2 0 -11.2 0 0.6 -29.2z"/>
  <path d="M565.5 136 l0 -42 33.8 0 33.7 0 0 5.9 0 6 -21.2 -0.5 c-12.7 -0.3 -21.8 -0.2 -22.7 0.4 -0.9 0.7 -1.4 4 -1.5 12.3 l-0.1 11.4 15.3 -0.4 15.2 -0.3 0 6.5 0 6.5 -15.5 -0.5 -15.5 -0.6 0 6 c0 3.3 0.3 9.4 0.6 13.5 l0.7 7.5 16.1 -0.4 c8.8 -0.2 19.4 -0.5 23.4 -0.7 l7.2 -0.3 0 5.9 0 5.8 -34.7 0 -34.8 0 0 -42z"/>
  <path d="M737.5 136 l0 -42 11.4 0 11.4 0 -0.6 17.4 -0.6 17.3 8 0.6 c4.5 0.4 11.5 0.4 15.6 0 l7.4 -0.6 -0.3 -17.4 -0.3 -17.3 11.5 0 11.5 0 -0.7 18.7 c-0.7 18.3 -0.2 57 0.8 62.6 l0.6 2.7 -11.9 0 -11.9 0 0.3 -5.7 c0.1 -3.2 0.4 -11.5 0.6 -18.5 l0.4 -12.6 -3 -0.6 c-3.9 -0.8 -21.6 -0.8 -25.7 0 l-3.2 0.7 0.7 18.3 0.8 18.4 -11.4 0 -11.4 0 0 -42z"/>
 </g>
</svg>