<svg width="100" height="100" viewBox="0 0 100 100" xmlns="http://www.w3.org/2000/svg"><title>hse_logo_en</title><g fill="none"><path d="M50.091 99.704c-27.532.132-49.959-22.081-50.091-49.613-.132-27.532 22.08-49.959 49.613-50.091 27.532-.132 49.959 22.08 50.091 49.613.128 27.531-22.082 49.955-49.613 50.091z" id="Shape" fill="#007AC5"/><path d="M50.088 98.879c-19.83.095-37.764-11.764-45.44-30.048-7.676-18.284-3.583-39.391 10.371-53.48 13.954-14.089 35.022-18.385 53.378-10.884 18.357 7.501 30.387 25.321 30.482 45.15.127 27.075-21.716 49.129-48.792 49.262z" id="Shape" fill="#fff"/><path d="M6.564 48.858c-.424-.121-.734-.486-.784-.925-.05-.438.169-.864.554-1.078.386-.214.863-.175 1.208.1.346.275.492.73.37 1.155-.08.278-.266.513-.519.654-.253.14-.551.175-.829.095zM48.672 92.998c-.05-.438.169-.864.554-1.078.386-.214.863-.175 1.208.1.346.275.492.73.37 1.154-.166.579-.77.915-1.349.749-.424-.121-.734-.486-.784-.925zM53.845 7.823c-.05-.438.169-.864.555-1.078.386-.214.863-.175 1.208.1s.492.73.37 1.154c-.166.579-.77.914-1.349.749-.424-.121-.734-.486-.784-.925zM78.625 19.957c-.05-.438.169-.864.554-1.078.386-.214.863-.175 1.208.1.346.275.492.73.37 1.154-.166.579-.77.915-1.349.749-.424-.121-.734-.486-.784-.925zM16.844 36.18c-5.53 13.35-2.473 28.717 7.745 38.935 10.218 10.218 25.585 13.274 38.935 7.744 13.35-5.53 22.054-18.557 22.054-33.007-.002-19.73-15.996-35.724-35.726-35.726-14.45 0-27.477 8.705-33.007 22.055zm30.344-10.694l.244.004h2.457c4.851 0 6.883.854 9.18 2.626 3.342 2.621 3.87 6.424 3.87 8.328.033 2.522-.853 4.97-2.492 6.887-1.977 2.504-4.891 4.091-8.066 4.392-2.137.279-4.298.316-6.444.111v-2.401c.745.096 1.496.141 2.248.135 2.544.014 4.95-1.155 6.511-3.164 1.19-1.41 1.85-3.191 1.867-5.036h-8.372v-2.359h8.298c-.193-1.486-.823-2.882-1.81-4.009-1.902-2.361-4.591-2.754-6.363-2.754l-11.955-.005-1.411-2.756h12.241zm-10.134 44.966v-40.197h6.523v40.153h4.612v-15.684h6.02v15.667h5.217v-7.138c0-4.326-.224-10.345-5.093-13.452l2.836-1.043c5.869 2.183 8.808 7.881 8.808 15.387v6.309l1.477 2.874h-31.879l1.479-2.876zM48.444 9.603c.019.339.062.952-.247 1.153-.385.251-1.343.143-1.802.17-.536.103-1.082.152-1.629.144-.454-.091-.219-.164-.065-.302.248-.222.29-.007.313-.496-.012-1.049-.094-2.096-.246-3.133l-.097-1.076c-.023-.255.029-.899-.174-1.095-.125-.121-1.106-.101-.444-.39.388-.078.783-.107 1.178-.088.098-.011.852-.207.884.057.025.202-.224.135-.323.191-.174.029-.304.175-.313.352-.122.691.137 1.605.2 2.308.052.575.095 1.152.164 1.725.059.492-.016 1.164.553 1.275.424.082 1.282.056 1.58-.32.087-.109.374-1.103.465-.473zM39.662 8.487c.282.884.193 1.845-.245 2.664-.438.818-1.189 1.424-2.081 1.68-.862.268-1.796.17-2.584-.272-.787-.442-1.358-1.188-1.579-2.063-.249-.863-.143-1.79.295-2.575.438-.785 1.17-1.362 2.036-1.604.839-.294 1.762-.228 2.55.183.788.411 1.37 1.13 1.609 1.986zm-.883.5c-.41-1.419-1.624-2.648-3.202-2.206-1.752.491-1.971 2.276-1.336 3.757.551 1.286 1.884 2.218 3.3 1.708 1.389-.5 1.607-1.987 1.238-3.259zM28.966 12.458c.566.831.743 1.867.484 2.839-.258.972-.926 1.783-1.83 2.223-1.528.767-3.39.227-4.269-1.24-.493-.753-.664-1.671-.476-2.551.189-.88.721-1.647 1.479-2.132 1.583-1.038 3.557-.761 4.612.86zm-.699.736c-.81-1.227-2.326-2.058-3.709-1.17-1.517.974-1.202 2.77-.173 3.989.87 1.03 2.34 1.545 3.543.736 1.281-.861 1.097-2.401.339-3.555zM22.235 21.488c.195.184-1.203 1.58-1.416 1.719-.37.138-.014-.405-.01-.439-.003-.144-.064-.282-.168-.382-.582-.668-1.224-1.281-1.916-1.834l-2.368 2.551c.52.482 1.032.977 1.566 1.442.186.213.421.377.686.478.194.003.465-.489.656-.333.217.177-.914 1.19-1.068 1.367-.096.11-.486.602-.534.197l.178-.292c-.029-.215-.147-.407-.326-.531-.409-.437-.857-.839-1.295-1.246l-1.452-1.348c-.239-.222-.716-.866-1.072-.882-.171-.007-.479.448-.641.289-.197-.192.48-.722.581-.828.182-.269.399-.513.645-.725.518-.274.158.144.13.362-.064.492 1.237 1.389 1.58 1.708l2.368-2.551c-.324-.299-1.259-1.475-1.717-1.465-.209.005-.536.54-.636.221-.08-.255.581-.724.737-.893.091-.099.58-.842.79-.665.164.138-.106.271-.123.385-.036.197.044.398.206.517.623.641 1.32 1.225 1.976 1.833.52.562 1.092 1.074 1.709 1.528.485.3.564-.33.937-.185zM14.429 29.158c.39.196 1.006.566 1.044 1.045-.062.523-.24 1.025-.521 1.47-.351.763-.909 1.412-1.61 1.874-1.297.709-2.902.515-3.993-.484-1.167-1.019-1.288-2.596-.675-3.958.301-.605.658-1.181 1.067-1.72.32-.458.393-.373.85-.105.316.116.61.284.871.498.2.431-.313.158-.453.123-.386-.096-.794.009-1.085.28-.571.523-.95 1.223-1.075 1.987-.258 1.534 1.272 2.699 2.674 2.846 1.465.127 2.81-.814 3.192-2.234.167-.438.039-.934-.319-1.236-.109-.119-.407-.627.034-.386zM10.256 38.231c1.483.421 1.588 2.201.833 3.321-.323.479-.956.318-1.42.021-.236-.151-.265-.232.044-.31l.449.044c.447-.09.793-.443.873-.892.094-.269.075-.566-.054-.82-.129-.255-.356-.446-.629-.529-.511-.105-1.042.031-1.44.369-.838.532-1.663 1.291-2.735.978-1.297-.379-1.279-1.754-.821-2.784.214-.482.249-.576.788-.4.263.086 1.002.255.437.452-.259.09-.363-.095-.664.151-.836.682-.285 2.158.841 1.794 1.276-.412 1.956-1.833 3.499-1.395zM10.488 56.962c-.001-.347.244-.069.307.035.06.197.087.402.079.608.038.34.139.698.152 1.036.005.117.103.366-.098.398-.185.029-.146-.257-.218-.334-.125-.133-.312-.188-.489-.142-1.077.078-2.149.22-3.21.425-.416.059-1.81.049-2.071.403-.08.108.068.64-.148.653-.218.014-.201-.344-.221-.486-.068-.467-.126-.932-.201-1.398-.18-.64-.125-1.323.154-1.927.482-.693 1.388-.948 2.161-.607.241.089.854.58 1.024.549.253-.18.471-.405.641-.665.248-.26.499-.517.737-.786.445-.4.741-.939.839-1.53.02-.3.104-.756.293-.227.159.501.175 1.036.048 1.546-.27.512-.64.965-1.089 1.331-.387.294-.735.635-1.038 1.014-.162.297.012.754.061 1.099.674-.034 1.342-.145 1.991-.331.367-.149.317-.303.297-.663zm-4.327-.635c-.68.021-1.255.507-1.39 1.174-.013.109-.034.813.135.925.123.004.247-.012.364-.05l1.331-.19c.411-.059.933.035 1.085-.337.063-.377.007-.764-.159-1.108-.28-.446-.901-.478-1.367-.413zM11.193 63.273c.273-.129.57-.202.872-.214.378.053.454.501.576.824.16.427.317.856.484 1.28.176.303.315.626.414.962.058.626-.195.115-.341.018-.108-.074-.245-.092-.369-.05-.631.149-1.241.376-1.815.678l-2.03.826c-.316.129-1.025.273-1.199.578-.115.201.273.857-.161.673-.183-.077-.322-.775-.383-.933-.222-.64-.479-1.267-.769-1.879-.135-.259-.378-.393-.079-.583.277-.129.573-.213.876-.247.371.057.12.165.039.322-.129.25-.276.195-.222.564.099.396.239.781.416 1.149l2.126-.865-.299-.735c-.057-.158-.126-.311-.205-.459-.148-.133-.288-.275-.418-.426.011-.271.678-.305.872-.366.158-.049.459-.225.493.034.021.162-.285.183-.351.287-.234.37.207 1.114.356 1.481l1.524-.62c.434-.177.911-.269.824-.813-.07-.329-.197-.643-.374-.929-.083-.151-.228-.258-.397-.293-.128-.029-.451.109-.55-.012-.085-.104-.055-.196.089-.255zM15.268 70.229c.172-.125 1.657 1.808 1.295 1.88-.125-.047-.233-.129-.312-.236-.142-.028-.29.006-.405.093-.58.327-1.127.71-1.634 1.142-.578.422-.572.336-.166.891l1.319 1.806c.092.177.21.339.351.481.22-.092.419-.226.587-.396.534-.346 1.041-.732 1.516-1.154.101-.072.18-.17.23-.284.042-.217-.288-.38-.253-.575.082-.457.8.679.948.882.047.065.731.735.437.877-.155.075-.24-.208-.362-.239-.508-.131-1.342.736-1.7.996l-1.373 1.002-1.052.768c-.247.121-.454.309-.599.543-.035.164.341.551.165.679-.173.126-.252-.113-.336-.195-.184-.225-.351-.464-.498-.715-.189-.178-.349-.385-.475-.612-.101-.397.044-.254.272-.155.207.144.488.12.668-.058.492-.328.959-.702 1.436-1.049l-2.053-2.812c-.38.28-1.68.941-1.768 1.422-.036.199.279.372.233.536-.104.372-.402-.107-.48-.215-.306-.352-.584-.729-.828-1.126-.117-.252-.168-.372.182-.264.263.082.185.27.563.081.198-.122.386-.259.562-.41l2.097-1.531c.358-.262 1.602-.906 1.641-1.38.02-.246-.375-.439-.209-.676zM19.96 80.757c.228-.106.365.188.624.118.271-.073.704-.73.876-.928.618-.712.75-1.111 1.728-.584 1.979 1.066 3.272 3.502 1.737 5.485-1.423 1.838-3.64 1.734-5.274.242-.301-.275-1.381-1.284-1.295-1.632.035-.143.958-1.125 1.126-.962.124.12-.18.515-.209.641-.206.883.844 1.82 1.512 2.216 1.889 1.122 3.993-.904 3.934-2.849-.034-.853-.429-1.652-1.086-2.198-.29-.247-.666-.569-1.024-.333-.418.362-.781.783-1.077 1.251-.193.257-.264.304-.106.59l.189.192c.159.579-.527-.073-.651-.186-.235-.214-1.144-.759-1.004-1.064zM30.108 84.484c.111-.193 1.835.772 1.938.946.242.407-.13.174-.272.182-.17-.01-.332.075-.421.22-.753.903-1.273 2.12-1.86 3.143-.212.37-.932 1.241-.739 1.664.06.132.72.489.164.495-.235-.08-.451-.206-.637-.371-.268-.161-1.141-.447-1.085-.784.098-.173.233.016.346.014.179.055.371-.027.454-.195.153-.222.287-.456.402-.7l.996-1.736c.325-.566.669-1.124.962-1.707.142-.195.214-.432.202-.673-.09-.225-.489-.212-.45-.499zM35.892 87.351c.042-.148 1.859.28 2.049.418.496.361-.239.236-.407.373-.291.237-.369.976-.467 1.308-.062.21-.493 1.226-.41 1.432.25.135.523.221.806.253l1.724.49c.257.122.535.192.818.208.196-.126.379-1.337.438-1.55.111-.326.192-.662.242-1.003.042-.531-.208-.246-.487-.559-.332-.372.349-.212.552-.15.289.089.573.184.867.26.088.023.821.112.686.37-.084.161-.29-.01-.415.034-.112.049-.198.143-.238.258-.286.638-.496 1.307-.625 1.994l-.654 2.303c-.07.248-.302.709-.187.959.07.153.623.23.548.443-.076.216-1.772-.265-1.961-.397-.527-.369.214-.22.374-.307.266-.144.327-.782.404-1.051.057-.199.388-.95.287-1.107-.102-.16-.967-.275-1.141-.324l-1.634-.464c-.148-.07-.307-.115-.47-.134l-.121.131c-.18.249-.628 1.778-.476 2.053.096.173.456.132.517.282.132.322-.268.185-.406.159-.398-.075-.8-.247-1.196-.346-.126-.032-.755-.151-.433-.391l.482-.01c.173-.212.279-.471.304-.744l.68-2.393c.129-.454.801-2.021.469-2.44-.151-.191-.483-.073-.521-.358zM57.163 90.566c-.206-.818.181-1.67.934-2.052.411-.223 1.332-.529 1.814-.293.272.133.639 1.432.348 1.476-.189.029-.132-.115-.201-.191-.188-.208-.167-.473-.456-.638-.292-.142-.626-.166-.936-.068-1.32.351-.877 1.71.019 2.224.916.526 2.123.815 2.408 1.984.298 1.221-.753 1.95-1.833 2.086-.244.05-.494.068-.743.052-.186-.106-.275-.819-.272-.971.014-.714.427.212.696.334 1.074.485 2.072-.902 1.102-1.668-1.01-.798-2.506-.8-2.88-2.274zM64.497 88.349c-.164-.416-.48-1.056-.204-1.465.318-.328.699-.589 1.119-.767.628-.353 1.324-.569 2.041-.631 2.975-.168 4.71 3.77 2.44 5.791-.524.442-1.127.781-1.777.999-.402.203-.832.345-1.276.42-.285-.017-.989-1.515-.73-1.629.188-.083.353.351.448.451.199.198.466.314.747.323.705-.009 1.387-.25 1.941-.685 1.325-.952 1.113-2.65.177-3.829-.521-.628-1.273-1.018-2.086-1.082-.813-.064-1.617.204-2.23.742-.259.212-.4.536-.377.87.003.077.166.577-.008.622l-.141-.016-.086-.112zM72.332 82.457c-.145-.196 1.757-1.623 1.857-1.355.052.139-.25.353-.209.577.101.543.823 1.22 1.148 1.651l.81 1.07c.328.434.648.878.986 1.302.079.129.18.243.299.335.227.128.717-.212.802-.09l.012.15c-.238.272-.528.493-.853.65-.201.221-.437.409-.697.556-.287.061-.235-.037-.198-.223.032-.163.218-.096.227-.339-.02-.119-.075-.229-.158-.315-.265-.428-.634-.837-.936-1.236-.568-.75-1.125-1.509-1.708-2.246-.18-.227-.457-.694-.784-.685-.235.007-.361.347-.599.199zM76.995 79.014c-.188-.16.851-1.324 1.064-1.427.348-.168.385.167.666.364 1.035.723 2.08 1.432 3.12 2.148l-1.214-2.645c-.104-.227-1.045-1.761-.81-2.044.224-.27 1.93.361 2.155.418l2.81.708-1.768-1.756c-.221-.22-.996-1.183-1.316-1.123-.113.021-.491.598-.52.129-.014-.224 1.195-1.497 1.326-1.336.11.135-.165.31-.18.433.051.29.218.546.464.709.6.633 1.208 1.259 1.812 1.888.585.61 1.261 1.196 1.785 1.86.29.368.078.439-.319.368-1.789-.322-3.563-.883-5.328-1.32l1.135 2.429.811 1.735c.177.292.322.602.433.925.152.751-.844-.091-1.081-.248l-3.086-2.053c-.299-.259-.644-.461-1.016-.595-.39-.054-.687.513-.944.434zM87.309 70.66c-.865-.338-1.556-1.012-1.916-1.867-.36-.856-.359-1.821.004-2.675.332-.838.994-1.503 1.832-1.837.837-.334 1.776-.309 2.594.071.83.347 1.487 1.013 1.823 1.848.336.835.324 1.77-.034 2.596-.735 1.754-2.509 2.621-4.303 1.866zm.166-1.001c1.467.618 3.273.334 3.821-1.344.561-1.72-.935-2.929-2.482-3.237-1.238-.32-2.526.297-3.052 1.462-.576 1.441.451 2.587 1.713 3.119zM94.228 60.457c-.217-.035-.06-.422-.141-.545-.17-.134-.381-.205-.597-.2l-.773-.121-3.083-.481c-.277-.043-1.283-.049-1.526-.252-.418-.348 1.302-1.308 1.543-1.478 1.343-.951 2.716-1.863 4.098-2.756l-2.775-.356c-.497-.064-1.649-.433-1.929.091-.05.094-.028.463-.23.424-.238-.047-.049-.697-.027-.811.06-.311.008-.959.191-1.191.224-.284.214-.018.267.161.142.486.336.444.953.547.88.147 1.763.275 2.644.412l1.58.246c.298.005.594.058.876.156.383.319-.68.808-.905.959-1.615 1.088-3.231 2.173-4.85 3.255l2.458.329 1.34.179c.244.075.501.094.753.055.28-.126.135-.401.284-.558.403-.427.229.463.193.65-.056.293-.046 1.189-.343 1.284zM92.384 48.672c-1.836.249-3.539-1.004-3.846-2.832-.346-1.754.78-3.46 2.528-3.833.913-.224 1.878-.059 2.664.456.786.515 1.323 1.334 1.483 2.26.325 1.957-.808 3.729-2.828 3.948zm-.34-.958c1.707-.185 3.217-1.523 2.604-3.361-.501-1.501-2.213-1.716-3.553-1.325-1.235.361-2.228 1.414-2.064 2.773.185 1.534 1.646 2.058 3.013 1.912zM88.731 38.293c-.447.122-1.084.353-1.476.048-.175-.186-.31-.406-.398-.646-.395-.737-.622-1.553-.665-2.388-.073-3.232 4.361-4.653 6.127-1.911.262.423.464.88.6 1.358.111.368.183.745.263 1.121.073.191.115.392.126.596-.092.321-.771.357-1.063.451-.395.128-.901.208-.365-.227.538-.358.776-1.027.585-1.645-.109-.587-.359-1.138-.728-1.607-.776-.934-2.002-.849-3.038-.406-1.36.57-2.091 2.057-1.711 3.482.135.494.394 1.208.929 1.42.153.06 1.406.04.812.353zM84.366 29.445c-.229.168-.485.294-.757.373-.428.066-.588-.36-.794-.682-.262-.41-.517-.824-.789-1.228-.22-.236-.409-.501-.561-.786-.161-.55.177-.14.325-.085.56.208 1.449-.662 1.882-.954.58-.391 1.16-.784 1.738-1.178.29-.197 1.169-.609 1.27-.962.058-.205-.432-.88.069-.642.241.245.433.534.564.852.405.615.859 1.203 1.269 1.811.166.246.168.226-.086.396-.146.098-.768.538-.915.34-.049-.066.298-.528.25-.757-.163-.417-.392-.804-.679-1.147l-1.9 1.288c.21.308.409.628.633.925.249.33.695.31.503.654-.258.204-.549.363-.861.468-.585.123-.139-.165-.043-.368.211-.445-.409-1.08-.631-1.408-.484.328-2.181 1.111-2.048 1.775.147.374.371.713.657.994.317.233.428.033.751.057.171.013.423.044.155.265zM75.517 13.638l.117-.327c-.048-.241-.203-.446-.422-.558-.288-.222-.601-.432-.901-.636l-1.284 1.915c.323.216.641.442.97.65l.176.119.558.101c.052.063.056.152.011.219-.129.206-.289.391-.473.549-.099.124-.272.477-.449.273-.097-.112.063-.187.075-.289.07-.612-.652-.893-1.138-1.22l-.764 1.142c-.279.331-.506.702-.673 1.101-.032.308.164.269.289.501.118.218.212.357-.159.263-.294-.15-.565-.342-.806-.568-.266-.121-.513-.277-.736-.466-.331-.448.122-.178.322-.183.121-.014.231-.076.305-.172.424-.466.791-.98 1.096-1.532l1.09-1.625c.218-.325.461-.644.657-.984.093-.092.144-.218.139-.349-.005-.131-.064-.254-.164-.339-.079-.115-.417-.269-.044-.367.25-.066 1.597 1.07 1.832 1.228.191.128 1.386.729 1.265.949-.16.164-.805 1.148-.89.605zM67.431 11.091c-.292.882-.928 1.607-1.764 2.012s-1.8.454-2.672.136c-.854-.289-1.552-.916-1.93-1.734-.378-.818-.403-1.756-.068-2.593.304-.847.934-1.537 1.75-1.917.816-.379 1.75-.416 2.594-.102 1.797.645 2.749 2.368 2.09 4.199zm-1.01-.114c.501-1.384.236-3.101-1.294-3.667-1.604-.593-2.799.538-3.225 2.007-.4 1.378.002 3.011 1.476 3.527 1.469.514 2.575-.572 3.043-1.867z" fill="#007AC5"/></g></svg>