<?xml version="1.0" encoding="UTF-8"?>
<svg width="138px" height="27px" viewBox="0 0 138 27" version="1.1" xmlns="http://www.w3.org/2000/svg" xmlns:xlink="http://www.w3.org/1999/xlink">
    <!-- Generator: Sketch 43.2 (39069) - http://www.bohemiancoding.com/sketch -->
    <title>Group</title>
    <desc>Created with Sketch.</desc>
    <defs></defs>
    <g id="Page-1" stroke="none" stroke-width="1" fill="none" fill-rule="evenodd">
        <g id="Group" fill-rule="nonzero">
            <path d="M75.2448344,6.00005107 L75.2448344,14.6458303 C75.2448344,17.101632 74.0262469,18.4120296 71.8119523,18.4120296 C69.5852085,18.4120296 68.3593149,17.0638374 68.3593149,14.5410271 L68.3593149,6.00952524 L65.2958411,6.00952524 L65.2958411,14.6458303 C65.2958411,18.8952122 67.6562089,21.330329 71.771576,21.330329 C75.9258944,21.330329 78.3083082,18.8485564 78.3083082,14.5212616 L78.3083082,6.00005107 L75.2448344,6.00005107 Z M86.5159467,6.00005107 L79.8623732,21.0949303 L82.9894363,21.0949303 L84.2737608,18.171498 L84.3656934,17.9523919 L91.277853,17.9523919 L92.6334763,21.0949048 L95.8455771,21.0949048 L89.2538539,6.08937895 L89.1946084,6 L86.5159467,6.00005107 Z M104.730994,6.00005107 L101.302418,16.3863194 L97.9649053,6.00778874 L94.7046931,6.00778874 L99.9674024,21.104379 L102.504258,21.104379 L105.93973,11.1871713 L109.372596,21.104379 L111.930954,21.104379 L117.180767,6.00778874 L114.003907,6.00778874 L110.6595,16.3863194 L107.230055,6.00005107 L104.730994,6.00005107 Z M134.710278,6.00005107 L134.710278,21.0820598 L137.733381,21.0820598 L137.733381,6.00005107 L134.710278,6.00005107 Z M48,6.00094486 L48,21.1035618 L51.0643369,21.1035618 L51.0643369,14.9697397 L57.9833608,14.9697397 L57.9833608,21.1035618 L61.0485533,21.1035618 L61.0485533,6.00094486 L57.9833608,6.00094486 L57.9833608,12.093525 L51.0643369,12.093525 L51.0643369,6.00094486 L48,6.00094486 Z M119.651482,6.0111596 L119.651482,21.0931683 L131.05662,21.0931683 L131.05662,18.3432588 L122.674585,18.3432588 L122.674585,14.603669 L128.248282,14.603669 L128.248282,11.8529168 L122.674585,11.8529168 L122.674585,8.76109459 L130.764529,8.76109459 L130.764529,6.0111596 L119.651482,6.0111596 Z M87.81401,9.82204829 L89.9986614,14.8785731 L89.9910004,14.8785731 L90.1396248,15.2273809 L85.504892,15.2273809 L85.6517289,14.8785731 L85.6491752,14.8785731 L87.81401,9.82204829 Z" id="path4250" fill="#232527"></path>
            <path d="M15.21125,-0.00016 C14.735291,0.04194 13.449085,0.3347 13.449085,0.3347 L13.448556,0.3347 C10.549492,1.08403 9.864277,3.71486 9.864277,3.71486 C9.722706,4.15725 9.658397,4.61063 9.639484,5.03777 L9.639484,5.61913 C9.677954,6.51734 9.877713,7.18803 9.877713,7.18803 C10.846098,11.48201 15.607479,18.53763 16.630789,20.0198 C16.703389,20.0918 16.761531,20.0658 16.761531,20.0658 C16.871981,20.0353 16.863334,19.92937 16.863334,19.92937 L16.865434,19.9299 C18.441583,4.17575 15.21127,-0.00015 15.21127,-0.00015 L15.21125,-0.00016 Z M20.419202,-0.00016 C20.419202,-0.00016 17.174759,4.17795 18.752121,19.94126 L18.754221,19.94126 C18.766421,20.04133 18.837421,20.06218 18.837421,20.06218 C18.942981,20.10308 18.997102,20.00168 18.997102,20.00168 L18.997631,20.00268 C20.047183,18.48267 24.781431,11.46545 25.74554,7.18795 C25.74554,7.18795 26.268267,5.11763 25.76364,3.71478 C25.76364,3.71478 25.046952,1.04321 22.144222,0.33721 C22.144222,0.33721 21.307713,0.12485 20.419263,-0.00024 L20.419202,-0.00016 Z M5.454223,4.72926 C5.454223,4.72926 2.691952,7.35102 2.55466,10.13049 L2.55576,10.13049 L2.55576,10.55165 C2.55786,10.58335 2.55946,10.61545 2.56146,10.64775 C2.680448,12.88902 4.366516,14.21549 4.366516,14.21549 C7.083133,16.86315 13.66108,20.20595 15.189628,20.96443 C15.211038,20.97243 15.290011,20.99823 15.33639,20.93963 C15.33639,20.93963 15.36052,20.92133 15.37153,20.88843 L15.37153,20.81863 C15.37043,20.81463 15.36833,20.81063 15.36633,20.80623 L15.366859,20.80623 C11.180888,11.66175 5.454284,4.72917 5.454284,4.72917 L5.454223,4.72926 Z M30.16951,4.72926 C30.16951,4.72926 24.460181,11.64007 20.276057,20.76601 L20.277657,20.76548 C20.277657,20.76548 20.228247,20.87129 20.308147,20.93963 C20.308147,20.93963 20.331987,20.95763 20.364987,20.96493 L20.422867,20.96493 C20.433267,20.96193 20.444427,20.95793 20.455427,20.95043 L20.455427,20.95143 C22.025475,20.1722 28.552518,16.85137 31.256316,14.21592 C31.256316,14.21592 32.968575,12.84091 33.058274,10.6332 C33.255984,7.56693 30.169561,4.72916 30.169561,4.72916 L30.16951,4.72926 Z M35.308216,13.80778 C35.308216,13.80778 26.00027,18.80288 21.187631,22.04914 L21.18816,22.04967 L21.18926,22.05067 C21.18926,22.05067 21.10192,22.10787 21.13241,22.21036 C21.13241,22.21036 21.17808,22.29306 21.244548,22.29306 L21.244548,22.29359 C22.968367,22.29659 29.491346,22.30389 29.654888,22.27339 C29.654888,22.27339 30.49834,22.23969 31.54056,21.8393 C31.54056,21.8393 33.860776,21.10165 35.065927,18.46742 C35.065927,18.46742 35.616609,17.36594 35.624549,15.81848 L35.624549,15.75288 C35.620549,15.15611 35.536479,14.49547 35.30829,13.80778 L35.308216,13.80778 Z M0.312935,13.83108 C-0.533948,16.45282 0.606168,18.56536 0.608009,18.56877 C1.796152,21.07923 4.064129,21.83989 4.064129,21.83989 C5.111231,22.27008 6.158573,22.29981 6.158573,22.29981 C6.32211,22.32971 12.671313,22.30281 14.372542,22.29481 C14.444542,22.29428 14.484164,22.22191 14.484164,22.22191 C14.489164,22.21391 14.493564,22.20591 14.495544,22.19861 L14.495544,22.13301 C14.481444,22.08911 14.443864,22.05811 14.443864,22.05811 L14.444964,22.05758 C9.634731,18.81239 0.31301,13.83121 0.31301,13.83121 L0.312935,13.83108 Z M14.178239,23.10079 L3.228519,23.48475 C4.415969,25.60154 6.415777,27.24665 8.498998,26.7414 C9.93663,26.38199 13.193503,24.11028 14.268671,23.34264 L14.265071,23.33964 C14.348671,23.26454 14.318811,23.20425 14.318811,23.20425 C14.291311,23.10595 14.178252,23.10605 14.178252,23.10605 L14.178239,23.10079 Z M21.430508,23.10879 L21.429408,23.11279 C21.429408,23.11279 21.333278,23.12499 21.306416,23.19699 C21.306416,23.19699 21.283056,23.29539 21.347756,23.34426 L21.346656,23.34526 C22.394986,24.09702 25.572936,26.31881 27.103926,26.75022 C27.103926,26.75022 27.33586,26.82912 27.724562,26.84322 L27.958138,26.84322 C28.983888,26.80722 30.77081,26.28029 32.394561,23.49045 L21.430508,23.10879 Z" id="path4252" fill="#CF0A2C"></path>
        </g>
    </g>
</svg>