<svg width="70" height="92" viewBox="0 0 70 92" fill="none" xmlns="http://www.w3.org/2000/svg">
<g id="logo">
<path id="Vector" fill-rule="evenodd" clip-rule="evenodd" d="M18.7417 91.0196L10.5459 91.0339L9.87601 91.0054L9.2346 90.9341L8.6217 90.8343L8.05156 90.706L7.49568 90.5492L6.9683 90.3497L6.46943 90.1359L5.99906 89.8936L5.55721 89.637L5.1296 89.3519L4.74476 89.0526L4.37417 88.739L4.01783 88.4112L3.70425 88.0691L3.39068 87.7128L3.10561 87.3565L2.84905 86.9859L2.60674 86.6153L2.39293 86.2447L2.19339 85.8741L2.00809 85.5035L1.83705 85.1329L1.68026 84.7623L1.55198 84.406L1.43795 84.0639L1.33818 83.7218L1.25266 83.4083L1.18139 83.0947L1.12438 82.8096L1.08161 82.5388L1.03885 82.2822L1.0246 82.0542L1.01035 81.7121L0.996094 81.3557L1.01035 81.0137L1.0246 80.6716L1.03885 80.3295L1.08161 79.9874L1.13863 79.6453L1.19564 79.3175L1.25266 78.9754L1.33818 78.6476L1.40944 78.3198L1.50922 77.9777L1.60899 77.6498L1.70877 77.322L1.83705 77.0084L1.95108 76.6806L2.07936 76.367L2.20764 76.0535L2.35017 75.7399L2.49271 75.4406L2.6495 75.1412L2.79203 74.8419L2.94882 74.5426L3.11986 74.2575L3.27665 73.9724L3.44769 73.6874L3.61873 73.4023L3.78977 73.1315L3.96082 72.8607L4.13186 72.6041L4.3029 72.3475L4.48819 72.1052L33.6365 31.1693L33.7078 31.0552L33.7933 30.9412L33.8646 30.7987L33.9644 30.6561L34.1354 30.3426L34.3207 30.0005L34.4062 29.8294L34.4775 29.6584L34.5488 29.4873L34.62 29.3306L34.677 29.1738L34.7341 29.0312L34.7626 28.9172L34.7911 28.8032L34.8766 28.4896L34.9336 28.1903L34.9764 27.891L34.9906 27.5916L35.0049 27.2923L34.9906 27.0072L34.9764 26.7364L34.9336 26.4514L34.8909 26.1805L34.8338 25.9097L34.7626 25.6389L34.677 25.3823L34.5915 25.14L34.4918 24.8977L34.392 24.6554L34.278 24.4274L34.1639 24.1993L34.0499 23.9855L33.9359 23.786L33.8076 23.5864L33.6936 23.4011L33.5653 23.2158L33.437 23.0448L33.323 22.888L33.0949 22.6029L32.8954 22.3464L32.7243 22.1468L32.5818 22.0043L40.4212 26.0095L40.7633 26.2518L41.0911 26.4941L41.4047 26.7364L41.6898 26.993L41.9606 27.2495L42.2171 27.5061L42.4452 27.7627L42.6447 28.0192L42.8443 28.2901L43.0296 28.5466L43.1721 28.8174L43.3147 29.074L43.4429 29.3448L43.5427 29.6156L43.6425 29.8722L43.7138 30.1288L43.7708 30.3853L43.8278 30.6561L43.8563 30.8984L43.8848 31.155V31.4116V31.6539L43.8563 31.8962L43.8278 32.1242L43.785 32.3523L43.728 32.5803L43.671 32.8084L43.5997 33.0222L43.5142 33.2218L43.4144 33.4356L43.3147 33.6209L43.2149 33.8061L12.2848 77.9207L12.014 78.3483L11.7717 78.7901L11.5579 79.2462L11.3726 79.7023L11.2016 80.1727L11.059 80.6431L10.9308 81.1277L10.8452 81.6123L10.7882 82.0969L10.7455 82.5815V83.0662L10.774 83.565L10.831 84.0497L10.9165 84.52L11.0448 84.9904L11.1873 85.4607L11.3869 85.9311L11.6007 86.373L11.8572 86.8148L12.1423 87.2424L12.4844 87.67L12.8407 88.0691L13.2541 88.454L13.6959 88.8246L14.1806 89.1809L14.7079 89.5087L15.2638 89.8223L15.8767 90.1074L16.5324 90.3782L17.2165 90.6205L17.9577 90.8343L18.7417 91.0196Z" fill="#0474B6"/>
<path id="Vector_2" fill-rule="evenodd" clip-rule="evenodd" d="M18.9986 90.9911L18.3286 90.6632L17.7157 90.3354L17.1456 89.9791L16.604 89.6227L16.1194 89.2664L15.6632 88.8958L15.2499 88.511L14.865 88.1261L14.5372 87.727L14.2236 87.3279L13.9528 86.9288L13.7248 86.5155L13.5252 86.1021L13.3542 85.6745L13.2259 85.2612L13.1119 84.8336L13.0406 84.3917L12.9836 83.9641L12.9551 83.5223L12.9693 83.0804L12.9978 82.6528L13.0406 82.2109L13.1261 81.7691L13.2259 81.3272L13.3399 80.8854L13.4825 80.4435L13.6392 80.0159L13.8103 79.574L14.0098 79.1464L14.2236 78.7046L14.4517 78.2912L14.694 77.8636L37.8559 44.482L41.1057 44.425L17.2311 78.2057L16.9033 78.7759L16.6182 79.3317L16.3617 79.8734L16.1336 80.415L15.9483 80.9281L15.8058 81.4412L15.6775 81.9401L15.592 82.439L15.5492 82.9094L15.5207 83.3797L15.535 83.8358L15.5777 84.2777L15.6632 84.7053L15.763 85.1329L15.9055 85.5463L16.0623 85.9453L16.2619 86.3302L16.4899 86.715L16.7465 87.0856L17.0316 87.442L17.3452 87.7983L17.6872 88.1404L18.0578 88.4682L18.4427 88.7818L18.8703 89.1096L19.3264 89.3947L19.7968 89.694L20.2956 89.9791L20.823 90.2499L21.3789 90.5065L21.9633 90.763L22.5619 91.0053L18.9986 90.9911Z" fill="#0C6C9F"/>
<path id="Vector_3" fill-rule="evenodd" clip-rule="evenodd" d="M19.9533 78.0062L20.7372 76.7376L21.5354 75.4976L22.3336 74.2432L23.146 73.0174L23.9585 71.7774L24.7709 70.5658L25.5976 69.3543L26.4243 68.1428L27.2653 66.9455L28.1063 65.7482L28.9615 64.5509L29.8167 63.3536L31.5271 60.9448L33.266 58.5502L35.0334 56.1271L36.8009 53.6755L37.6988 52.4212L38.5826 51.1811L39.4805 49.9126L40.3928 48.644L41.2907 47.3612L42.2029 46.0499L43.1152 44.7386L44.0274 43.3987L44.9396 42.0447L45.8661 40.6763L46.7783 39.2795L47.7048 37.8684L47.8901 37.5976L48.0896 37.3125L48.2749 37.0274L48.4602 36.7138L48.6313 36.4145L48.8023 36.0867L48.9591 35.7589L49.1016 35.431L49.2299 35.089L49.3582 34.7469L49.4722 34.3905L49.5577 34.0342L49.6433 33.6779L49.686 33.3215L49.7288 32.9652L49.7573 32.6088L49.743 32.2525L49.7288 31.8962L49.686 31.5256L49.6148 31.1835L49.5007 30.8272L49.3867 30.4851L49.2299 30.143L49.0446 29.8152L48.8308 29.4873L48.5885 29.1595L48.3034 28.8459L48.0041 28.5466L47.6478 28.2615L47.2629 27.9765L46.8353 27.7057L46.3792 27.4491L22.5046 15.2196V5.74105L69.983 0.894867V15.3479V18.6404L69.9117 18.2271L69.8404 17.8137L69.7549 17.4289L69.6551 17.0441L69.5554 16.6592L69.4413 16.3029L69.3131 15.9465L69.1848 15.6045L69.028 15.2766L68.8712 14.9488L68.7002 14.6495L68.5149 14.3644L68.3153 14.0936L68.1015 13.8228L67.8735 13.5662L67.6311 13.3382L67.3746 13.1101L67.0895 12.9105L66.8044 12.7253L66.5051 12.5542L66.1773 12.3974L65.8352 12.2549L65.4789 12.1266L65.094 12.0268L64.6949 11.9271L64.2816 11.8558L63.8397 11.813L63.3836 11.7845L62.9132 11.756L62.4144 11.7703L61.887 11.7988L61.3454 11.8415L28.5766 14.8205L54.7888 28.176L54.9313 28.2615L55.0738 28.3328L55.2164 28.4326L55.3446 28.5181L55.4729 28.6179L55.587 28.7177L55.6867 28.8174L55.8008 28.9315L55.8863 29.0455L55.9861 29.1595L56.0573 29.2878L56.1286 29.4018L56.1999 29.5301L56.2569 29.6584L56.2996 29.8009L56.3424 29.9292L56.3709 30.0575L56.3994 30.2L56.4137 30.3425L56.4279 30.4708V30.6134L56.4137 30.7559L56.3994 30.8984L56.3709 31.041L56.3424 31.1835L56.2996 31.3118L56.2426 31.4543L56.1714 31.5969L56.1143 31.7394L56.0288 31.8677L55.929 32.0102L55.8293 32.1385L26.6381 74.2718L26.4528 74.4998L26.2818 74.7279L26.125 74.9559L25.9825 75.1697L25.8542 75.3835L25.7402 75.5973L25.6404 75.8111L25.5549 76.0107L25.4836 76.196L25.4266 76.3955L25.3981 76.5666L25.3838 76.7519L25.3981 76.9086L25.4266 77.0797L25.4836 77.2222L25.5549 77.379L25.6547 77.5073L25.7687 77.6356L25.9112 77.7496L26.0823 77.8636L26.2818 77.9634L26.5099 78.0632L26.7522 78.1487L27.0372 78.22L27.3508 78.277L27.6929 78.334L28.0635 78.3768L28.4768 78.4053L28.9044 78.4195H29.3748H29.8879L30.4296 78.391L69.8404 78.277L69.8975 90.8771H27.5219L26.7522 90.8913L25.9967 90.8771L25.2698 90.82L24.5714 90.7203L23.9015 90.5777L23.2458 90.3924L22.6329 90.1786L22.0343 89.9363L21.4784 89.6513L20.951 89.3377L20.4521 88.9813L20.0103 88.6108L19.5969 88.1974L19.2263 87.7555L18.8843 87.2994L18.5992 86.8148L18.3426 86.3017L18.1431 85.7743L18.0005 85.2042L17.9008 84.634L17.8438 84.0354V83.4225L17.9008 82.7953L18.0148 82.1397L18.1858 81.484L18.4139 80.8141L18.699 80.1299L19.0553 79.4315L19.4686 78.7188L19.9533 78.0062Z" fill="#019ACB"/>
<path id="Vector_4" fill-rule="evenodd" clip-rule="evenodd" d="M1.39511 75.4263V59.7332L1.38086 59.5479V59.3484L1.39511 59.1488L1.40937 58.9493L1.43787 58.7355L1.46638 58.5359L1.50914 58.3364L1.56615 58.1226L1.62317 57.9088L1.68018 57.695L1.75145 57.4954L1.82272 57.2816L1.89398 57.0678L1.97951 56.8683L2.06503 56.6545L2.1648 56.4549L2.25032 56.2554L2.3501 56.0558L2.44987 55.8563L2.54964 55.6567L2.76345 55.2719L2.963 54.9155L3.16254 54.5735L3.36209 54.2456L3.56164 53.9606L3.73268 53.6897L24.4287 24.6982L24.5143 24.4986L24.5998 24.3133L24.6853 24.128L24.7708 23.9285L24.8421 23.7432L24.8991 23.5721L24.9561 23.3869L25.0131 23.2158L25.0559 23.0305L25.1129 22.8595L25.1414 22.6742L25.1699 22.4889L25.1842 22.3036L25.2127 22.1183V21.9187V21.7334L25.1984 21.5624L25.1699 21.3771L25.1414 21.2203L25.1129 21.035L25.0559 20.864L25.0131 20.7072L24.9561 20.5362L24.8991 20.3651L24.8421 20.2083L24.7708 20.0373L24.6995 19.8805L24.614 19.7095L24.5285 19.5527L24.443 19.3959L24.3575 19.2391L24.2577 19.0823L24.1579 18.9255L24.0581 18.7687L23.9441 18.6119L23.8301 18.4694L23.7161 18.3126L23.602 18.1701L23.488 18.0133L23.3597 17.8708L23.1174 17.5857L22.8608 17.3149L22.6043 17.0298L22.3335 16.7732L29.8451 20.6644L30.0303 20.7927L30.2156 20.9353L30.3867 21.0778L30.5435 21.2061L30.7145 21.3344L30.8713 21.4626L31.0138 21.5909L31.1564 21.7334L31.2989 21.8617L31.4272 21.99L31.5555 22.1183L31.6695 22.2466L31.7835 22.3749L31.8976 22.5031L32.0116 22.6314L32.1114 22.7597L32.2111 22.888L32.3109 23.0163L32.3964 23.1445L32.4819 23.2728L32.5675 23.4154L32.653 23.5436L32.7243 23.6719L32.7955 23.8145L32.8668 23.957L32.9381 24.0995L33.0093 24.2421L33.0663 24.3846L33.1946 24.6839L33.3086 24.9832L33.3657 25.1258L33.4084 25.2683L33.4512 25.4251L33.4939 25.5819L33.5224 25.7387L33.551 25.9097L33.5937 26.0808L33.608 26.2661L33.6365 26.4513L33.6507 26.6509V26.8362V27.05V27.2495L33.6365 27.4633L33.608 27.6914L33.5795 27.9195L33.551 28.0905L33.5082 28.2615L33.4797 28.4183L33.4227 28.5609L33.3942 28.7034L33.3372 28.8459L33.2801 28.9885L33.2374 29.131L33.1804 29.2593L33.1091 29.3876L33.0378 29.5301L32.9666 29.6726L32.7955 29.9577L32.6102 30.2855L6.6689 66.3753H6.64039L5.99899 67.2448L5.42885 68.0287L4.88722 68.7414L4.41685 69.3971L3.97499 69.9957L3.59015 70.5516L3.40485 70.8224L3.23381 71.079L3.06277 71.3213L2.92023 71.5636L2.76345 71.8059L2.62091 72.034L2.50688 72.262L2.3786 72.4901L2.26458 72.7181L2.1648 72.9462L2.06503 73.1742L1.96525 73.4023L1.86548 73.6446L1.79421 73.8727L1.70869 74.115L1.63742 74.3573L1.58041 74.6138L1.50914 74.8704L1.45213 75.1412L1.39511 75.4263Z" fill="#066AAC"/>
</g>
</svg>
