<!DOCTYPE svg PUBLIC "-//W3C//DTD SVG 20010904//EN" "http://www.w3.org/TR/2001/REC-SVG-20010904/DTD/svg10.dtd">
<svg version="1.0" xmlns="http://www.w3.org/2000/svg" width="140px" height="40px" viewBox="0 0 1400 400" preserveAspectRatio="xMidYMid meet">
<g id="layer101" fill="#2f5d8e" stroke="none">
 <path d="M0 200 l0 -200 700 0 700 0 0 200 0 200 -700 0 -700 0 0 -200z"/>
 </g>
<g id="layer102" fill="#f1f5f7" stroke="none">
 <path d="M0 200 l0 -200 700 0 700 0 0 200 0 200 -700 0 -700 0 0 -200z m1380 0 l0 -180 -680 0 -680 0 0 180 0 180 680 0 680 0 0 -180z"/>
 <path d="M770 200 l0 -150 290 0 290 0 0 150 0 150 -290 0 -290 0 0 -150z m548 118 c6 -6 12 -29 12 -52 0 -47 -9 -62 -57 -95 -33 -23 -42 -44 -22 -56 6 -4 13 2 16 14 8 29 63 30 63 1 0 -32 -36 -60 -75 -60 -42 0 -75 29 -75 66 0 36 15 59 55 84 25 15 35 29 35 47 0 30 -24 26 -28 -5 -5 -31 -62 -32 -62 -1 0 30 18 59 43 69 24 10 75 3 95 -12z m-458 -38 l0 -50 20 0 20 0 0 50 0 50 30 0 30 0 0 -54 c0 -35 -5 -58 -15 -66 l-14 -12 14 -15 c19 -18 19 -63 2 -88 -11 -14 -28 -18 -78 -19 l-64 -1 -3 128 -3 127 31 0 30 0 0 -50z m192 28 c4 -31 36 -36 40 -6 2 17 11 24 31 26 33 4 32 9 7 -138 -11 -63 -20 -116 -20 -117 0 -10 -72 0 -75 10 -3 6 -13 65 -23 130 l-19 117 28 0 c21 0 28 -5 31 -22z"/>
 <path d="M860 145 c0 -37 18 -47 40 -20 16 19 3 55 -21 55 -15 0 -19 -7 -19 -35z"/>
 <path d="M1061 218 c0 -13 4 -32 9 -43 7 -15 9 -10 9 23 1 23 -3 42 -9 42 -5 0 -10 -10 -9 -22z"/>
 <path d="M240 291 c0 -32 4 -50 10 -46 6 3 10 12 10 20 0 21 49 55 80 55 31 0 55 -23 47 -45 -4 -8 -37 -29 -74 -47 l-68 -33 -3 -32 c-2 -18 2 -41 8 -52 15 -29 76 -43 124 -30 29 8 41 8 46 -1 12 -19 16 2 10 45 l-6 40 -8 -23 c-16 -46 -106 -69 -126 -33 -16 31 -1 50 53 66 58 17 97 49 97 80 0 56 -72 96 -135 75 -28 -9 -39 -9 -50 0 l-15 12 0 -51z"/>
 <path d="M78 318 l22 -11 0 -109 0 -108 -21 0 c-11 0 -17 -5 -14 -10 8 -13 132 -13 140 0 3 5 -3 10 -14 10 l-21 0 0 110 c0 89 3 110 14 110 8 0 18 5 21 10 4 6 -22 10 -72 9 -64 0 -74 -2 -55 -11z"/>
 <path d="M478 320 l22 -9 0 -111 c0 -91 -3 -110 -15 -110 -8 0 -15 -5 -15 -11 0 -7 33 -10 104 -7 122 4 146 16 146 78 0 52 -23 70 -93 70 l-57 0 0 45 c0 38 4 47 23 55 16 6 0 9 -58 9 -58 0 -74 -3 -57 -9z m150 -126 c44 -30 20 -104 -34 -104 l-24 0 0 60 c0 66 13 76 58 44z"/>
 </g>

</svg>
