<?xml version="1.0" encoding="UTF-8"?>
<svg width="280px" height="54px" viewBox="0 0 280 54" version="1.1" xmlns="http://www.w3.org/2000/svg" xmlns:xlink="http://www.w3.org/1999/xlink">
    <title>kaspersky</title>
    <g id="Page-1" stroke="none" stroke-width="1" fill="none" fill-rule="evenodd">
        <g id="kaspersky" transform="translate(0.300000, 0.000000)" fill="#00A88E" fill-rule="nonzero">
            <path d="M125.8,26.7 C125.8,37.3 119.3,42.3 111.3,42.3 L106.4,42.3 L106.4,36 L111,36 C115.9,36 119.1,33.4 119.1,26.8 C119.1,20.3 116,17 110.8,17 C105.8,17 102.2,20.1 102.2,26.7 L102.2,53.3 L95.5,53.3 L95.5,11.4 L102.2,11.4 L102.2,15 L103.2,15 C105.4,12 108.8,10.6 112.2,10.6 C119.6,10.6 125.8,16 125.8,26.7 Z M81.5,24 L77,23.6 C73.5,23.3 71.6,22.3 71.6,20.3 C71.6,17.9 74,16.5 77.4,16.5 C80.9,16.5 83.2,18.2 83.4,20.5 L89.9,20.5 C89.6,14.5 85,10.8 77.5,10.8 C70,10.8 64.9,14.8 64.9,20.6 C64.9,25.5 68,28.6 75,29.3 L79.6,29.7 C82.4,30 84.2,30.5 84.2,33.2 C84.2,35.6 82.5,37.3 77.9,37.3 C73.7,37.3 71.6,35.4 70.9,32.8 L63.9,32.8 C64.6,38.6 69.5,43.2 77.9,43.2 C85.8,43.2 90.9,39 90.9,32.9 C90.9,27.3 87.3,24.6 81.5,24 Z M151.9,32.7 C150.8,35.1 148.3,37 144.7,37 C139.8,37 136.1,33.8 136.1,26.9 C136.1,20.3 139.5,16.6 144.8,16.6 C149.5,16.6 152.2,19.4 152.4,23.7 L140.3,23.7 L140.3,28.6 L159,28.6 L159,25.4 C159,16.5 153.1,10.7 144.7,10.7 C136.9,10.7 129.4,16 129.4,26.9 C129.4,37.8 136.9,43.1 144.7,43.1 C151.9,43.1 157,38.7 158.5,32.7 L151.9,32.7 Z M45.7,10.6 C38.3,10.6 32.8,14.4 32.2,20.3 L39.4,20.3 C39.9,18.1 41.9,16.5 45.7,16.5 C50.6,16.5 52.2,19.1 52.2,22.2 L52.2,32.8 C49.4,35.9 46.2,37.4 43,37.4 C39.7,37.4 37.4,35.8 37.4,32.9 C37.4,30.1 39.2,28.4 42.7,28.4 L48.1,28.4 L48.1,23.5 L42.5,23.5 C34.8,23.5 30.5,27.3 30.5,33.2 C30.5,38.7 34.7,42.9 41.5,42.9 C45.3,42.9 48.7,41.4 51.2,39.5 L52.2,39.5 L52.2,42.1 L58.9,42.1 L58.9,21.7 C58.9,14 53.7,10.6 45.7,10.6 Z M0,42.3 L6.7,42.3 L6.7,0 L0,0 L0,42.3 Z M28.3,11.4 L20.1,11.4 L10.3,24.3 L10.3,28.3 L20.4,42.3 L28.7,42.3 L16.9,26.3 L28.3,11.4 Z M271.7,11.4 L266.2,23.6 C264.9,26.6 263.6,29.4 263.2,31.4 L262.2,31.4 C261.8,29.5 260.5,26.7 259.1,23.7 L253.7,11.4 L246.3,11.4 L259.3,39.2 L252.9,53.2 L260.1,53.2 L279.3,11.4 L271.7,11.4 Z M244.7,11.4 L236.5,11.4 L226.7,24.3 L226.7,28.3 L236.8,42.3 L245.1,42.3 L233.3,26.3 L244.7,11.4 Z M202.6,24 L198.1,23.6 C194.6,23.3 192.7,22.3 192.7,20.3 C192.7,17.9 195.1,16.5 198.5,16.5 C202,16.5 204.3,18.2 204.5,20.5 L211,20.5 C210.7,14.5 206.1,10.8 198.6,10.8 C191.1,10.8 186,14.8 186,20.6 C186,25.5 189.1,28.6 196.1,29.3 L200.7,29.7 C203.5,30 205.3,30.5 205.3,33.2 C205.3,35.6 203.6,37.3 199,37.3 C194.8,37.3 192.7,35.4 192,32.8 L185,32.8 C185.7,38.6 190.6,43.2 199,43.2 C206.9,43.2 212,39 212,32.9 C211.9,27.3 208.3,24.6 202.6,24 Z M216.4,42.3 L223.1,42.3 L223.1,0 L216.4,0 L216.4,42.3 Z M172,15 L171,15 L171,11.4 L164.3,11.4 L164.3,42.3 L171,42.3 L171,26.2 C171,20.7 173.5,17.5 178.6,17.5 L182.9,17.5 L182.9,10.7 L180.4,10.7 C175.8,10.6 173.8,12.4 172,15 Z" id="Shape"></path>
        </g>
    </g>
</svg>