<svg width="1024" height="210" viewBox="0 0 1024 210" fill="none" xmlns="http://www.w3.org/2000/svg">
<path d="M461.527 105.719C461.527 144.382 437.938 162.66 408.413 162.66H390.369V139.461H407.007C424.816 139.461 436.687 129.855 436.687 105.719C436.687 81.8168 425.46 69.8642 406.479 69.8642C388.201 69.8642 375.137 81.1137 375.137 105.25V202.264H350.532V49.7112H375.137V62.8356H378.652C386.854 51.8221 398.98 46.8992 411.634 46.8992C438.817 46.8992 461.527 66.5834 461.527 105.719ZM299.82 95.6408L283.416 94.0002C270.528 92.8288 263.732 89.3138 263.732 81.8149C263.732 72.9104 272.403 67.7552 284.822 67.7552C297.711 67.7552 305.912 73.8476 306.615 82.5179H330.283C329.346 60.4909 312.24 46.8992 285.057 46.8992C257.64 46.8992 239.127 61.4281 239.127 82.7525C239.127 100.562 250.375 112.044 275.918 114.622L292.555 116.262C302.632 117.199 309.428 119.308 309.428 128.916C309.428 137.587 303.1 143.913 286.463 143.913C271.142 143.913 263.593 136.961 260.944 127.642H235.339C237.89 148.944 255.785 165.472 286.463 165.472C315.286 165.472 334.032 150.24 334.032 127.745C334.032 107.826 320.91 97.7499 299.82 95.6408ZM556.822 127.642C552.962 136.507 543.739 143.211 530.651 143.211C512.608 143.211 499.251 131.494 499.251 106.186C499.251 82.0495 511.67 68.6924 530.885 68.6924C547.992 68.6924 557.834 79.0033 558.772 94.469H514.482V112.28H582.908V100.562C582.908 67.9894 561.349 46.8992 530.651 46.8992C502.063 46.8992 474.645 66.3492 474.645 106.186C474.645 146.022 502.063 165.472 530.651 165.472C556.8 165.472 575.446 149.365 581.239 127.642H556.822ZM168.945 46.8992C141.997 46.8992 121.844 60.9611 119.501 82.5179H145.98C147.855 74.5525 155.119 68.6942 168.945 68.6942C186.755 68.6942 192.613 78.069 192.613 89.5498V128.213C182.537 139.697 170.82 145.085 159.103 145.085C146.918 145.085 138.482 139.227 138.482 128.684C138.482 118.605 145.043 112.28 157.697 112.28H177.381V94.469H156.994C128.874 94.469 113.174 108.531 113.174 130.088C113.174 150.24 128.405 165.472 153.479 165.472C167.539 165.472 179.959 159.85 189.098 153.052H192.613V162.66H217.218V87.2048C217.218 59.3191 198.237 46.8992 168.945 46.8992ZM2 162.66H26.6052V8H2V162.66ZM105.341 49.7112H75.3465L39.4935 96.8141V111.577L76.2837 162.66H106.747L63.63 104.077L105.341 49.7112ZM994.817 49.7112L974.664 94.469C969.743 105.25 965.059 115.793 963.652 122.825H960.134C958.728 115.793 953.809 105.483 948.888 94.7051L928.735 49.7112H901.552L948.888 151.178L925.454 202.264H951.7L1022 49.7112H994.817ZM896.11 49.7112H866.115L830.262 96.8141V111.577L867.052 162.66H897.516L854.398 104.077L896.11 49.7112ZM742.056 95.6408L725.653 94.0002C712.764 92.8288 705.969 89.3138 705.969 81.8149C705.969 72.9104 714.639 67.7552 727.059 67.7552C739.947 67.7552 748.149 73.8476 748.852 82.5179H772.519C771.582 60.4909 754.476 46.8992 727.293 46.8992C699.876 46.8992 681.364 61.4281 681.364 82.7525C681.364 100.562 692.612 112.044 718.154 114.622L734.792 116.262C744.868 117.199 751.664 119.308 751.664 128.916C751.664 137.587 745.337 143.913 728.699 143.913C713.378 143.913 705.829 136.961 703.18 127.642H677.575C680.126 148.944 698.021 165.472 728.699 165.472C757.522 165.472 776.269 150.24 776.269 127.745C776.269 107.826 763.146 97.7499 742.056 95.6408ZM792.768 162.66H817.373V8H792.768V162.66ZM630.516 62.8356H627.001V49.7112H602.396V162.66H627.001V103.608C627.001 83.4555 636.313 71.7386 654.653 71.7386H670.229V46.8992H661.214C644.197 46.8992 636.965 53.3172 630.516 62.8356Z" fill="#006D5C"/>
</svg>
