<?xml version="1.0" encoding="utf-8"?>
<!-- Generator: Adobe Illustrator 21.0.1, SVG Export Plug-In . SVG Version: 6.00 Build 0)  -->
<svg version="1.1" id="Layer_1" xmlns="http://www.w3.org/2000/svg" xmlns:xlink="http://www.w3.org/1999/xlink" x="0px" y="0px"
	 viewBox="0 0 363.8 137.5" style="enable-background:new 0 0 363.8 137.5;" xml:space="preserve">
<style type="text/css">
	.st0{fill:#00A88E;}
</style>
<path class="st0" d="M168.1,68.7c0,10.6-6.5,15.6-14.5,15.6h-4.9V78h4.6c4.9,0,8.1-2.6,8.1-9.2c0-6.5-3.1-9.8-8.3-9.8
	c-5,0-8.6,3.1-8.6,9.7v26.6h-6.7V53.4h6.7V57h1c2.2-3,5.6-4.4,9-4.4C161.9,52.6,168.1,58,168.1,68.7z M123.8,66l-4.5-0.4
	c-3.5-0.3-5.4-1.3-5.4-3.3c0-2.4,2.4-3.8,5.8-3.8c3.5,0,5.8,1.7,6,4h6.5c-0.3-6-4.9-9.7-12.4-9.7c-7.5,0-12.6,4-12.6,9.8
	c0,4.9,3.1,8,10.1,8.7l4.6,0.4c2.8,0.3,4.6,0.8,4.6,3.5c0,2.4-1.7,4.1-6.3,4.1c-4.2,0-6.3-1.9-7-4.5h-7c0.7,5.8,5.6,10.4,14,10.4
	c7.9,0,13-4.2,13-10.3C133.2,69.3,129.6,66.6,123.8,66z M194.2,74.7c-1.1,2.4-3.6,4.3-7.2,4.3c-4.9,0-8.6-3.2-8.6-10.1
	c0-6.6,3.4-10.3,8.7-10.3c4.7,0,7.4,2.8,7.6,7.1h-12.1v4.9h18.7v-3.2c0-8.9-5.9-14.7-14.3-14.7c-7.8,0-15.3,5.3-15.3,16.2
	c0,10.9,7.5,16.2,15.3,16.2c7.2,0,12.3-4.4,13.8-10.4H194.2z M88,52.6c-7.4,0-12.9,3.8-13.5,9.7h7.2c0.5-2.2,2.5-3.8,6.3-3.8
	c4.9,0,6.5,2.6,6.5,5.7v10.6c-2.8,3.1-6,4.6-9.2,4.6c-3.3,0-5.6-1.6-5.6-4.5c0-2.8,1.8-4.5,5.3-4.5h5.4v-4.9h-5.6
	c-7.7,0-12,3.8-12,9.7c0,5.5,4.2,9.7,11,9.7c3.8,0,7.2-1.5,9.7-3.4h1v2.6h6.7V63.7C101.2,56,96,52.6,88,52.6z M42.3,84.3h6.7V42
	h-6.7V84.3z M70.6,53.4h-8.2l-9.8,12.9v4l10.1,14H71l-11.8-16L70.6,53.4z M314,53.4l-5.5,12.2c-1.3,3-2.6,5.8-3,7.8h-1
	c-0.4-1.9-1.7-4.7-3.1-7.7L296,53.4h-7.4l13,27.8l-6.4,14h7.2l19.2-41.8H314z M287,53.4h-8.2L269,66.3v4l10.1,14h8.3l-11.8-16
	L287,53.4z M244.9,66l-4.5-0.4c-3.5-0.3-5.4-1.3-5.4-3.3c0-2.4,2.4-3.8,5.8-3.8c3.5,0,5.8,1.7,6,4h6.5c-0.3-6-4.9-9.7-12.4-9.7
	c-7.5,0-12.6,4-12.6,9.8c0,4.9,3.1,8,10.1,8.7l4.6,0.4c2.8,0.3,4.6,0.8,4.6,3.5c0,2.4-1.7,4.1-6.3,4.1c-4.2,0-6.3-1.9-7-4.5h-7
	c0.7,5.8,5.6,10.4,14,10.4c7.9,0,13-4.2,13-10.3C254.2,69.3,250.6,66.6,244.9,66z M258.7,84.3h6.7V42h-6.7V84.3z M214.3,57h-1v-3.6
	h-6.7v30.9h6.7V68.2c0-5.5,2.5-8.7,7.6-8.7h4.3v-6.8h-2.5C218.1,52.6,216.1,54.4,214.3,57z"/>
</svg>
