<!DOCTYPE svg PUBLIC "-//W3C//DTD SVG 20010904//EN" "http://www.w3.org/TR/2001/REC-SVG-20010904/DTD/svg10.dtd">
<svg version="1.0" xmlns="http://www.w3.org/2000/svg" width="541px" height="194px" viewBox="0 0 5410 1940" preserveAspectRatio="xMidYMid meet">
<g id="layer101" fill="#1073b9" stroke="none">
 <path d="M1086 1930 c-100 -31 -122 -116 -221 -865 -82 -613 -149 -945 -188 -932 -54 17 -125 279 -282 1047 -32 151 -66 296 -77 322 -25 58 -93 123 -144 137 -22 6 -70 11 -108 11 -60 0 -67 -2 -62 -17 4 -9 10 -36 13 -60 l6 -43 49 0 c68 0 112 -23 132 -68 9 -20 52 -215 96 -432 149 -732 217 -945 323 -1011 62 -39 136 -8 178 73 56 109 87 273 189 993 91 640 104 715 130 715 6 0 16 -12 22 -27 49 -121 99 -210 126 -225 28 -17 133 -18 1807 -18 l1777 0 -6 30 c-3 17 -9 44 -12 60 l-6 30 -1749 0 -1750 0 -30 68 c-53 118 -81 171 -103 191 -26 23 -72 32 -110 21z"/>
 <path d="M4903 1720 c3 -13 14 -68 23 -122 13 -70 22 -98 32 -98 15 0 399 118 420 129 7 4 -88 28 -211 55 -123 26 -234 50 -247 53 -20 5 -22 3 -17 -17z"/>
 <path d="M1404 1373 c2 -10 40 -188 82 -395 l78 -378 233 0 233 0 1 108 c1 59 4 157 8 217 l6 110 23 -50 c12 -27 55 -124 95 -215 l73 -165 233 -3 c185 -2 232 0 229 10 -3 7 -40 185 -84 396 l-78 382 -138 0 c-82 0 -138 -4 -138 -10 0 -5 24 -125 54 -267 63 -302 70 -340 62 -332 -3 3 -68 140 -145 305 l-139 299 -130 3 -129 3 -6 -78 c-4 -43 -9 -168 -12 -278 -3 -110 -8 -216 -12 -235 -7 -41 2 -76 -83 333 l-54 257 -134 0 c-122 0 -133 -1 -128 -17z"/>
 <path d="M2654 1373 c6 -22 166 -760 166 -767 0 -3 75 -6 166 -6 153 0 165 1 160 18 -6 21 -166 759 -166 766 0 3 -75 6 -166 6 -153 0 -165 -1 -160 -17z"/>
 <path d="M3102 1378 c3 -7 40 -185 84 -396 l79 -383 305 3 c291 3 307 4 346 25 50 27 112 93 120 130 13 60 18 54 38 -47 l22 -105 427 -3 427 -2 -5 22 c-3 13 -13 64 -23 113 l-18 90 -136 3 -136 3 -15 67 c-8 37 -34 163 -58 280 l-43 212 -153 0 c-84 0 -153 -3 -153 -7 0 -5 25 -129 55 -276 30 -147 55 -270 55 -272 0 -3 -60 -5 -134 -5 l-133 0 -7 42 c-21 130 -121 236 -258 274 -29 8 -115 18 -190 21 l-136 6 -17 71 c-8 39 -18 88 -22 108 l-6 38 -159 0 c-124 0 -159 -3 -156 -12z m571 -402 c43 -18 67 -46 74 -89 4 -29 1 -40 -20 -61 -24 -24 -34 -26 -106 -26 l-79 0 -17 78 c-9 42 -19 85 -21 95 -5 15 3 17 66 17 39 0 85 -6 103 -14z"/>
 </g>

</svg>