<!DOCTYPE svg PUBLIC "-//W3C//DTD SVG 20010904//EN" "http://www.w3.org/TR/2001/REC-SVG-20010904/DTD/svg10.dtd">
<svg version="1.0" xmlns="http://www.w3.org/2000/svg" width="600px" height="592px" viewBox="0 0 6000 5920" preserveAspectRatio="xMidYMid meet">
<g id="layer101" fill="#000000" stroke="none">
 <path d="M2895 5910 c-121 -10 -167 -20 -310 -67 -131 -43 -217 -81 -264 -117 l-35 -26 -46 0 c-53 0 -70 -13 -70 -52 0 -33 -3 -34 -38 -10 -36 25 -89 43 -107 36 l-15 -6 0 -29 0 -30 -14 -5 c-7 -3 -30 2 -51 10 -21 9 -58 16 -84 16 l-46 0 -32 -20 c-41 -24 -55 -52 -51 -98 l3 -36 -34 -7 c-18 -4 -45 -19 -59 -33 l-26 -25 0 -36 0 -36 -21 -4 c-11 -2 -61 -6 -111 -8 l-90 -3 -45 -23 c-24 -12 -59 -37 -77 -54 l-32 -31 0 -27 0 -28 -78 -79 c-42 -44 -93 -90 -112 -103 -111 -77 -151 -113 -241 -218 -55 -64 -120 -151 -145 -193 l-45 -77 13 -20 12 -20 -46 -68 c-26 -37 -81 -106 -124 -153 -156 -173 -241 -337 -330 -637 -15 -51 -26 -95 -23 -97 2 -3 36 11 74 30 39 18 73 34 78 34 16 0 5 -25 -28 -62 -48 -52 -106 -186 -148 -338 -31 -113 -67 -412 -67 -565 l0 -70 23 32 c22 32 62 53 100 53 l19 0 -7 -17 c-18 -47 -34 -129 -45 -233 l-13 -113 6 -131 c8 -161 21 -266 49 -372 31 -124 39 -129 77 -49 12 25 25 45 30 45 11 0 40 -93 90 -296 22 -88 52 -195 67 -239 27 -80 95 -211 142 -273 l25 -33 10 10 c6 6 22 38 36 73 15 35 31 62 36 61 5 -1 17 -35 27 -75 10 -40 40 -118 67 -174 l50 -101 74 -84 c63 -72 266 -259 281 -259 3 0 6 30 8 68 l3 67 31 -51 32 -51 103 -83 104 -84 3 63 3 62 14 5 15 6 27 -33 c35 -42 156 -158 206 -197 l37 -30 73 -22 c39 -13 92 -29 117 -36 l45 -14 -38 33 -37 32 0 24 0 23 17 -7 c58 -24 125 -49 176 -66 l58 -19 77 -2 c120 -4 282 1 282 10 0 4 -19 14 -43 23 -111 43 -248 90 -301 104 -32 8 -62 17 -65 20 -13 13 28 25 87 25 34 0 62 3 62 8 0 4 -26 22 -58 39 -31 18 -73 41 -92 52 -80 45 -203 96 -335 139 -77 25 -142 47 -145 49 -11 10 27 21 91 27 38 4 69 10 69 13 0 8 -20 23 -145 107 -248 165 -468 291 -580 332 -33 12 -60 26 -60 30 0 5 33 15 74 21 41 7 75 14 77 16 2 1 -20 36 -48 77 l-51 75 -214 212 -215 213 5 12 4 13 31 -3 31 -3 7 26 c24 95 -43 391 -152 678 -19 49 -34 96 -34 104 l0 16 28 -7 c15 -3 38 -9 51 -12 l24 -7 -6 159 -5 159 -26 95 c-15 52 -34 136 -43 185 l-16 90 7 38 c8 45 20 47 32 5 5 -17 15 -33 22 -36 l13 -4 6 23 c23 86 151 287 261 409 l41 45 1 -372 0 -371 11 -54 c6 -29 13 -64 16 -77 l4 -25 10 15 c5 7 9 35 9 60 l0 45 14 20 15 19 5 -15 c2 -8 7 -100 10 -205 3 -104 9 -218 12 -252 l7 -63 13 0 13 0 6 48 c3 26 7 53 8 60 1 7 7 14 12 15 l10 2 3 -87 3 -88 20 -11 21 -11 -7 -50 -7 -51 32 7 c18 3 36 6 41 6 5 0 9 20 9 45 l0 44 14 8 15 8 7 93 c9 118 29 123 36 8 2 -22 8 -41 15 -43 l11 -4 6 63 c3 35 10 149 15 255 5 106 12 197 16 203 12 19 25 -1 26 -38 1 -20 4 -48 8 -62 l7 -25 7 40 c4 22 7 52 7 68 0 28 6 32 34 21 l16 -6 0 -27 c0 -14 6 -46 14 -71 l13 -45 7 33 c4 17 12 32 17 32 9 0 12 -30 9 -88 l-2 -32 16 -6 16 -6 0 -34 0 -34 25 0 25 0 0 35 0 35 18 0 18 0 -4 65 -4 65 10 0 c5 0 13 -12 17 -27 l7 -28 15 40 16 40 6 95 6 95 260 0 260 0 7 -70 c4 -38 11 -71 17 -73 5 -2 15 -19 21 -38 15 -43 25 -43 40 0 6 19 18 40 26 46 l14 12 0 52 c0 28 4 57 9 64 l8 13 49 -3 49 -3 -2 -365 c0 -201 -2 -376 -3 -390 -1 -14 4 -47 11 -75 l12 -50 11 54 c6 30 17 56 24 59 l12 4 0 -40 0 -39 24 4 25 5 7 -38 c4 -22 14 -44 23 -51 l16 -11 0 -60 0 -60 20 -22 19 -21 18 33 17 33 1 48 0 49 19 24 19 24 7 -107 c5 -60 5 -190 2 -290 l-6 -182 10 -28 c4 -15 12 -50 17 -78 l9 -50 8 52 c8 56 25 72 25 25 0 -15 7 -38 16 -51 l17 -24 7 -146 c4 -80 11 -154 15 -164 l7 -18 13 11 12 10 12 -13 11 -14 -2 -68 -2 -68 29 -23 29 -23 -13 -56 -13 -56 15 -17 14 -17 9 -75 c5 -41 9 -155 9 -252 l0 -176 28 -5 28 -4 -11 11 -10 10 0 136 c0 74 5 185 11 245 l11 110 14 16 14 15 -10 35 c-6 18 -10 46 -10 60 l0 27 26 17 27 17 -6 61 -5 61 15 30 15 30 13 -24 12 -23 9 14 c4 8 10 84 12 169 l4 155 14 20 c8 11 14 31 14 45 0 14 4 31 9 39 l9 13 7 -12 c4 -7 11 -38 15 -69 l6 -56 7 40 c4 22 12 65 17 96 l10 55 0 277 0 276 9 6 10 5 11 -57 c19 -98 29 -130 45 -143 l15 -12 15 35 c8 20 15 44 15 54 0 10 7 49 17 87 l16 69 18 4 18 5 3 32 c5 47 22 34 34 -26 l10 -53 13 50 c7 27 17 52 22 56 l10 6 -11 27 -10 27 0 365 0 365 58 -3 57 -3 5 -71 5 -72 16 -18 c9 -11 21 -32 26 -49 12 -39 25 -38 38 2 6 17 18 40 27 50 l17 18 3 70 3 70 251 3 251 2 7 -46 c3 -26 6 -65 6 -88 0 -23 11 -72 24 -109 l24 -68 7 28 6 27 10 -15 c5 -7 9 -37 9 -66 0 -28 5 -55 10 -58 6 -3 10 -19 10 -36 l0 -29 24 0 24 0 6 16 c3 9 6 24 6 35 0 10 5 19 10 19 l10 0 0 58 c0 70 10 86 26 40 l12 -33 5 25 c3 14 9 42 12 63 l6 38 16 6 15 6 9 -14 c5 -8 12 -34 15 -59 l7 -45 11 54 c6 30 16 56 22 58 l11 4 6 -68 c4 -37 7 -122 8 -188 0 -66 6 -154 13 -195 l12 -75 8 60 c4 33 10 69 13 80 l6 20 8 -20 c4 -11 8 -57 8 -101 l1 -82 26 -6 25 -7 -1 -42 c-3 -63 -3 -63 35 -63 l35 0 0 53 0 53 20 0 20 0 0 88 c0 48 4 93 9 101 l9 13 6 -10 c3 -6 9 -38 13 -72 3 -33 9 -57 13 -53 17 18 39 179 46 336 l6 168 17 -3 16 -3 5 -57 c3 -31 8 -59 12 -63 10 -10 25 25 33 78 4 26 10 47 14 47 3 0 5 162 3 360 l-3 360 8 0 c5 0 52 -57 105 -127 l97 -128 40 -84 c23 -47 41 -91 41 -97 0 -7 4 -16 10 -19 l9 -6 15 36 c16 38 31 45 38 18 7 -29 -21 -199 -54 -328 l-30 -120 -5 -111 c-3 -62 -3 -124 1 -138 l6 -26 47 7 46 6 -6 -24 c-3 -13 -28 -89 -57 -169 -90 -253 -146 -515 -126 -594 l6 -26 30 0 c17 0 30 -4 30 -10 0 -5 -53 -60 -117 -122 -204 -197 -272 -271 -328 -353 -30 -44 -55 -85 -55 -91 l0 -12 48 -6 c93 -14 102 -25 34 -46 -46 -15 -173 -78 -250 -123 -31 -19 -104 -62 -162 -96 -124 -74 -294 -187 -298 -200 -3 -10 32 -21 73 -21 69 -1 100 -24 48 -36 -56 -12 -220 -67 -317 -105 -94 -37 -160 -71 -251 -127 l-40 -25 20 -8 c11 -4 46 -8 78 -8 55 -1 74 -12 41 -25 -8 -3 -44 -13 -80 -21 -94 -22 -314 -95 -314 -104 0 -10 146 -21 275 -22 l90 -1 50 17 c28 10 76 28 107 41 32 13 67 24 78 24 l20 0 0 -15 c0 -8 -14 -30 -31 -50 l-31 -35 15 0 c8 0 62 16 119 36 l103 36 51 38 c29 22 85 75 125 119 41 45 79 81 86 81 l12 0 7 -60 c4 -33 10 -60 14 -60 19 0 136 98 193 161 34 38 66 69 70 69 l9 0 -7 -60 c-4 -33 -4 -60 0 -60 12 0 147 115 215 182 118 117 228 304 254 433 l13 60 13 0 13 0 25 -72 c13 -40 27 -73 32 -73 13 0 58 64 101 144 51 96 93 210 124 344 56 235 67 277 80 309 8 18 19 33 25 33 6 0 19 -20 30 -44 33 -79 44 -71 78 54 28 104 42 245 43 440 l0 165 -16 90 c-9 50 -19 105 -22 123 l-5 32 11 0 c6 0 34 -22 63 -50 l51 -49 -6 172 c-8 197 -25 330 -62 472 -43 169 -104 313 -149 354 -14 14 -26 30 -26 37 l0 13 30 -9 c17 -5 55 -23 84 -40 l54 -30 -29 97 c-85 286 -172 474 -269 578 -30 32 -175 223 -203 267 -9 15 -17 34 -17 43 l0 15 21 0 20 0 -7 23 c-13 44 -64 138 -99 184 -41 54 -212 214 -256 240 l-29 17 -11 36 c-17 54 -66 126 -115 169 l-44 39 0 30 0 31 -30 35 c-17 18 -47 42 -67 52 -57 26 -172 54 -229 54 l-52 0 -6 44 -7 43 -22 20 c-12 11 -35 25 -52 30 l-30 10 -1 41 0 42 -23 24 c-13 13 -36 30 -51 36 l-28 12 -64 -5 c-35 -3 -74 -7 -88 -9 l-25 -3 -3 32 -3 31 -23 6 c-27 7 -77 -6 -108 -28 -32 -23 -38 -20 -32 13 l6 29 -11 6 c-6 4 -34 10 -62 13 l-52 6 -51 35 c-196 132 -520 198 -841 172z m390 -64 c183 -35 322 -86 413 -153 l33 -25 -25 -42 c-35 -61 -63 -151 -82 -263 l-16 -98 7 -95 c10 -149 23 -223 54 -320 l29 -90 -17 0 c-9 0 -21 4 -27 9 -32 30 -269 91 -489 125 l-101 16 -119 0 c-227 0 -390 -30 -513 -95 -37 -19 -68 -33 -70 -31 -2 3 14 49 36 103 51 125 62 187 62 334 l0 118 -15 70 c-13 64 -39 136 -81 228 -8 17 -14 38 -14 46 0 37 167 104 360 147 74 16 144 31 155 34 11 2 90 3 175 2 l155 -3 90 -17z m-1377 -256 l43 -11 29 -41 30 -41 0 -74 0 -73 -18 0 c-10 0 -26 6 -37 13 -11 8 -29 17 -40 20 l-20 7 29 -24 c30 -25 130 -58 231 -77 l60 -11 91 4 92 5 16 -9 16 -9 0 -30 0 -30 -26 -24 c-15 -14 -31 -25 -36 -25 -5 0 -29 -19 -53 -41 l-45 -42 -37 -1 -37 -1 -6 30 -6 30 -19 -32 -19 -32 -35 -14 c-20 -8 -52 -17 -71 -21 l-35 -6 -32 20 -33 20 0 24 c0 14 5 28 10 31 6 3 10 12 10 19 l0 13 -56 6 -56 6 -24 22 -23 21 6 49 6 49 -20 0 c-11 0 -32 9 -47 21 l-26 20 0 38 0 38 25 23 25 23 0 38 c0 21 3 45 6 54 7 18 61 45 78 39 6 -1 30 -8 54 -14z m2377 -24 l24 -24 -6 -36 -6 -35 32 -36 c34 -39 37 -57 18 -94 l-12 -24 -35 -11 -35 -11 0 -48 0 -49 -22 -17 -22 -18 -52 -6 c-28 -4 -53 -8 -55 -10 -2 -2 1 -18 7 -36 l11 -32 -17 -19 c-22 -24 -65 -33 -117 -25 l-43 8 -34 34 -34 34 -14 -21 -14 -20 -27 0 -28 0 -79 66 c-44 36 -84 73 -88 80 l-8 15 9 27 9 27 139 1 139 0 85 23 c104 27 136 39 151 58 l12 14 -53 -21 -53 -21 -8 13 c-5 7 -9 33 -9 58 l0 46 23 44 22 44 44 23 44 23 39 0 39 0 24 -24z m-2037 -136 l72 -79 -10 -6 c-14 -8 -51 16 -112 73 l-48 45 0 23 0 24 13 0 c6 0 45 -36 85 -80z m1632 51 c0 -10 -9 -30 -20 -44 -25 -32 -136 -100 -153 -94 l-12 4 75 76 c42 42 83 77 93 77 l17 0 0 -19z m-2276 -208 c2 -10 7 -32 11 -50 3 -17 17 -43 30 -57 l23 -25 61 -7 60 -7 11 -33 c6 -18 20 -44 31 -58 l20 -26 -27 -11 c-45 -16 -160 -28 -281 -29 l-113 0 0 -10 c0 -10 31 -13 136 -10 l61 1 31 -26 c18 -15 32 -32 32 -39 l0 -12 -56 0 -56 1 -19 -24 -19 -24 6 -34 6 -34 -43 7 c-53 8 -85 26 -94 54 l-6 20 -62 0 -63 0 -23 16 c-29 20 -51 72 -51 118 l0 34 25 31 c14 16 35 33 46 36 l21 7 -7 35 -6 34 11 35 12 34 41 22 c54 28 129 46 194 47 l52 1 5 -17z m2975 -14 c82 -13 156 -44 181 -77 l20 -25 0 -56 0 -56 23 -10 22 -10 23 -46 23 -46 -16 -40 -16 -40 -41 -23 -40 -23 -50 6 -49 6 -11 -23 c-13 -29 -48 -46 -93 -46 l-35 0 0 40 0 40 -27 17 -27 18 -43 -1 -43 -1 0 14 c0 7 15 22 33 34 l32 20 81 -7 c45 -3 92 -3 105 2 l24 8 -45 7 c-25 4 -72 8 -106 8 -77 1 -266 29 -278 41 l-10 10 21 22 c11 13 25 37 30 53 l9 30 50 9 c27 4 62 13 78 19 l28 10 14 33 c8 19 14 44 14 57 0 41 12 44 119 26z m-826 -270 l38 -13 46 -50 c25 -28 62 -75 81 -103 19 -29 39 -53 43 -53 l9 0 -9 23 c-5 13 -19 39 -30 58 -37 61 -23 87 29 52 133 -88 230 -201 306 -354 l46 -94 -5 46 c-2 25 -19 76 -37 115 l-33 69 -64 66 c-59 61 -76 89 -54 89 6 0 12 -4 15 -9 3 -4 26 -14 50 -21 l45 -12 31 26 31 26 67 -35 c37 -19 75 -41 84 -48 25 -20 38 -61 31 -101 l-6 -36 34 -37 c19 -21 41 -53 48 -71 l13 -32 -16 -25 -16 -25 -30 0 -30 0 0 -54 0 -54 -37 -32 -36 -32 -45 6 c-25 3 -62 14 -81 24 l-36 17 -15 30 c-8 17 -16 31 -17 33 0 2 -18 -1 -38 -7 l-37 -10 -23 23 c-25 25 -55 111 -55 157 0 15 -2 34 -5 42 l-6 14 -45 -10 -45 -10 -27 19 c-15 11 -40 47 -57 80 l-30 59 -61 61 -61 62 -17 48 c-23 69 -20 112 8 100 6 -3 28 -10 49 -17z m-1376 -28 l-5 -39 -43 -72 -43 -73 -30 -18 -30 -18 -36 -73 -35 -73 -36 -9 -36 -9 -31 15 -30 15 -11 -73 c-6 -40 -21 -93 -33 -118 l-22 -46 -36 0 c-20 0 -41 5 -48 12 l-12 12 0 -15 c0 -36 -96 -99 -150 -99 -41 0 -98 27 -111 53 l-11 20 4 53 5 53 -41 3 -41 3 -3 32 c-4 38 16 79 58 120 l32 31 -11 20 c-6 12 -11 33 -11 48 l0 27 41 38 40 37 59 22 59 22 31 -26 c37 -30 45 -31 94 -11 l36 15 0 -11 c0 -6 -29 -45 -65 -87 -75 -87 -112 -156 -121 -224 l-7 -48 9 0 c5 0 20 30 34 67 31 83 104 187 187 268 61 61 165 126 178 113 4 -3 -5 -28 -18 -55 -13 -26 -28 -59 -32 -72 l-7 -24 11 7 c6 4 40 47 77 96 l66 89 32 14 c32 15 60 24 85 26 l14 1 -6 -39z m-452 -17 c-24 -18 -73 -31 -145 -40 l-56 -6 -13 16 -14 17 9 9 c11 10 62 16 164 18 l75 1 -20 -15z m2378 -6 l58 -11 -3 -15 c-2 -8 -16 -20 -32 -25 l-29 -10 -56 17 c-90 27 -111 38 -111 53 l0 15 58 -6 c31 -4 83 -12 115 -18z m-3093 -114 c36 -51 83 -84 118 -84 12 0 22 -5 22 -10 0 -6 -24 -45 -54 -88 -56 -80 -100 -161 -93 -168 2 -3 15 13 29 33 33 50 200 223 214 223 l12 0 6 -44 7 -44 -30 -30 c-39 -38 -46 -69 -33 -145 l10 -62 -9 -16 c-4 -9 -20 -24 -34 -33 l-26 -17 -19 6 c-11 4 -26 18 -33 31 l-13 26 -27 -36 -27 -35 -34 -7 c-19 -3 -43 -3 -54 0 -33 11 -81 67 -88 101 l-6 32 16 36 15 37 -30 29 -29 29 0 42 0 42 28 27 27 28 -14 36 -14 37 17 25 c19 29 48 43 87 44 l26 1 33 -46z m3727 11 c71 -30 88 -62 59 -115 l-13 -25 25 -21 25 -20 4 -51 5 -51 -30 -27 -31 -28 9 -18 c6 -10 10 -38 10 -62 l0 -44 -21 -27 c-25 -32 -69 -56 -102 -56 l-24 0 -20 23 c-11 12 -26 32 -32 45 l-12 23 -29 -31 c-33 -35 -36 -36 -75 -10 l-30 20 0 106 0 107 -18 11 c-10 6 -26 16 -34 22 l-16 11 9 38 c5 21 15 40 21 42 17 6 113 -86 185 -175 32 -40 58 -70 58 -66 0 15 -74 141 -112 191 -22 29 -37 56 -34 61 3 5 26 12 52 15 25 2 58 14 73 24 l26 20 13 41 c8 23 16 42 18 42 3 0 21 -7 41 -15z m-4021 -100 l16 -25 -7 -37 c-9 -52 -39 -98 -79 -122 l-33 -21 -52 0 c-28 0 -51 3 -51 8 0 19 165 222 181 222 5 0 16 -11 25 -25z m4290 -101 c85 -97 124 -148 124 -163 l0 -14 -59 6 -59 5 -31 23 c-55 41 -86 132 -61 180 17 30 33 23 86 -37z m-1896 -19 l156 -13 109 -27 c61 -15 122 -34 138 -41 l27 -15 21 11 c30 17 47 6 58 -38 6 -21 24 -59 41 -83 16 -24 30 -48 30 -53 l0 -9 -212 6 -213 7 -37 -9 c-21 -5 -61 -24 -90 -42 l-53 -34 -60 0 -60 0 -3 -51 -3 -51 -156 -7 -156 -6 -12 10 c-16 13 -40 69 -33 76 3 2 58 7 122 11 l116 6 0 14 0 14 -157 -3 -158 -3 -70 40 -70 40 -208 5 -207 5 24 36 c14 20 28 52 31 72 4 20 13 41 20 47 35 29 273 81 475 104 60 7 427 -5 590 -19z m-2392 -200 l-10 -60 7 -82 c7 -95 30 -181 74 -277 17 -38 31 -74 31 -81 0 -6 -18 -35 -40 -65 -22 -29 -54 -90 -70 -134 -17 -45 -37 -96 -45 -114 l-15 -33 -10 6 c-15 9 -88 122 -120 185 -15 30 -44 106 -64 168 l-36 114 -9 96 c-5 53 -5 120 -2 149 l7 52 46 58 45 58 39 12 c21 6 66 15 99 20 l60 9 12 -11 11 -10 -10 -60z m4307 -6 c84 -14 91 -16 102 -42 6 -12 27 -42 48 -67 l38 -45 -6 -110 -6 -110 -25 -98 c-14 -54 -45 -140 -69 -191 -48 -100 -131 -236 -145 -236 -5 0 -19 30 -32 68 -32 90 -72 180 -104 230 -14 23 -26 48 -26 56 0 8 18 55 39 105 62 141 82 263 62 386 -5 27 -6 56 -3 63 l5 14 31 -7 c17 -3 58 -11 91 -16z m-4207 -95 l22 -15 0 -29 c0 -48 -48 -78 -78 -48 -7 7 -12 28 -12 48 0 56 26 74 68 44z m4044 -31 c10 -9 18 -28 18 -43 l0 -27 -20 -18 -20 -18 -25 11 -25 12 0 30 0 30 20 20 c24 24 28 25 52 3z m-3772 -37 c-19 -50 -103 -213 -127 -244 -13 -17 -36 -38 -51 -46 l-27 -14 -18 13 c-27 19 -20 40 21 67 l37 25 35 58 c58 95 120 176 130 170 l9 -6 -9 -23z m-140 -32 c-13 -32 -73 -126 -91 -141 -8 -6 -25 -13 -38 -15 l-24 -3 -5 13 -4 14 49 47 c27 26 62 64 77 84 16 20 32 34 37 32 l8 -6 -9 -25z m3628 -51 c37 -49 91 -112 120 -142 28 -30 52 -58 52 -63 0 -5 -11 -14 -26 -20 l-25 -12 -44 45 c-41 41 -175 247 -175 269 0 30 38 0 98 -77z m150 -22 c81 -88 94 -110 70 -112 -27 -3 -44 4 -67 24 -50 45 -120 177 -95 177 5 0 46 -40 92 -89z m-2544 -41 l13 0 10 -120 c10 -124 17 -148 37 -116 6 11 22 31 36 45 l25 26 3 90 c2 50 9 96 15 103 l11 14 13 -18 13 -18 1 -130 2 -131 7 50 c5 28 9 86 9 130 1 44 5 86 10 93 l8 13 34 -3 34 -3 3 -50 c2 -27 1 -100 -3 -162 l-7 -111 -34 -4 c-19 -2 -38 0 -43 5 l-9 9 -24 -16 -24 -16 -34 10 c-19 6 -56 10 -82 10 l-48 0 1 173 c1 94 4 162 6 150 2 -13 10 -23 17 -23z m-111 -156 c4 -98 6 -320 5 -492 l-3 -313 -15 -9 c-8 -5 -18 -6 -22 -4 -10 6 -11 988 -1 998 4 3 12 5 17 3 l11 -4 8 -179z m503 151 c9 -48 1 -277 -10 -294 l-9 -15 -8 20 c-9 23 -11 250 -3 293 8 41 22 39 30 -4z m186 25 l80 0 -4 -12 c-3 -7 -21 -14 -41 -16 -37 -3 -47 -15 -25 -28 l13 -8 -25 -6 c-32 -8 -50 -2 -50 17 l0 14 -22 -3 -23 -3 4 -131 3 -131 -10 -6 -9 -7 -7 38 c-8 51 -8 277 1 286 4 3 13 4 21 1 7 -3 50 -5 94 -5z m469 -67 c0 -32 3 -76 8 -98 l7 -40 19 2 20 2 20 -45 20 -45 17 22 18 21 1 47 c1 25 6 75 13 111 l11 65 15 0 15 0 3 -146 3 -147 -23 -6 c-13 -3 -62 -6 -110 -6 l-88 0 0 153 c0 85 3 157 7 160 16 17 23 3 24 -50z m-2891 -39 c0 -155 -44 -286 -114 -338 -38 -29 -115 -63 -161 -72 l-35 -6 0 12 c0 7 15 38 34 69 18 31 57 103 85 161 l51 105 60 78 c34 42 65 77 71 77 l9 0 0 -86z m2724 8 c7 -83 -2 -232 -14 -232 -14 0 -26 242 -14 288 12 42 21 22 28 -56z m106 -77 l0 -155 -9 0 c-4 0 -11 27 -14 59 -8 72 3 251 15 251 l8 0 0 -155z m384 53 c8 -115 8 -841 0 -862 -9 -23 -31 -19 -38 7 -8 30 -8 932 1 940 3 4 12 7 18 7 l12 0 7 -92z m-585 -88 c1 -52 -4 -102 -9 -110 l-10 -15 1 150 1 150 9 -40 c4 -22 8 -83 8 -135z m-1409 -73 c3 -125 3 -332 0 -460 l-5 -232 -26 -3 -26 -3 -6 399 c-4 220 -4 430 0 466 l6 67 26 -3 26 -3 5 -228z m2534 191 c3 -13 6 -222 6 -465 l0 -443 -22 0 c-13 0 -29 4 -37 9 l-14 9 -5 359 c-3 198 -1 403 3 456 l7 97 28 0 28 0 6 -22z m1284 -113 c32 -50 192 -372 192 -387 l0 -10 -30 6 c-43 8 -135 53 -171 84 -53 44 -80 125 -99 291 l-10 92 11 22 12 21 35 -39 c19 -22 46 -58 60 -80z m-2489 -21 c1 -95 -2 -106 -26 -97 l-14 6 6 91 c4 50 9 100 12 111 l6 20 8 -20 c4 -11 8 -61 8 -111z m-129 17 c6 -102 4 -111 -16 -111 l-14 0 0 106 0 106 13 -4 12 -5 5 -92z m-1560 -895 l-11 -11 -9 15 -10 15 0 412 0 412 18 17 17 18 3 -434 2 -434 -10 -10z m3218 424 l2 -444 -10 -10 c-5 -5 -12 -7 -15 -5 -8 8 -19 874 -12 893 4 10 13 16 20 14 l12 -5 3 -443z m-3965 337 c23 -56 22 -61 -12 -110 -52 -75 -132 -141 -198 -161 l-23 -7 0 14 c0 7 17 29 38 48 42 37 122 163 143 222 7 20 18 37 24 37 5 0 18 -19 28 -43z m427 -348 c0 -191 -3 -361 -6 -378 l-7 -32 -16 3 -16 3 -9 270 c-5 149 -10 314 -10 368 l-1 99 24 19 24 20 8 -13 c5 -7 9 -169 9 -359z m1860 321 l15 -10 -287 0 -288 0 0 10 0 10 273 0 272 0 15 -10z m655 1 l19 -8 -54 -6 c-71 -9 -359 -9 -439 -1 -33 4 -61 11 -61 15 l0 9 258 -1 c141 0 266 -4 277 -8z m1376 -88 c5 -38 8 -203 8 -369 l1 -300 -13 -19 -14 -18 -11 7 -12 7 0 397 0 396 17 -17 17 -17 7 -67z m450 17 c30 -72 78 -146 128 -195 47 -45 50 -55 18 -55 -49 0 -153 90 -210 182 -22 35 -21 50 4 100 l21 40 8 -8 c4 -5 18 -34 31 -64z m-2661 20 l45 -9 63 11 64 10 22 -10 22 -10 13 -51 c7 -29 18 -50 23 -49 6 2 20 28 33 57 l22 54 144 -2 c79 -1 147 -5 151 -7 4 -3 8 -23 8 -45 l0 -39 -135 0 -135 0 0 -11 c0 -5 14 -27 31 -49 l31 -38 -4 -19 c-4 -20 -18 -21 -64 -2 l-31 12 -36 -27 -36 -28 -21 7 c-11 3 -20 10 -20 15 0 5 -16 12 -36 16 l-36 7 -25 -12 c-14 -7 -28 -10 -30 -7 -11 11 9 57 37 90 17 18 30 36 30 40 0 3 -56 6 -125 6 l-125 0 0 40 0 39 18 10 c21 13 43 13 102 1z m-156 -16 l16 -15 0 -659 0 -658 -19 -5 c-10 -2 -23 -2 -29 2 l-10 6 -8 650 -9 650 -87 5 c-88 5 -105 10 -93 29 l6 11 109 0 109 0 15 -16z m1005 7 c20 -13 4 -18 -81 -26 l-78 -7 0 -659 0 -659 -29 0 -28 0 -7 31 c-8 40 -8 1277 0 1307 l6 22 102 0 c55 0 107 -4 115 -9z m-2834 -124 c-9 -70 -32 -119 -99 -206 -31 -41 -56 -78 -56 -83 0 -4 -4 -8 -10 -8 -15 0 -23 65 -15 125 l6 55 52 70 c29 38 60 81 70 95 l18 25 20 -11 21 -11 -7 -51z m1957 -23 c8 -48 8 -949 -1 -1093 l-6 -104 -11 -4 -11 -4 -6 377 c-3 207 -3 489 0 626 l6 249 11 -4 c6 -2 14 -21 18 -43z m581 -579 c-1 -332 -5 -610 -9 -616 l-7 -13 -8 20 c-9 24 -12 1218 -2 1228 4 3 11 2 17 -4 l11 -11 -2 -604z m1961 598 c3 -10 26 -43 52 -73 25 -30 53 -71 64 -90 23 -46 32 -190 11 -190 -9 0 -121 141 -140 178 -14 27 -27 153 -18 176 8 21 24 20 31 -1z m-4828 -148 l16 -25 -6 -32 c-11 -57 -47 -76 -80 -42 l-16 15 0 39 0 39 16 15 c23 23 51 19 70 -9z m2613 -610 c0 -231 -3 -426 -8 -433 l-8 -13 -6 143 c-9 192 -9 619 1 798 l7 145 6 -110 c4 -60 7 -299 8 -530z m-130 -2 l1 -422 -9 -5 -9 -6 -4 258 c-1 142 -1 381 2 532 l4 275 7 -105 c4 -58 7 -295 8 -527z m-2614 550 c5 -10 10 -74 13 -143 l4 -126 -22 -89 c-12 -50 -39 -126 -60 -170 l-39 -80 -45 -45 -46 -44 0 44 c0 102 53 400 90 511 45 132 86 187 105 142z m5307 -5 c16 -13 21 -33 19 -75 l-1 -23 -25 -16 -26 -17 -19 18 -20 18 0 43 0 43 18 10 c23 14 35 13 54 -1z m120 -110 c39 -81 74 -185 92 -273 23 -120 48 -318 44 -356 l-3 -34 -50 50 -50 50 -27 57 c-15 31 -37 99 -50 150 l-23 93 0 130 c0 195 19 232 67 133z m-5312 -95 c0 -32 -4 -96 -10 -141 l-9 -84 -35 -62 c-67 -120 -89 -115 -51 11 36 115 75 273 75 299 0 11 3 24 7 27 16 17 23 3 23 -50z m5190 -128 c12 -55 33 -139 46 -187 13 -48 24 -99 24 -114 l0 -27 -19 17 c-10 9 -33 43 -50 75 l-31 58 -11 101 -12 100 8 47 7 47 7 -8 c5 -5 18 -54 31 -109z m-5096 13 c3 -24 8 -79 11 -123 4 -44 13 -137 21 -206 9 -70 14 -144 12 -165 l-3 -39 -53 54 -52 53 -17 57 -17 56 0 80 -1 80 24 75 c24 78 45 120 60 120 5 0 11 -19 15 -42z m5023 -131 l28 -82 0 -100 0 -100 -29 -55 c-28 -55 -91 -130 -109 -130 l-10 0 7 58 c4 31 16 151 27 267 10 115 22 218 25 228 l6 18 13 -11 c8 -6 26 -48 42 -93z m-4334 -239 c34 -18 46 -40 47 -84 l0 -41 -18 -16 c-10 -9 -32 -21 -48 -27 l-31 -11 -25 10 c-14 5 -32 17 -41 26 l-17 16 0 45 0 45 25 24 24 25 31 0 c17 0 41 -5 53 -12z m3676 -14 l31 -26 0 -35 c0 -45 -14 -69 -51 -89 l-30 -15 -30 6 c-16 4 -38 18 -49 32 l-20 26 0 34 0 35 29 29 29 29 30 0 30 0 31 -26z m-4506 -37 c10 -15 1 -75 -14 -93 -27 -33 -79 -4 -79 44 0 15 7 38 16 51 l16 23 27 -7 c14 -4 29 -12 34 -18z m5304 -69 l23 -21 0 -25 c0 -33 -27 -62 -56 -62 l-23 0 -11 19 c-15 30 -12 56 11 85 25 32 27 32 56 4z m-5433 -84 c15 -37 36 -103 46 -148 l20 -81 0 -108 0 -107 -31 -118 c-16 -64 -34 -121 -39 -126 l-9 -9 -5 14 c-2 8 -7 88 -10 179 -4 91 -10 237 -15 325 -8 164 -5 245 9 245 4 0 20 -30 34 -66z m5536 -282 c-7 -130 -14 -282 -17 -337 -4 -111 -9 -145 -21 -145 -12 0 -40 86 -57 179 l-15 83 0 108 0 107 24 96 c23 89 45 145 69 176 l11 13 10 -21 9 -21 -13 -238z m-5273 196 c30 -63 80 -222 99 -308 8 -41 18 -127 20 -190 l5 -115 -9 -14 -10 -14 -15 6 c-27 10 -95 104 -119 164 l-23 58 0 190 c0 186 7 265 24 265 5 0 18 -19 28 -42z m-133 -89 c-3 -5 2 -33 12 -62 l18 -52 -1 -110 0 -111 -22 -64 c-37 -112 -59 -125 -40 -24 l11 59 -5 210 -6 210 19 -24 c11 -12 17 -27 14 -32z m5143 24 c5 -16 8 -116 8 -224 l0 -195 -33 -66 c-19 -36 -53 -87 -77 -114 l-43 -49 -8 8 c-12 12 -8 204 6 304 l11 83 38 102 c71 191 82 208 98 151z m122 -139 l-11 -79 5 -177 6 -178 -9 0 c-5 0 -21 37 -35 83 l-27 82 7 110 c4 61 14 135 22 165 33 117 59 113 42 -6z m-2479 16 l0 -10 -182 0 -183 0 15 10 15 10 168 0 167 0 0 -10z m-250 -230 l0 -150 -10 0 -10 0 0 143 c0 126 3 157 17 157 2 0 3 -67 3 -150z m60 0 l0 -150 -10 0 -10 0 0 150 0 150 10 0 10 0 0 -150z m60 -12 c0 -131 -11 -183 -24 -117 -8 41 -8 243 0 264 l7 17 8 -14 c5 -7 9 -75 9 -150z m54 120 c4 -23 4 -91 0 -151 l-7 -108 -8 13 c-5 7 -9 75 -9 151 l0 137 9 0 c5 0 11 -19 15 -42z m-2616 -290 l3 -48 -25 -11 -25 -12 -16 13 c-20 17 -19 69 2 92 l17 19 20 -3 21 -3 3 -47z m5104 -11 c9 -7 20 -25 23 -40 l7 -27 -16 -25 -16 -25 -25 0 -24 0 -11 19 c-16 31 -12 69 10 91 23 23 29 24 52 7z m-2498 -33 c9 -3 16 -10 16 -15 l0 -9 -95 0 c-87 0 -107 5 -88 23 8 9 146 9 167 1z m-2648 -117 c148 -158 214 -315 200 -474 l-5 -62 -21 -41 c-11 -22 -27 -40 -35 -40 l-14 0 -7 48 c-9 60 -50 182 -102 298 -72 162 -115 334 -83 334 5 0 35 -28 67 -63z m5195 -88 c-10 -41 -38 -121 -61 -179 -24 -58 -55 -136 -71 -175 -15 -38 -35 -108 -44 -155 -10 -47 -20 -89 -25 -93 -9 -11 -23 9 -44 62 l-17 45 -1 80 c-2 104 15 172 64 268 l39 76 79 83 79 84 11 -11 10 -10 -19 -75z m-5014 36 c27 -19 103 -143 128 -208 l18 -47 -6 -66 c-2 -36 -9 -70 -15 -76 l-10 -10 -5 18 c-3 11 -8 39 -12 64 -9 62 -31 120 -87 226 -60 114 -62 135 -11 99z m4793 -65 c0 -6 -13 -34 -29 -63 -45 -78 -88 -195 -96 -257 -4 -30 -11 -62 -15 -70 l-8 -14 -7 37 c-4 20 -5 72 -3 114 l3 78 44 73 c51 84 111 140 111 102z m-4500 -203 c69 -75 137 -227 103 -227 -13 0 -127 71 -144 89 -9 10 -25 33 -34 51 -23 44 -85 211 -85 229 l0 13 55 -51 c31 -27 78 -75 105 -104z m4319 16 c-40 -114 -70 -172 -106 -204 -28 -26 -113 -79 -127 -79 -11 0 4 58 31 120 l24 55 97 98 c53 53 100 97 104 97 4 0 -6 -39 -23 -87z m-2280 -45 l-1 -113 -8 25 c-15 48 -11 200 6 200 2 0 4 -51 3 -112z m60 -15 c1 -51 -3 -93 -8 -93 -15 0 -29 199 -14 214 14 13 22 -29 22 -121z m65 111 c15 -38 2 -204 -15 -204 l-9 0 0 110 0 110 9 0 c5 0 12 -7 15 -16z m-2190 -267 l17 -13 -3 -44 -3 -45 -29 -14 -30 -14 -18 23 c-48 59 8 150 66 107z m4306 -63 c23 -58 2 -104 -46 -104 l-24 0 -11 24 c-21 44 10 106 52 106 l19 0 10 -26z m-4307 -152 c44 -26 105 -71 137 -100 l58 -52 22 -46 22 -45 1 -75 0 -75 -15 -15 -14 -15 -90 108 c-136 163 -159 193 -198 258 l-36 60 0 29 0 28 18 -6 c9 -4 52 -28 95 -54z m179 16 l48 -33 29 -55 c32 -60 54 -137 41 -145 -4 -3 -20 16 -36 42 -15 27 -53 81 -86 121 -53 66 -70 102 -51 102 4 0 29 -15 55 -32z m4174 -42 c-9 -37 -96 -163 -187 -272 -46 -55 -96 -116 -111 -135 l-27 -34 -11 15 -11 15 3 92 4 93 30 42 c36 52 155 145 244 192 l65 35 3 -10 c2 -5 1 -20 -2 -33z m-3854 -93 c61 -32 139 -76 172 -99 l61 -40 0 -20 0 -19 -50 -8 c-27 -4 -75 -5 -105 -2 l-55 6 -52 34 -52 34 -39 58 c-51 75 -82 137 -82 163 l0 20 45 -34 c24 -19 95 -61 157 -93z m3611 88 c-10 -16 -47 -68 -83 -115 l-65 -85 -3 14 c-2 9 4 39 14 67 l17 52 48 48 48 48 21 0 22 0 -19 -29z m-163 -26 c0 -17 -66 -129 -104 -177 l-46 -58 -42 -21 -43 -22 -76 1 c-78 2 -129 14 -129 31 0 18 138 111 209 141 77 33 180 86 196 101 10 10 35 12 35 4z m-3524 -270 c102 -61 141 -123 128 -207 -10 -60 -9 -61 -146 109 l-68 84 0 25 0 24 13 0 c7 0 40 -16 73 -35z m3494 -2 c-1 -35 -183 -267 -204 -260 -6 2 -12 25 -14 51 l-3 48 23 35 c40 60 198 161 198 126z m-3230 -58 l12 -36 -16 -24 c-30 -45 -86 -22 -86 35 0 35 23 60 55 60 l23 0 12 -35z m2941 5 l19 -11 0 -37 c0 -43 -14 -62 -45 -62 -29 0 -45 19 -45 52 l0 27 22 21 c25 23 24 23 49 10z m-2623 -122 c68 -35 139 -76 158 -92 l35 -29 -9 -9 c-5 -5 -34 -12 -64 -15 l-54 -5 -40 20 c-43 22 -85 64 -133 131 -31 44 -38 61 -23 61 4 0 62 -28 130 -62z m2372 28 c0 -8 -21 -42 -46 -75 l-46 -61 -44 -26 -44 -26 -61 1 c-34 0 -67 5 -73 11 l-10 10 25 25 c22 22 272 155 292 155 4 0 7 -6 7 -14z m-2572 -61 c12 -9 49 -54 83 -102 l61 -85 -9 -9 -8 -8 -60 30 c-33 16 -84 53 -113 82 -87 85 -91 107 -19 107 l43 0 22 -15z m2746 -18 l18 -13 -51 -56 -52 -57 -76 -41 c-42 -22 -78 -39 -80 -36 -13 13 108 180 146 201 33 18 72 19 95 2z m-2235 -203 c84 -42 46 -56 -77 -30 -74 16 -84 23 -58 42 30 21 78 17 135 -12z m1760 -9 c11 -12 -18 -24 -88 -38 -116 -23 -132 -7 -41 41 l55 29 34 -14 c19 -7 37 -16 40 -18z"/>
 <path d="M2796 5582 c-15 -25 63 -310 96 -350 17 -20 1 -27 -68 -27 l-64 0 6 -30 c3 -16 10 -34 16 -40 5 -5 51 -12 103 -13 l94 -4 -40 94 c-58 131 -80 201 -93 293 l-12 80 -16 3 c-9 2 -19 -1 -22 -6z"/>
 <path d="M3050 5549 c0 -6 20 -34 45 -61 l45 -50 0 -33 0 -33 -31 -26 c-17 -15 -44 -33 -60 -42 l-29 -15 0 -30 c0 -17 9 -52 21 -79 l21 -48 21 -6 c26 -7 127 -8 127 -2 0 3 -4 16 -10 30 l-10 26 -39 0 c-22 0 -51 4 -65 10 l-26 10 0 23 0 23 44 13 c51 15 102 61 111 100 11 51 -30 123 -98 172 -42 30 -67 37 -67 18z"/>
 <path d="M3320 5549 c0 -6 25 -38 55 -72 l55 -60 0 -27 c0 -36 -18 -57 -75 -89 l-50 -27 3 -43 c1 -24 9 -58 17 -77 l14 -34 76 0 75 0 -13 33 -14 32 -34 -4 c-19 -2 -45 -4 -59 -5 l-25 -1 -3 27 -3 27 43 19 c50 22 93 66 101 103 4 14 2 43 -4 65 l-11 39 -43 41 c-23 23 -56 46 -74 52 l-31 11 0 -10z"/>
 <path d="M2566 5523 c5 -10 10 -89 12 -176 l3 -159 -18 -13 -18 -14 39 -16 c21 -9 44 -14 51 -11 18 7 25 65 25 228 l0 147 10 6 c6 3 10 10 10 16 l0 9 -61 0 -61 0 8 -17z"/>
 <path d="M1486 5117 c6 -16 141 -83 149 -75 6 6 -128 88 -144 88 -6 0 -8 -6 -5 -13z"/>
 <path d="M4500 5070 c-36 -22 -71 -40 -77 -40 -7 0 -13 -4 -13 -9 l0 -10 28 9 c92 28 136 51 146 76 l5 14 -12 0 c-7 0 -41 -18 -77 -40z"/>
 <path d="M2590 4490 l0 -10 398 1 397 2 -60 7 c-33 4 -212 8 -397 9 l-338 1 0 -10z"/>
 <path d="M2660 4430 l0 -10 328 1 327 1 -40 9 c-22 4 -169 8 -327 8 l-288 1 0 -10z"/>
 <path d="M1166 2582 c-2 -4 -1 -14 3 -21 l8 -13 6 21 c5 20 -7 29 -17 13z"/>
 <path d="M4820 2575 c0 -8 7 -15 15 -15 8 0 15 4 15 9 0 5 -7 11 -15 15 l-15 5 0 -14z"/>
 <path d="M500 4431 l-10 -20 11 -25 c7 -14 19 -28 27 -31 l16 -6 18 19 18 18 -11 32 -11 32 -24 0 -23 0 -11 -19z"/>
 <path d="M5458 4389 l-18 -10 0 -25 c0 -32 17 -64 34 -64 19 0 46 33 46 57 0 11 -8 27 -18 36 -21 20 -21 20 -44 6z"/>
 <path d="M48 3425 l-12 -26 10 -27 9 -27 28 -3 27 -3 10 26 10 27 -12 26 -13 27 -22 3 -23 3 -12 -26z"/>
 <path d="M5892 3348 c-15 -15 -16 -62 -2 -88 l10 -19 25 11 c14 6 28 21 31 34 l6 22 -17 26 c-19 28 -34 33 -53 14z"/>
 <path d="M606 3064 c-20 -19 -20 -53 -1 -78 l14 -19 16 6 c8 4 20 18 27 31 l11 25 -17 26 c-19 29 -29 31 -50 9z"/>
 <path d="M5349 2987 l-11 -25 9 -29 10 -28 21 -3 21 -3 7 27 c9 34 -6 78 -29 82 l-17 3 -11 -24z"/>
 <path d="M15 2456 l-16 -24 7 -26 c3 -14 11 -29 17 -34 l12 -10 23 9 22 8 0 28 c0 30 -24 73 -40 73 -5 0 -17 -11 -25 -24z"/>
 <path d="M617 2393 c-4 -3 -7 -21 -7 -39 l0 -33 16 -16 c20 -20 35 -15 54 17 l14 26 -12 26 -12 26 -23 0 c-13 0 -27 -3 -30 -7z"/>
 <path d="M5934 2382 c-6 -4 -15 -17 -18 -30 l-8 -23 16 -24 c20 -30 37 -32 61 -5 l18 20 -16 35 c-16 34 -31 42 -53 27z"/>
 <path d="M5327 2323 c-4 -3 -7 -23 -7 -44 l0 -38 19 -6 c10 -3 26 -3 35 1 l16 6 0 28 c0 16 -3 35 -6 44 -6 16 -45 22 -57 9z"/>
 <path d="M758 1633 c-39 -10 -28 -83 12 -83 11 0 24 9 30 21 l11 20 -16 25 c-8 13 -16 23 -18 23 -1 -1 -10 -3 -19 -6z"/>
 <path d="M226 1585 c-11 -30 -6 -72 10 -85 l15 -13 27 26 27 27 -15 28 c-9 15 -25 28 -37 30 l-20 3 -7 -16z"/>
 <path d="M5200 1570 c-13 -25 -5 -57 19 -69 32 -18 57 21 41 64 l-10 25 -19 0 c-11 0 -25 -9 -31 -20z"/>
 <path d="M5717 1522 c-23 -25 -21 -55 4 -78 l20 -18 17 10 c21 13 27 56 12 84 -13 25 -32 26 -53 2z"/>
 <path d="M1214 1015 l-6 -25 12 -15 c7 -8 21 -15 31 -15 l19 0 6 25 c3 14 4 32 0 40 l-5 15 -25 0 -26 0 -6 -25z"/>
 <path d="M4747 1003 c-4 -3 -7 -21 -7 -39 l0 -32 15 -6 c8 -3 22 -3 30 0 l15 6 0 27 c0 39 -32 65 -53 44z"/>
 <path d="M630 849 l-12 -21 20 -27 c22 -30 40 -33 56 -8 l11 17 -15 28 c-9 15 -23 28 -32 30 l-17 3 -11 -22z"/>
 <path d="M5310 788 l-11 -24 10 -27 c12 -30 28 -34 56 -13 l19 13 -10 34 -10 34 -22 3 -22 3 -10 -23z"/>
 <path d="M1862 548 c-28 -28 -2 -88 33 -74 l15 5 0 29 c0 26 -15 52 -30 52 -3 0 -11 -5 -18 -12z"/>
 <path d="M4110 509 l-12 -21 18 -19 c9 -10 21 -19 25 -19 15 0 30 40 24 60 l-6 20 -19 0 c-11 0 -24 -9 -30 -21z"/>
 <path d="M1232 298 c-19 -19 -14 -37 13 -50 l26 -11 10 10 10 10 -10 26 c-11 29 -30 34 -49 15z"/>
 <path d="M4730 254 l-10 -26 11 -14 c15 -19 48 -18 55 1 4 8 3 26 0 40 l-6 25 -20 0 -20 0 -10 -26z"/>
 <path d="M2984 179 c-8 -14 14 -29 32 -22 16 6 7 33 -11 33 -8 0 -17 -5 -21 -11z"/>
 </g>

</svg>