<?xml version="1.0" encoding="UTF-8"?>
<svg width="97px" height="103px" viewBox="0 0 97 103" version="1.1" xmlns="http://www.w3.org/2000/svg" xmlns:xlink="http://www.w3.org/1999/xlink">
    <!-- Generator: Sketch 43.2 (39069) - http://www.bohemiancoding.com/sketch -->
    <title>Group</title>
    <desc>Created with Sketch.</desc>
    <defs></defs>
    <g id="Page-1" stroke="none" stroke-width="1" fill="none" fill-rule="evenodd">
        <g id="Group">
            <path d="M86.7775978,80.3740583 C91.131731,81.058325 95.4854643,78.8328584 96.5302642,74.8959251 C97.5750642,70.9593919 94.6145309,67.0224587 89.7385311,66.3375253 C86.2551978,65.8240587 82.9463979,67.364592 81.3786646,69.5896586 L65.3567983,67.1932587 C65.0083983,63.0849921 63.4406651,58.8063255 61.0030651,55.0401923 L73.8901315,43.9145926 C77.0250647,45.4547259 81.0302646,45.1120592 84.1655979,42.5448593 C88.5193311,38.9500594 89.7385311,32.1031262 86.4291978,27.4812597 C82.9463979,22.6891264 76.5026647,22.3468598 72.1483982,26.6260597 C69.1879982,29.7068596 68.1426649,33.9864595 69.1879982,37.7525927 L56.4750652,49.9052591 C52.991732,46.4817925 48.8119988,44.0855259 44.2838655,43.0583259 L43.0650656,23.2025931 C45.8510655,21.6620598 47.9411988,17.7249932 47.7671988,12.93234 C47.4193321,6.08546019 42.8906656,0.0948395105 37.6661324,0.0948395105 C32.4417325,0.0948395105 29.1322659,5.74327353 30.0030659,12.4187934 C30.5254659,17.0407266 32.9639992,20.9771265 36.0983991,22.8599264 L38.1885324,42.3740593 C33.8349325,42.5448593 30.3515992,44.0855259 27.7390659,46.6525925 L15.3745329,33.3016595 C15.5483996,30.0495263 14.3291996,26.112593 11.5432264,23.0312598 C7.71145312,19.0948599 3.18333323,18.7521932 1.44166661,22.5177931 C-0.125000022,26.112593 1.44166661,31.7609929 4.92499985,35.3552595 C7.53750645,38.0943261 10.4979197,38.9500594 12.5874663,37.9235261 L24.6041327,50.5901924 C23.0369327,53.500059 22.3406661,57.0943256 22.6890661,60.8599255 L10.4979197,58.9771255 C8.93073309,56.5807256 6.31822648,54.6979256 4.05469321,54.3557923 C0.919786619,53.841659 -0.647916009,56.4093923 0.570839961,60.0041922 C1.6161466,63.2568588 4.92499985,66.3375253 7.88541311,66.8511253 C10.1499997,67.1932587 11.5432264,66.1667254 11.8916663,64.1125921 L23.907866,66.1667254 C24.952666,69.5896586 26.8687993,72.8416585 29.3067992,75.5807251 L22.8630661,81.7432583 C20.7734661,80.7156583 18.6833328,80.544325 17.4639995,81.7432583 C16.0707996,83.1120583 16.9417329,86.1932582 19.3797328,88.2473915 C21.6437328,90.4724581 24.778666,91.1573914 26.345866,89.7880581 C27.5645326,88.7609915 27.5645326,87.0495248 26.520266,85.1661915 L33.1379991,79.3464584 C35.9245324,81.5713916 39.0593323,83.2833916 42.3682656,84.3104582 L43.2390656,94.2385913 C41.4978656,94.5807246 40.2781323,95.7792579 40.6265323,97.4907246 C40.8010656,99.7156578 43.4130656,102.112058 46.1999988,102.796858 C49.1603987,103.481791 51.4239987,102.283391 51.2499987,99.8869912 C51.2499987,98.1755246 49.8567987,96.2927246 47.7671988,95.2651246 L47.0702655,85.1661915 C50.5535987,85.5088582 53.688532,84.9953915 56.3005319,83.7968582 L65.3567983,93.2115247 C64.4859984,94.751658 64.8343984,96.9765912 66.4015983,98.6891245 C68.6655983,100.914058 72.4969315,101.769791 75.2833314,100.571391 C78.0697314,99.2021912 78.5921313,96.2927246 76.3286647,93.7249913 C74.5869314,91.8421914 71.8005315,90.8145914 69.3619982,91.1573914 L60.1317318,81.2292583 C62.3958651,79.1749917 64.137465,76.2656584 65.0083983,72.6708585 L80.334398,75.2385918 C81.2046646,77.8063251 83.6431979,79.859925 86.7775978,80.3740583" id="path16" fill="#F26F23" fill-rule="nonzero" transform="translate(48.448416, 51.541430) scale(-1, 1) rotate(-180.000000) translate(-48.448416, -51.541430) "></path>
            <path d="M38.5369323,32.5376547 C38.7114657,31.510588 38.7114657,30.6548547 38.7114657,29.9699214 L38.7114657,28.6007214 C38.5369323,28.2584548 38.5369323,28.0871214 38.1885324,27.9163214 L37.8401324,27.9163214 L37.1437324,27.9163214 C36.6207991,27.7444548 36.4469324,27.7444548 36.2729324,27.7444548 C36.0983991,27.9163214 35.9245324,28.0871214 35.7505324,28.2584548 L35.7505324,28.9428547 L35.7505324,31.510588 C35.9245324,32.879788 35.9245324,34.0783213 35.9245324,35.4475212 C35.9245324,35.7897879 36.0983991,36.8168545 36.0983991,38.0152545 C34.5311991,38.3573878 34.3567991,39.2131212 36.2729324,40.2407211 C36.2729324,41.0959211 36.2729324,41.6095211 36.4469324,42.4657877 C36.4469324,44.3485877 34.0087991,40.9245878 34.0087991,43.1501877 C37.1437324,46.4021876 46.0254655,54.1053874 49.8567987,50.8527209 C51.5983987,48.1141876 45.5026655,44.0064544 39.7557323,40.4116545 C43.5874656,39.8975211 55.9521319,32.7084547 52.121332,28.2584548 C51.5983987,27.5736548 50.0306654,27.7444548 49.5087987,28.6007214 C46.3739988,33.222588 42.1942656,37.5016545 38.5369323,37.6725879 L38.5369323,32.5376547 L38.5369323,32.5376547 Z M38.5369323,45.204321 C38.5369323,43.3215211 38.7114657,43.6636544 38.7114657,41.7808544 C40.2781323,43.3215211 49.5087987,48.9699209 46.5478655,49.1407209 C44.8067989,49.1407209 42.3682656,48.6272543 38.7114657,45.204321 L38.5369323,45.204321 L38.5369323,45.204321 Z" id="path18" fill="#FFFFFF" transform="translate(43.428722, 39.690961) scale(-1, 1) rotate(-180.000000) translate(-43.428722, -39.690961) "></path>
        </g>
    </g>
</svg>