<svg width="824" height="117" viewBox="0 0 824 117" fill="none" xmlns="http://www.w3.org/2000/svg">
<path d="M525.454 85.524C524.59 86.5699 523.382 87.6022 521.817 88.6209C520.253 89.6397 518.414 90.5633 516.3 91.3783C514.173 92.1933 511.813 92.8725 509.191 93.4022C506.57 93.9319 503.771 94.19 500.779 94.19C495.07 94.19 489.896 93.375 485.257 91.7315C480.619 90.0879 476.652 87.738 473.373 84.6954C470.093 81.6528 467.54 77.9174 465.715 73.5165C463.889 69.1156 462.984 64.1305 462.984 58.5479C462.984 53.3591 463.876 48.605 465.674 44.272C467.471 39.939 470.01 36.2036 473.331 33.0523C476.652 29.901 480.646 27.4561 485.312 25.7174C489.992 23.9788 495.207 23.1095 500.985 23.1095C506.488 23.1095 511.195 23.7886 515.106 25.1334C519.018 26.4781 522.009 27.8772 524.054 29.317V46.4453C522.998 44.9376 521.68 43.457 520.129 42.0172C518.565 40.5774 516.808 39.3006 514.859 38.1732C512.897 37.0594 510.742 36.1493 508.396 35.4701C506.035 34.7774 503.565 34.4378 500.985 34.4378C497.211 34.4378 493.793 35.0355 490.733 36.2036C487.686 37.3853 485.093 39.0289 482.979 41.1207C480.852 43.2261 479.233 45.7661 478.107 48.7544C476.982 51.7427 476.419 55.0434 476.419 58.6565C476.419 61.998 476.927 65.1357 477.956 68.0561C478.986 70.9764 480.509 73.5165 482.526 75.6898C484.544 77.8495 487.083 79.5746 490.143 80.865C493.19 82.1418 496.703 82.8209 500.683 82.8889C503.729 82.8889 506.529 82.5629 509.082 81.8973C511.634 81.2453 513.954 80.3624 516.04 79.235C518.126 78.1212 519.965 76.8036 521.557 75.2959C523.149 73.7882 524.439 72.1446 525.44 70.3788V85.524H525.454Z" fill="#07E897"/>
<path d="M552.723 81.7886H590.532V93.117H540.29V24.1825H552.723V81.7886Z" fill="#07E897"/>
<path d="M593.606 58.5479C593.606 53.3591 594.484 48.605 596.241 44.272C597.998 39.939 600.495 36.2036 603.748 33.0523C607.001 29.901 610.912 27.4561 615.482 25.7174C620.052 23.9788 625.198 23.1095 630.907 23.1095C636.479 23.1095 641.571 23.9245 646.182 25.568C650.793 27.2116 654.718 29.5615 657.971 32.6041C661.223 35.6603 663.735 39.3821 665.532 43.783C667.316 48.1839 668.222 53.169 668.222 58.7516C668.222 63.9404 667.344 68.6945 665.587 73.0275C663.831 77.3605 661.319 81.0959 658.08 84.2472C654.828 87.3985 650.903 89.8434 646.292 91.5821C641.68 93.3207 636.562 94.19 630.921 94.19C625.349 94.19 620.258 93.3886 615.647 91.7722C611.035 90.1694 607.11 87.8331 603.858 84.7769C600.605 81.7207 598.094 77.9853 596.296 73.5572C594.498 69.1291 593.606 64.1305 593.606 58.5479ZM606.74 58.643C606.74 61.9844 607.248 65.1357 608.277 68.0968C609.306 71.0444 610.843 73.6116 612.902 75.7713C614.96 77.931 617.499 79.6561 620.518 80.9465C623.538 82.2233 627.037 82.8617 631.017 82.8617C634.736 82.8617 638.057 82.264 641.008 81.0823C643.959 79.9006 646.484 78.257 648.57 76.1652C650.656 74.0598 652.261 71.5198 653.401 68.5315C654.526 65.5432 655.089 62.2425 655.089 58.6294C655.089 55.2879 654.567 52.1366 653.551 49.1755C652.522 46.228 650.985 43.6608 648.927 41.501C646.868 39.3413 644.329 37.6163 641.31 36.3259C638.291 35.049 634.791 34.4106 630.811 34.4106C627.092 34.4106 623.744 35.0083 620.765 36.1764C617.787 37.3582 615.249 39.0153 613.149 41.1479C611.063 43.2804 609.471 45.8205 608.373 48.7816C607.289 51.7563 606.74 55.0298 606.74 58.643Z" fill="#07E897"/>
<path d="M695.175 64.9455C695.175 68.0968 695.628 70.7999 696.52 73.0682C697.412 75.3366 698.661 77.1975 700.253 78.6781C701.845 80.1587 703.739 81.2317 705.921 81.9245C708.103 82.6172 710.491 82.9568 713.085 82.9568C718.327 82.9568 722.39 81.6392 725.272 79.0177C728.154 76.3961 729.595 72.0903 729.595 66.1137V24.1825H742.028V64.8505C742.028 69.9034 741.342 74.2907 739.983 77.9989C738.625 81.7071 736.662 84.7769 734.11 87.2083C731.557 89.6397 728.469 91.4327 724.86 92.5736C721.251 93.7282 717.147 94.2987 712.577 94.2987C707.472 94.2987 703.053 93.6195 699.347 92.2748C695.628 90.9301 692.527 89.0149 690.043 86.5156C687.559 84.0163 685.72 81.0144 684.526 77.5099C683.332 74.0055 682.742 70.0392 682.742 65.6519V24.1825H695.175V64.9455V64.9455Z" fill="#07E897"/>
<path d="M785.697 24.1825C798.625 24.1825 808.245 27.035 814.545 32.7535C820.844 38.4584 824 46.6355 824 57.2711C824 63.5736 823.053 68.9933 821.159 73.5165C819.265 78.0397 816.617 81.7615 813.2 84.6411C809.782 87.5343 805.706 89.6669 800.958 91.0388C796.21 92.4242 791.022 93.1034 785.395 93.1034H761.722V24.1825H785.697ZM785.395 81.7886C794.082 81.7886 800.519 79.7919 804.691 75.7849C808.863 71.7779 810.963 66.005 810.963 58.4528C810.963 50.7783 808.918 45.0327 804.842 41.2158C800.766 37.4125 794.316 35.5109 785.491 35.5109H774.156V81.7886H785.395Z" fill="#07E897"/>
<path d="M182.924 52.6053C174.744 50.69 167.676 49.0465 167.676 43.4095C167.676 35.8437 177.077 35.0287 181.126 35.0287C186.739 35.0287 189.923 35.7893 194.095 37.6638C196.126 36.1832 205.362 29.446 205.362 29.446C199.269 25.602 190.115 22.6001 181.222 22.6001C160.005 22.6001 152.457 33.7654 152.457 44.2109C152.457 59.261 165.673 62.3851 177.338 65.1561C185.531 67.0985 192.599 68.7692 192.599 74.5149C192.599 77.4624 190.828 82.3931 178.944 82.3931C171.066 82.3931 162.42 79.6493 156.3 75.2212L151.139 86.8891C157.384 91.7111 168.225 94.8081 178.848 94.8081C196.441 94.8081 207.818 86.3594 207.818 73.2924C207.832 58.4188 194.589 55.3355 182.924 52.6053Z" fill="#343F48"/>
<path d="M272.265 57.6039L271.538 57.3594L272.21 56.9926C278.015 53.8821 281.213 48.476 281.213 41.7795C281.213 30.5191 271.565 23.7954 255.399 23.7954H221.995V93.5992H257.375C274.969 93.5992 284.658 86.8891 284.658 74.705C284.658 66.4193 280.142 60.1847 272.265 57.6039ZM237.215 35.4226H253.422C263.647 35.4226 265.787 40.0816 265.787 43.9528C265.787 49.5626 261.506 52.483 253.422 52.483H237.215V35.4226ZM237.215 52.4966H253.422H237.215ZM256.181 81.9856H237.201V64.1102H256.181C264.841 64.1102 269.232 67.0849 269.232 73.0479C269.246 79.0245 264.978 81.9856 256.181 81.9856Z" fill="#343F48"/>
<path d="M336.218 35.4226L352.151 23.809H298.82V93.5992H352.151V81.9856H314.04V64.1102H346.538V52.4966H314.04V35.4226H336.218Z" fill="#343F48"/>
<path d="M426.465 93.5992L410.971 70.9289C420.111 66.9762 425.381 59.2067 425.381 48.7884C425.381 33.3851 413.866 23.809 395.353 23.809H366.327V93.6128H381.547V73.8357H395.367C395.806 73.8357 396.231 73.8221 396.657 73.8085L410.175 93.5992H426.465ZM381.533 35.4226H395.024C404.768 35.4226 410.147 40.1767 410.147 48.8156C410.147 57.4544 404.781 62.2085 395.024 62.2085H381.533V35.4226Z" fill="#343F48"/>
<path fill-rule="evenodd" clip-rule="evenodd" d="M103.744 58.7041C103.744 83.3749 83.5369 103.375 58.6107 103.375C33.6846 103.375 13.4779 83.3749 13.4779 58.7041C13.4779 34.0333 33.6846 14.0337 58.6107 14.0337C68.165 14.0337 77.0258 16.972 84.3211 21.9855L95.3408 13.8055C85.3103 5.7571 72.5295 0.934998 58.6107 0.934998C26.3755 0.934998 0.243713 26.7991 0.243713 58.7041C0.243713 90.6091 26.3755 116.473 58.6107 116.473C90.8459 116.473 116.978 90.6091 116.978 58.7041C116.978 55.0993 116.644 51.5717 116.006 48.1498L103.678 56.2839C103.722 57.0852 103.744 57.8921 103.744 58.7041Z" fill="#343F48"/>
<path fill-rule="evenodd" clip-rule="evenodd" d="M103.744 58.7041C103.744 83.3749 83.5369 103.375 58.6107 103.375C33.6846 103.375 13.4779 83.3749 13.4779 58.7041C13.4779 34.0333 33.6846 14.0337 58.6107 14.0337C68.165 14.0337 77.0258 16.972 84.3211 21.9855L95.3408 13.8055C85.3103 5.7571 72.5295 0.934998 58.6107 0.934998C26.3755 0.934998 0.243713 26.7991 0.243713 58.7041C0.243713 90.6091 26.3755 116.473 58.6107 116.473C90.8459 116.473 116.978 90.6091 116.978 58.7041C116.978 55.0993 116.644 51.5717 116.006 48.1498L103.678 56.2839C103.722 57.0852 103.744 57.8921 103.744 58.7041Z" fill="#343F48"/>
<path fill-rule="evenodd" clip-rule="evenodd" d="M103.744 58.7041C103.744 83.3749 83.5369 103.375 58.6107 103.375C33.6846 103.375 13.4779 83.3749 13.4779 58.7041C13.4779 34.0333 33.6846 14.0337 58.6107 14.0337C68.165 14.0337 77.0258 16.972 84.3211 21.9855L95.3408 13.8055C85.3103 5.7571 72.5295 0.934998 58.6107 0.934998C26.3755 0.934998 0.243713 26.7991 0.243713 58.7041C0.243713 90.6091 26.3755 116.473 58.6107 116.473C90.8459 116.473 116.978 90.6091 116.978 58.7041C116.978 55.0993 116.644 51.5717 116.006 48.1498L103.678 56.2839C103.722 57.0852 103.744 57.8921 103.744 58.7041Z" fill="#343F48"/>
<path d="M104.895 24.0994C107.626 27.5923 109.952 31.3929 111.818 35.4613L59.207 73.8428L37.2216 60.1925V43.7987L59.207 57.4357L104.895 24.0994Z" fill="#343F48"/>
</svg>
