<!DOCTYPE svg PUBLIC "-//W3C//DTD SVG 20010904//EN" "http://www.w3.org/TR/2001/REC-SVG-20010904/DTD/svg10.dtd">
<svg version="1.0" xmlns="http://www.w3.org/2000/svg" width="155px" height="42px" viewBox="0 0 1550 420" preserveAspectRatio="xMidYMid meet">
<g id="layer101" fill="#383838" stroke="none">
<path d="M0 210 l0 -210 775 0 775 0 0 210 0 210 -775 0 -775 0 0 -210z"/>
</g>
<g id="layer102" fill="#f6921f" stroke="none">
<path d="M0 210 l0 -210 775 0 775 0 0 210 0 210 -775 0 -775 0 0 -210z m752 171 l32 -28 0 -51 c0 -63 -25 -94 -94 -117 -64 -21 -87 -47 -72 -80 14 -30 65 -35 94 -8 l19 17 26 -26 26 -26 -34 -21 c-23 -14 -51 -21 -87 -21 l-54 0 -29 29 c-24 25 -29 38 -29 79 l0 50 30 26 c17 14 49 31 70 37 55 17 76 42 64 77 -8 22 -16 28 -48 30 -28 2 -44 -2 -60 -17 l-21 -20 -25 20 -25 19 33 30 32 30 60 0 60 0 32 -29z m495 -6 c38 -38 37 -49 -3 -59 -20 -5 -30 -2 -41 14 -16 22 -62 27 -81 8 -17 -17 -17 -229 0 -246 19 -19 65 -14 81 8 11 16 21 19 41 14 40 -10 41 -21 3 -59 l-35 -35 -49 0 c-95 0 -123 46 -123 200 0 146 28 190 123 190 l49 0 35 -35z m123 -45 l0 -80 24 0 24 0 27 80 27 80 34 0 c19 0 34 -2 34 -5 0 -3 -14 -41 -31 -85 l-30 -80 26 -22 c32 -28 44 -93 25 -138 -19 -45 -56 -60 -150 -60 l-80 0 0 195 0 195 35 0 35 0 0 -80z"/>
</g>
<g id="layer103" fill="#f7f5f3" stroke="none">
<path d="M0 210 l0 -210 17 0 c13 0 14 3 5 12 -8 8 -12 65 -12 188 l0 177 18 16 19 17 220 0 220 0 16 -18 c14 -15 17 -42 17 -160 l0 -142 -20 -20 -20 -20 -99 0 -99 0 -16 -25 -16 -25 650 0 650 0 0 210 0 210 -775 0 -775 0 0 -210z m752 171 l32 -28 0 -51 c0 -63 -25 -94 -94 -117 -64 -21 -87 -47 -72 -80 14 -30 65 -35 94 -8 l19 17 26 -26 26 -26 -34 -21 c-23 -14 -51 -21 -87 -21 l-54 0 -29 29 c-24 25 -29 38 -29 79 l0 50 30 26 c17 14 49 31 70 37 55 17 76 42 64 77 -8 22 -16 28 -48 30 -28 2 -44 -2 -60 -17 l-21 -20 -25 20 -25 19 33 30 32 30 60 0 60 0 32 -29z m268 -16 l0 -45 -110 0 -110 0 0 45 0 45 110 0 110 0 0 -45z m227 10 c38 -38 37 -49 -3 -59 -20 -5 -30 -2 -41 14 -16 22 -62 27 -81 8 -17 -17 -17 -229 0 -246 19 -19 65 -14 81 8 11 16 21 19 41 14 40 -10 41 -21 3 -59 l-35 -35 -49 0 c-95 0 -123 46 -123 200 0 146 28 190 123 190 l49 0 35 -35z m123 -45 l0 -80 24 0 24 0 27 80 27 80 34 0 c19 0 34 -2 34 -5 0 -3 -14 -41 -31 -85 l-30 -80 26 -22 c32 -28 44 -93 25 -138 -19 -45 -56 -60 -150 -60 l-80 0 0 195 0 195 35 0 35 0 0 -80z m-384 -84 c3 -14 4 -33 2 -43 l-3 -18 -93 -3 -92 -3 0 39 c0 21 3 42 7 45 3 4 44 7 89 7 l84 0 6 -24z m34 -161 l0 -45 -110 0 -110 0 0 45 0 45 110 0 110 0 0 -45z"/>
</g>
<g id="layer104" fill="#ffffff" stroke="none">
<path d="M2 363 c1 -41 2 -47 5 -22 7 66 15 68 244 72 l204 2 -227 3 -228 2 2 -57z"/>
<path d="M478 413 c12 -3 28 -13 35 -24 14 -23 25 -24 48 -3 9 8 39 19 66 24 39 6 27 8 -62 7 -60 0 -100 -2 -87 -4z"/>
<path d="M706 409 c17 -5 39 -18 49 -29 25 -27 45 -25 45 5 l0 25 110 0 110 0 0 -44 0 -44 -99 -4 c-74 -3 -102 -8 -115 -20 -9 -9 -16 -19 -16 -22 0 -3 43 -6 95 -6 l95 0 6 -24 c3 -14 4 -33 2 -43 l-3 -18 -93 -3 -92 -3 0 36 c0 41 -8 44 -40 10 -12 -13 -44 -31 -70 -40 -64 -21 -87 -47 -72 -80 14 -30 65 -35 94 -8 l19 17 26 -26 26 -26 -34 -21 c-23 -14 -51 -21 -86 -21 -44 0 -58 5 -85 29 l-32 28 3 49 c3 59 25 87 90 110 67 25 87 47 75 81 -13 38 -75 45 -109 13 l-22 -21 -32 26 -31 27 -1 -139 c-1 -76 -1 -145 0 -154 l2 -16 -118 -2 c-64 -1 -120 -4 -124 -7 -4 -2 -5 -13 -2 -24 l5 -20 634 0 634 0 0 207 c0 113 -2 204 -4 202 -2 -2 -18 -41 -36 -86 l-31 -83 26 -22 c32 -28 44 -93 25 -138 -19 -45 -56 -60 -150 -60 l-80 0 0 195 0 195 35 0 35 0 0 -80 0 -80 24 0 24 0 27 79 26 80 32 4 c18 2 -49 4 -148 5 l-180 1 31 -13 c33 -14 77 -63 69 -76 -3 -4 -17 -11 -31 -14 -20 -5 -30 -2 -41 14 -16 22 -62 27 -81 8 -17 -17 -17 -229 0 -246 19 -19 65 -14 81 8 11 16 21 19 41 14 40 -10 41 -21 3 -59 l-35 -35 -49 0 c-95 0 -123 46 -123 200 0 135 21 175 98 191 20 3 -75 7 -213 7 -163 0 -239 -3 -219 -9z m314 -324 l0 -45 -110 0 -110 0 0 45 0 45 110 0 110 0 0 -45z"/>
<path d="M780 340 c0 -7 3 -10 7 -7 3 4 3 10 0 14 -4 3 -7 0 -7 -7z"/>
<path d="M1370 135 l0 -55 39 0 c63 0 89 40 55 88 -11 16 -25 22 -55 22 l-39 0 0 -55z"/>
<path d="M0 15 c0 -8 4 -15 10 -15 5 0 7 7 4 15 -8 19 -14 19 -14 0z"/>
</g>


</svg>