<?xml version="1.0" encoding="utf-8"?>
<!DOCTYPE svg PUBLIC "-//W3C//DTD SVG 20010904//EN" "http://www.w3.org/TR/2001/REC-SVG-20010904/DTD/svg10.dtd">
<svg version="1.0" xmlns="http://www.w3.org/2000/svg" width="515px" height="159px" viewBox="0 0 515 159" preserveAspectRatio="xMidYMid meet">
 <g fill="#343435">
  <path d="M176.3 149.5 c-8.8 -2.4 -15.5 -6.4 -22.6 -13.7 -3.8 -3.8 -6.7 -7.3 -6.5 -7.8 0.2 -0.5 4.3 -3.8 9.2 -7.4 l8.9 -6.5 2.8 3.5 c7 8.8 16.5 13.1 27.1 12.1 7.9 -0.7 12.7 -3.4 15.5 -8.7 4.7 -8.9 2.2 -20.4 -5.6 -25.6 -2.1 -1.4 -9.5 -4.5 -16.4 -6.8 -6.9 -2.4 -15.3 -5.9 -18.7 -7.7 -8 -4.3 -15.5 -12.4 -17.5 -19.1 -1.9 -6.6 -1.9 -20 0 -26.5 3.1 -10.6 12.4 -20.2 23.5 -24.4 11.8 -4.4 30.1 -3.5 41.8 2.2 5.6 2.7 16.2 11.7 16.2 13.8 0 0.9 -15.5 14.1 -16.6 14.1 -0.3 0 -2.8 -2 -5.5 -4.4 -5.5 -5 -11.6 -7.1 -20.1 -6.9 -10.8 0.2 -17.8 6.9 -17.8 17 0 9.5 5.8 14.4 24 20.4 30.6 10.1 40.2 21.5 38.7 45.8 -1.1 19.5 -11 31.8 -29.2 36.6 -7.4 1.9 -24.1 1.9 -31.2 0z"/>
  <path d="M357.5 149.2 c-15.5 -5.4 -24.8 -16.6 -27.4 -33.2 -1.3 -8 -1.4 -64.4 -0.2 -72 3.7 -22.1 20.1 -36 42.6 -36 16.8 0 31 8.2 38 22 4.5 9 4.8 8.4 -6.2 12.1 -5.4 1.7 -10.3 3.4 -11 3.6 -0.6 0.3 -1.4 -0.9 -1.8 -2.7 -1.6 -7.2 -10 -13 -19 -13 -9.2 0 -16.5 5.2 -19.4 13.9 -1.8 5.5 -1.5 65.4 0.4 71.7 1.4 4.9 5.6 9.9 10.2 12.3 3.1 1.6 14.9 1.4 18.2 -0.3 3.6 -1.9 8.9 -7.9 9.7 -11.1 0.3 -1.4 0.9 -2.5 1.1 -2.5 0.7 0 20.7 6.1 21.1 6.5 0.1 0.1 -0.5 2.2 -1.3 4.6 -3.9 11.2 -13.5 20.2 -25.4 24 -8.2 2.5 -22.5 2.6 -29.6 0.1z"/>
  <path d="M423 79.5 l0 -70.5 25.1 0 c19.2 0 26.6 0.4 32 1.6 12.8 2.9 23 12.2 26.6 24.4 2.1 6.8 2.3 20.6 0.4 27.7 -2 8.1 -8 16.6 -14.8 21 -3.2 2 -5.9 3.8 -6 3.8 -0.1 0.1 5.2 14 11.7 31 6.6 17.1 12 31.1 12 31.3 0 0.1 -5.5 0.2 -12.3 0.2 l-12.4 0 -10.4 -29.2 -10.5 -29.3 -9.2 -0.3 -9.2 -0.3 0 29.6 0 29.5 -11.5 0 -11.5 0 0 -70.5z m53.7 -10.8 c1.8 -0.9 4.5 -3.4 6 -5.4 2.6 -3.4 2.8 -4.3 2.8 -13.4 0 -10.6 -0.9 -12.9 -6.9 -17.3 -2.4 -1.9 -4.4 -2.1 -17.7 -2.4 l-14.9 -0.3 0 20.6 0 20.7 13.8 -0.4 c10.4 -0.3 14.5 -0.8 16.9 -2.1z"/>
 </g>
 <g fill="#f39221">
  <path d="M245.3 150 c-2.2 -0.9 -2.3 -1.4 -2.3 -13.3 0 -8.2 0.4 -12.7 1.2 -13.5 0.9 -0.9 10.8 -1.2 38.5 -1.2 l37.3 0 1.6 2.5 c1.3 1.9 1.5 4.5 1.2 13 -0.3 9.2 -0.6 10.9 -2.2 12.1 -1.6 1.1 -8.4 1.4 -37.5 1.3 -19.6 0 -36.6 -0.4 -37.8 -0.9z"/>
  <path d="M14.3 148.4 c-1.7 -0.9 -3.9 -2.4 -4.8 -3.4 -4.1 -4.5 -4.4 -7.9 -4.5 -48.8 0 -42.6 0.1 -43.8 5.5 -48 2.7 -2.1 3.6 -2.2 29.5 -2.2 30 0 27.3 -0.7 32.4 8.2 l2.7 4.7 25.4 0.3 c24 0.3 25.5 0.4 28.2 2.4 1.5 1.2 3.7 3.6 4.8 5.5 1.9 3.2 2 5.2 2 37.4 0 37.7 0 37.9 -6.7 42.7 l-3.3 2.3 -54 0.2 c-47.5 0.3 -54.4 0.1 -57.2 -1.3z"/>
  <path d="M244.2 94.8 c-0.8 -0.8 -1.2 -5.1 -1.2 -12.8 0 -7.7 0.4 -12 1.2 -12.8 0.9 -0.9 9.3 -1.2 31.4 -1.2 36.1 0 33.4 -1.1 33.4 14 0 15.1 2.7 14 -33.4 14 -22.1 0 -30.5 -0.3 -31.4 -1.2z"/>
  <path d="M244.8 42.9 c-1.6 -0.9 -1.8 -2.6 -1.8 -13.4 0 -11.3 0.2 -12.5 1.9 -13.5 1.3 -0.6 15 -1 37.8 -1 29.4 0 36.3 0.3 37.9 1.4 1.7 1.3 1.9 2.7 1.9 13.1 0 10.4 -0.2 11.8 -1.9 13.1 -1.6 1.1 -8.4 1.4 -38 1.4 -22.7 0 -36.8 -0.4 -37.8 -1.1z"/>
 </g>
</svg>