<?xml version="1.0" encoding="UTF-8"?>
<svg width="201px" height="69px" viewBox="0 0 201 69" version="1.1" xmlns="http://www.w3.org/2000/svg" xmlns:xlink="http://www.w3.org/1999/xlink">
    <title>Group</title>
    <g id="Page-1" stroke="none" stroke-width="1" fill="none" fill-rule="evenodd">
        <g id="Group" transform="translate(0.074517, 0.220840)" fill-rule="nonzero">
            <path d="M28.8254834,0.779160303 C29.2254834,0.0791603027 30.0254834,-0.220839697 30.8254834,0.179160303 C31.5254834,0.579160303 31.8254834,1.3791603 31.4254834,2.1791603 C31.2254834,2.4791603 31.0254834,2.6791603 30.7254834,2.8791603 C31.4254834,2.9791603 32.0254834,3.3791603 32.2254834,4.0791603 C32.4254834,5.4791603 32.1254834,6.8791603 31.2254834,7.9791603 C30.9254834,8.3791603 30.4254834,8.9791603 29.8254834,8.6791603 C29.0254834,8.0791603 28.5254834,7.1791603 28.2254834,6.2791603 C27.8254834,5.4791603 27.8254834,4.5791603 28.2254834,3.6791603 C28.5254834,3.2791603 29.0254834,2.9791603 29.5254834,2.8791603 C28.8254834,2.4791603 28.5254834,1.5791603 28.8254834,0.779160303 M23.6254834,5.9791603 C24.0254834,4.3791603 25.4254834,3.3791603 27.0254834,3.3791603 C26.9254834,5.1791603 27.3254834,7.0791603 28.2254834,8.6791603 C27.1254834,8.7791603 25.9254834,9.1791603 24.9254834,9.7791603 C24.1254834,8.7791603 23.3254834,7.3791603 23.6254834,5.9791603 M33.3254834,3.3791603 C34.9254834,3.2791603 36.3254834,4.3791603 36.7254834,5.9791603 C36.9254834,7.3791603 36.4254834,8.7791603 35.4254834,9.7791603 C34.4254834,9.1791603 33.3254834,8.7791603 32.1254834,8.6791603 C33.0254834,7.0791603 33.4254834,5.2791603 33.3254834,3.3791603 M25.8254834,10.6791603 C26.6254834,10.1791603 27.6254834,9.8791603 28.6254834,9.8791603 C30.4254834,9.6791603 32.2254834,9.8791603 33.9254834,10.3791603 C34.6254834,10.5791603 34.4254834,11.3791603 34.4254834,11.9791603 C34.1254834,12.4791603 33.4254834,12.4791603 32.9254834,12.7791603 C32.8254834,12.3791603 32.8254834,11.9791603 32.8254834,11.4791603 L31.9254834,11.1791603 C31.5254834,13.5791603 31.9254834,16.0791603 33.0254834,18.1791603 C32.6254834,18.5791603 32.2254834,19.0791603 31.9254834,19.5791603 C30.6254834,16.9791603 30.7254834,13.9791603 30.7254834,11.1791603 L29.4254834,11.1791603 C29.4254834,13.9791603 29.5254834,16.8791603 28.3254834,19.4791603 C28.0254834,19.0791603 27.6254834,18.5791603 27.2254834,18.1791603 C28.3254834,16.0791603 28.7254834,13.6791603 28.3254834,11.2791603 L27.4254834,11.5791603 C27.4254834,11.9791603 27.4254834,12.4791603 27.3254834,12.8791603 C26.8254834,12.6791603 26.3254834,12.4791603 25.8254834,12.1791603 C25.8254834,11.5791603 25.8254834,11.0791603 25.8254834,10.6791603 M10.9254834,10.5791603 C12.5254834,9.9791603 14.3254834,10.3791603 15.4254834,11.6791603 C16.0254834,12.2791603 15.7254834,13.1791603 15.5254834,13.7791603 C15.1254834,14.6791603 15.0254834,15.5791603 15.2254834,16.5791603 C15.5254834,17.2791603 16.2254834,17.6791603 16.9254834,17.8791603 C16.8254834,18.2791603 16.7254834,18.6791603 16.6254834,19.0791603 C16.2254834,19.1791603 15.9254834,19.3791603 15.6254834,19.4791603 C14.9254834,18.7791603 14.4254834,17.8791603 14.1254834,16.8791603 C13.9254834,15.7791603 13.9254834,14.5791603 14.2254834,13.4791603 C13.4254834,12.5791603 12.1254834,12.4791603 11.2254834,13.2791603 C11.2254834,13.2791603 11.1254834,13.3791603 11.1254834,13.3791603 C12.1254834,14.8791603 12.9254834,16.4791603 13.6254834,18.1791603 C13.7254834,19.0791603 13.6254834,19.9791603 13.4254834,20.8791603 C13.1254834,22.0791603 13.1254834,23.2791603 13.4254834,24.4791603 C11.8254834,23.2791603 10.6254834,21.6791603 9.8254834,19.7791603 C10.7254834,19.4791603 11.8254834,18.7791603 11.9254834,17.6791603 C12.0254834,16.5791603 10.9254834,16.1791603 10.4254834,15.4791603 C9.2254834,14.1791603 9.3254834,12.1791603 10.6254834,10.9791603 C10.5254834,10.8791603 10.7254834,10.6791603 10.9254834,10.5791603 M21.6254834,12.1791603 C20.8254834,11.4791603 21.4254834,10.0791603 22.4254834,10.3791603 C23.3254834,10.6791603 23.2254834,11.8791603 22.5254834,12.2791603 L22.9254834,12.2791603 C23.5254834,12.8791603 23.6254834,13.8791603 23.2254834,14.6791603 C23.0254834,15.2791603 22.6254834,15.8791603 22.0254834,16.1791603 C21.3254834,15.9791603 21.1254834,15.1791603 20.8254834,14.5791603 C20.5254834,13.7791603 20.6254834,12.5791603 21.6254834,12.1791603 M37.5254834,12.1791603 C36.8254834,11.5791603 37.0254834,10.2791603 38.0254834,10.2791603 C38.6254834,10.3791603 39.0254834,10.8791603 38.9254834,11.4791603 C38.9254834,11.6791603 38.7254834,11.9791603 38.5254834,12.0791603 C39.2254834,12.3791603 39.6254834,13.0791603 39.4254834,13.7791603 C39.4254834,14.6791603 38.9254834,15.5791603 38.2254834,16.0791603 C37.3254834,15.7791603 37.0254834,14.7791603 36.7254834,13.9791603 C36.5254834,13.3791603 36.8254834,12.5791603 37.5254834,12.1791603 M45.7254834,10.8791603 C46.8254834,10.0791603 48.3254834,9.9791603 49.5254834,10.6791603 C50.8254834,11.5791603 51.2254834,13.2791603 50.6254834,14.7791603 C50.1254834,15.7791603 49.1254834,16.2791603 48.6254834,17.2791603 C48.3254834,18.5791603 49.6254834,19.4791603 50.6254834,19.7791603 C49.8254834,21.5791603 48.6254834,23.1791603 47.0254834,24.4791603 C47.2254834,23.2791603 47.2254834,22.0791603 47.0254834,20.8791603 C46.7254834,19.9791603 46.7254834,19.0791603 46.8254834,18.0791603 C47.5254834,16.4791603 48.3254834,14.8791603 49.2254834,13.3791603 C48.4254834,12.5791603 47.0254834,12.5791603 46.2254834,13.3791603 C46.2254834,13.3791603 46.1254834,13.4791603 46.1254834,13.4791603 C46.4254834,14.5791603 46.4254834,15.6791603 46.2254834,16.7791603 C45.9254834,17.7791603 45.4254834,18.6791603 44.7254834,19.3791603 C44.4254834,19.1791603 44.0254834,19.0791603 43.7254834,18.9791603 C43.6254834,18.5791603 43.5254834,18.1791603 43.4254834,17.7791603 C44.1254834,17.5791603 44.9254834,17.2791603 45.1254834,16.5791603 C45.5254834,15.2791603 44.8254834,14.0791603 44.5254834,12.8791603 C44.4254834,12.0791603 45.1254834,11.3791603 45.7254834,10.8791603 M33.8254834,14.4791603 C34.1254834,13.4791603 35.0254834,12.7791603 36.0254834,12.7791603 C35.9254834,13.9791603 36.2254834,15.2791603 36.8254834,16.3791603 C36.0254834,16.4791603 35.3254834,16.7791603 34.6254834,17.1791603 C33.9254834,16.3791603 33.5254834,15.3791603 33.8254834,14.4791603 M40.4254834,12.6791603 C41.5254834,12.6791603 42.5254834,13.4791603 42.7254834,14.5791603 C42.7254834,15.3791603 42.5254834,16.0791603 42.0254834,16.6791603 C41.2254834,16.3791603 40.4254834,16.2791603 39.6254834,16.1791603 C40.1254834,15.1791603 40.4254834,13.8791603 40.4254834,12.6791603 M17.5254834,14.3791603 C17.7254834,13.3791603 18.7254834,12.5791603 19.8254834,12.6791603 C19.7254834,13.8791603 20.0254834,15.1791603 20.6254834,16.2791603 C19.8254834,16.3791603 19.0254834,16.4791603 18.2254834,16.7791603 C17.6254834,16.0791603 17.4254834,15.2791603 17.5254834,14.3791603 M24.2254834,12.7791603 C25.2254834,12.7791603 26.2254834,13.4791603 26.5254834,14.4791603 C26.6254834,15.4791603 26.3254834,16.4791603 25.6254834,17.1791603 C24.9254834,16.7791603 24.2254834,16.4791603 23.4254834,16.3791603 C24.0254834,15.2791603 24.2254834,13.9791603 24.2254834,12.7791603 M18.5254834,17.1791603 C20.5254834,16.4791603 22.7254834,16.6791603 24.6254834,17.4791603 C26.6254834,18.3791603 27.8254834,20.4791603 28.6254834,22.3791603 C29.2254834,23.6791603 29.7254834,25.0791603 30.0254834,26.4791603 C30.4254834,24.8791603 30.9254834,23.2791603 31.6254834,21.8791603 C32.3254834,19.8791603 33.8254834,18.2791603 35.7254834,17.3791603 C37.6254834,16.5791603 39.7254834,16.5791603 41.6254834,17.1791603 C42.5254834,17.5791603 43.0254834,18.5791603 42.8254834,19.5791603 C41.8254834,19.7791603 40.7254834,19.9791603 39.7254834,20.2791603 C39.0254834,20.4791603 38.5254834,19.2791603 39.2254834,18.9791603 C39.6254834,18.8791603 40.0254834,19.1791603 40.3254834,19.2791603 C40.0254834,18.5791603 39.1254834,18.2791603 38.4254834,18.5791603 C38.0254834,18.7791603 37.7254834,19.0791603 37.6254834,19.5791603 C37.5254834,20.3791603 38.3254834,20.5791603 38.8254834,20.7791603 C37.5254834,21.6791603 36.5254834,22.9791603 35.9254834,24.4791603 C35.1254834,26.6791603 35.5254834,29.1791603 37.0254834,31.0791603 C38.6254834,33.0791603 41.0254834,34.1791603 43.6254834,33.9791603 C44.1254834,33.9791603 44.5254834,33.7791603 44.7254834,33.3791603 C44.9254834,32.8791603 44.7254834,32.3791603 44.2254834,32.1791603 C44.1254834,32.0791603 43.9254834,32.0791603 43.8254834,32.0791603 C43.2254834,32.0791603 43.2254834,32.5791603 43.2254834,32.9791603 C42.2254834,33.0791603 41.3254834,32.3791603 41.2254834,31.3791603 C41.2254834,31.3791603 41.2254834,31.3791603 41.2254834,31.3791603 C41.1254834,30.4791603 41.5254834,29.6791603 42.4254834,29.2791603 C44.9254834,27.9791603 47.5254834,26.5791603 49.2254834,24.2791603 C50.6254834,22.2791603 51.7254834,20.1791603 52.4254834,17.8791603 C52.6254834,17.5791603 53.0254834,17.4791603 53.3254834,17.5791603 C53.5254834,17.6791603 53.6254834,17.8791603 53.6254834,18.0791603 C53.2254834,21.4791603 51.4254834,24.4791603 49.5254834,27.1791603 C51.1254834,25.9791603 52.5254834,24.6791603 53.7254834,23.0791603 C54.3254834,22.3791603 54.8254834,21.5791603 55.4254834,20.9791603 C55.7254834,20.7791603 56.2254834,20.8791603 56.3254834,21.1791603 C56.4254834,21.3791603 56.4254834,21.5791603 56.4254834,21.7791603 C55.0254834,25.1791603 52.2254834,27.7791603 49.4254834,29.9791603 C52.2254834,28.7791603 54.8254834,27.0791603 57.0254834,24.9791603 C57.5254834,24.2791603 58.7254834,25.1791603 58.1254834,25.7791603 C56.1254834,28.7791603 52.8254834,30.6791603 49.7254834,32.3791603 C52.5254834,31.7791603 55.2254834,30.7791603 57.6254834,29.3791603 C58.0254834,29.1791603 58.4254834,28.7791603 58.8254834,29.0791603 C59.1254834,29.2791603 59.3254834,29.6791603 59.1254834,30.0791603 C59.1254834,30.1791603 59.0254834,30.2791603 58.9254834,30.2791603 C56.3254834,32.6791603 52.9254834,33.8791603 49.6254834,34.9791603 C52.4254834,34.8791603 55.2254834,34.3791603 57.8254834,33.5791603 C58.3254834,33.3791603 59.0254834,33.2791603 59.1254834,33.8791603 C59.2254834,34.4791603 58.6254834,34.7791603 58.2254834,34.9791603 C55.4254834,36.4791603 52.2254834,36.8791603 49.0254834,37.2791603 C51.8254834,37.6791603 54.6254834,37.7791603 57.5254834,37.5791603 C57.9254834,37.5791603 58.2254834,37.8791603 58.2254834,38.2791603 C58.2254834,38.4791603 58.1254834,38.7791603 57.9254834,38.8791603 C55.0254834,39.9791603 51.9254834,39.5791603 48.8254834,39.6791603 C51.0254834,40.7791603 53.6254834,40.9791603 56.0254834,41.5791603 C56.3254834,41.7791603 56.5254834,42.1791603 56.3254834,42.4791603 C56.2254834,42.6791603 56.1254834,42.7791603 55.9254834,42.7791603 C53.3254834,43.1791603 50.7254834,42.2791603 48.2254834,41.8791603 C49.8254834,43.0791603 51.8254834,43.6791603 53.5254834,44.7791603 C53.8254834,45.0791603 53.8254834,45.4791603 53.5254834,45.7791603 C53.4254834,45.9791603 53.1254834,45.9791603 52.9254834,45.9791603 C51.0254834,45.5791603 49.2254834,44.9791603 47.5254834,44.0791603 C47.5254834,44.1791603 47.5254834,44.4791603 47.5254834,44.5791603 C48.5254834,45.3791603 49.4254834,46.1791603 50.2254834,47.1791603 C50.4254834,47.4791603 50.3254834,47.8791603 50.0254834,48.1791603 C49.9254834,48.2791603 49.7254834,48.2791603 49.5254834,48.2791603 C48.6254834,47.8791603 47.7254834,47.3791603 46.9254834,46.7791603 C46.5254834,49.0791603 46.3254834,51.4791603 46.2254834,53.7791603 C46.2254834,54.2791603 46.1254834,54.8791603 45.9254834,55.3791603 C45.6254834,55.4791603 45.2254834,55.4791603 44.9254834,55.5791603 C45.2254834,54.4791603 45.0254834,53.3791603 44.6254834,52.2791603 C44.8254834,46.7791603 46.2254834,41.4791603 47.1254834,36.0791603 C44.3254834,36.4791603 41.4254834,36.8791603 38.7254834,36.0791603 C39.9254834,39.1791603 40.3254834,42.5791603 39.6254834,45.7791603 C39.1254834,48.6791603 37.6254834,51.3791603 35.5254834,53.3791603 C36.3254834,53.5791603 37.1254834,53.8791603 37.8254834,54.3791603 C37.7254834,54.8791603 37.5254834,55.2791603 37.2254834,55.6791603 C35.2254834,55.8791603 33.1254834,55.8791603 31.3254834,56.9791603 C30.4254834,57.4791603 30.2254834,58.6791603 30.7254834,59.4791603 C30.8254834,59.5791603 30.8254834,59.6791603 30.9254834,59.7791603 C31.9254834,60.7791603 33.2254834,61.5791603 34.6254834,62.0791603 C36.0254834,62.4791603 37.5254834,62.5791603 38.9254834,62.9791603 C39.2254834,63.1791603 38.8254834,63.4791603 38.6254834,63.6791603 C37.5254834,64.4791603 36.2254834,64.7791603 34.9254834,64.4791603 C33.0254834,63.9791603 31.3254834,62.8791603 30.2254834,61.3791603 C30.7254834,63.0791603 31.8254834,64.4791603 33.4254834,65.2791603 C34.1254834,65.6791603 35.0254834,65.6791603 35.7254834,66.0791603 C34.4254834,67.4791603 32.1254834,67.0791603 30.8254834,65.7791603 C30.5254834,66.5791603 30.1254834,67.3791603 29.7254834,68.1791603 L29.5254834,68.1791603 C29.1254834,67.4791603 28.7254834,66.6791603 28.4254834,65.8791603 C27.1254834,67.0791603 24.8254834,67.4791603 23.5254834,66.1791603 C24.2254834,65.8791603 25.0254834,65.5791603 25.7254834,65.3791603 C27.3254834,64.5791603 28.5254834,63.0791603 28.9254834,61.3791603 C27.7254834,62.9791603 26.0254834,64.0791603 24.1254834,64.4791603 C22.8254834,64.7791603 21.4254834,64.5791603 20.4254834,63.6791603 C20.2254834,63.4791603 19.9254834,63.2791603 20.2254834,62.9791603 C21.8254834,62.4791603 23.5254834,62.4791603 25.1254834,61.8791603 C26.3254834,61.3791603 27.4254834,60.5791603 28.3254834,59.6791603 C28.9254834,58.8791603 28.8254834,57.7791603 28.0254834,57.0791603 C27.9254834,57.0791603 27.9254834,56.9791603 27.8254834,56.9791603 C26.1254834,55.8791603 23.9254834,55.8791603 21.9254834,55.6791603 C21.5254834,55.3791603 21.4254834,54.8791603 21.3254834,54.3791603 C22.0254834,53.8791603 22.8254834,53.5791603 23.6254834,53.3791603 C21.4254834,51.2791603 19.9254834,48.3791603 19.4254834,45.3791603 C18.9254834,42.2791603 19.2254834,38.9791603 20.4254834,36.0791603 C17.7254834,36.8791603 14.8254834,36.5791603 12.0254834,36.1791603 C12.8254834,41.4791603 14.2254834,46.6791603 14.5254834,52.0791603 C14.5254834,52.4791603 14.4254834,52.8791603 14.2254834,53.1791603 C14.0254834,53.9791603 14.0254834,54.7791603 14.2254834,55.5791603 C13.7254834,55.4791603 13.0254834,55.5791603 13.0254834,54.9791603 C12.9254834,52.2791603 12.6254834,49.4791603 12.2254834,46.7791603 C11.4254834,47.3791603 10.5254834,47.8791603 9.6254834,48.2791603 C9.2254834,48.3791603 8.9254834,48.0791603 8.8254834,47.6791603 C8.8254834,47.4791603 8.8254834,47.2791603 8.9254834,47.1791603 C9.5254834,46.2791603 10.3254834,45.4791603 11.1254834,44.8791603 C11.4254834,44.6791603 11.8254834,44.4791603 11.5254834,43.9791603 C9.8254834,44.8791603 8.0254834,45.4791603 6.1254834,45.8791603 C5.7254834,45.8791603 5.4254834,45.6791603 5.4254834,45.2791603 C5.4254834,45.0791603 5.5254834,44.8791603 5.6254834,44.7791603 C7.3254834,43.6791603 9.3254834,43.0791603 10.9254834,41.8791603 C8.4254834,42.2791603 5.8254834,43.1791603 3.2254834,42.7791603 C2.8254834,42.6791603 2.7254834,42.2791603 2.8254834,41.8791603 C2.9254834,41.6791603 3.1254834,41.4791603 3.3254834,41.4791603 C5.5254834,41.0791603 7.8254834,40.5791603 9.9254834,39.8791603 L10.3254834,39.5791603 C7.3254834,39.4791603 4.1254834,39.8791603 1.2254834,38.7791603 C0.9254834,38.5791603 0.8254834,38.1791603 1.0254834,37.7791603 C1.1254834,37.5791603 1.3254834,37.4791603 1.6254834,37.4791603 C4.4254834,37.6791603 7.3254834,37.5791603 10.1254834,37.1791603 C6.8254834,36.6791603 3.4254834,36.3791603 0.5254834,34.6791603 C0.1254834,34.5791603 -0.0745166004,34.1791603 0.0254833996,33.7791603 C0.0254833996,33.6791603 0.1254834,33.5791603 0.2254834,33.4791603 C0.6254834,33.0791603 1.1254834,33.3791603 1.5254834,33.4791603 C4.1254834,34.2791603 6.8254834,34.6791603 9.5254834,34.7791603 C6.3254834,33.6791603 2.8254834,32.5791603 0.3254834,30.1791603 C0.0254833996,29.8791603 0.0254833996,29.4791603 0.2254834,29.1791603 C0.3254834,29.0791603 0.5254834,28.9791603 0.7254834,28.9791603 C1.4254834,29.2791603 2.1254834,29.5791603 2.8254834,29.9791603 C4.9254834,31.0791603 7.2254834,31.8791603 9.5254834,32.3791603 C6.4254834,30.6791603 3.1254834,28.7791603 1.1254834,25.7791603 C0.9254834,25.4791603 0.9254834,24.9791603 1.3254834,24.7791603 C1.5254834,24.6791603 1.7254834,24.5791603 1.9254834,24.6791603 C2.7254834,25.2791603 3.4254834,25.9791603 4.2254834,26.5791603 C5.9254834,27.8791603 7.8254834,29.0791603 9.8254834,29.8791603 C7.0254834,27.6791603 4.2254834,25.0791603 2.8254834,21.6791603 C2.4254834,20.9791603 3.7254834,20.3791603 4.0254834,21.0791603 C5.5254834,23.3791603 7.5254834,25.3791603 9.6254834,27.0791603 C7.7254834,24.2791603 6.0254834,21.2791603 5.5254834,17.8791603 C5.5254834,17.4791603 5.8254834,17.1791603 6.2254834,17.1791603 C6.3254834,17.1791603 6.4254834,17.1791603 6.5254834,17.2791603 C6.8254834,17.3791603 6.9254834,17.6791603 7.0254834,17.9791603 C7.9254834,20.4791603 9.1254834,22.7791603 10.8254834,24.8791603 C12.6254834,26.6791603 14.7254834,28.0791603 17.0254834,29.0791603 C18.0254834,29.5791603 18.3254834,30.7791603 17.8254834,31.7791603 C17.8254834,31.8791603 17.7254834,31.8791603 17.7254834,31.9791603 C17.3254834,32.4791603 16.7254834,32.7791603 16.1254834,32.6791603 C16.1254834,32.1791603 15.9254834,31.6791603 15.3254834,31.7791603 C14.8254834,31.8791603 14.5254834,32.2791603 14.6254834,32.7791603 C14.7254834,33.1791603 14.9254834,33.3791603 15.3254834,33.4791603 C17.3254834,33.7791603 19.4254834,33.1791603 20.9254834,31.9791603 C22.2254834,30.9791603 23.1254834,29.4791603 23.4254834,27.8791603 C23.8254834,26.2791603 23.6254834,24.4791603 22.8254834,22.9791603 C22.2254834,21.9791603 21.4254834,21.0791603 20.4254834,20.2791603 C20.9254834,20.0791603 21.6254834,19.9791603 21.6254834,19.2791603 C21.7254834,17.8791603 19.2254834,17.4791603 19.0254834,18.8791603 C19.2254834,18.7791603 19.5254834,18.5791603 19.7254834,18.4791603 L20.4254834,18.5791603 C20.6254834,19.0791603 20.3254834,19.5791603 19.9254834,19.7791603 C18.8254834,19.5791603 17.7254834,19.1791603 16.5254834,19.0791603 C17.1254834,18.5791603 17.6254834,17.5791603 18.5254834,17.1791603 M26.4254834,31.8791603 C24.4254834,33.2791603 22.9254834,35.2791603 22.1254834,37.6791603 C20.9254834,41.2791603 21.0254834,45.1791603 22.5254834,48.5791603 C23.3254834,47.0791603 24.1254834,45.6791603 24.9254834,44.1791603 C24.8254834,43.6791603 24.6254834,43.0791603 24.9254834,42.6791603 C25.2254834,42.2791603 25.7254834,41.9791603 26.0254834,41.4791603 C26.7254834,40.0791603 27.4254834,38.6791603 28.0254834,37.2791603 C28.3254834,36.6791603 29.0254834,36.6791603 29.4254834,36.3791603 C29.0254834,35.7791603 28.4254834,35.1791603 28.6254834,34.4791603 C28.7254834,33.9791603 29.1254834,33.5791603 29.5254834,33.3791603 C29.5254834,33.1791603 29.4254834,32.7791603 29.3254834,32.5791603 L30.1254834,32.1791603 L30.7254834,32.8791603 L30.3254834,33.4791603 C31.2254834,34.2791603 31.3254834,35.6791603 30.4254834,36.5791603 C30.4254834,36.5791603 30.3254834,36.6791603 30.3254834,36.6791603 C30.9254834,36.7791603 31.6254834,37.0791603 32.1254834,37.3791603 C32.4254834,37.7791603 32.6254834,38.1791603 32.7254834,38.5791603 C30.2254834,41.0791603 29.2254834,44.7791603 30.1254834,48.2791603 C30.5254834,49.4791603 31.3254834,50.4791603 32.3254834,50.9791603 C31.9254834,51.3791603 31.5254834,51.5791603 31.0254834,51.7791603 C30.7254834,52.1791603 30.4254834,52.7791603 29.9254834,52.8791603 C29.4254834,52.9791603 29.4254834,52.2791603 29.4254834,51.8791603 C28.6254834,51.6791603 27.9254834,51.2791603 27.3254834,50.6791603 C26.6254834,50.6791603 25.8254834,50.8791603 25.3254834,50.2791603 C25.6254834,50.0791603 25.8254834,49.8791603 26.1254834,49.6791603 C25.8254834,48.2791603 25.5254834,46.8791603 25.1254834,45.4791603 C24.3254834,46.7791603 23.6254834,48.1791603 22.8254834,49.4791603 C24.0254834,51.8791603 26.1254834,53.6791603 28.8254834,54.3791603 C31.0254834,54.7791603 33.3254834,54.1791603 34.9254834,52.6791603 C37.0254834,50.6791603 38.4254834,48.0791603 38.8254834,45.1791603 C39.4254834,41.5791603 38.7254834,37.8791603 36.8254834,34.7791603 C35.6254834,32.8791603 33.8254834,31.4791603 31.6254834,30.9791603 C29.8254834,30.5791603 27.9254834,30.9791603 26.4254834,31.8791603 M28.3254834,39.8791603 C27.8254834,40.7791603 27.3254834,41.6791603 26.7254834,42.6791603 L29.2254834,41.7791603 L29.1254834,40.5791603 C28.8254834,40.3791603 28.6254834,40.0791603 28.3254834,39.8791603 M15.3254834,21.0791603 C15.6254834,20.2791603 16.5254834,19.7791603 17.4254834,20.0791603 C17.6254834,20.6791603 16.5254834,20.7791603 16.8254834,21.2791603 C17.5254834,21.4791603 18.2254834,21.1791603 18.9254834,21.3791603 C20.6254834,21.6791603 22.1254834,22.4791603 23.1254834,23.8791603 C23.7254834,24.5791603 23.7254834,25.5791603 23.1254834,26.1791603 C22.1254834,27.3791603 20.2254834,27.5791603 19.0254834,26.5791603 C19.0254834,26.5791603 19.0254834,26.5791603 19.0254834,26.5791603 C19.9254834,26.8791603 20.9254834,26.8791603 21.8254834,26.4791603 C22.4254834,26.1791603 23.1254834,25.5791603 22.8254834,24.7791603 C21.7254834,23.0791603 19.5254834,22.3791603 17.6254834,23.0791603 C16.9254834,23.3791603 16.2254834,23.8791603 15.7254834,24.4791603 C15.1254834,23.4791603 15.0254834,22.1791603 15.3254834,21.0791603 M42.8254834,20.2791603 C43.0254834,19.8791603 43.6254834,19.9791603 44.0254834,20.0791603 C44.7254834,20.3791603 45.2254834,21.1791603 45.2254834,21.9791603 C45.2254834,22.8791603 45.0254834,23.6791603 44.6254834,24.4791603 C43.9254834,23.5791603 42.9254834,22.9791603 41.7254834,22.7791603 C40.1254834,22.5791603 38.5254834,23.2791603 37.6254834,24.6791603 C37.3254834,25.3791603 38.0254834,26.0791603 38.6254834,26.3791603 C39.5254834,26.7791603 40.5254834,26.8791603 41.4254834,26.4791603 C40.2254834,27.5791603 38.4254834,27.4791603 37.3254834,26.2791603 C37.3254834,26.1791603 37.2254834,26.1791603 37.2254834,26.0791603 C36.6254834,25.4791603 36.6254834,24.4791603 37.1254834,23.7791603 C38.2254834,22.2791603 40.0254834,21.2791603 41.9254834,21.1791603 C42.5254834,21.1791603 43.2254834,21.3791603 43.7254834,20.9791603 C43.5254834,20.6791603 43.1254834,20.3791603 42.9254834,20.0791603 M19.0254834,24.0791603 C20.0254834,23.5791603 21.3254834,23.7791603 22.1254834,24.4791603 C21.1254834,24.5791603 20.1254834,24.8791603 19.1254834,25.2791603 C18.5254834,25.8791603 17.8254834,26.2791603 17.1254834,26.5791603 C16.3254834,26.6791603 15.4254834,26.4791603 14.8254834,25.9791603 C15.2254834,25.6791603 15.8254834,25.7791603 16.3254834,25.7791603 C17.4254834,25.6791603 18.0254834,24.5791603 19.0254834,24.0791603 M38.1254834,24.3791603 C39.0254834,23.6791603 40.1254834,23.5791603 41.1254834,23.9791603 C41.8254834,24.4791603 42.5254834,24.9791603 43.1254834,25.4791603 C43.8254834,25.7791603 44.6254834,25.8791603 45.4254834,25.8791603 C44.8254834,26.4791603 43.9254834,26.7791603 43.1254834,26.5791603 C42.0254834,26.2791603 41.3254834,25.0791603 40.2254834,24.8791603 C39.5254834,24.6791603 38.7254834,24.7791603 38.1254834,24.3791603 M31.5254834,32.3791603 L32.6254834,31.8791603 L32.6254834,32.9791603 C32.3254834,33.2791603 31.9254834,33.6791603 31.6254834,34.0791603 L31.1254834,33.2791603 C31.2254834,33.0791603 31.3254834,32.7791603 31.5254834,32.3791603 M33.8254834,38.5791603 C34.6254834,38.0791603 35.6254834,38.2791603 36.2254834,38.8791603 C37.0254834,39.8791603 37.5254834,41.1791603 37.5254834,42.4791603 C37.6254834,44.6791603 37.0254834,46.8791603 35.7254834,48.6791603 C35.1254834,49.6791603 34.0254834,50.2791603 32.8254834,50.2791603 C31.8254834,49.9791603 31.0254834,49.1791603 30.8254834,48.0791603 C30.3254834,45.9791603 30.4254834,43.7791603 31.3254834,41.8791603 C31.7254834,40.4791603 32.6254834,39.2791603 33.8254834,38.5791603 M32.9254834,40.7791603 C33.3254834,40.8791603 33.7254834,40.9791603 34.0254834,41.2791603 C34.2254834,41.6791603 34.3254834,42.0791603 34.3254834,42.4791603 C34.0254834,42.2791603 33.6254834,42.0791603 33.3254834,41.8791603 C33.4254834,42.2791603 33.6254834,42.7791603 33.8254834,43.1791603 C34.1254834,43.0791603 34.5254834,43.0791603 34.8254834,43.2791603 C35.2254834,42.8791603 35.5254834,42.5791603 35.8254834,42.1791603 C35.4254834,42.2791603 35.0254834,42.3791603 34.7254834,42.4791603 C34.9254834,41.6791603 35.7254834,41.0791603 36.6254834,41.1791603 C36.4254834,40.6791603 36.2254834,40.2791603 36.0254834,39.7791603 C35.7254834,39.9791603 35.5254834,40.4791603 35.0254834,40.3791603 C34.5254834,40.2791603 34.4254834,39.8791603 34.2254834,39.5791603 C33.7254834,39.9791603 33.3254834,40.3791603 32.9254834,40.7791603 M32.6254834,42.3791603 C32.5254834,42.8791603 32.5254834,43.3791603 32.7254834,43.7791603 L31.9254834,43.2791603 C31.6254834,44.3791603 31.5254834,45.5791603 31.6254834,46.7791603 C32.2254834,45.9791603 33.3254834,45.2791603 33.4254834,44.1791603 C33.2254834,43.5791603 32.9254834,42.8791603 32.6254834,42.3791603 M34.7254834,44.3791603 C34.5254834,45.3791603 35.3254834,46.0791603 35.7254834,46.8791603 C36.1254834,45.9791603 36.3254834,44.9791603 36.5254834,43.9791603 L35.8254834,44.0791603 C36.1254834,43.6791603 36.2254834,43.2791603 36.2254834,42.7791603 C35.7254834,43.2791603 35.2254834,43.7791603 34.7254834,44.3791603 M31.8254834,47.6791603 C31.9254834,48.4791603 32.7254834,49.3791603 33.5254834,49.0791603 C34.2254834,48.7791603 34.8254834,48.2791603 35.2254834,47.6791603 C34.9254834,47.0791603 34.5254834,46.4791603 34.2254834,45.8791603 C33.9254834,45.9791603 33.6254834,45.9791603 33.3254834,45.7791603 C32.8254834,46.4791603 32.3254834,47.0791603 31.8254834,47.6791603 M17.0254834,43.5791603 C17.7254834,43.5791603 18.3254834,43.5791603 19.0254834,43.5791603 C18.6254834,44.5791603 18.2254834,45.5791603 17.6254834,46.5791603 L17.1254834,46.4791603 C17.5254834,45.6791603 17.9254834,44.8791603 18.3254834,44.0791603 L17.1254834,44.0791603 L17.0254834,43.5791603 M15.3254834,43.5791603 L16.5254834,43.5791603 L16.5254834,45.8791603 L15.9254834,45.8791603 L15.9254834,44.0791603 L15.3254834,44.0791603 L15.3254834,43.5791603 M41.1254834,43.9791603 C41.5254834,43.3791603 42.8254834,43.5791603 42.8254834,44.4791603 C42.8254834,44.9791603 42.3254834,45.1791603 41.9254834,45.4791603 L42.9254834,45.4791603 C42.9254834,45.5791603 42.9254834,45.8791603 42.9254834,45.9791603 L41.1254834,45.9791603 L41.1254834,45.4791603 C41.5254834,45.1791603 41.9254834,44.8791603 42.2254834,44.4791603 C42.3254834,43.7791603 41.4254834,44.4791603 41.1254834,43.9791603 M44.1254834,43.7791603 L44.9254834,43.7791603 L44.9254834,45.4791603 L45.3254834,45.4791603 C45.3254834,45.5791603 45.3254834,45.7791603 45.3254834,45.8791603 L44.9254834,45.8791603 C44.9254834,46.0791603 44.9254834,46.4791603 44.9254834,46.6791603 L44.3254834,46.6791603 C44.3254834,46.4791603 44.3254834,46.0791603 44.3254834,45.9791603 L43.0254834,45.9791603 C43.4254834,45.0791603 43.7254834,44.3791603 44.1254834,43.7791603 M43.8254834,45.3791603 L44.4254834,45.3791603 C44.4254834,44.9791603 44.4254834,44.6791603 44.4254834,44.2791603 L43.8254834,45.3791603 M33.3254834,48.1791603 C32.5254834,47.6791603 33.1254834,46.5791603 33.8254834,46.3791603 C34.2254834,46.8791603 34.4254834,48.1791603 33.3254834,48.1791603 M43.0254834,52.0791603 C43.5254834,52.1791603 44.0254834,52.3791603 44.4254834,52.7791603 C45.2254834,53.6791603 45.1254834,55.0791603 44.2254834,55.8791603 C44.1254834,55.9791603 43.9254834,56.0791603 43.8254834,56.1791603 C42.1254834,56.6791603 40.2254834,56.6791603 38.5254834,56.0791603 C39.1254834,55.7791603 39.8254834,55.3791603 39.9254834,54.6791603 C39.8254834,54.3791603 39.7254834,53.9791603 39.5254834,53.6791603 C40.0254834,53.6791603 40.5254834,53.8791603 40.8254834,54.2791603 C41.2254834,54.7791603 40.8254834,55.3791603 40.6254834,55.8791603 C41.1254834,55.6791603 41.5254834,55.3791603 41.7254834,54.8791603 C42.0254834,53.9791603 41.5254834,53.1791603 41.1254834,52.3791603 C41.9254834,52.4791603 42.6254834,52.8791603 43.0254834,53.5791603 C43.3254834,54.2791603 43.2254834,55.0791603 42.7254834,55.5791603 L43.3254834,55.4791603 C43.7254834,54.9791603 43.9254834,54.3791603 44.0254834,53.7791603 C43.7254834,53.1791603 43.4254834,52.5791603 43.0254834,52.0791603 M15.8254834,52.7791603 C16.2254834,52.3791603 16.7254834,52.0791603 17.3254834,51.9791603 C16.9254834,52.5791603 16.6254834,53.2791603 16.6254834,53.9791603 C16.7254834,54.6791603 17.0254834,55.4791603 17.8254834,55.6791603 C17.4254834,55.1791603 17.3254834,54.4791603 17.4254834,53.7791603 C17.8254834,52.9791603 18.5254834,52.4791603 19.3254834,52.3791603 C18.8254834,53.0791603 18.6254834,53.8791603 18.7254834,54.6791603 C18.9254834,55.2791603 19.3254834,55.6791603 19.9254834,55.8791603 C19.7254834,55.3791603 19.3254834,54.8791603 19.6254834,54.3791603 C19.9254834,53.7791603 20.4254834,53.7791603 20.9254834,53.6791603 C20.7254834,53.9791603 20.6254834,54.3791603 20.5254834,54.6791603 C20.6254834,55.3791603 21.3254834,55.7791603 21.9254834,56.0791603 C20.2254834,56.6791603 18.4254834,56.6791603 16.7254834,56.1791603 C15.6254834,55.6791603 15.1254834,54.3791603 15.6254834,53.2791603 C15.6254834,53.0791603 15.7254834,52.8791603 15.8254834,52.7791603 M20.3254834,58.8791603 C20.2254834,57.4791603 21.6254834,56.6791603 22.8254834,56.5791603 C24.4254834,56.6791603 26.0254834,56.9791603 27.5254834,57.4791603 C27.3254834,58.2791603 26.4254834,58.3791603 25.7254834,58.4791603 C24.5254834,58.4791603 23.3254834,58.4791603 22.2254834,58.2791603 C21.5254834,58.3791603 20.9254834,58.5791603 20.3254834,58.8791603 M32.9254834,57.4791603 C34.3254834,57.0791603 35.8254834,56.7791603 37.3254834,56.5791603 C38.7254834,56.4791603 39.9254834,57.4791603 40.0254834,58.7791603 C39.3254834,58.6791603 38.7254834,58.1791603 38.0254834,58.2791603 C36.5254834,58.3791603 34.8254834,58.8791603 33.4254834,58.1791603 C33.1254834,58.0791603 32.6254834,57.7791603 32.9254834,57.4791603 M26.7254834,59.1791603 C27.4254834,59.0791603 27.9254834,58.5791603 28.5254834,58.3791603 C28.4254834,59.6791603 27.1254834,60.3791603 26.0254834,60.7791603 C24.3254834,61.3791603 22.6254834,61.6791603 20.9254834,61.7791603 C20.1254834,61.8791603 19.6254834,62.5791603 18.9254834,63.0791603 C18.2254834,62.4791603 18.1254834,61.3791603 18.6254834,60.6791603 C19.3254834,59.9791603 20.3254834,59.5791603 21.3254834,59.5791603 C23.1254834,59.5791603 24.9254834,59.4791603 26.7254834,59.1791603 M31.9254834,58.3791603 C32.4254834,58.6791603 33.0254834,58.9791603 33.6254834,59.1791603 C35.4254834,59.4791603 37.2254834,59.6791603 38.9254834,59.6791603 C39.9254834,59.5791603 40.9254834,59.9791603 41.7254834,60.6791603 C42.3254834,61.3791603 42.2254834,62.4791603 41.5254834,63.1791603 C41.5254834,63.1791603 41.5254834,63.1791603 41.4254834,63.1791603 C40.9254834,62.4791603 40.0254834,61.9791603 39.1254834,61.8791603 C37.0254834,61.7791603 35.0254834,61.2791603 33.1254834,60.3791603 C32.4254834,59.8791603 31.9254834,59.1791603 31.9254834,58.3791603 L31.9254834,58.3791603 Z" id="Shape" fill="#000000"></path>
            <path d="M80.9254834,18.1791603 C83.0254834,16.9791603 85.5254834,17.3791603 87.8254834,17.7791603 C87.8254834,18.4791603 87.8254834,19.1791603 87.8254834,19.8791603 C86.5254834,19.1791603 85.1254834,18.8791603 83.7254834,18.8791603 C82.7254834,18.8791603 81.9254834,19.5791603 81.7254834,20.4791603 C81.7254834,21.4791603 82.2254834,22.3791603 83.1254834,22.8791603 C84.7254834,23.9791603 86.7254834,24.5791603 88.0254834,26.0791603 C89.1254834,27.4791603 89.3254834,29.3791603 88.5254834,30.8791603 C87.7254834,32.1791603 86.4254834,32.9791603 84.9254834,33.0791603 C83.1254834,33.2791603 81.3254834,33.1791603 79.6254834,32.5791603 L79.6254834,30.0791603 C81.3254834,31.0791603 83.5254834,31.8791603 85.4254834,31.1791603 C86.5254834,30.5791603 86.9254834,29.2791603 86.3254834,28.1791603 C86.2254834,27.9791603 86.1254834,27.7791603 85.9254834,27.6791603 C84.3254834,25.9791603 81.8254834,25.5791603 80.2254834,23.7791603 C78.8254834,22.1791603 79.0254834,19.6791603 80.6254834,18.3791603 C80.7254834,18.3791603 80.8254834,18.2791603 80.9254834,18.1791603 M107.325483,17.6791603 C109.025483,17.6791603 110.825483,17.5791603 112.525483,17.7791603 C114.625483,17.6791603 116.425483,19.3791603 116.525483,21.5791603 C116.525483,21.9791603 116.525483,22.2791603 116.425483,22.6791603 C116.325483,23.8791603 115.725483,24.8791603 114.725483,25.4791603 C113.225483,26.1791603 111.525483,26.4791603 109.825483,26.2791603 L109.825483,32.9791603 L107.425483,32.9791603 L107.425483,17.6791603 M109.725483,19.1791603 L109.725483,24.7791603 C111.025483,24.7791603 112.725483,24.9791603 113.525483,23.6791603 C114.125483,22.5791603 114.025483,21.2791603 113.425483,20.1791603 C112.525483,18.9791603 111.025483,19.1791603 109.725483,19.1791603 M161.525483,27.0791603 L161.525483,17.6791603 L163.825483,17.6791603 C163.825483,19.7791603 163.825483,21.8791603 163.825483,23.8791603 C164.225483,23.1791603 164.925483,22.6791603 165.625483,22.2791603 C167.025483,21.7791603 168.625483,22.2791603 169.625483,23.4791603 C170.425483,24.7791603 170.825483,26.3791603 170.725483,27.9791603 C170.825483,29.5791603 170.225483,31.0791603 169.225483,32.1791603 C167.925483,33.1791603 166.225483,33.5791603 164.625483,33.1791603 C163.625483,33.0791603 162.725483,32.4791603 162.125483,31.5791603 C161.625483,30.0791603 161.325483,28.5791603 161.525483,27.0791603 M165.325483,23.6791603 C164.625483,24.1791603 164.125483,24.8791603 164.025483,25.7791603 C163.825483,27.0791603 163.725483,28.3791603 163.925483,29.5791603 C163.925483,30.3791603 164.225483,31.2791603 164.825483,31.8791603 C165.625483,32.4791603 166.725483,32.3791603 167.325483,31.5791603 C167.325483,31.5791603 167.425483,31.4791603 167.425483,31.4791603 C168.525483,29.1791603 168.525483,26.5791603 167.425483,24.2791603 C166.925483,23.5791603 166.025483,23.2791603 165.325483,23.6791603 M91.8254834,19.8791603 C92.6254834,19.4791603 93.3254834,18.9791603 94.0254834,18.5791603 L94.0254834,22.3791603 L96.9254834,22.3791603 L96.9254834,23.5791603 L94.0254834,23.5791603 C94.0254834,25.6791603 94.0254834,27.7791603 94.0254834,29.8791603 C94.0254834,30.4791603 94.0254834,31.2791603 94.6254834,31.6791603 C95.3254834,31.9791603 96.0254834,31.9791603 96.7254834,31.7791603 C96.7254834,32.1791603 96.7254834,32.6791603 96.7254834,33.0791603 C95.5254834,33.2791603 94.2254834,33.2791603 93.0254834,32.8791603 C92.3254834,32.4791603 91.8254834,31.6791603 91.8254834,30.8791603 C91.8254834,28.4791603 91.8254834,26.0791603 91.8254834,23.6791603 L90.1254834,23.6791603 L90.1254834,22.4791603 L91.8254834,22.4791603 C91.8254834,21.5791603 91.8254834,20.7791603 91.8254834,19.8791603 M128.425483,19.8791603 C129.225483,19.4791603 129.925483,18.9791603 130.725483,18.4791603 L130.725483,22.2791603 L133.625483,22.2791603 C133.625483,22.6791603 133.625483,23.0791603 133.625483,23.4791603 L130.725483,23.4791603 C130.725483,25.6791603 130.725483,27.8791603 130.725483,30.0791603 C130.625483,30.6791603 130.825483,31.1791603 131.325483,31.5791603 C132.025483,31.8791603 132.725483,31.8791603 133.425483,31.6791603 C133.425483,32.0791603 133.425483,32.5791603 133.425483,32.9791603 C132.125483,33.2791603 130.625483,33.1791603 129.425483,32.5791603 C128.725483,31.9791603 128.325483,30.9791603 128.525483,30.0791603 L128.525483,23.4791603 L126.825483,23.4791603 L126.825483,22.2791603 L128.525483,22.2791603 L128.425483,19.8791603 M117.625483,23.6791603 C118.325483,22.6791603 119.525483,22.1791603 120.725483,22.1791603 C122.025483,21.9791603 123.325483,22.3791603 124.325483,23.2791603 C125.025483,24.1791603 125.425483,25.3791603 125.325483,26.5791603 C123.225483,26.5791603 121.125483,26.5791603 118.925483,26.5791603 C119.025483,28.3791603 119.525483,30.3791603 121.025483,31.4791603 C122.225483,32.2791603 123.825483,32.2791603 125.125483,31.6791603 C125.125483,32.0791603 125.125483,32.3791603 125.125483,32.7791603 C123.225483,33.5791603 121.125483,33.5791603 119.225483,32.6791603 C117.725483,31.6791603 116.825483,30.0791603 116.725483,28.2791603 C116.525483,26.5791603 116.825483,24.9791603 117.625483,23.6791603 M119.625483,23.7791603 C119.225483,24.2791603 119.025483,24.8791603 118.925483,25.4791603 C120.325483,25.4791603 121.625483,25.4791603 123.025483,25.4791603 C123.025483,24.8791603 122.825483,24.2791603 122.425483,23.7791603 C121.725483,22.9791603 120.525483,22.9791603 119.725483,23.6791603 C119.725483,23.6791603 119.625483,23.6791603 119.625483,23.7791603 M135.625483,23.7791603 C136.325483,22.7791603 137.525483,22.1791603 138.725483,22.1791603 C140.025483,21.9791603 141.325483,22.3791603 142.325483,23.2791603 C143.025483,24.1791603 143.425483,25.3791603 143.325483,26.5791603 C141.225483,26.5791603 139.125483,26.5791603 136.925483,26.5791603 C137.025483,28.3791603 137.525483,30.3791603 139.025483,31.4791603 C140.225483,32.1791603 141.725483,32.2791603 143.025483,31.6791603 C143.025483,31.9791603 143.025483,32.3791603 143.025483,32.6791603 C141.225483,33.4791603 139.125483,33.4791603 137.325483,32.6791603 C135.825483,31.7791603 134.925483,30.2791603 134.825483,28.4791603 C134.525483,26.7791603 134.825483,25.1791603 135.625483,23.7791603 M137.725483,23.7791603 C137.325483,24.2791603 137.125483,24.8791603 137.125483,25.4791603 C138.525483,25.4791603 139.825483,25.4791603 141.225483,25.4791603 C141.225483,24.8791603 141.025483,24.2791603 140.625483,23.6791603 C139.925483,22.8791603 138.625483,22.8791603 137.925483,23.6791603 C137.725483,23.6791603 137.725483,23.6791603 137.725483,23.7791603 M148.025483,25.0791603 C148.625483,23.6791603 149.825483,22.1791603 151.425483,22.0791603 C151.425483,22.8791603 151.425483,23.6791603 151.425483,24.4791603 C150.525483,24.4791603 149.625483,24.7791603 148.925483,25.2791603 C148.225483,25.9791603 147.925483,26.9791603 148.025483,27.9791603 C148.025483,29.6791603 148.025483,31.2791603 148.025483,32.9791603 L145.825483,32.9791603 L145.825483,22.3791603 L148.125483,22.3791603 C148.025483,23.2791603 148.025483,24.1791603 148.025483,25.0791603 M154.025483,22.7791603 C155.625483,22.0791603 157.325483,21.9791603 158.925483,22.5791603 C158.925483,23.2791603 158.925483,23.8791603 158.925483,24.5791603 C158.125483,23.9791603 157.125483,23.5791603 156.025483,23.5791603 C155.425483,23.5791603 154.925483,23.8791603 154.725483,24.4791603 C154.625483,25.0791603 155.125483,25.5791603 155.525483,25.8791603 C156.625483,26.6791603 157.925483,27.0791603 158.825483,28.0791603 C159.625483,29.0791603 159.825483,30.3791603 159.225483,31.4791603 C158.825483,32.2791603 158.025483,32.8791603 157.125483,33.0791603 C155.625483,33.3791603 154.125483,33.2791603 152.625483,32.8791603 L152.625483,30.6791603 C153.525483,31.3791603 154.625483,31.7791603 155.725483,31.7791603 C156.425483,31.7791603 157.025483,31.3791603 157.325483,30.7791603 C157.425483,30.2791603 157.225483,29.6791603 156.725483,29.3791603 C155.625483,28.4791603 154.125483,27.9791603 153.225483,26.8791603 C152.225483,25.6791603 152.425483,23.8791603 153.625483,22.8791603 C153.825483,22.8791603 153.925483,22.7791603 154.025483,22.7791603 M187.425483,25.0791603 C188.025483,23.6791603 189.225483,22.2791603 190.825483,22.0791603 C190.825483,22.8791603 190.825483,23.6791603 190.825483,24.4791603 C189.925483,24.4791603 189.025483,24.7791603 188.325483,25.2791603 C187.625483,25.9791603 187.325483,26.9791603 187.425483,27.8791603 C187.425483,29.5791603 187.425483,31.1791603 187.425483,32.8791603 L185.125483,32.8791603 L185.125483,22.3791603 L187.425483,22.3791603 L187.425483,25.0791603 M192.825483,23.4791603 C193.725483,22.2791603 195.325483,21.8791603 196.725483,22.2791603 C197.625483,22.5791603 198.225483,23.2791603 198.625483,24.1791603 C198.625483,23.5791603 198.625483,22.9791603 198.625483,22.4791603 L200.825483,22.4791603 C200.825483,25.8791603 200.825483,29.2791603 200.825483,32.6791603 C200.925483,33.9791603 200.625483,35.2791603 199.925483,36.4791603 C199.225483,37.2791603 198.325483,37.7791603 197.325483,37.9791603 C195.725483,38.1791603 194.125483,38.0791603 192.625483,37.6791603 L192.625483,35.4791603 C193.625483,36.2791603 194.925483,36.6791603 196.225483,36.7791603 C197.025483,36.7791603 197.825483,36.3791603 198.225483,35.6791603 C198.825483,34.4791603 198.625483,33.0791603 198.625483,31.7791603 C197.425483,33.8791603 193.925483,33.6791603 192.725483,31.6791603 C192.025483,30.3791603 191.725483,28.8791603 191.825483,27.3791603 C191.825483,25.7791603 192.125483,24.5791603 192.825483,23.4791603 M195.525483,23.8791603 C194.525483,24.4791603 194.325483,25.7791603 194.225483,26.8791603 C194.025483,28.2791603 194.325483,29.6791603 194.925483,30.9791603 C195.425483,31.7791603 196.525483,31.9791603 197.325483,31.4791603 C197.525483,31.3791603 197.625483,31.2791603 197.725483,31.0791603 C198.225483,30.0791603 198.525483,28.9791603 198.425483,27.8791603 C198.525483,26.6791603 198.225483,25.4791603 197.725483,24.4791603 C197.225483,23.5791603 196.325483,23.3791603 195.525483,23.8791603 M173.225483,22.3791603 L175.525483,22.3791603 L175.525483,29.1791603 C175.425483,29.8791603 175.725483,30.5791603 176.125483,31.1791603 C176.825483,31.5791603 177.725483,31.3791603 178.225483,30.7791603 C179.125483,29.7791603 179.525483,28.4791603 179.625483,27.1791603 C179.725483,25.5791603 179.625483,23.8791603 179.625483,22.2791603 L181.825483,22.2791603 L181.825483,32.8791603 L179.525483,32.8791603 C179.525483,32.0791603 179.525483,31.1791603 179.525483,30.3791603 C179.125483,31.3791603 178.325483,32.2791603 177.425483,32.7791603 C176.425483,33.2791603 175.125483,33.2791603 174.225483,32.5791603 C173.525483,31.8791603 173.125483,30.8791603 173.225483,29.8791603 C173.225483,27.4791603 173.225483,24.9791603 173.225483,22.3791603 M79.3254834,41.2791603 L81.8254834,41.2791603 C81.8254834,44.8791603 81.8254834,48.3791603 81.8254834,51.9791603 C81.8254834,53.0791603 81.9254834,54.4791603 83.0254834,55.1791603 C84.1254834,55.7791603 85.4254834,55.6791603 86.3254834,54.9791603 C87.0254834,54.1791603 87.3254834,53.0791603 87.2254834,51.9791603 C87.2254834,48.3791603 87.2254834,44.8791603 87.2254834,41.2791603 L89.7254834,41.2791603 C89.7254834,44.5791603 89.7254834,47.9791603 89.7254834,51.2791603 C89.7254834,52.7791603 89.5254834,54.5791603 88.4254834,55.6791603 C87.2254834,56.5791603 85.7254834,56.9791603 84.2254834,56.8791603 C82.8254834,56.9791603 81.3254834,56.4791603 80.4254834,55.3791603 C79.6254834,54.0791603 79.3254834,52.5791603 79.4254834,51.0791603 C79.3254834,47.8791603 79.3254834,44.5791603 79.3254834,41.2791603 M104.925483,41.2791603 L107.325483,41.2791603 L107.325483,43.4791603 L104.925483,43.4791603 L104.925483,41.2791603 M146.725483,41.2791603 L149.125483,41.2791603 C149.125483,41.9791603 149.125483,42.7791603 149.125483,43.4791603 L146.725483,43.4791603 L146.725483,41.2791603 M153.125483,43.5791603 L155.425483,42.1791603 L155.425483,45.9791603 L158.325483,45.9791603 L158.325483,47.1791603 L155.425483,47.1791603 C155.425483,49.3791603 155.425483,51.4791603 155.425483,53.6791603 C155.325483,54.2791603 155.525483,54.8791603 156.025483,55.2791603 C156.625483,55.4791603 157.325483,55.5791603 158.025483,55.3791603 C158.025483,55.7791603 158.025483,56.2791603 158.025483,56.6791603 C156.725483,56.9791603 155.425483,56.8791603 154.225483,56.3791603 C153.425483,55.8791603 153.025483,54.9791603 153.125483,54.0791603 C153.125483,51.7791603 153.125483,49.4791603 153.125483,47.1791603 L151.425483,47.1791603 C151.425483,46.7791603 151.425483,46.3791603 151.425483,45.9791603 L153.125483,45.9791603 C153.125483,45.2791603 153.125483,44.3791603 153.125483,43.5791603 M97.0254834,46.3791603 C97.9254834,45.7791603 99.1254834,45.6791603 100.125483,46.0791603 C101.125483,46.6791603 101.625483,47.7791603 101.625483,48.8791603 C101.625483,51.4791603 101.625483,54.0791603 101.625483,56.6791603 L99.3254834,56.6791603 C99.3254834,54.2791603 99.3254834,51.8791603 99.3254834,49.5791603 C99.3254834,48.8791603 99.1254834,47.8791603 98.4254834,47.5791603 C97.3254834,47.4791603 96.2254834,48.0791603 95.9254834,49.1791603 C94.8254834,51.4791603 95.3254834,54.1791603 95.2254834,56.6791603 L92.9254834,56.6791603 L92.9254834,45.9791603 L95.1254834,45.9791603 C95.1254834,46.7791603 95.1254834,47.6791603 95.1254834,48.4791603 C95.6254834,47.6791603 96.2254834,46.8791603 97.0254834,46.3791603 M120.325483,47.9791603 C120.925483,46.7791603 122.025483,45.9791603 123.425483,45.8791603 C124.825483,45.5791603 126.225483,45.9791603 127.325483,46.7791603 C128.125483,47.6791603 128.525483,48.8791603 128.425483,50.0791603 L122.125483,50.0791603 C122.025483,51.9791603 122.825483,53.7791603 124.225483,54.9791603 C125.425483,55.7791603 127.025483,55.7791603 128.325483,55.1791603 C128.325483,55.4791603 128.325483,55.8791603 128.325483,56.1791603 C126.625483,56.8791603 124.725483,56.9791603 123.025483,56.3791603 C121.525483,55.7791603 120.425483,54.3791603 120.125483,52.6791603 C119.525483,51.1791603 119.725483,49.4791603 120.325483,47.9791603 M122.725483,47.2791603 C122.325483,47.7791603 122.025483,48.3791603 122.025483,48.9791603 L126.125483,48.9791603 C126.125483,48.3791603 125.925483,47.7791603 125.525483,47.2791603 C124.825483,46.4791603 123.625483,46.4791603 122.725483,47.2791603 C122.825483,47.1791603 122.825483,47.2791603 122.725483,47.2791603 M139.025483,46.2791603 C140.525483,45.5791603 142.325483,45.4791603 143.925483,46.0791603 L143.925483,48.0791603 C142.925483,47.3791603 141.525483,46.6791603 140.325483,47.2791603 C139.825483,47.4791603 139.625483,48.0791603 139.825483,48.5791603 C139.925483,48.6791603 140.025483,48.8791603 140.125483,48.9791603 C141.225483,49.9791603 142.825483,50.3791603 143.825483,51.5791603 C144.625483,52.5791603 144.825483,53.8791603 144.325483,55.0791603 C143.825483,55.9791603 143.025483,56.5791603 142.125483,56.6791603 C140.725483,56.9791603 139.225483,56.8791603 137.825483,56.3791603 C137.825483,55.6791603 137.825483,54.9791603 137.825483,54.2791603 C138.725483,54.9791603 139.725483,55.3791603 140.825483,55.3791603 C141.525483,55.4791603 142.225483,55.0791603 142.525483,54.3791603 C142.625483,53.7791603 142.325483,53.1791603 141.825483,52.9791603 C140.725483,52.1791603 139.325483,51.6791603 138.425483,50.5791603 C137.425483,49.3791603 137.625483,47.5791603 138.825483,46.5791603 C138.825483,46.4791603 138.925483,46.3791603 139.025483,46.2791603 M105.025483,45.9791603 L107.225483,45.9791603 C107.225483,49.4791603 107.225483,53.0791603 107.225483,56.5791603 L104.925483,56.5791603 L105.025483,45.9791603 M109.025483,45.9791603 L111.425483,45.9791603 L114.125483,53.5791603 C114.925483,51.0791603 115.825483,48.5791603 116.625483,45.9791603 L118.725483,45.9791603 C117.525483,49.4791603 116.225483,53.0791603 115.025483,56.5791603 L113.025483,56.5791603 C111.725483,52.9791603 110.425483,49.4791603 109.025483,45.9791603 M133.025483,48.6791603 C133.625483,47.2791603 134.725483,45.8791603 136.425483,45.6791603 C136.425483,46.4791603 136.425483,47.2791603 136.425483,48.0791603 C135.525483,48.0791603 134.725483,48.2791603 134.025483,48.7791603 C133.325483,49.4791603 132.925483,50.3791603 133.025483,51.3791603 C133.025483,53.0791603 133.025483,54.7791603 133.025483,56.4791603 L130.725483,56.4791603 C130.725483,52.9791603 130.725483,49.3791603 130.725483,45.8791603 L133.025483,45.8791603 C133.125483,46.7791603 133.125483,47.6791603 133.025483,48.6791603 M146.825483,46.0791603 L149.125483,46.0791603 L149.125483,56.6791603 L146.825483,56.6791603 L146.825483,46.0791603 M158.625483,46.0791603 L161.025483,46.0791603 C161.925483,48.5791603 162.925483,51.0791603 163.825483,53.6791603 C164.625483,51.1791603 165.425483,48.6791603 166.325483,46.0791603 L168.425483,46.0791603 C166.625483,51.1791603 164.825483,56.2791603 163.025483,61.3791603 L161.225483,61.3791603 C161.725483,59.7791603 162.325483,58.2791603 162.725483,56.6791603 C161.425483,53.1791603 160.025483,49.5791603 158.625483,46.0791603" id="Shape" fill="#8A3428"></path>
        </g>
    </g>
</svg>