<?xml version="1.0" encoding="UTF-8"?>
<svg id="Layer_1" data-name="Layer 1" xmlns="http://www.w3.org/2000/svg" xmlns:xlink="http://www.w3.org/1999/xlink" viewBox="0 0 257.21 74.2">
  <defs>
    <style>
      .cls-1 {
        fill: url(#GradientFill_1);
      }

      .cls-1, .cls-2 {
        fill-rule: evenodd;
      }

      .cls-2 {
        fill: #1a1a18;
      }
    </style>
    <linearGradient id="GradientFill_1" data-name="GradientFill 1" x1="22.42" y1="0" x2="22.42" y2="68.44" gradientTransform="matrix(1, 0, 0, 1, 0, 0)" gradientUnits="userSpaceOnUse">
      <stop offset="0" stop-color="#e5007d"/>
      <stop offset=".48" stop-color="#e3000f"/>
      <stop offset="1" stop-color="#ffed00"/>
    </linearGradient>
  </defs>
  <path class="cls-1" d="M30.72,0H.7L0,2.71c5.46,0,7.77,3.81,10.22,7.89L30.32,45.06c.95,1.72,1.88,3.8,1.85,5.75-.07,5.07-6.66,6.93-10.59,7.12-2.88,.14-5.73-.53-8.29-1.69l-1.6,2.06c.93,3.98,4.61,8.8,9.67,8.77,8.78-.06,13.4-8.1,16.93-14.64l6.54-12.12L25.84,7.75c-1.75-2.91,1.13-5.03,4.18-5.05l.7-2.7Z"/>
  <path class="cls-2" d="M79.57,.04h-4.74V21.46c0,2.38-2.5,3.46-4.54,3.46s-4.68-1.09-4.68-3.46V0l-4.87,.04V22.05c0,4.69,5.31,6.88,9.42,6.88s9.42-2.19,9.42-6.88V.04Z"/>
  <path class="cls-2" d="M95.5,7.41c-.96-.71-2.58-1.06-3.76-1.06-1.9,0-3.23,1.04-4.25,2.51-.16-.75-.92-1.98-1.73-2.19l-3.14,1.64c.78,.51,1.2,1.92,1.2,2.79l-.04,17.52h4.45V13.93c0-1.83,1.17-3.12,2.98-3.36,1.07-.14,2.19,.1,3.1,.7l1.2-3.86Z"/>
  <path class="cls-2" d="M125.71,27.55l-1.28-3.19c-1.02,.83-2.86,1.25-2.86-.83V0h-4.45V23.82c0,2.55,1.34,5.11,4.24,5.1,1.65,0,2.97-.54,4.35-1.38Z"/>
  <path class="cls-2" d="M114.64,25.34c-1.02-.25-1.79-1.14-1.79-2.36V13.76c0-4.53-2.4-7.41-7.51-7.41-3.46,0-6.17,1.46-7.64,2.97l2.4,2.94c1.51-1.46,3.68-2.04,4.79-2.04,1.51,0,3.41,.67,3.41,2.71v2.33h-3.72c-5.33,0-7.55,3.38-7.55,6.93s1.87,6.76,7.24,6.76c1.64,0,3.76-.83,5.06-2.1,1.37,1.24,2.24,1.84,3.7,2.09l1.6-3.6h0Zm-6.33-1.77c-1.08,1.4-3.06,1.8-4.57,1.53-1.16-.21-2.13-1.39-2.16-2.64-.03-1.62,.99-3.37,3.36-3.37h3.36v4.48Z"/>
  <polygon class="cls-2" points="155.76 0 138.94 0 138.94 28.62 143.68 28.62 143.68 15.91 154.3 15.91 154.3 11.77 143.68 11.77 143.68 4.18 154.79 4.18 155.76 0"/>
  <path class="cls-2" d="M194.32,25.34c-.69-.29-1.79-.39-1.79-2.67V0h-4.45V7.76c-1.19-.88-2.62-1.42-4.1-1.42-4.39,0-7.79,3.42-7.79,7.79v7.53c0,4.33,3.22,7.25,7.48,7.26,2,0,4.09-.74,5.34-2.08,.59,.67,2.43,2.02,3.7,2.09l1.6-3.6h0Zm-6.24-1.67c-1.07,1.09-2.36,1.48-3.76,1.48-2.38,0-3.6-1.5-3.6-3.8v-7.22c0-2.07,.98-3.85,3.17-3.95,1.76-.08,3.1,.44,4.19,1.82v11.67Z"/>
  <path class="cls-2" d="M212.76,26.03l-1.92-3.43c-2.18,1.78-4.3,2.35-6.07,2.35-2.18,0-3.86-1.2-3.86-3.55v-2.03h11.36v-5.33c0-5.55-3.51-7.68-7.73-7.68-4.84,0-8.22,2.49-8.22,7.95v7.28c0,4.88,3.2,7.33,8.09,7.33,3.6,0,5.77-1.16,8.35-2.89h0Zm-5.07-13.13v2.72h-6.78v-2.41c0-1.95,1.68-3.06,3.63-3.06,1.2,0,3.14,.8,3.14,2.75Z"/>
  <path class="cls-2" d="M227.93,7.41c-.96-.71-2.58-1.06-3.75-1.06-1.9,0-3.23,1.04-4.25,2.51-.16-.75-.92-1.98-1.73-2.19l-3.14,1.64c.78,.51,1.2,1.92,1.2,2.79l-.04,17.52h4.45V13.93c0-1.83,1.17-3.12,2.98-3.36,1.07-.14,2.19,.1,3.1,.7l1.2-3.86Z"/>
  <path class="cls-2" d="M246.58,25.34c-1.02-.25-1.79-1.14-1.79-2.36V13.76c0-4.53-2.4-7.41-7.51-7.41-3.46,0-6.17,1.46-7.64,2.97l2.4,2.94c1.51-1.46,3.68-2.04,4.79-2.04,1.51,0,3.41,.67,3.41,2.71v2.33h-3.72c-5.33,0-7.55,3.38-7.55,6.93s1.87,6.76,7.24,6.76c1.64,0,3.76-.83,5.06-2.1,1.37,1.24,2.24,1.84,3.7,2.09l1.6-3.6h0Zm-6.33-1.77c-1.08,1.4-3.06,1.8-4.57,1.53-1.16-.21-2.13-1.39-2.16-2.64-.03-1.62,.99-3.37,3.36-3.37h3.36v4.48Z"/>
  <path class="cls-2" d="M257.21,27.55l-1.28-3.19c-1.02,.83-2.86,1.25-2.86-.83V0h-4.45V23.82c0,2.55,1.34,5.11,4.24,5.1,1.65,0,2.97-.54,4.35-1.38Z"/>
  <path class="cls-2" d="M173.41,26.03l-1.92-3.43c-2.18,1.78-4.3,2.35-6.07,2.35-2.18,0-3.86-1.2-3.86-3.55v-2.03h11.36v-5.33c0-5.55-3.51-7.68-7.73-7.68-4.84,0-8.22,2.49-8.22,7.95v7.28c0,4.88,3.2,7.33,8.09,7.33,3.6,0,5.77-1.16,8.35-2.89h0Zm-5.07-13.13v2.72h-6.78v-2.41c0-1.95,1.68-3.06,3.63-3.06,1.2,0,3.14,.8,3.14,2.75Z"/>
  <path class="cls-2" d="M219.48,43.98h-4.94l-4.48,17s.04-1.29-.49-3.11l-3.81-13.89-5.03,.04s5.86,18.53,7.24,21.77c-.67,2.87-2.24,4.77-5.55,5.09l.43,3.32c5.03-.01,7.89-2.71,8.93-6.05l7.71-24.17Z"/>
  <path class="cls-2" d="M100.39,50.42c0-4.11-2.92-6.84-7.17-6.83-2.23,0-4.23,.63-6.05,1.95-.38-.67-.85-1.22-1.46-1.69l-3.34,1.6c.84,.87,1.06,1.7,1.06,2.88v17.48h4.49v-16.43c1.22-1.17,2.7-2.09,4.38-2.09,2.33,0,3.51,1.54,3.51,3.77v14.75h4.58v-15.39Z"/>
  <path class="cls-2" d="M109.71,37.46c0-1.53-1.22-2.75-2.75-2.75s-2.8,1.21-2.8,2.75,1.25,2.8,2.8,2.8,2.75-1.26,2.75-2.8h0Zm-.55,6.52h-4.45v21.83h4.45v-21.83Z"/>
  <path class="cls-2" d="M129.82,43.98h-4.58l-4.23,14.69c-.05,.18-.1,.41-.15,.69-.04,.28-.08,.56-.11,.84-.03,.28-.06,.52-.07,.7-.01,.19-.02,.29-.02,.3,0,0,0-.1-.03-.3-.02-.18-.05-.42-.09-.7-.04-.27-.08-.55-.13-.84-.05-.27-.11-.5-.16-.69l-3.88-14.69h-4.67l6.48,21.83h4.8l6.83-21.83Z"/>
  <path class="cls-2" d="M178.28,46.4c-1.58-1.93-4.14-2.84-6.57-2.86-3.44-.02-7.14,1.76-7.56,5.47-.11,.99,0,1.84,.3,2.59,.96,2.49,3.41,3.41,5.67,4.28,2.08,.8,4.35,1.26,4.34,3.8,0,1.77-2.04,2.54-3.64,2.54-1.75,0-3.44-.83-4.49-2.07l-2.56,2.92c1.73,1.94,4.33,3.03,6.92,3.04,4.33,.01,8.5-2.14,8.35-6.84-.12-3.86-3.14-5.31-6.57-6.51-1.65-.58-3.97-1.07-3.85-3.22,.09-1.58,1.63-2.3,3.05-2.31,1.66-.01,3.13,.69,3.97,1.71l2.64-2.56Z"/>
  <path class="cls-2" d="M204.57,43.98h-7.65v-6.52l-4.49,1.64v4.88h-2.93v3.58h2.93v13.64c0,2.43,1.43,4.88,4.3,4.9,1.86,.01,2.89-.64,4.3-1.41l-1.26-3.18c-.97,.76-2.85,1.26-2.85-.78v-13.17h7.03l.62-3.58Z"/>
  <path class="cls-2" d="M147.6,63.28l-1.92-3.43c-2.18,1.78-4.3,2.35-6.07,2.35-2.18,0-3.86-1.2-3.86-3.55v-2.03h11.36v-5.33c0-5.55-3.51-7.68-7.73-7.68-4.84,0-8.22,2.49-8.22,7.95v7.28c0,4.88,3.2,7.33,8.09,7.33,3.6,0,5.77-1.16,8.35-2.89h0Zm-5.07-13.13v2.72h-6.78v-2.41c0-1.95,1.68-3.06,3.63-3.06,1.2,0,3.14,.8,3.14,2.75Z"/>
  <path class="cls-2" d="M162.97,44.6c-.96-.71-2.58-1.06-3.75-1.06-1.9,0-3.23,1.04-4.25,2.51-.16-.75-.92-1.98-1.73-2.19l-3.14,1.64c.78,.51,1.2,1.92,1.2,2.79l-.04,17.52h4.45v-14.68c0-1.83,1.17-3.12,2.98-3.36,1.07-.14,2.19,.1,3.1,.7l1.2-3.86Z"/>
  <path class="cls-2" d="M186.98,37.46c0-1.53-1.22-2.75-2.75-2.75s-2.8,1.21-2.8,2.75,1.25,2.8,2.8,2.8,2.75-1.26,2.75-2.8h0Zm-.55,6.52h-4.45v21.83h4.45v-21.83Z"/>
  <path class="cls-2" d="M79.57,37.29h-4.74v21.42c0,2.38-2.5,3.46-4.54,3.46s-4.68-1.09-4.68-3.46v-21.46l-4.87,.04v22.01c0,4.69,5.31,6.88,9.42,6.88s9.42-2.19,9.42-6.88v-22.01Z"/>
</svg>