<?xml version="1.0" encoding="UTF-8"?>
<svg width="355px" height="132px" viewBox="0 0 355 132" version="1.1" xmlns="http://www.w3.org/2000/svg" xmlns:xlink="http://www.w3.org/1999/xlink">
    <!-- Generator: Sketch 43.2 (39069) - http://www.bohemiancoding.com/sketch -->
    <title>Group</title>
    <desc>Created with Sketch.</desc>
    <defs></defs>
    <g id="Page-1" stroke="none" stroke-width="1" fill="none" fill-rule="evenodd">
        <g id="Group">
            <polyline id="Fill-1" fill="#DA3331" points="28.729 130.24 28.729 88.264 0.69 13.001 14.792 13.001 35.452 71.047 59.228 0.867 72.182 0.867 41.683 88.756 41.683 130.24 28.729 130.24"></polyline>
            <path d="M352.737,47.598 L337.324,86.296 L354.54,130.24 L341.258,130.24 L328.469,96.135 L316.007,130.24 L303.381,130.24 L320.598,87.444 L305.021,47.598 L318.302,47.598 L328.96,77.605 L340.275,47.598 L352.737,47.598 Z M262.88,81.377 L284.033,81.377 C284.033,67.275 281.737,56.945 274.359,56.945 C266.488,56.945 263.701,66.619 262.88,81.377 Z M276.982,131.388 C259.929,131.388 249.435,117.779 249.435,92.363 C249.435,65.8 256.814,46.451 274.359,46.451 C288.132,46.451 297.151,56.781 297.151,84.821 L297.151,91.871 L262.716,91.871 C262.716,110.564 267.963,120.403 278.129,120.403 C285.344,120.403 290.591,117.123 293.87,114.827 L296.823,124.665 C291.576,128.765 285.18,131.388 276.982,131.388 Z M223.855,60.88 C221.232,58.257 218.445,56.945 214.181,56.945 C203.851,56.945 198.932,72.522 198.932,89.411 C198.932,108.76 202.539,120.567 211.885,120.567 C218.281,120.567 221.724,117.45 223.855,114.171 L223.855,60.88 Z M185.323,92.035 C185.323,61.372 196.8,46.451 213.361,46.451 C217.296,46.451 221.396,47.762 223.855,49.566 L223.855,13.001 L236.645,13.001 L236.645,130.24 L227.135,130.24 L226.151,123.682 L225.331,123.682 C221.724,128.273 217.132,131.388 210.41,131.388 C194.176,131.388 185.323,117.614 185.323,92.035 Z M139.082,130.24 L126.292,130.24 L126.292,47.435 L139.082,47.435 L139.082,54.649 L139.902,54.649 C142.197,51.534 148.428,46.451 156.135,46.451 C166.957,46.451 172.696,52.518 172.696,65.143 L172.696,130.24 L159.742,130.24 L159.742,66.291 C159.742,60.06 156.955,57.929 152.036,57.929 C146.624,57.929 142.034,62.028 139.082,66.127 L139.082,130.24 Z M97.761,87.117 L96.286,87.117 C80.38,87.117 76.937,94.167 76.937,104.825 C76.937,114.335 80.052,120.567 86.611,120.567 C91.038,120.567 95.466,117.614 97.761,114.007 L97.761,87.117 Z M111.863,130.24 L101.04,130.24 C100.549,128.437 100.057,125.814 99.893,123.682 L99.073,123.682 C95.466,128.273 90.874,131.388 83.66,131.388 C71.854,131.388 63.819,122.533 63.819,106.301 C63.819,88.592 72.838,77.441 95.957,77.441 L97.761,77.441 L97.761,72.522 C97.761,61.7 94.154,57.109 86.939,57.109 C80.38,57.109 74.805,60.552 70.542,64.323 L68.082,53.009 C71.854,49.894 79.396,46.451 87.759,46.451 C102.352,46.451 110.387,52.682 110.387,72.686 L110.387,111.548 C110.387,119.418 111.207,126.305 111.863,130.24 L111.863,130.24 Z" id="Fill-2" fill="#000105"></path>
        </g>
    </g>
</svg>
