<?xml version="1.0" encoding="UTF-8"?>
<svg width="568px" height="568px" viewBox="0 0 568 568" version="1.1" xmlns="http://www.w3.org/2000/svg" xmlns:xlink="http://www.w3.org/1999/xlink">
    <!-- Generator: Sketch 43.2 (39069) - http://www.bohemiancoding.com/sketch -->
    <title>Group</title>
    <desc>Created with Sketch.</desc>
    <defs></defs>
    <g id="Page-1" stroke="none" stroke-width="1" fill="none" fill-rule="evenodd">
        <g id="Group" transform="translate(24.000000, 24.000000)">
            <circle id="Oval" stroke="#CE0019" stroke-width="48" fill="#D8D8D8" cx="260" cy="260" r="260"></circle>
            <path d="M104.52,245.42 C104.52,249.840022 104.000005,253.133322 102.96,255.3 C101.919995,257.466678 99.8400156,259.633322 96.72,261.8 C99.6666814,263.706676 101.703328,265.851655 102.83,268.235 C103.956672,270.618345 104.52,273.976645 104.52,278.31 L104.52,295.86 C104.52,299.326684 105.473324,301.536662 107.38,302.49 C108.420005,303.010003 110.88998,303.27 114.79,303.27 C115.656671,303.27 116.523329,303.226667 117.39,303.14 L117.39,318.09 L108.94,318.35 L107.38,318.35 C100.273298,318.35 95.2033485,316.920014 92.17,314.06 C89.1366515,311.199986 87.62,306.390034 87.62,299.63 L87.62,279.48 C87.62,272.979967 85.2366905,269.253338 80.47,268.3 L80.47,254 C84.3700195,253.219996 86.5799974,251.270016 87.1,248.15 L87.62,245.16 L87.62,224.1 C87.62,217.253299 89.114985,212.400014 92.105,209.54 C95.095015,206.679986 100.186631,205.25 107.38,205.25 L108.16,205.25 C108.506668,205.336667 108.766666,205.38 108.94,205.38 L117.39,205.64 L117.39,220.46 L114.79,220.46 C110.88998,220.46 108.420005,220.719997 107.38,221.24 C105.473324,222.193338 104.52,224.403316 104.52,227.87 L104.52,245.42 Z M161.33,227.61 C163.756679,227.61 164.97,229.299983 164.97,232.68 L164.97,271.81 C164.97,276.230022 165.793325,278.44 167.44,278.44 C167.786668,278.44 168.414995,278.331668 169.325,278.115 C170.235005,277.898332 170.99333,277.79 171.6,277.79 C175.240018,277.79 177.06,280.043311 177.06,284.55 C177.06,290.53003 174.503359,293.52 169.39,293.52 C168.523329,293.52 166.096687,293.303336 162.11,292.87 C159.683321,292.609999 156.910016,292.48 153.79,292.48 C152.229992,292.48 149.933349,292.653332 146.9,293 C143.866651,293.346668 141.613341,293.52 140.14,293.52 C137.799988,293.52 135.893341,292.718341 134.42,291.115 C132.946659,289.511659 132.21,287.453346 132.21,284.94 C132.21,279.999975 134.289979,277.53 138.45,277.53 L141.83,278.31 C142.176668,278.396667 142.479999,278.44 142.74,278.44 C144.300008,278.44 145.08,276.013358 145.08,271.16 L145.08,250.1 C145.08,245.159975 144.343341,242.69 142.87,242.69 C142.609999,242.69 141.830006,242.906665 140.53,243.34 C139.663329,243.513334 138.970003,243.6 138.45,243.6 C134.289979,243.6 132.21,241.173358 132.21,236.32 C132.21,233.719987 132.946659,231.618341 134.42,230.015 C135.893341,228.411659 137.843321,227.61 140.27,227.61 C141.223338,227.61 142.609991,227.739999 144.43,228 C147.463348,228.433335 149.889991,228.65 151.71,228.65 C153.183341,228.65 155.089988,228.476668 157.43,228.13 C159.770012,227.783332 161.069999,227.61 161.33,227.61 Z M153.92,222.67 C150.713317,222.67 147.940012,221.500012 145.6,219.16 C143.259988,216.819988 142.09,214.046683 142.09,210.84 C142.09,207.54665 143.238322,204.751678 145.535,202.455 C147.831678,200.158322 150.62665,199.01 153.92,199.01 C157.21335,199.01 160.008322,200.158322 162.305,202.455 C164.601678,204.751678 165.75,207.54665 165.75,210.84 C165.75,214.13335 164.601678,216.928322 162.305,219.225 C160.008322,221.521678 157.21335,222.67 153.92,222.67 Z M219.83,248.28 C219.83,246.979993 220.263329,245.680006 221.13,244.38 C219.136657,242.993326 216.926679,242.3 214.5,242.3 C210.686648,242.3 207.588345,243.881651 205.205,247.045 C202.821655,250.208349 201.63,254.433307 201.63,259.72 C201.63,265.180027 202.886654,269.55665 205.4,272.85 C207.913346,276.14335 211.249979,277.79 215.41,277.79 C219.656688,277.79 222.776657,275.493356 224.77,270.9 C225.983339,268.039986 227.023329,266.220004 227.89,265.44 C229.103339,264.399995 231.009987,263.88 233.61,263.88 C236.556681,263.88 238.939991,264.768324 240.76,266.545 C242.580009,268.321676 243.49,270.596653 243.49,273.37 C243.49,279.263363 240.630029,284.376645 234.91,288.71 C229.189971,293.043355 222.343373,295.21 214.37,295.21 C204.143282,295.21 195.996697,292.068365 189.93,285.785 C183.863303,279.501635 180.83,271.073386 180.83,260.5 C180.83,249.839947 183.949969,241.390031 190.19,235.15 C196.430031,228.909969 204.836614,225.79 215.41,225.79 C223.036705,225.79 229.341642,227.588315 234.325,231.185 C239.308358,234.781685 241.8,239.353306 241.8,244.9 C241.8,248.366684 240.673345,251.161656 238.42,253.285 C236.166655,255.408344 233.263351,256.47 229.71,256.47 C226.763319,256.47 224.380009,255.711674 222.56,254.195 C220.739991,252.678326 219.83,250.706679 219.83,248.28 Z M288.47,248.28 C288.47,246.979993 288.903329,245.680006 289.77,244.38 C287.776657,242.993326 285.566679,242.3 283.14,242.3 C279.326648,242.3 276.228345,243.881651 273.845,247.045 C271.461655,250.208349 270.27,254.433307 270.27,259.72 C270.27,265.180027 271.526654,269.55665 274.04,272.85 C276.553346,276.14335 279.889979,277.79 284.05,277.79 C288.296688,277.79 291.416657,275.493356 293.41,270.9 C294.623339,268.039986 295.663329,266.220004 296.53,265.44 C297.743339,264.399995 299.649987,263.88 302.25,263.88 C305.196681,263.88 307.579991,264.768324 309.4,266.545 C311.220009,268.321676 312.13,270.596653 312.13,273.37 C312.13,279.263363 309.270029,284.376645 303.55,288.71 C297.829971,293.043355 290.983373,295.21 283.01,295.21 C272.783282,295.21 264.636697,292.068365 258.57,285.785 C252.503303,279.501635 249.47,271.073386 249.47,260.5 C249.47,249.839947 252.589969,241.390031 258.83,235.15 C265.070031,228.909969 273.476614,225.79 284.05,225.79 C291.676705,225.79 297.981642,227.588315 302.965,231.185 C307.948358,234.781685 310.44,239.353306 310.44,244.9 C310.44,248.366684 309.313345,251.161656 307.06,253.285 C304.806655,255.408344 301.903351,256.47 298.35,256.47 C295.403319,256.47 293.020009,255.711674 291.2,254.195 C289.379991,252.678326 288.47,250.706679 288.47,248.28 Z M344.37,225.79 C352.083372,225.79 358.323309,228.823303 363.09,234.89 L363.09,231.25 C363.09,227.783316 366.036637,226.05 371.93,226.05 C378.5167,226.05 381.81,228.216645 381.81,232.55 L381.81,294.17 C381.81,298.156687 382.719991,300.15 384.54,300.15 C385.060003,300.15 385.883328,300.020001 387.01,299.76 C387.356668,299.673333 387.919996,299.63 388.7,299.63 C392.253351,299.63 394.03,301.839978 394.03,306.26 C394.03,312.413364 391.473359,315.49 386.36,315.49 C384.713325,315.49 382.265016,315.295002 379.015,314.905 C375.764984,314.514998 373.316675,314.32 371.67,314.32 C369.58999,314.32 366.513354,314.514998 362.44,314.905 C358.366646,315.295002 355.333343,315.49 353.34,315.49 C348.659977,315.49 346.32,312.933359 346.32,307.82 C346.32,303.313311 348.529978,301.06 352.95,301.06 C353.643337,301.06 354.639993,301.124999 355.94,301.255 C357.240006,301.385001 358.236663,301.45 358.93,301.45 C360.316674,301.45 361.226664,300.930005 361.66,299.89 C361.833334,299.369997 361.92,298.200009 361.92,296.38 L361.92,286.37 C357.239977,291.656693 351.563367,294.3 344.89,294.3 C336.916627,294.3 330.460025,291.158365 325.52,284.875 C320.579975,278.591635 318.11,270.423384 318.11,260.37 C318.11,249.709947 320.449977,241.281698 325.13,235.085 C329.810023,228.888302 336.223293,225.79 344.37,225.79 Z M350.48,242.3 C346.926649,242.3 344.11001,243.903317 342.03,247.11 C339.94999,250.316683 338.91,254.563307 338.91,259.85 C338.91,265.136693 339.94999,269.448317 342.03,272.785 C344.11001,276.121683 346.79665,277.79 350.09,277.79 C353.643351,277.79 356.45999,276.186683 358.54,272.98 C360.62001,269.773317 361.66,265.48336 361.66,260.11 C361.66,254.563306 360.663343,250.208349 358.67,247.045 C356.676657,243.881651 353.946684,242.3 350.48,242.3 Z M418.73,278.31 C418.73,273.889978 419.249995,270.596677 420.29,268.43 C421.330005,266.263323 423.409984,264.053345 426.53,261.8 C423.583319,259.893324 421.546672,257.770012 420.42,255.43 C419.293328,253.089988 418.73,249.753355 418.73,245.42 L418.73,227.87 C418.73,224.316649 417.776676,222.106671 415.87,221.24 C414.829995,220.719997 412.316687,220.46 408.33,220.46 L405.73,220.46 L405.73,205.64 L414.31,205.38 C414.483334,205.38 414.743332,205.336667 415.09,205.25 L415.87,205.25 C422.976702,205.25 428.046652,206.701652 431.08,209.605 C434.113349,212.508348 435.63,217.339966 435.63,224.1 L435.63,244.12 C435.63,247.41335 436.019996,249.839992 436.8,251.4 C437.926672,253.48001 439.876653,254.779997 442.65,255.3 L442.65,269.6 C438.663313,270.553338 436.453335,272.546651 436.02,275.58 L435.63,278.57 L435.63,299.63 C435.63,306.390034 434.113349,311.199986 431.08,314.06 C428.046652,316.920014 422.976702,318.35 415.87,318.35 L414.31,318.35 L405.73,318.09 L405.73,303.14 C406.683338,303.226667 407.593329,303.27 408.46,303.27 C412.36002,303.27 414.829995,303.010003 415.87,302.49 C417.776676,301.536662 418.73,299.326684 418.73,295.86 L418.73,278.31 Z" id="{iccq}" fill="#CE0019"></path>
        </g>
    </g>
</svg>
