<?xml version="1.0" encoding="UTF-8"?>
<svg width="36px" height="37px" viewBox="0 0 36 37" version="1.1" xmlns="http://www.w3.org/2000/svg" xmlns:xlink="http://www.w3.org/1999/xlink">
    <!-- Generator: Sketch 43.2 (39069) - http://www.bohemiancoding.com/sketch -->
    <title>g11533</title>
    <desc>Created with Sketch.</desc>
    <defs></defs>
    <g id="Page-1" stroke="none" stroke-width="1" fill="none" fill-rule="evenodd">
        <g id="g11533" transform="translate(-0.070660, -0.909580)" fill-rule="nonzero">
            <path d="M11.008108,31.13338 L11.008108,34.51899 C11.008108,35.48066 10.53092,35.9938 9.663822,35.9938 C8.791849,35.9938 8.3118,35.46586 8.3118,34.47795 L8.3118,31.13709 L7.112171,31.13709 L7.112171,34.51899 C7.112171,36.18301 8.03647,37.13658 9.648011,37.13658 C11.274805,37.13658 12.207737,36.16474 12.207737,34.47021 L12.207737,31.13338 L11.008108,31.13338 Z M15.421775,31.13338 L12.816295,37.0444 L14.040825,37.0444 L14.543755,35.89961 L14.579755,35.81381 L17.286495,35.81381 L17.817345,37.04439 L19.075175,37.04439 L16.493915,31.16836 L16.470715,31.13336 L15.421775,31.13338 Z M22.554625,31.13338 L21.212025,35.20055 L19.905085,31.13641 L18.628415,31.13641 L20.689245,37.0481 L21.682655,37.0481 L23.027955,33.16461 L24.372235,37.0481 L25.374065,37.0481 L27.429845,31.13641 L26.185815,31.13641 L24.876175,35.20055 L23.533235,31.13338 L22.554625,31.13338 Z M34.294245,31.13338 L34.294245,37.03936 L35.478065,37.03936 L35.478065,31.13338 L34.294245,31.13338 Z M0.339274,31.13373 L0.339274,37.04778 L1.539241,37.04778 L1.539241,34.64583 L4.248669,34.64583 L4.248669,37.04778 L5.448971,37.04778 L5.448971,31.13373 L4.248669,31.13373 L4.248669,33.51953 L1.539241,33.51953 L1.539241,31.13373 L0.339274,31.13373 Z M28.397355,31.13773 L28.397355,37.04371 L32.863505,37.04371 L32.863505,35.96687 L29.581175,35.96687 L29.581175,34.50248 L31.763785,34.50248 L31.763785,33.42531 L29.581175,33.42531 L29.581175,32.21458 L32.749125,32.21458 L32.749125,31.13773 L28.397355,31.13773 Z M15.930085,32.63004 L16.785575,34.61013 L16.782575,34.61013 L16.840775,34.74672 L15.025855,34.74672 L15.083355,34.61013 L15.082355,34.61013 L15.930085,32.63004 Z" id="path4250" fill="#232527"></path>
            <path d="M15.28191,0.90942 C14.805951,0.95152 13.519745,1.24428 13.519745,1.24428 L13.519216,1.24428 C10.620152,1.99361 9.934937,4.62444 9.934937,4.62444 C9.793366,5.06683 9.729057,5.52021 9.710144,5.94735 L9.710144,6.52871 C9.748614,7.42692 9.948373,8.09761 9.948373,8.09761 C10.916758,12.39159 15.678139,19.44721 16.701449,20.92938 C16.774049,21.00138 16.832191,20.97538 16.832191,20.97538 C16.942641,20.94488 16.933994,20.83895 16.933994,20.83895 L16.936094,20.83948 C18.512243,5.08533 15.28193,0.90943 15.28193,0.90943 L15.28191,0.90942 Z M20.489862,0.90942 C20.489862,0.90942 17.245419,5.08753 18.822781,20.85084 L18.824881,20.85084 C18.837081,20.95091 18.908081,20.97176 18.908081,20.97176 C19.013641,21.01266 19.067762,20.91126 19.067762,20.91126 L19.068291,20.91226 C20.117843,19.39225 24.852091,12.37503 25.8162,8.09753 C25.8162,8.09753 26.338927,6.02721 25.8343,4.62436 C25.8343,4.62436 25.117612,1.95279 22.214882,1.24679 C22.214882,1.24679 21.378373,1.03443 20.489923,0.90934 L20.489862,0.90942 Z M5.524883,5.63884 C5.524883,5.63884 2.762612,8.2606 2.62532,11.04007 L2.62642,11.04007 L2.62642,11.46123 C2.62852,11.49293 2.63012,11.52503 2.63212,11.55733 C2.751108,13.7986 4.437176,15.12507 4.437176,15.12507 C7.153793,17.77273 13.73174,21.11553 15.260288,21.87401 C15.281698,21.88201 15.360671,21.90781 15.40705,21.84921 C15.40705,21.84921 15.43118,21.83091 15.44219,21.79801 L15.44219,21.72821 C15.44109,21.72421 15.43899,21.72021 15.43699,21.71581 L15.437519,21.71581 C11.251548,12.57133 5.524944,5.63875 5.524944,5.63875 L5.524883,5.63884 Z M30.24017,5.63884 C30.24017,5.63884 24.530841,12.54965 20.346717,21.67559 L20.348317,21.67506 C20.348317,21.67506 20.298907,21.78087 20.378807,21.84921 C20.378807,21.84921 20.402647,21.86721 20.435647,21.87451 L20.493527,21.87451 C20.503927,21.87151 20.515087,21.86751 20.526087,21.86001 L20.526087,21.86101 C22.096135,21.08178 28.623178,17.76095 31.326976,15.1255 C31.326976,15.1255 33.039235,13.75049 33.128934,11.54278 C33.326644,8.47651 30.240221,5.63874 30.240221,5.63874 L30.24017,5.63884 Z M35.378876,14.71736 C35.378876,14.71736 26.07093,19.71246 21.258291,22.95872 L21.25882,22.95925 L21.25992,22.96025 C21.25992,22.96025 21.17258,23.01745 21.20307,23.11994 C21.20307,23.11994 21.24874,23.20264 21.315208,23.20264 L21.315208,23.20317 C23.039027,23.20617 29.562006,23.21347 29.725548,23.18297 C29.725548,23.18297 30.569,23.14927 31.61122,22.74888 C31.61122,22.74888 33.931436,22.01123 35.136587,19.377 C35.136587,19.377 35.687269,18.27552 35.695209,16.72806 L35.695209,16.66246 C35.691209,16.06569 35.607139,15.40505 35.37895,14.71736 L35.378876,14.71736 Z M0.383595,14.74066 C-0.463288,17.3624 0.676828,19.47494 0.678669,19.47835 C1.866812,21.98881 4.134789,22.74947 4.134789,22.74947 C5.181891,23.17966 6.229233,23.20939 6.229233,23.20939 C6.39277,23.23929 12.741973,23.21239 14.443202,23.20439 C14.515202,23.20386 14.554824,23.13149 14.554824,23.13149 C14.559824,23.12349 14.564224,23.11549 14.566204,23.10819 L14.566204,23.04259 C14.552104,22.99869 14.514524,22.96769 14.514524,22.96769 L14.515624,22.96716 C9.705391,19.72197 0.38367,14.74079 0.38367,14.74079 L0.383595,14.74066 Z M14.248899,24.01037 L3.299179,24.39433 C4.486629,26.51112 6.486437,28.15623 8.569658,27.65098 C10.00729,27.29157 13.264163,25.01986 14.339331,24.25222 L14.335731,24.24922 C14.419331,24.17412 14.389471,24.11383 14.389471,24.11383 C14.361971,24.01553 14.248912,24.01563 14.248912,24.01563 L14.248899,24.01037 Z M21.501168,24.01837 L21.500068,24.02237 C21.500068,24.02237 21.403938,24.03457 21.377076,24.10657 C21.377076,24.10657 21.353716,24.20497 21.418416,24.25384 L21.417316,24.25484 C22.465646,25.0066 25.643596,27.22839 27.174586,27.6598 C27.174586,27.6598 27.40652,27.7387 27.795222,27.7528 L28.028798,27.7528 C29.054548,27.7168 30.84147,27.18987 32.465221,24.40003 L21.501168,24.01837 Z" id="path4252" fill="#CF0A2C"></path>
        </g>
    </g>
</svg>