<?xml version="1.0" encoding="UTF-8"?>
<svg width="188px" height="114px" viewBox="0 0 188 114" version="1.1" xmlns="http://www.w3.org/2000/svg" xmlns:xlink="http://www.w3.org/1999/xlink">
    <!-- Generator: Sketch 43.2 (39069) - http://www.bohemiancoding.com/sketch -->
    <title>Group</title>
    <desc>Created with Sketch.</desc>
    <defs></defs>
    <g id="Page-1" stroke="none" stroke-width="1" fill="none" fill-rule="evenodd">
        <g id="Group" fill-rule="nonzero" fill="#000000">
            <path d="M122.943,55.976 L122.134,55.976 L122.134,52.193 L123.546,52.193 C124.521,52.193 125.099,52.472 125.099,53.337 C125.099,54.034 124.689,54.285 124.187,54.321 L125.154,55.975 L124.197,55.975 L123.322,54.386 L122.943,54.386 L122.943,55.976 Z M123.658,53.747 C124.021,53.747 124.234,53.672 124.234,53.254 C124.234,52.863 123.816,52.835 123.509,52.835 L122.943,52.835 L122.943,53.747 L123.658,53.747 L123.658,53.747 Z M123.527,57.604 C121.66,57.604 119.996,56.312 119.996,54.09 C119.996,51.868 121.66,50.577 123.527,50.577 C125.386,50.577 127.05,51.868 127.05,54.09 C127.051,56.312 125.387,57.604 123.527,57.604 L123.527,57.604 Z M123.527,51.395 C122.134,51.395 121.009,52.473 121.009,54.089 C121.009,55.707 122.134,56.793 123.527,56.785 L123.527,56.793 C124.884,56.793 126.037,55.707 126.037,54.089 C126.037,52.473 124.885,51.395 123.527,51.395 Z" id="Shape"></path>
            <path d="M127.863,29.83 C127.863,45.781 114.929,58.713 98.978,58.713 C83.025,58.713 70.093,45.781 70.093,29.83 C70.093,13.877 83.025,0.944 98.978,0.944 C114.93,0.944 127.863,13.876 127.863,29.83 Z M98.979,3.833 C84.621,3.833 72.983,15.473 72.983,29.83 C72.983,44.185 84.621,55.826 98.979,55.826 C113.336,55.826 124.973,44.185 124.973,29.83 C124.973,15.472 113.336,3.833 98.979,3.833 Z" id="Shape"></path>
            <path d="M110.809,17.868 L103.543,17.868 L103.52,6.456 L99.166,6.456 C97.549,9.543 93.093,11.835 87.706,12.144 L87.68,12.158 L87.68,14.693 L93.409,14.693 L93.409,17.868 L87.007,17.868 C80.323,17.868 74.905,23.287 74.905,29.97 C74.905,36.654 80.323,42.073 87.007,42.073 L93.409,42.073 L93.409,42.651 C93.4092652,44.2265592 92.7835627,45.7376784 91.6695679,46.8518607 C90.555573,47.9660431 89.0445592,48.592 87.469,48.592 L87.469,51.126 L109.54,51.126 L109.54,48.592 C107.964084,48.5922652 106.452607,47.9664893 105.338079,46.8523356 C104.22355,45.738182 103.597265,44.2269164 103.597,42.651 L103.597,42.073 L110.81,42.073 C117.494,42.073 122.912,36.654 122.912,29.97 C122.91,23.287 117.492,17.868 110.809,17.868 L110.809,17.868 Z M84.755,29.969 C84.755,25.172 88.623,21.282 93.408,21.238 L93.408,38.7 C88.623,38.656 84.755,34.767 84.755,29.969 L84.755,29.969 Z M103.623,38.705 L103.588,38.705 L103.551,21.235 L103.623,21.235 C108.447207,21.235 112.358,25.1457927 112.358,29.97 C112.358,34.7942073 108.447207,38.705 103.623,38.705 Z M5.944,63.176 C8.903,60.865 12.673,59.731 16.89,59.731 C19.078,59.731 22.16,60.176 24.066,60.704 C24.552,60.825 24.836,60.907 25.201,60.866 C25.241,61.798 25.444,64.35 25.769,66.825 C25.566,67.108 24.957,67.151 24.674,66.905 C24.066,64.149 22.241,60.987 16.363,60.987 C10.16,60.987 4.889,64.919 4.889,73.313 C4.889,81.825 10.281,86.528 16.93,86.528 C22.16,86.528 24.472,83.124 25.404,80.731 C25.688,80.528 26.296,80.61 26.459,80.893 C26.175,83 25.12,85.676 24.512,86.446 C24.026,86.528 23.539,86.69 23.094,86.852 C22.202,87.176 19.283,87.786 16.688,87.786 C13.039,87.786 9.553,87.056 6.592,85.069 C3.348,82.839 0.835,79.149 0.835,73.919 C0.834,69.42 2.862,65.568 5.944,63.176 L5.944,63.176 Z M30.693,77.314 C30.693,71.23 35.254,66.58 41.519,66.58 C48.544,66.58 52.071,71.658 52.071,77.01 C52.071,83.153 47.388,87.623 41.519,87.623 C34.769,87.623 30.693,82.787 30.693,77.314 Z M49.031,77.951 C49.031,72.933 46.811,67.521 41.003,67.521 C37.841,67.521 33.734,69.681 33.734,76.341 C33.734,80.839 35.924,86.679 41.915,86.679 C45.564,86.68 49.031,83.943 49.031,77.951 L49.031,77.951 Z M66.822,79.016 C67.522,80.448 68.191,81.846 68.921,83.184 L68.981,83.184 C69.803,81.754 70.563,80.172 71.324,78.622 L74.183,72.813 C75.581,70.047 76.433,68.374 76.494,66.975 C77.527,67.067 78.166,67.067 78.773,67.067 C79.534,67.067 80.537,67.036 81.481,66.975 C81.663,67.096 81.663,67.614 81.51,67.735 L80.872,67.797 C78.955,68.008 78.713,68.555 78.743,70.686 C78.804,73.909 78.834,79.534 79.077,83.913 C79.168,85.434 79.138,86.225 80.568,86.376 L81.54,86.468 C81.724,86.652 81.692,87.109 81.48,87.228 C80.2849024,87.1687882 79.0885617,87.1381128 77.892,87.136 C76.829,87.136 75.46,87.167 74.212,87.228 C73.998,87.078 73.969,86.652 74.15,86.468 L75.032,86.376 C76.523,86.226 76.523,85.739 76.523,83.792 L76.432,71.11 L76.371,71.11 C76.157,71.444 75.003,73.878 74.394,75.063 L71.688,80.385 C70.319,83.061 68.95,85.92 68.403,87.319 C68.341,87.411 68.22,87.442 68.099,87.442 C68.037,87.442 67.886,87.411 67.826,87.319 C67.309,85.708 65.849,82.727 65.149,81.237 L62.412,75.368 C61.773,73.97 61.135,72.388 60.466,70.989 L60.405,70.989 C60.282,72.876 60.192,74.639 60.1,76.401 C60.009,78.256 59.887,80.963 59.887,83.547 C59.887,85.799 60.07,86.285 61.255,86.375 L62.411,86.467 C62.623,86.651 62.594,87.135 62.381,87.227 C61.257106,87.1641916 60.1316467,87.1335124 59.006,87.135 C58.032,87.135 56.938,87.166 55.904,87.227 C55.721,87.077 55.661,86.62 55.843,86.467 L56.512,86.375 C57.789,86.225 58.215,86.01 58.398,83.883 C58.58,81.875 58.732,80.203 58.915,77.194 C59.066,74.669 59.188,72.083 59.249,70.411 C59.31,68.495 59.066,68.1 57.212,67.798 L56.725,67.736 C56.573,67.554 56.604,67.097 56.847,66.976 C57.76,67.037 58.49,67.068 59.249,67.068 C59.949,67.068 60.77,67.068 61.773,66.976 C61.651,68.162 62.412,70.048 63.355,71.994 L66.822,79.016 L66.822,79.016 Z M90.33,82.574 C90.33,85.767 90.391,86.162 92.336,86.375 L93.158,86.467 C93.34,86.619 93.279,87.135 93.096,87.227 C91.364,87.166 90.359,87.135 89.143,87.135 C87.865,87.135 86.77,87.166 85.432,87.227 C85.25,87.135 85.189,86.651 85.372,86.467 L86.01,86.375 C87.775,86.133 87.834,85.768 87.834,82.574 L87.834,71.353 C87.834,68.769 87.775,68.22 86.406,68.099 L85.311,67.978 C85.097,67.796 85.128,67.337 85.372,67.216 C86.983,67.003 88.868,66.974 91.393,66.974 C93.918,66.974 95.802,67.308 97.232,68.189 C98.63,69.072 99.664,70.654 99.664,72.753 C99.664,75.548 97.932,76.948 96.623,77.587 C95.287,78.226 93.674,78.499 92.428,78.499 C92.216,78.407 92.216,77.95 92.398,77.892 C95.682,77.283 96.867,75.427 96.867,72.783 C96.867,69.834 95.135,67.918 91.971,67.918 C90.36,67.918 90.33,68.039 90.33,69.012 L90.33,82.574 L90.33,82.574 Z M120.555,74.697 C120.555,72.812 120.493,69.316 119.977,68.402 C119.764,68.039 119.215,67.826 118.456,67.765 L117.696,67.703 C117.514,67.492 117.575,67.096 117.757,66.974 C118.913,67.035 120.038,67.066 121.224,67.066 C122.501,67.066 123.322,67.035 124.417,66.974 C124.661,67.126 124.63,67.521 124.478,67.703 L123.748,67.765 C122.988,67.826 122.381,68.099 122.228,68.494 C121.773,69.498 121.802,72.994 121.802,74.697 L121.802,78.135 C121.802,80.781 121.376,83.578 119.673,85.403 C118.366,86.833 116.114,87.624 113.864,87.624 C111.766,87.624 109.667,87.228 108.178,85.952 C106.565,84.612 105.805,82.391 105.805,78.774 L105.805,71.598 C105.805,68.434 105.744,67.918 103.981,67.766 L103.221,67.704 C103.037,67.583 103.1,67.067 103.282,66.975 C104.803,67.036 105.837,67.067 107.053,67.067 C108.299,67.067 109.303,67.036 110.793,66.975 C110.975,67.067 111.035,67.582 110.854,67.704 L110.124,67.766 C108.36,67.918 108.3,68.434 108.3,71.598 L108.3,78.166 C108.3,83.061 109.82,86.285 114.472,86.285 C118.882,86.285 120.556,82.818 120.556,78.195 L120.556,74.697 L120.555,74.697 L120.555,74.697 Z M137.553,82.574 C137.553,85.767 137.614,86.193 139.377,86.375 L140.35,86.467 C140.532,86.59 140.473,87.135 140.289,87.227 C138.557,87.166 137.521,87.135 136.305,87.135 C135.089,87.135 134.024,87.166 132.078,87.227 C131.896,87.135 131.834,86.62 132.078,86.467 L133.172,86.375 C134.906,86.225 135.057,85.768 135.057,82.574 L135.057,68.982 C135.057,68.039 135.057,68.007 134.147,68.007 L132.473,68.007 C131.166,68.007 129.494,68.068 128.733,68.769 C128.004,69.437 127.698,70.105 127.366,70.867 C127.122,71.051 126.696,70.896 126.575,70.654 C127.061,69.285 127.516,67.338 127.729,66.123 C127.821,66.062 128.215,66.031 128.309,66.123 C128.491,67.096 129.495,67.066 130.893,67.066 L143.209,67.066 C144.85,67.066 145.123,67.004 145.58,66.214 C145.732,66.152 146.066,66.183 146.127,66.304 C145.793,67.552 145.58,70.015 145.672,70.927 C145.549,71.171 145.033,71.171 144.881,70.988 C144.789,70.228 144.576,69.103 144.119,68.769 C143.42,68.251 142.265,68.007 140.592,68.007 L138.434,68.007 C137.522,68.007 137.553,68.038 137.553,69.04 L137.553,82.574 L137.553,82.574 Z M151.846,71.627 C151.846,68.465 151.785,68.008 149.991,67.797 L149.505,67.735 C149.321,67.614 149.382,67.067 149.566,66.975 C150.761054,67.0353653 151.957423,67.0660414 153.154,67.067 L158.871,67.067 C160.816,67.067 162.611,67.067 162.976,66.975 C163.158,67.493 163.341,69.682 163.462,71.02 C163.341,71.202 162.855,71.262 162.702,71.081 C162.245,69.651 161.972,68.587 160.391,68.19 C159.752,68.04 158.78,68.008 157.44,68.008 L155.251,68.008 C154.339,68.008 154.339,68.069 154.339,69.225 L154.339,75.307 C154.339,76.159 154.431,76.159 155.343,76.159 L157.107,76.159 C158.384,76.159 159.328,76.098 159.693,75.977 C160.056,75.854 160.269,75.672 160.422,74.911 L160.666,73.665 C160.816,73.481 161.334,73.481 161.455,73.696 C161.455,74.426 161.334,75.612 161.334,76.766 C161.334,77.862 161.455,79.016 161.455,79.686 C161.334,79.899 160.816,79.899 160.666,79.717 L160.393,78.531 C160.27,77.982 160.057,77.527 159.45,77.375 C159.024,77.254 158.294,77.223 157.108,77.223 L155.344,77.223 C154.432,77.223 154.34,77.254 154.34,78.045 L154.34,82.332 C154.34,83.943 154.432,84.977 154.918,85.494 C155.283,85.859 155.922,86.193 158.598,86.193 C160.94,86.193 161.821,86.072 162.491,85.738 C163.038,85.433 163.86,84.369 164.651,82.787 C164.864,82.635 165.29,82.726 165.411,83 C165.198,84.064 164.436,86.406 164.042,87.227 C161.32576,87.1660016 158.608924,87.135333 155.892,87.135 L153.156,87.135 C151.849,87.135 150.814,87.166 149.021,87.227 C148.837,87.135 148.777,86.651 148.96,86.467 L149.962,86.375 C151.694,86.225 151.849,85.768 151.849,82.574 L151.849,71.627 L151.846,71.627 L151.846,71.627 Z M171.127,71.658 C171.127,68.769 171.035,68.252 169.787,68.099 L168.814,67.978 C168.601,67.826 168.601,67.337 168.845,67.216 C170.548,67.066 172.648,66.974 175.626,66.974 C177.511,66.974 179.306,67.126 180.704,67.886 C182.165,68.648 183.229,70.015 183.229,72.142 C183.229,75.031 180.948,76.613 179.426,77.222 C179.276,77.404 179.426,77.708 179.578,77.951 C182.012,81.875 183.623,84.306 185.689,86.041 C186.209,86.496 186.968,86.832 187.789,86.893 C187.941,86.955 187.973,87.198 187.82,87.319 C187.545,87.411 187.06,87.471 186.482,87.471 C183.896,87.471 182.345,86.711 180.187,83.639 C179.396,82.516 178.148,80.416 177.207,79.047 C176.75,78.379 176.264,78.074 175.047,78.074 C173.68,78.074 173.619,78.103 173.619,78.742 L173.619,82.574 C173.619,85.767 173.68,86.133 175.441,86.375 L176.082,86.467 C176.264,86.619 176.203,87.135 176.021,87.227 C174.815562,87.1677593 173.608891,87.137084 172.402,87.135 C171.125,87.135 170.029,87.166 168.599,87.227 C168.417,87.135 168.357,86.68 168.54,86.467 L169.3,86.375 C171.064,86.162 171.124,85.768 171.124,82.574 L171.124,71.658 L171.127,71.658 L171.127,71.658 Z M173.621,76.006 C173.621,76.553 173.621,76.889 173.711,77.01 C173.803,77.1 174.258,77.162 175.809,77.162 C176.905,77.162 178.061,77.039 178.944,76.371 C179.764,75.732 180.464,74.668 180.464,72.6 C180.464,70.198 178.974,67.918 175.599,67.918 C173.712,67.918 173.622,68.039 173.622,68.891 L173.622,76.006 L173.621,76.006 Z M37.19,113.812 C34.636,113.812 33.024,113.021 32.446,112.687 C32.081,112.017 31.686,109.859 31.626,108.429 C31.777,108.216 32.233,108.156 32.355,108.339 C32.811,109.89 34.058,112.868 37.585,112.868 C40.14,112.868 41.386,111.196 41.386,109.372 C41.386,108.034 41.112,106.544 38.892,105.114 L36.003,103.227 C34.482,102.225 32.718,100.491 32.718,97.997 C32.718,95.108 34.968,92.768 38.923,92.768 C39.865,92.768 40.959,92.92 41.75,93.163 C42.146,93.255 42.572,93.347 42.815,93.347 C43.088,94.076 43.363,95.779 43.363,97.056 C43.241,97.24 42.754,97.329 42.602,97.146 C42.206,95.689 41.386,93.71 38.466,93.71 C35.486,93.71 34.847,95.689 34.847,97.087 C34.847,98.849 36.306,100.097 37.432,100.827 L39.865,102.347 C41.781,103.533 43.666,105.296 43.666,108.187 C43.667,111.531 41.143,113.812 37.19,113.812 L37.19,113.812 Z M48.164,103.504 C48.164,97.422 52.724,92.77 58.99,92.77 C66.014,92.77 69.542,97.848 69.542,103.2 C69.542,109.343 64.859,113.813 58.99,113.813 C52.239,113.812 48.164,108.977 48.164,103.504 Z M66.5,104.141 C66.5,99.123 64.279,93.711 58.472,93.711 C55.309,93.711 51.203,95.871 51.203,102.531 C51.203,107.029 53.393,112.869 59.384,112.869 C63.034,112.869 66.5,110.133 66.5,104.141 L66.5,104.141 Z M77.632,95.355 C79.851,93.621 82.68,92.769 85.841,92.769 C87.483,92.769 89.795,93.103 91.225,93.498 C91.589,93.59 91.801,93.65 92.076,93.621 C92.106,94.32 92.259,96.234 92.501,98.092 C92.35,98.303 91.894,98.334 91.681,98.151 C91.225,96.085 89.857,93.712 85.447,93.712 C80.795,93.712 76.842,96.663 76.842,102.956 C76.842,109.343 80.886,112.87 85.873,112.87 C89.796,112.87 91.529,110.315 92.229,108.522 C92.441,108.37 92.897,108.43 93.019,108.643 C92.807,110.225 92.016,112.231 91.561,112.809 C91.1975977,112.878632 90.8411706,112.980707 90.496,113.114 C89.828,113.358 87.639,113.813 85.691,113.813 C82.954,113.813 80.339,113.266 78.118,111.776 C75.686,110.104 73.8,107.335 73.8,103.413 C73.799,100.037 75.321,97.146 77.632,95.355 L77.632,95.355 Z M99.037,97.877 C99.037,94.654 98.976,94.139 97.182,93.986 L96.422,93.924 C96.24,93.803 96.299,93.256 96.483,93.164 C98.004,93.225 99.038,93.256 100.315,93.256 C101.53,93.256 102.565,93.225 104.085,93.164 C104.269,93.256 104.329,93.803 104.147,93.924 L103.385,93.986 C101.592,94.138 101.53,94.654 101.53,97.877 L101.53,108.705 C101.53,111.928 101.592,112.351 103.385,112.566 L104.147,112.656 C104.329,112.779 104.268,113.326 104.085,113.416 C102.829086,113.360062 101.572152,113.330056 100.315,113.326 C99.0371793,113.329315 97.7595673,113.359322 96.483,113.416 C96.299,113.326 96.241,112.84 96.422,112.656 L97.182,112.566 C98.977,112.351 99.037,111.927 99.037,108.705 L99.037,97.877 L99.037,97.877 Z M110.834,97.816 C110.834,94.654 110.773,94.197 108.98,93.986 L108.492,93.924 C108.31,93.803 108.371,93.256 108.553,93.164 C109.748721,93.2243655 110.945756,93.2550416 112.143,93.256 L117.86,93.256 C119.805,93.256 121.6,93.256 121.965,93.164 C122.147,93.682 122.328,95.871 122.451,97.209 C122.328,97.391 121.842,97.451 121.691,97.27 C121.234,95.84 120.961,94.776 119.379,94.379 C118.742,94.229 117.768,94.197 116.43,94.197 L114.241,94.197 C113.329,94.197 113.329,94.259 113.329,95.414 L113.329,101.496 C113.329,102.348 113.421,102.348 114.333,102.348 L116.097,102.348 C117.372,102.348 118.318,102.287 118.681,102.166 C119.046,102.043 119.259,101.861 119.411,101.102 L119.655,99.854 C119.805,99.672 120.323,99.672 120.446,99.885 C120.446,100.615 120.323,101.801 120.323,102.955 C120.323,104.051 120.446,105.207 120.446,105.875 C120.323,106.088 119.805,106.088 119.655,105.906 L119.38,104.72 C119.259,104.171 119.046,103.716 118.439,103.564 C118.013,103.443 117.283,103.412 116.097,103.412 L114.333,103.412 C113.421,103.412 113.329,103.443 113.329,104.234 L113.329,108.521 C113.329,110.132 113.421,111.166 113.907,111.683 C114.272,112.048 114.909,112.382 117.587,112.382 C119.929,112.382 120.81,112.261 121.48,111.927 C122.027,111.622 122.849,110.558 123.638,108.976 C123.851,108.826 124.277,108.915 124.4,109.191 C124.187,110.253 123.425,112.595 123.031,113.416 C120.293,113.357 117.588,113.326 114.881,113.326 L112.145,113.326 C110.836,113.326 109.803,113.357 108.008,113.416 C107.826,113.326 107.766,112.84 107.947,112.656 L108.951,112.566 C110.683,112.414 110.836,111.957 110.836,108.763 L110.836,97.816 L110.834,97.816 L110.834,97.816 Z M137.414,108.764 C137.414,111.957 137.475,112.383 139.238,112.567 L140.213,112.657 C140.395,112.78 140.334,113.327 140.152,113.417 C138.418,113.358 137.384,113.327 136.168,113.327 C134.952,113.327 133.887,113.358 131.941,113.417 C131.757,113.327 131.697,112.81 131.941,112.657 L133.035,112.567 C134.769,112.415 134.922,111.958 134.922,108.764 L134.922,95.172 C134.922,94.229 134.922,94.197 134.01,94.197 L132.336,94.197 C131.029,94.197 129.356,94.259 128.596,94.959 C127.866,95.627 127.563,96.297 127.227,97.057 C126.985,97.241 126.559,97.088 126.438,96.844 C126.924,95.475 127.379,93.53 127.592,92.313 C127.684,92.252 128.078,92.221 128.17,92.313 C128.352,93.288 129.356,93.256 130.754,93.256 L143.072,93.256 C144.713,93.256 144.986,93.194 145.443,92.404 C145.595,92.342 145.929,92.373 145.99,92.494 C145.654,93.742 145.443,96.205 145.533,97.117 C145.412,97.361 144.894,97.361 144.744,97.178 C144.652,96.418 144.439,95.293 143.982,94.959 C143.285,94.441 142.128,94.197 140.457,94.197 L138.295,94.197 C137.385,94.197 137.414,94.228 137.414,95.23 L137.414,108.764 Z M158.945,108.705 C158.945,111.957 159.129,112.445 160.769,112.566 L161.925,112.656 C162.107,112.84 162.046,113.326 161.864,113.416 C159.979,113.357 158.944,113.326 157.727,113.326 C156.45,113.326 155.356,113.357 153.745,113.416 C153.561,113.326 153.501,112.84 153.683,112.656 L154.626,112.566 C156.392,112.382 156.45,111.957 156.45,108.705 L156.45,107.154 C156.45,105.48 156.36,105.086 155.477,103.383 L151.889,96.387 C150.854,94.379 150.399,94.229 149.487,94.076 L148.635,93.924 C148.451,93.711 148.483,93.287 148.696,93.164 C149.8704,93.2318967 151.046657,93.2625787 152.223,93.256 C153.621,93.256 154.717,93.225 155.477,93.164 C155.75,93.256 155.75,93.742 155.569,93.924 L155.174,93.986 C154.108,94.168 153.895,94.289 153.895,94.533 C153.895,94.838 154.686,96.57 154.838,96.875 C155.963,99.123 157.088,101.527 158.276,103.625 C159.217,102.014 160.221,100.25 161.133,98.484 C161.985,96.906 163.11,94.838 163.11,94.472 C163.11,94.288 162.563,94.076 161.833,93.986 L161.286,93.924 C161.071,93.711 161.102,93.287 161.347,93.164 C162.441,93.225 163.324,93.256 164.267,93.256 C165.208,93.256 166.062,93.225 167.095,93.164 C167.339,93.316 167.368,93.742 167.156,93.924 L166.304,94.076 C164.722,94.32 163.81,96.265 162.288,98.881 L160.372,102.195 C159.005,104.476 158.944,104.781 158.944,107.123 L158.944,108.705 L158.945,108.705 L158.945,108.705 Z M37.646,48.746 C37.646,47.806 37.57,47.699 36.447,47.699 L36.447,47.189 L40.36,47.189 L40.36,47.699 C39.239,47.699 39.163,47.806 39.163,48.746 L39.163,55.21 C39.163,56.152 39.239,56.257 40.364,56.257 L40.364,56.768 L36.444,56.768 L36.444,56.257 C37.57,56.257 37.647,56.152 37.647,55.21 L37.647,48.746 L37.646,48.746 Z M42.59,56.768 L42.59,56.257 C43.548,56.257 43.647,56.149 43.647,55.208 L43.647,48.749 C43.647,47.807 43.543,47.699 42.585,47.699 L42.585,47.189 L48.862,47.189 L49.275,49.325 L48.627,49.325 C48.284,47.88 48.143,47.817 47.417,47.817 L45.639,47.817 C45.204,47.817 45.164,47.904 45.164,48.431 L45.164,51.48 L46.762,51.48 C47.344,51.48 47.457,51.333 47.457,50.171 L48.083,50.171 L48.083,53.453 L47.457,53.453 C47.457,52.202 47.353,52.106 46.769,52.106 L45.164,52.106 L45.164,55.562 C45.164,56.079 45.272,56.141 45.539,56.141 L47.757,56.141 C48.506,56.141 48.655,56.034 49.003,54.568 L49.652,54.568 L49.206,56.769 L42.59,56.769 L42.59,56.768 Z M51.779,56.768 L51.779,56.257 C52.738,56.257 52.837,56.149 52.837,55.208 L52.837,48.749 C52.837,47.807 52.734,47.699 51.775,47.699 L51.775,47.189 L58.052,47.189 L58.465,49.325 L57.817,49.325 C57.473,47.88 57.333,47.817 56.607,47.817 L54.829,47.817 C54.395,47.817 54.354,47.904 54.354,48.431 L54.354,51.48 L55.953,51.48 C56.534,51.48 56.647,51.333 56.647,50.171 L57.273,50.171 L57.273,53.453 L56.647,53.453 C56.647,52.202 56.543,52.106 55.96,52.106 L54.354,52.106 L54.354,55.562 C54.354,56.079 54.462,56.141 54.729,56.141 L56.947,56.141 C57.696,56.141 57.845,56.034 58.193,54.568 L58.841,54.568 L58.395,56.769 L51.779,56.769 L51.779,56.768 L51.779,56.768 Z M60.969,56.768 L60.969,56.257 C61.928,56.257 62.027,56.149 62.027,55.208 L62.027,48.749 C62.027,47.807 61.924,47.699 60.965,47.699 L60.965,47.189 L67.241,47.189 L67.655,49.325 L67.007,49.325 C66.663,47.88 66.524,47.817 65.796,47.817 L64.019,47.817 C63.584,47.817 63.544,47.904 63.544,48.431 L63.544,51.48 L65.143,51.48 C65.725,51.48 65.838,51.333 65.838,50.171 L66.463,50.171 L66.463,53.453 L65.838,53.453 C65.838,52.202 65.734,52.106 65.15,52.106 L63.544,52.106 L63.544,55.562 C63.544,56.079 63.653,56.141 63.919,56.141 L66.137,56.141 C66.887,56.141 67.036,56.034 67.383,54.568 L68.031,54.568 L67.587,56.769 L60.969,56.769 L60.969,56.768 Z" id="Shape"></path>
        </g>
    </g>
</svg>
