<?xml version="1.0" encoding="UTF-8"?>
<svg width="188px" height="56px" viewBox="0 0 188 56" version="1.1" xmlns="http://www.w3.org/2000/svg" xmlns:xlink="http://www.w3.org/1999/xlink">
    <!-- Generator: Sketch 43.2 (39069) - http://www.bohemiancoding.com/sketch -->
    <title>Group</title>
    <desc>Created with Sketch.</desc>
    <defs></defs>
    <g id="Page-1" stroke="none" stroke-width="1" fill="none" fill-rule="evenodd">
        <g id="Group">
            <polygon id="Fill-2" fill="#0463A1" points="62.484 49.318 73.929 49.318 73.929 8 62.484 8"></polygon>
            <polyline id="Fill-3" fill="#0463A1" points="79.936 49.318 79.936 8 111.414 8 111.414 16.012 91.382 16.012 91.382 24.538 109.809 24.538 109.809 32.55 91.382 32.55 91.382 41.306 111.414 41.306 111.414 49.318 79.936 49.318"></polyline>
            <polyline id="Fill-4" fill="#0463A1" points="117.821 49.318 117.821 8 149.296 8 149.296 16.012 129.266 16.012 129.266 24.538 147.694 24.538 147.694 32.55 129.266 32.55 129.266 41.306 149.296 41.306 149.296 49.318 117.821 49.318"></polyline>
            <polyline id="Fill-5" fill="#0463A1" points="155.706 49.318 155.706 8 187.181 8 187.181 16.012 167.151 16.012 167.151 24.538 185.579 24.538 185.579 32.55 167.151 32.55 167.151 41.306 187.181 41.306 187.181 49.318 155.706 49.318"></polyline>
            <path d="M31.125,4.293 C32.824,6.447 34.612,8.704 36.449,10.746 L40.988,15.487 C45.096,19.57 49.458,23.171 54.135,26.354 L54.288,26.378 C54.884,26.759 55.291,27.444 55.352,28.141 C55.328,29.649 53.592,29.953 52.678,30.765 C43.588,37.357 35.448,45.522 29.032,54.612 L28.515,55.131 C27.993,55.45 27.322,55.323 26.776,55.131 C26.079,54.904 26.004,54.143 25.559,53.674 C24.139,51.469 22.325,49.402 20.78,47.348 C19.867,46.421 19.106,45.447 18.168,44.458 C12.894,38.676 6.959,33.604 0.761,29.332 C0.317,28.888 -0.051,28.304 0.152,27.595 C0.343,26.81 1.254,26.341 1.864,25.859 C9.61,20.546 16.71,13.612 22.706,6.182 L26.448,1.313 C26.941,0.934 27.602,0.617 28.208,0.883 C28.488,0.958 28.805,1.212 29.058,1.363 L31.125,4.293" id="Fill-6" fill="#0463A1"></path>
            <path d="M25.775,8.464 C24.025,9.719 22.365,11 20.69,12.446 C20.551,12.534 20.386,12.723 20.298,12.814 C16.406,16.287 12.552,20.09 9.407,24.096 C8.52,25.249 7.583,26.378 7.239,27.748 C7.226,28.483 7.341,29.167 7.734,29.724 C10.396,33.692 13.922,37.485 17.432,40.743 C20.463,43.443 23.379,46.411 26.84,48.222 C27.98,48.755 29.261,48.134 30.212,47.463 C34.916,44.152 39.113,40.007 43.092,35.722 C44.93,33.466 47.037,31.399 48.076,28.813 C48.355,27.785 47.911,26.911 47.404,26.136 C44.298,21.699 40.519,17.503 36.449,13.724 L36.183,13.573 C34.713,12.153 33.04,10.76 31.429,9.529 C29.895,8.224 27.602,7.044 25.775,8.464" id="Fill-7" fill="#FFFFFF"></path>
            <path d="M26.448,9.579 C20.653,13.586 15.075,19.011 10.587,24.551 C9.674,25.897 8.076,27.178 8.799,28.965 C9.319,30.283 10.486,31.234 11.234,32.4 C15.632,37.688 20.831,42.618 26.256,46.587 C28.64,48.108 30.339,45.649 32.191,44.52 C35.981,41.528 39.494,37.89 42.815,34.353 L42.815,34.265 C44.145,32.654 45.553,31.069 46.592,29.332 C47.05,28.483 46.821,27.316 46.313,26.568 C42.294,20.748 37.02,15.602 31.429,11.101 C29.983,10.086 28.31,8.312 26.448,9.579" id="Fill-8" fill="#0463A1"></path>
            <path d="M27.626,13.231 L27.119,14.854 L24.584,22.119 C25.217,22.181 26.004,22.119 26.624,22.181 L26.624,22.245 L26.256,30.459 L26.321,30.55 C27.132,30.625 28.145,30.664 28.97,30.523 L28.97,30.397 L28.64,22.423 L28.691,22.157 L30.923,22.119 C29.807,19.177 28.728,16.209 27.689,13.231 L27.626,13.231" id="Fill-9" fill="#FFFFFF"></path>
            <path d="M18.993,24.616 C17.571,25.326 15.48,26.405 15.709,28.355 C16.013,29.421 17.166,30.105 18.08,30.55 C23.124,32.769 29.82,32.845 35.144,31.184 C36.463,30.677 38.226,29.942 38.466,28.331 C38.453,26.999 37.046,26.163 36.031,25.656 L36.031,25.593 C36.386,25.454 36.793,25.326 37.161,25.287 L37.161,25.249 C35.373,24.932 33.648,24.463 31.924,24.008 C32.254,24.767 32.494,25.567 32.774,26.354 C33.294,26.187 33.826,26.061 34.383,25.984 C35.296,26.341 36.602,26.847 36.729,27.987 C36.831,29.053 35.664,29.572 34.929,30.004 C31.024,31.423 26.624,31.564 22.555,30.486 C21.427,30.131 19.803,29.674 19.665,28.243 C20.463,26.354 22.53,25.96 24.254,25.505 C23.366,24.932 22.466,24.426 21.604,23.792 C20.679,23.843 19.829,24.248 18.993,24.616" id="Fill-10" fill="#FFFFFF"></path>
            <path d="M26.206,32.806 C26.054,35.722 26.017,38.423 25.801,41.352 C26.954,41.453 28.26,41.555 29.49,41.377 L29.122,33.224 L29.058,32.832 C28.121,32.869 27.234,32.907 26.206,32.806" id="Fill-11" fill="#FFFFFF"></path>
            <path d="M36.811,51.057 L36.811,50.56 L37.121,50.56 C37.288,50.56 37.517,50.575 37.517,50.786 C37.517,51.015 37.4,51.057 37.203,51.057 L36.811,51.057 Z M36.811,51.407 L37.02,51.407 L37.495,52.274 L38.019,52.274 L37.491,51.372 C37.766,51.35 37.988,51.213 37.988,50.832 C37.988,50.361 37.674,50.21 37.141,50.21 L36.37,50.21 L36.37,52.274 L36.811,52.274 L36.811,51.407 Z M39.054,51.244 C39.054,50.031 38.144,49.325 37.13,49.325 C36.111,49.325 35.202,50.031 35.202,51.244 C35.202,52.457 36.111,53.163 37.13,53.163 C38.144,53.163 39.054,52.457 39.054,51.244 Z M38.501,51.244 C38.501,52.126 37.871,52.721 37.13,52.721 L37.13,52.717 C36.37,52.721 35.756,52.126 35.756,51.244 C35.756,50.361 36.37,49.774 37.13,49.774 C37.871,49.774 38.501,50.361 38.501,51.244 L38.501,51.244 Z" id="Fill-12" fill="#0463A1"></path>
        </g>
    </g>
</svg>