<?xml version="1.0" encoding="UTF-8"?>
<svg width="76px" height="93px" viewBox="0 0 76 93" version="1.1" xmlns="http://www.w3.org/2000/svg" xmlns:xlink="http://www.w3.org/1999/xlink">
    <title>Group</title>
    <g id="Page-1" stroke="none" stroke-width="1" fill="none" fill-rule="evenodd">
        <g id="Group" transform="translate(0.000000, -0.000000)" fill-rule="nonzero">
            <path d="M9.56391404,0 C4.29171024,0 0,4.29511969 0,9.56713498 L0,83.037343 C0,88.3093732 4.29171024,92.6041663 9.56391404,92.6041663 L65.7442929,92.6041663 C71.0164954,92.6041663 75.3082056,88.3095513 75.3082056,83.037343 L75.3082056,22.6243766 C75.3082056,22.6243766 75.4586444,20.8553666 74.6907123,19.1339434 C73.9708702,17.5203402 72.7976426,16.3972553 72.7976426,16.3972553 C72.794742,16.3932835 72.7918229,16.3893253 72.7888852,16.3853809 L58.8503292,2.71353292 C58.8426791,2.7057341 58.834948,2.6980153 58.8271369,2.69037775 C58.8271369,2.69037775 57.6371111,1.55719964 55.8730212,0.800203884 C53.7958909,-0.0911215085 51.6549269,0.0029686108 51.6549269,0.0029686108 L51.6868157,0 L9.56391404,0 Z" id="path890" fill="#FF2116"></path>
            <path d="M9.56391404,3.14286825 L51.6868772,3.14286825 C51.6975065,3.14286825 51.7081367,3.14286825 51.718766,3.14286825 C51.718766,3.14286825 53.4031624,3.15919561 54.6351942,3.68789035 C55.8210024,4.19673993 56.66182,4.96700538 56.667417,4.97217076 C56.6674356,4.9721856 56.6732207,4.97810798 56.6732207,4.97810798 L70.5769866,18.6180582 C70.5769866,18.6180582 71.4146603,19.5024371 71.8206728,20.4125686 C72.1483762,21.1471662 72.1685568,22.4911751 72.1685568,22.4911751 C72.1670957,22.5133667 72.1661059,22.5355868 72.1655882,22.5578204 L72.1655882,83.0374618 C72.1655882,86.6234249 69.330182,89.4617285 65.7442282,89.4617285 L9.56391404,89.4617285 C5.97795985,89.4617285 3.14255358,86.623603 3.14255358,83.0374618 L3.14255358,9.56725373 C3.14255358,5.98112735 5.97795985,3.14286825 9.56391404,3.14286825 L9.56391404,3.14286825 Z" id="rect2684" fill="#F5F5F5"></path>
            <path d="M18.8039408,55.1359193 C16.6417679,52.9737465 18.9810778,50.0026124 25.3296598,46.8476025 L29.3242818,44.8624479 L30.8805018,41.4574662 C31.7364265,39.5847329 33.0138791,36.5290379 33.7192953,34.6670658 L35.0018836,31.2816324 L34.1180391,28.7762288 C33.0312752,25.6955975 32.6437379,21.0661825 33.3332571,19.401534 C34.2672266,17.1467405 37.3264691,17.3780843 38.5376178,19.7950976 C39.4835211,21.6827778 39.3868186,25.1013113 38.2655595,29.412595 L37.3463291,32.9470973 L38.1560177,34.3216235 C38.6013539,35.0776099 39.9021546,36.8726546 41.0467025,38.3105903 L43.1978172,40.9863773 L45.8745732,40.6370758 C54.3781648,39.5274387 57.290733,41.4133675 57.290733,44.1174157 C57.290733,47.5301455 50.6135979,47.811837 45.0064931,43.8736482 C43.7448831,42.9875476 42.8785031,42.1073099 42.8785031,42.1073099 C42.8785031,42.1073099 39.365846,42.8224186 37.6363758,43.2885647 C35.8511913,43.769732 34.960559,44.0710757 32.3455558,44.9537476 C32.3455558,44.9537476 31.4280473,46.286164 30.830169,47.2548068 C28.6058187,50.8585519 26.0086553,53.8450931 24.1538673,54.9320797 C22.0771756,56.1491062 19.9000855,56.232064 18.8039408,55.1359193 L18.8039408,55.1359193 Z M22.1971371,53.9237168 C23.4125309,53.1725544 25.8725148,50.2630486 27.5753842,47.5626815 L28.2648292,46.4693718 L25.1255678,48.0477673 C20.27701,50.4855757 18.0588937,52.7831914 19.2123029,54.1729614 C19.8602467,54.9536763 20.6353658,54.8889458 22.1971371,53.9237168 L22.1971371,53.9237168 Z M53.6912627,45.0835204 C54.880028,44.2508696 54.7074627,42.5729365 53.3634984,41.8964198 C52.3175677,41.3699219 51.4745603,41.2617457 48.7574651,41.3018516 C47.0877699,41.4156978 44.4028623,41.7521899 43.9478188,41.8545624 C43.9478188,41.8545624 45.4227968,42.8739537 46.0776427,43.2486517 C46.9493901,43.7465471 49.0677998,44.6707796 50.614446,45.1441988 C52.1400893,45.6111761 53.0225831,45.5619417 53.6912627,45.0834907 L53.6912627,45.0835204 Z M41.0278815,39.8202625 C40.3084387,39.0639792 39.085089,37.4855095 38.3093465,36.312552 C37.2947792,34.9819761 36.7860187,34.043242 36.7860187,34.043242 C36.7860187,34.043242 36.0444597,36.4284317 35.4360726,37.863755 L33.5380022,42.5552881 L32.987696,43.6194609 C32.987696,43.6194609 35.9133258,42.6601989 37.401857,42.2713851 C38.9784369,41.8595794 42.1781588,41.2303823 42.1781588,41.2303823 L41.0278815,39.8202625 Z M36.9469619,23.4547119 C37.1304666,21.9147451 37.2083481,20.377064 36.7135697,19.6016481 C35.341181,18.1013567 33.6847407,19.3524777 33.9653189,22.919323 C34.0597207,24.1192354 34.3578138,26.1704416 34.7563349,27.4347136 L35.4809283,29.7333534 L35.990906,28.0020893 C36.2713951,27.0498926 36.7016211,25.0035698 36.9469619,23.4547119 L36.9469619,23.4547119 Z" id="path2697" fill="#FF2116"></path>
            <g id="g858" transform="translate(22.480917, 65.148494)" fill="#2C2C2C">
                <path d="M0,0 L3.51036149,0 C4.63201546,0 5.54249482,0.10731528 6.24179958,0.321945841 C6.94110336,0.529659539 7.529625,0.997017833 8.00736453,1.72402072 C8.48510801,2.44409685 8.72397976,3.31303397 8.72397976,4.33083208 C8.72397976,5.26553877 8.53011364,6.06869642 8.1423814,6.74030504 C7.75464818,7.41191365 7.23190154,7.89657894 6.5741415,8.19430092 C5.92330327,8.4920229 4.91935373,8.64088389 3.56229288,8.64088389 L2.34716478,8.64088389 L2.34716478,14.1764673 L0,14.1764673 L0,0 Z M2.34716478,1.81748743 L2.34716478,6.76108531 L3.51036149,6.76108531 C4.54893196,6.76108531 5.26554471,6.56721524 5.66019975,6.17947508 C6.06177956,5.79174483 6.26256947,5.16168192 6.26256947,4.28928637 C6.26256947,3.63844814 6.13101697,3.11223714 5.86791196,2.71065336 C5.60480992,2.30215273 5.31401124,2.05289827 4.99551591,1.96288999 C4.68394438,1.86591537 4.1888929,1.81742806 3.51036149,1.81742806 L2.34716478,1.81748743 Z" id="path845"></path>
                <path d="M10.5207003,0 L13.70911,0 C15.2531171,0 16.4855516,0.273488218 17.4064135,0.820464653 C18.3342026,1.36744109 19.0335071,2.18098888 19.5043268,3.26110802 C19.9820663,4.34121727 20.220936,5.53903194 20.220936,6.85455202 C20.220936,8.23931001 20.006298,9.475207 19.5770219,10.562243 C19.1546728,11.6423523 18.5038372,12.5147478 17.624515,13.1794297 C16.7521161,13.8441214 15.5058334,14.1764673 13.8856666,14.1764673 L10.5207003,14.1764673 L10.5207003,0 Z M12.867871,1.87979857 L12.867871,12.2966539 L13.8441209,12.2966539 C15.2081095,12.2966539 16.1982125,11.8258322 16.8144298,10.8841889 C17.430647,9.93563854 17.7387556,8.67204935 17.7387556,7.09342129 C17.7387556,3.61767281 16.440544,1.87979857 13.8441209,1.87979857 L12.867871,1.87979857 Z" id="path847"></path>
                <polygon id="path849" points="22.4746301 0 30.3469843 0 30.3469843 1.87979857 24.8217999 1.87979857 24.8217999 6.11716394 29.2461024 6.11716394 29.2461024 7.99697736 24.8217999 7.99697736 24.8217999 14.1764673 22.4746301 14.1764673"></polygon>
            </g>
        </g>
    </g>
</svg>
