<?xml version="1.0" encoding="UTF-8"?>
<svg width="585px" height="136px" viewBox="0 0 585 136" version="1.1" xmlns="http://www.w3.org/2000/svg" xmlns:xlink="http://www.w3.org/1999/xlink">
    <!-- Generator: Sketch 43.2 (39069) - http://www.bohemiancoding.com/sketch -->
    <title>Group 2</title>
    <desc>Created with Sketch.</desc>
    <defs></defs>
    <g id="Page-1" stroke="none" stroke-width="1" fill="none" fill-rule="evenodd">
        <g id="Group-2" fill-rule="nonzero">
            <g id="Group" transform="translate(172.000000, 36.000000)" fill="#000000">
                <path d="M40.3056737,8.96131282 C51.7597598,8.96131282 57.4863092,20.804759 57.4863092,31.9757128 C57.4863092,43.9863795 52.0121669,53.3937231 39.2948932,55.8298256 L39.2948932,45.4980923 C46.621941,43.7346462 48.7274183,37.3515487 48.7274183,31.3875692 C48.7274183,26.6834051 46.621941,19.7121641 40.6428199,19.7121641 C35.927051,19.7121641 33.569002,23.5764513 32.5573988,28.7832615 L31.1255558,36.2581333 C29.020243,46.9269333 25.1464347,57.0889846 12.8510462,57.0889846 C0.55483506,57.0889846 -5.76225498,44.9099487 -5.76225498,32.8992821 C-5.76225498,18.4531692 2.15533347,8.54219487 15.5462414,7.28155897 L15.5462414,17.7796923 C7.20907131,19.6286359 2.99745857,25.0044718 2.99745857,33.4029128 C2.99745857,40.6267077 6.28138446,46.4224821 12.1767538,46.4224821 C18.4091048,46.4224821 20.5145821,39.7031385 21.6091143,33.9065436 L23.0411219,26.5161846 C24.9779438,16.9406359 29.9471072,8.96131282 40.3056737,8.96131282" id="Fill-1" transform="translate(25.862027, 32.185272) rotate(-90.000000) translate(-25.862027, -32.185272) "></path>
                <path d="M73.1934725,43.8605128 C82.7099139,43.8605128 88.6898578,39.072 88.6898578,32.4370051 C88.6898578,25.8866872 83.6359554,20.7617641 73.1934725,20.7617641 C62.7501669,20.7617641 57.6133355,25.8866872 57.6133355,32.4370051 C57.6133355,39.072 63.5924566,43.8605128 73.1934725,43.8605128 L73.1934725,43.8605128 Z M89.7845546,21.1833436 C94.2479163,23.8705231 96.8590307,28.5737026 96.8590307,34.6205538 C96.8590307,45.2877128 87.6790773,54.2759385 73.1934725,54.2759385 C58.6241159,54.2759385 49.4431753,45.2877128 49.4431753,34.6205538 C49.4431753,28.5737026 52.0544542,23.8705231 56.5178159,21.1833436 L50.5386948,21.1833436 L50.5386948,11.1870359 L111.596384,11.1870359 L111.596384,21.1833436 L89.7845546,21.1833436 Z" id="Fill-3" transform="translate(80.519780, 32.731487) rotate(-90.000000) translate(-80.519780, -32.731487) "></path>
                <path d="M134.278795,51.8114567 C141.353271,51.5587388 145.64732,46.1837234 145.64732,40.3042567 C145.64732,35.6002567 142.868208,29.1326465 134.278795,28.2926054 L134.278795,51.8114567 Z M114.403787,40.5561542 C114.403787,45.7637849 116.509265,49.8789849 120.719232,51.6432516 L120.719232,61.4697131 C113.476923,59.3706772 106.064314,52.6513336 106.064314,40.9760926 C106.064314,26.445467 117.182734,18.1307183 130.151757,18.1307183 C143.795237,18.1307183 153.480169,27.4527285 153.480169,40.3042567 C153.480169,54.163867 142.194738,62.8133849 126.951747,61.9749849 L126.951747,28.2926054 C118.52918,28.9644413 114.403787,34.8447285 114.403787,40.5561542 L114.403787,40.5561542 Z" id="Fill-4" transform="translate(129.772241, 40.080821) rotate(-90.000000) translate(-129.772241, -40.080821) "></path>
                <path d="M185.033543,47.5554462 C185.033543,41.2552205 182.507004,37.6444718 173.410967,37.6444718 L149.661492,37.6444718 L149.661492,27.6489846 L194.971047,27.6489846 L194.971047,37.4762667 L186.886449,37.4762667 C191.939529,39.9123692 194.971047,44.2793026 195.055786,49.7388308 C195.055786,50.494359 194.971047,51.5877744 194.887131,52.343959 L184.781136,52.343959 C184.948804,50.6624 185.033543,49.0663385 185.033543,47.5554462" id="Fill-5" transform="translate(172.358639, 39.996472) rotate(-90.000000) translate(-172.358639, -39.996472) "></path>
                <path d="M184.777105,33.1105641 C184.777105,15.3031385 197.494543,4.97140513 216.612001,4.97140513 C235.814197,4.97140513 248.025834,15.9749744 248.025834,33.6133744 C248.025834,47.1367385 240.278381,56.7958154 226.634244,59.2319179 L226.634244,48.9846974 C234.888156,47.1367385 239.266778,41.1735795 239.266778,33.2779487 C239.266778,23.6188718 231.350835,15.9749744 216.612001,15.9749744 C201.790072,15.9749744 193.536983,23.4498462 193.536983,33.1934359 C193.536983,41.4254769 197.830867,47.3049436 206.17034,49.1529026 L206.17034,59.3993026 C192.526203,56.8803282 184.777105,47.1367385 184.777105,33.1105641" id="Fill-6" transform="translate(216.401469, 32.185354) rotate(-90.000000) translate(-216.401469, -32.185354) "></path>
                <polygon id="Fill-7" transform="translate(257.206198, 32.185190) rotate(-90.000000) translate(-257.206198, -32.185190) " points="287.735372 27.1874462 287.735372 37.1829333 226.677025 37.1829333 226.677025 27.1874462"></polygon>
                <path d="M292.745836,52.0074667 C303.188319,52.0074667 308.326137,46.3790769 308.326137,40.0804923 C308.326137,33.7809231 303.188319,28.1533538 292.745836,28.1533538 C282.30253,28.1533538 277.250273,33.7809231 277.250273,40.0804923 C277.250273,46.3790769 282.30253,52.0074667 292.745836,52.0074667 M269.079455,40.0804923 C269.079455,29.0769231 276.407325,17.822441 292.745836,17.822441 C309.084346,17.822441 316.49531,29.0769231 316.49531,40.0804923 C316.49531,51.0830769 309.084346,62.3392 292.745836,62.3392 C276.407325,62.3392 269.079455,51.0830769 269.079455,40.0804923" id="Fill-8" transform="translate(292.787382, 40.080821) rotate(-90.000000) translate(-292.787382, -40.080821) "></path>
                <path d="M318.851302,36.4698256 C318.851302,25.7189744 325.926766,21.3504 336.706395,21.3504 L365.256542,21.3504 L365.256542,31.3450667 L339.148196,31.3450667 C333.000584,31.3450667 327.021463,32.1857641 327.021463,39.6614564 C327.021463,47.1363282 332.916667,49.8233436 341.08584,49.8233436 L365.256542,49.8233436 L365.256542,59.8188308 L319.946822,59.8188308 L319.946822,49.8233436 L326.179173,49.8233436 C321.462581,47.220841 318.851302,42.6011897 318.851302,36.4698256" id="Fill-9" transform="translate(342.053922, 40.584615) rotate(-90.000000) translate(-342.053922, -40.584615) "></path>
                <path d="M383.784528,21.6017231 C374.183512,21.6017231 368.204391,26.3902359 368.204391,33.0252308 C368.204391,39.5771897 373.341223,44.7004718 383.784528,44.7004718 C394.227011,44.7004718 399.280913,39.5771897 399.280913,33.0252308 C399.280913,26.3902359 393.30097,21.6017231 383.784528,21.6017231 L383.784528,21.6017231 Z M422.18744,54.2758564 L361.12975,54.2758564 L361.12975,44.2805333 L367.108872,44.2805333 C362.64551,41.5917128 360.034231,36.8885333 360.034231,30.8408615 C360.034231,20.1737026 369.215172,11.1871179 383.784528,11.1871179 C398.270133,11.1871179 407.450086,20.1737026 407.450086,30.8408615 C407.450086,36.8885333 404.838972,41.5917128 400.37561,44.2805333 L422.18744,44.2805333 L422.18744,54.2758564 Z" id="Fill-10" transform="translate(391.110835, 32.731487) rotate(-90.000000) translate(-391.110835, -32.731487) "></path>
            </g>
            <g fill="#13F132">
                <polygon id="Fill-11" transform="translate(57.173207, 33.938899) rotate(-90.000000) translate(-57.173207, -33.938899) " points="65.3745233 39.4073066 65.3745233 28.4704912 48.9718912 28.4704912 48.9718912 39.4073066"></polygon>
                <polygon id="Fill-12" transform="translate(57.173207, 65.338351) rotate(-90.000000) translate(-57.173207, -65.338351) " points="70.9808925 70.8067586 70.9808925 59.8699432 43.365521 59.8699432 43.365521 70.8067586"></polygon>
                <polygon id="Fill-13" transform="translate(57.173207, 67.803086) rotate(-90.000000) translate(-57.173207, -67.803086) " points="62.6401893 73.2714935 62.6401893 62.3346782 51.706225 62.3346782 51.706225 73.2714935"></polygon>
                <polygon id="Fill-14" transform="translate(57.173207, 42.111687) rotate(-90.000000) translate(-57.173207, -42.111687) " points="62.6402944 47.5800946 62.6402944 36.6432792 51.7061194 36.6432792 51.7061194 47.5800946"></polygon>
                <polygon id="Fill-15" transform="translate(57.173207, 5.554185) rotate(-90.000000) translate(-57.173207, -5.554185) " points="62.6402949 11.0225926 62.6402949 0.0857771961 51.7061199 0.0857771961 51.7061199 11.0225926"></polygon>
                <polygon id="Fill-16" transform="translate(31.327836, 23.802585) rotate(-90.000000) translate(-31.327836, -23.802585) " points="36.7949239 29.270993 36.7949239 18.3341776 25.8607489 18.3341776 25.8607489 29.270993"></polygon>
                <polygon id="Fill-17" transform="translate(31.327837, 51.389748) rotate(-90.000000) translate(-31.327837, -51.389748) " points="38.8329526 56.858156 38.8329526 45.9213406 23.8227204 45.9213406 23.8227204 56.858156"></polygon>
                <polygon id="Fill-18" transform="translate(31.327836, 60.300123) rotate(-90.000000) translate(-31.327836, -60.300123) " points="36.7954504 65.768531 36.7954504 54.8317156 25.8602218 54.8317156 25.8602218 65.768531"></polygon>
                <polygon id="Fill-19" transform="translate(5.481937, 42.111686) rotate(-90.000000) translate(-5.481937, -42.111686) " points="10.9490244 47.5806211 10.9490244 36.6427519 0.0148494 36.6427519 0.0148494 47.5806211"></polygon>
                <polygon id="Fill-20" transform="translate(5.481937, 67.803086) rotate(-90.000000) translate(-5.481937, -67.803086) " points="10.9489193 73.2720202 10.9489193 62.3341509 0.0149550286 62.3341509 0.0149550286 73.2720202"></polygon>
                <polygon id="Fill-21" transform="translate(83.018684, 23.802585) rotate(-90.000000) translate(-83.018684, -23.802585) " points="88.4857719 18.334072 88.4857719 29.2710982 77.5515969 29.2710982 77.5515969 18.334072"></polygon>
                <polygon id="Fill-22" transform="translate(83.018684, 51.389748) rotate(-90.000000) translate(-83.018684, -51.389748) " points="90.5238005 45.921235 90.5238005 56.8582611 75.5135684 56.8582611 75.5135684 45.921235"></polygon>
                <polygon id="Fill-23" transform="translate(83.018684, 60.300123) rotate(-90.000000) translate(-83.018684, -60.300123) " points="88.4862984 54.83161 88.4862984 65.7686362 77.5510698 65.7686362 77.5510698 54.83161"></polygon>
                <polygon id="Fill-24" transform="translate(108.864582, 42.111686) rotate(-90.000000) translate(-108.864582, -42.111686) " points="114.331669 36.6426465 114.331669 47.5807265 103.397494 47.5807265 103.397494 36.6426465"></polygon>
                <polygon id="Fill-25" transform="translate(57.173207, 104.401266) rotate(-90.000000) translate(-57.173207, -104.401266) " points="51.7062251 98.9328581 51.7062251 109.869674 62.6401894 109.869674 62.6401894 98.9328581"></polygon>
                <polygon id="Fill-26" transform="translate(57.173207, 78.610700) rotate(-90.000000) translate(-57.173207, -78.610700) " points="51.7062248 73.1422922 51.7062248 84.0791076 62.6401891 84.0791076 62.6401891 73.1422922"></polygon>
                <polygon id="Fill-27" transform="translate(57.173207, 96.129417) rotate(-90.000000) translate(-57.173207, -96.129417) " points="49.0708213 90.6610089 49.0708213 101.597825 65.2755928 101.597825 65.2755928 90.6610089"></polygon>
                <polygon id="Fill-28" transform="translate(57.173207, 130.050933) rotate(-90.000000) translate(-57.173207, -130.050933) " points="51.7061195 124.582525 51.7061195 135.519341 62.6402945 135.519341 62.6402945 124.582525"></polygon>
                <polygon id="Fill-29" transform="translate(83.018684, 111.802533) rotate(-90.000000) translate(-83.018684, -111.802533) " points="77.5515965 106.33402 77.5515965 117.271046 88.4857715 117.271046 88.4857715 106.33402"></polygon>
                <polygon id="Fill-30" transform="translate(83.018684, 86.254984) rotate(-90.000000) translate(-83.018684, -86.254984) " points="77.5515963 80.786471 77.5515963 91.7234971 88.4857714 91.7234971 88.4857714 80.786471"></polygon>
                <polygon id="Fill-31" transform="translate(83.018684, 76.497528) rotate(-90.000000) translate(-83.018684, -76.497528) " points="76.358848 71.029015 76.358848 81.9660412 89.6785194 81.9660412 89.6785194 71.029015"></polygon>
                <polygon id="Fill-32" transform="translate(108.864581, 93.493431) rotate(-90.000000) translate(-108.864581, -93.493431) " points="103.397494 88.0243915 103.397494 98.9624715 114.331669 98.9624715 114.331669 88.0243915"></polygon>
                <polygon id="Fill-33" transform="translate(31.327836, 111.802533) rotate(-90.000000) translate(-31.327836, -111.802533) " points="25.8607485 117.270941 25.8607485 106.334125 36.7949235 106.334125 36.7949235 117.270941"></polygon>
                <polygon id="Fill-34" transform="translate(31.327836, 86.254984) rotate(-90.000000) translate(-31.327836, -86.254984) " points="25.8607484 91.723392 25.8607484 80.7865767 36.7949234 80.7865767 36.7949234 91.723392"></polygon>
                <polygon id="Fill-35" transform="translate(31.327836, 76.497528) rotate(-90.000000) translate(-31.327836, -76.497528) " points="24.668 81.965936 24.668 71.0291206 37.9876714 71.0291206 37.9876714 81.965936"></polygon>
                <polygon id="Fill-36" transform="translate(5.481937, 93.493431) rotate(-90.000000) translate(-5.481937, -93.493431) " points="0.01484905 98.9623661 0.01484905 88.0244968 10.9490241 88.0244968 10.9490241 98.9623661"></polygon>
                <polygon id="Fill-37" transform="translate(108.864582, 67.803086) rotate(-90.000000) translate(-108.864582, -67.803086) " points="114.331564 62.334046 114.331564 73.272126 103.3976 73.272126 103.3976 62.334046"></polygon>
            </g>
        </g>
    </g>
</svg>