<?xml version="1.0" encoding="UTF-8"?>
<svg width="251px" height="191px" viewBox="0 0 251 191" version="1.1" xmlns="http://www.w3.org/2000/svg" xmlns:xlink="http://www.w3.org/1999/xlink">
    <!-- Generator: Sketch 43.2 (39069) - http://www.bohemiancoding.com/sketch -->
    <title>Group 3</title>
    <desc>Created with Sketch.</desc>
    <defs></defs>
    <g id="Page-1" stroke="none" stroke-width="1" fill="none" fill-rule="evenodd">
        <g id="Group-3">
            <g id="Group" transform="translate(0.000000, 152.000000)" fill="#000000">
                <path d="M24.4957,5.4608 C31.4569,5.4608 34.9372,12.6779 34.9372,19.4852 C34.9372,26.8042 31.6103,32.5368 23.8814,34.0213 L23.8814,27.7254 C28.3344,26.6508 29.614,22.7611 29.614,19.1268 C29.614,16.2602 28.3344,12.0121 24.7006,12.0121 C21.8346,12.0121 20.4015,14.3669 19.7867,17.5398 L18.9165,22.0948 C17.637,28.5961 15.2827,34.7886 7.8102,34.7886 C0.3372,34.7886 -3.502,27.367 -3.502,20.048 C-3.502,11.2449 1.3099,5.2054 9.4482,4.4372 L9.4482,10.8345 C4.3813,11.9612 1.8217,15.2371 1.8217,20.3549 C1.8217,24.7569 3.8175,28.2887 7.4004,28.2887 C11.1881,28.2887 12.4677,24.1941 13.1329,20.6618 L14.0032,16.1583 C15.1803,10.3232 18.2003,5.4608 24.4957,5.4608" id="Fill-1" transform="translate(15.717600, 19.612900) rotate(-90.000000) translate(-15.717600, -19.612900) "></path>
                <path d="M44.4832,26.7275 C50.2668,26.7275 53.9011,23.8095 53.9011,19.7663 C53.9011,15.7747 50.8296,12.6517 44.4832,12.6517 C38.1363,12.6517 35.0144,15.7747 35.0144,19.7663 C35.0144,23.8095 38.6482,26.7275 44.4832,26.7275 L44.4832,26.7275 Z M54.5664,12.9086 C57.279,14.5461 58.8659,17.4121 58.8659,21.0969 C58.8659,27.5972 53.2868,33.0744 44.4832,33.0744 C35.6287,33.0744 30.049,27.5972 30.049,21.0969 C30.049,17.4121 31.636,14.5461 34.3486,12.9086 L30.7148,12.9086 L30.7148,6.8171 L67.8225,6.8171 L67.8225,12.9086 L54.5664,12.9086 Z" id="Fill-3" transform="translate(48.935750, 19.945750) rotate(-90.000000) translate(-48.935750, -19.945750) "></path>
                <path d="M81.6076938,31.5726062 C85.9071938,31.4186062 88.5168938,28.1432062 88.5168938,24.5604062 C88.5168938,21.6939062 86.8278938,17.7527062 81.6076938,17.2408062 L81.6076938,31.5726062 Z M69.5286938,24.7139062 C69.5286938,27.8873062 70.8082938,30.3950062 73.3668938,31.4701062 L73.3668938,37.4581062 C68.9653938,36.1790062 64.4603938,32.0844062 64.4603938,24.9698062 C64.4603938,16.1152062 71.2175938,11.0484062 79.0994938,11.0484062 C87.3912938,11.0484062 93.2772938,16.7290062 93.2772938,24.5604062 C93.2772938,33.0061062 86.4185938,38.2769062 77.1546938,37.7660062 L77.1546938,17.2408062 C72.0358938,17.6502062 69.5286938,21.2335062 69.5286938,24.7139062 L69.5286938,24.7139062 Z" id="Fill-4" transform="translate(78.868844, 24.424250) rotate(-90.000000) translate(-78.868844, -24.424250) "></path>
                <path d="M112.4538,28.9791 C112.4538,25.1399 110.9183,22.9396 105.3902,22.9396 L90.9565,22.9396 L90.9565,16.8486 L118.4933,16.8486 L118.4933,22.8371 L113.5799,22.8371 C116.6509,24.3216 118.4933,26.9827 118.5448,30.3096 C118.5448,30.77 118.4933,31.4363 118.4423,31.8971 L112.3004,31.8971 C112.4023,30.8724 112.4538,29.8998 112.4538,28.9791" id="Fill-5" transform="translate(104.750650, 24.372850) rotate(-90.000000) translate(-104.750650, -24.372850) "></path>
                <path d="M112.29795,20.17675 C112.29795,9.32535 120.02695,3.02945 131.64555,3.02945 C143.31565,3.02945 150.73725,9.73475 150.73725,20.48315 C150.73725,28.72395 146.02875,34.60995 137.73655,36.09445 L137.73655,29.85005 C142.75285,28.72395 145.41395,25.09015 145.41395,20.27875 C145.41395,14.39275 140.60305,9.73475 131.64555,9.73475 C122.63755,9.73475 117.62175,14.28975 117.62175,20.22725 C117.62175,25.24365 120.23135,28.82645 125.29965,29.95255 L125.29965,36.19645 C117.00745,34.66145 112.29795,28.72395 112.29795,20.17675" id="Fill-6" transform="translate(131.517600, 19.612950) rotate(-90.000000) translate(-131.517600, -19.612950) "></path>
                <polygon id="Fill-7" transform="translate(156.316600, 19.612850) rotate(-90.000000) translate(-156.316600, -19.612850) " points="174.87065 16.56735 174.87065 22.65835 137.76255 22.65835 137.76255 16.56735"></polygon>
                <path d="M177.91575,31.69205 C184.26215,31.69205 187.38465,28.26225 187.38465,24.42405 C187.38465,20.58525 184.26215,17.15595 177.91575,17.15595 C171.56885,17.15595 168.49835,20.58525 168.49835,24.42405 C168.49835,28.26225 171.56885,31.69205 177.91575,31.69205 M163.53255,24.42405 C163.53255,17.71875 167.98605,10.86055 177.91575,10.86055 C187.84545,10.86055 192.34945,17.71875 192.34945,24.42405 C192.34945,31.12875 187.84545,37.98795 177.91575,37.98795 C167.98605,37.98795 163.53255,31.12875 163.53255,24.42405" id="Fill-8" transform="translate(177.941000, 24.424250) rotate(-90.000000) translate(-177.941000, -24.424250) "></path>
                <path d="M193.7813,22.2238 C193.7813,15.6725 198.0814,13.0104 204.6327,13.0104 L221.984,13.0104 L221.984,19.1009 L206.1167,19.1009 C202.3805,19.1009 198.7467,19.6132 198.7467,24.1687 C198.7467,28.7237 202.3295,30.3611 207.2943,30.3611 L221.984,30.3611 L221.984,36.4521 L194.4471,36.4521 L194.4471,30.3611 L198.2348,30.3611 C195.3683,28.7752 193.7813,25.9601 193.7813,22.2238" id="Fill-9" transform="translate(207.882650, 24.731250) rotate(-90.000000) translate(-207.882650, -24.731250) "></path>
                <path d="M233.24435,13.16355 C227.40935,13.16355 223.77555,16.08155 223.77555,20.12475 C223.77555,24.11735 226.89745,27.23935 233.24435,27.23935 C239.59075,27.23935 242.66225,24.11735 242.66225,20.12475 C242.66225,16.08155 239.02795,13.16355 233.24435,13.16355 L233.24435,13.16355 Z M256.58365,33.07435 L219.47595,33.07435 L219.47595,26.98345 L223.10975,26.98345 C220.39715,25.34495 218.81015,22.47895 218.81015,18.79365 C218.81015,12.29335 224.38985,6.81715 233.24435,6.81715 C242.04795,6.81715 247.62705,12.29335 247.62705,18.79365 C247.62705,22.47895 246.04015,25.34495 243.32755,26.98345 L256.58365,26.98345 L256.58365,33.07435 Z" id="Fill-10" transform="translate(237.696900, 19.945750) rotate(-90.000000) translate(-237.696900, -19.945750) "></path>
            </g>
            <g id="Group-2" transform="translate(68.000000, 0.000000)" fill="#13F132">
                <polygon id="Fill-11" transform="translate(57.173207, 33.938899) rotate(-90.000000) translate(-57.173207, -33.938899) " points="65.3745232 39.4073069 65.3745232 28.4704915 48.9718911 28.4704915 48.9718911 39.4073069"></polygon>
                <polygon id="Fill-12" transform="translate(57.173207, 65.338351) rotate(-90.000000) translate(-57.173207, -65.338351) " points="70.9808929 70.8067585 70.9808929 59.8699431 43.3655214 59.8699431 43.3655214 70.8067585"></polygon>
                <polygon id="Fill-13" transform="translate(57.173207, 67.803086) rotate(-90.000000) translate(-57.173207, -67.803086) " points="62.6401893 73.2714938 62.6401893 62.3346785 51.706225 62.3346785 51.706225 73.2714938"></polygon>
                <polygon id="Fill-14" transform="translate(57.173207, 42.111687) rotate(-90.000000) translate(-57.173207, -42.111687) " points="62.6402946 47.5800946 62.6402946 36.6432792 51.7061196 36.6432792 51.7061196 47.5800946"></polygon>
                <polygon id="Fill-15" transform="translate(57.173207, 5.554185) rotate(-90.000000) translate(-57.173207, -5.554185) " points="62.6402946 11.0225931 62.6402946 0.0857776923 51.7061196 0.0857776923 51.7061196 11.0225931"></polygon>
                <polygon id="Fill-16" transform="translate(31.327836, 23.802585) rotate(-90.000000) translate(-31.327836, -23.802585) " points="36.7949232 29.2709931 36.7949232 18.3341777 25.8607482 18.3341777 25.8607482 29.2709931"></polygon>
                <polygon id="Fill-17" transform="translate(31.327836, 51.389748) rotate(-90.000000) translate(-31.327836, -51.389748) " points="38.8329518 56.8581562 38.8329518 45.9213408 23.8227196 45.9213408 23.8227196 56.8581562"></polygon>
                <polygon id="Fill-18" transform="translate(31.327836, 60.300123) rotate(-90.000000) translate(-31.327836, -60.300123) " points="36.79545 65.7685308 36.79545 54.8317154 25.8602214 54.8317154 25.8602214 65.7685308"></polygon>
                <polygon id="Fill-19" transform="translate(5.481937, 42.111687) rotate(-90.000000) translate(-5.481937, -42.111687) " points="10.949025 47.5806215 10.949025 36.6427523 0.01485 36.6427523 0.01485 47.5806215"></polygon>
                <polygon id="Fill-20" transform="translate(5.481937, 67.803086) rotate(-90.000000) translate(-5.481937, -67.803086) " points="10.9489196 73.2720208 10.9489196 62.3341515 0.0149553571 62.3341515 0.0149553571 73.2720208"></polygon>
                <polygon id="Fill-21" transform="translate(83.018684, 23.802585) rotate(-90.000000) translate(-83.018684, -23.802585) " points="88.4857714 18.3340723 88.4857714 29.2710985 77.5515964 29.2710985 77.5515964 18.3340723"></polygon>
                <polygon id="Fill-22" transform="translate(83.018684, 51.389748) rotate(-90.000000) translate(-83.018684, -51.389748) " points="90.5238 45.9212354 90.5238 56.8582615 75.5135679 56.8582615 75.5135679 45.9212354"></polygon>
                <polygon id="Fill-23" transform="translate(83.018684, 60.300123) rotate(-90.000000) translate(-83.018684, -60.300123) " points="88.4862982 54.83161 88.4862982 65.7686362 77.5510696 65.7686362 77.5510696 54.83161"></polygon>
                <polygon id="Fill-24" transform="translate(108.864582, 42.111687) rotate(-90.000000) translate(-108.864582, -42.111687) " points="114.33167 36.6426469 114.33167 47.5807269 103.397495 47.5807269 103.397495 36.6426469"></polygon>
                <polygon id="Fill-25" transform="translate(57.173207, 104.401266) rotate(-90.000000) translate(-57.173207, -104.401266) " points="51.706225 98.9328585 51.706225 109.869674 62.6401893 109.869674 62.6401893 98.9328585"></polygon>
                <polygon id="Fill-26" transform="translate(57.173207, 78.610700) rotate(-90.000000) translate(-57.173207, -78.610700) " points="51.706225 73.1422923 51.706225 84.0791077 62.6401893 84.0791077 62.6401893 73.1422923"></polygon>
                <polygon id="Fill-27" transform="translate(57.173207, 96.129417) rotate(-90.000000) translate(-57.173207, -96.129417) " points="49.0708214 90.6610092 49.0708214 101.597825 65.2755929 101.597825 65.2755929 90.6610092"></polygon>
                <polygon id="Fill-28" transform="translate(57.173207, 130.050933) rotate(-90.000000) translate(-57.173207, -130.050933) " points="51.7061196 124.582525 51.7061196 135.519341 62.6402946 135.519341 62.6402946 124.582525"></polygon>
                <polygon id="Fill-29" transform="translate(83.018684, 111.802533) rotate(-90.000000) translate(-83.018684, -111.802533) " points="77.5515964 106.33402 77.5515964 117.271046 88.4857714 117.271046 88.4857714 106.33402"></polygon>
                <polygon id="Fill-30" transform="translate(83.018684, 86.254984) rotate(-90.000000) translate(-83.018684, -86.254984) " points="77.5515964 80.7864708 77.5515964 91.7234969 88.4857714 91.7234969 88.4857714 80.7864708"></polygon>
                <polygon id="Fill-31" transform="translate(83.018684, 76.497528) rotate(-90.000000) translate(-83.018684, -76.497528) " points="76.3588482 71.0290146 76.3588482 81.9660408 89.6785196 81.9660408 89.6785196 71.0290146"></polygon>
                <polygon id="Fill-32" transform="translate(108.864582, 93.493432) rotate(-90.000000) translate(-108.864582, -93.493432) " points="103.397495 88.0243915 103.397495 98.9624715 114.33167 98.9624715 114.33167 88.0243915"></polygon>
                <polygon id="Fill-33" transform="translate(31.327836, 111.802533) rotate(-90.000000) translate(-31.327836, -111.802533) " points="25.8607482 117.270941 25.8607482 106.334125 36.7949232 106.334125 36.7949232 117.270941"></polygon>
                <polygon id="Fill-34" transform="translate(31.327836, 86.254984) rotate(-90.000000) translate(-31.327836, -86.254984) " points="25.8607482 91.7233915 25.8607482 80.7865762 36.7949232 80.7865762 36.7949232 91.7233915"></polygon>
                <polygon id="Fill-35" transform="translate(31.327836, 76.497528) rotate(-90.000000) translate(-31.327836, -76.497528) " points="24.668 81.9659354 24.668 71.02912 37.9876714 71.02912 37.9876714 81.9659354"></polygon>
                <polygon id="Fill-36" transform="translate(5.481937, 93.493432) rotate(-90.000000) translate(-5.481937, -93.493432) " points="0.01485 98.9623662 0.01485 88.0244969 10.949025 88.0244969 10.949025 98.9623662"></polygon>
                <polygon id="Fill-37" transform="translate(108.864582, 67.803086) rotate(-90.000000) translate(-108.864582, -67.803086) " points="114.331564 62.3340462 114.331564 73.2721262 103.3976 73.2721262 103.3976 62.3340462"></polygon>
            </g>
        </g>
    </g>
</svg>