<?xml version="1.0" encoding="UTF-8"?>
<svg width="1295px" height="399px" viewBox="0 0 1295 399" version="1.1" xmlns="http://www.w3.org/2000/svg" xmlns:xlink="http://www.w3.org/1999/xlink">
    <title>Group</title>
    <g id="Page-1" stroke="none" stroke-width="1" fill="none" fill-rule="evenodd">
        <g id="Group" transform="translate(0.500000, 0.500000)" fill-rule="nonzero">
            <path d="M474,283.4 C465.5,282 455.5,278.4 455.5,276.7 C455.5,274.8 459.4,251.4 460,249.7 C460.4,248.7 461.2,248.7 463.9,249.9 C476.1,255 496.1,255.9 504.2,251.7 C515.2,246 517.6,230.4 509.1,219.2 C507.3,216.8 500.8,211.5 493.5,206.6 C476.9,195.3 468,186.4 462.5,175.2 C458.6,167.4 458.2,165.7 457.7,157.3 C456.1,126.5 476.7,104.7 509,102.8 C523.4,101.9 542.2,106.3 541.1,110.3 C540.9,111.2 539.6,117.9 538.4,125.2 L536.1,138.3 L532.5,136.5 C522.9,131.7 508.2,131.3 500.4,135.6 C494.7,138.8 491.5,144.3 491.5,151.3 C491.5,161.4 495.9,166.7 513.5,178.1 C537.9,193.8 547.9,209.2 547.9,231 C547.9,263.1 523.8,284.7 488.5,284.4 C483.3,284.3 476.8,283.9 474,283.4 L474,283.4 Z" id="Path" fill="#000000"></path>
            <path d="M709,283.4 C685.6,279.5 668,263.3 659.6,238 C651.9,214.8 651.5,181.8 658.6,158 C669.4,121.8 698.3,100.8 734.5,102.8 C745.9,103.4 759,106.7 758.2,108.8 C758,109.5 756.7,115.6 755.5,122.5 C754.2,129.4 752.9,135.3 752.5,135.8 C752.1,136.2 749,135.8 745.5,134.9 C736.9,132.7 724.1,133.4 716,136.5 C703.9,141.2 695.1,153.8 691.4,171.8 C688.8,184.5 688.8,208.5 691.4,221.1 C696,243.2 707.3,255.5 723.3,255.5 L729.5,255.5 L729.5,233 L729.5,210.5 L721.5,210.5 L713.5,210.5 L713.5,197 L713.5,183.5 L737.5,183.5 L761.5,183.5 L761.5,231 L761.5,278.4 L756.3,280 C742.9,284 721.6,285.5 709,283.4 Z" id="Path" fill="#000000"></path>
            <polygon id="Path" fill="#000000" points="582.5 194 582.5 104.5 600 104.5 617.5 104.5 617.5 194 617.5 283.5 600 283.5 582.5 283.5"></polygon>
            <path d="M801.5,195.1 L801.5,106.7 L808.8,105.3 C813.4,104.5 823.7,104 837,104 C860.3,104 865.9,105 876.7,110.7 C896.1,121 905.1,144.4 900,171.2 C894.9,197.9 874.7,214.5 845.3,216.2 L835.5,216.8 L835.5,250.1 L835.5,283.5 L818.5,283.5 L801.5,283.5 L801.5,195.1 L801.5,195.1 Z M853.1,186.6 C858.4,184.2 863.9,177.6 865.6,171.7 C866.4,169.1 867,163 866.9,158 C866.8,139.9 859.5,131.3 844.4,131.3 C840.7,131.3 837.1,131.6 836.5,132 C835.9,132.4 835.5,142.2 835.5,160.6 L835.5,188.5 L842.3,188.5 C846.6,188.5 850.4,187.8 853.1,186.6 L853.1,186.6 Z" id="Shape" fill="#000000"></path>
            <polygon id="Path" fill="#000000" points="936.5 194 936.5 104.5 953.5 104.5 970.5 104.5 970.5 179.5 970.5 254.5 993.5 254.5 1016.5 254.5 1016.5 269 1016.5 283.5 976.5 283.5 936.5 283.5"></polygon>
            <path d="M1040.5,282.8 C1040.5,282.3 1049.1,242.1 1059.7,193.2 L1078.9,104.5 L1099.6,104.5 L1120.4,104.5 L1121.4,109.7 C1122,112.6 1129.7,152.1 1138.5,197.5 C1147.3,242.9 1154.7,280.8 1154.9,281.8 C1155.3,283.4 1154,283.5 1138.6,283.5 L1121.8,283.5 L1120.6,276.8 C1120,273 1118.2,263.8 1116.8,256.3 L1114.2,242.5 L1097.9,242.5 C1083.3,242.5 1081.6,242.7 1081.1,244.3 C1080.8,245.2 1079.4,252.1 1078,259.5 C1076.6,266.9 1075,275.4 1074.4,278.3 L1073.4,283.5 L1056.9,283.5 C1047.9,283.5 1040.5,283.2 1040.5,282.8 L1040.5,282.8 Z M1110.5,213.6 C1110.5,212.5 1108.7,200.2 1106.6,186.3 C1102.7,161.8 1099.5,139.4 1099.5,137.5 C1099.5,136.9 1099.1,136.5 1098.6,136.5 C1098.1,136.5 1097.4,139.1 1097,142.3 C1096.4,147.8 1087.5,201.1 1085.7,210.8 L1084.8,215.5 L1097.6,215.5 C1109.7,215.5 1110.5,215.4 1110.5,213.6 L1110.5,213.6 Z" id="Shape" fill="#000000"></path>
            <path d="M1188.5,194 L1188.5,104.5 L1204.6,104.7 L1220.7,105 L1235.1,141.5 C1249.6,178 1263.2,214.3 1265.6,222.3 C1267.4,228.5 1268.6,227.4 1268,220.3 C1266.4,202.8 1265.4,177.3 1264.8,142.7 L1264.2,104.5 L1279.3,104.5 L1294.5,104.5 L1294.5,194 L1294.5,283.6 L1278.9,283.3 L1263.3,283 L1246.9,242 C1237.9,219.5 1227.5,191.9 1223.8,180.7 C1220.2,169.6 1217,160.6 1216.9,160.8 C1216.7,161 1217,169.2 1217.5,179.1 C1218,188.9 1218.5,216.5 1218.5,240.3 L1218.5,283.5 L1203.5,283.5 L1188.5,283.5 L1188.5,194 Z" id="Path" fill="#000000"></path>
            <path d="M99.5,299 L0,199.5 L99.8,99.7 L199.5,0 L299.2,99.7 L399,199.5 L299.5,299 C244.8,353.7 199.8,398.5 199.5,398.5 C199.2,398.5 154.2,353.7 99.5,299 Z M210.5,318.5 C230.4,316 254.1,306.7 269.1,295.4 C300,272.2 318.7,236.2 318.801597,199.5 C319,163.2 300.4,126.9 270,104 C246.7,86.5 213.8,77 188.3,80.4 C158.4,84.4 134.2,96.5 113.8,117.8 C82.7,150.2 72.3,194.6 86.2,235.5 C94.1,258.7 110,280.4 129.9,295.4 C139.2,302.4 158.9,311.9 170.5,315 C186.5,319.2 197.1,320.1 210.5,318.5 Z" id="Shape" fill="#51A9C6"></path>
            <path d="M173.5,310.6 C131,301.5 97.7,268 88.3,224.6 C85.5,211.9 85.3,188 87.9,175.5 C95.1,141.1 116.4,113.1 147,97.7 C161.4,90.5 173.5,87.3 191.5,86 C202.7,85.2 220.2,86.7 230.7,89.5 C263.6,98.1 291.9,122.9 304.8,154.5 C313.8,176.5 315.6,205.4 309.5,229.7 C299.4,270.1 265.9,302.1 225,310.6 C212.7,313.2 185.7,313.1 173.5,310.6 L173.5,310.6 Z M127.2,221.9 L130,220 L124.9,219.5 C117.6,218.7 116.5,217.5 116.5,210 C116.5,202 117.9,200.6 127.8,199.2 C138.4,197.7 138.5,197.8 138.2,207.7 L138,216 L134.5,217.7 L131,219.5 L134.3,219.5 C136.8,219.5 137.5,219.9 137.5,221.5 C137.5,223.3 138.2,223.5 143.3,223.5 L149,223.5 L148.7,205.3 C148.4,190 148.1,186.5 146.6,184 C142.3,176.5 131.9,173.4 118.5,175.6 C110.2,177 110,177.1 109.7,179.9 C109.4,182.5 109.6,182.7 111.7,182 C113,181.6 117.3,181 121.4,180.8 C133.8,179.9 138.5,182.7 138.5,191 L138.5,194.3 L131.8,195 C117.6,196.4 110.9,199.1 107.5,204.8 C103.8,210.9 106,218.3 112.7,222.6 C116.7,225 123,224.7 127.2,221.9 L127.2,221.9 Z M197.8,222.9 C201.7,221.6 202.5,220.9 202.5,218.8 C202.5,216.8 202.2,216.4 200.8,217.1 C199.8,217.5 194.9,218 190,218.3 C181.8,218.6 180.7,218.5 178.1,216.4 C174,213.1 172.5,208.7 172.5,199.4 C172.5,189 174.1,185.3 180.2,182.4 C183.8,180.7 185.8,180.3 190.5,180.8 C193.8,181.1 197.8,182 199.4,182.8 C202.5,184.3 202.5,184.3 202.5,181.5 C202.5,179 201.9,178.5 197.3,176.9 C187.3,173.6 177.6,175.2 170.4,181.3 C155.4,194.2 160.5,217.8 179.5,223.6 C183.8,224.9 193,224.6 197.8,222.9 Z M227.5,204.5 L227.5,185.5 L231.3,183.9 C236.2,181.8 245.3,182.4 247.1,185 C248.2,186.4 248.5,191.4 248.5,205.2 L248.5,223.5 L254,223.5 L259.5,223.5 L259.5,204.9 C259.5,188.3 259.7,186.1 261.3,184.9 C262.9,183.7 262.8,183.6 260.7,183.5 C259.4,183.5 256.8,181.8 254.6,179.5 C249.7,174.3 245,174 238.4,178.5 C235.8,180.3 232.7,181.5 230.8,181.5 C227.9,181.5 227.5,181.2 227.5,179 C227.5,176.7 227.2,176.5 222.5,176.5 L217.5,176.5 L217.5,191.8 C217.4,200.1 217.3,210.7 217.2,215.3 L217,223.5 L222.3,223.5 L227.5,223.5 L227.5,204.5 Z M291.3,204.8 C290.9,184.4 290.3,181.9 284.9,177.6 C280.8,174.4 275.9,174.9 269.7,179 C266.9,181 264.5,182.7 264.5,182.8 C264.5,182.9 267.4,183 271,183 C274.9,183 277.9,183.5 278.7,184.3 C279.7,185.2 280.1,190.7 280.3,204.5 L280.6,223.5 L286.2,223.5 L291.7,223.5 L291.3,204.8 L291.3,204.8 Z" id="Shape" fill="#51A9C6"></path>
            <path d="M184,321.4 C165.5,319 141.3,309.3 126.9,298.4 C102.2,279.9 85.3,253.2 78.8,222.5 C76,209 76.4,186.1 79.8,172.5 C85.7,148.4 94.8,131.5 110.8,114.8 C135.9,88.6 169.8,75 205,76.8 C237.4,78.5 265.7,91.4 288.1,114.7 C304.5,131.7 314.3,150.2 319.7,174.3 C322.6,187.1 322.8,209.8 320.1,222.5 C315,246.8 303.8,268.1 287.1,285 C275.9,296.4 267.3,302.6 253.1,309.5 C230.9,320.4 207.7,324.4 184,321.4 L184,321.4 Z M222,307.6 C264.6,298.8 298.7,264.7 307.5,222.1 C314.5,188.4 306,154.5 284.1,128.4 C247.3,84.5 182.4,76 135.8,109.2 C112.6,125.6 96.7,150.2 91,178.5 C88.5,190.5 88.7,209.2 91.3,221.6 C100.5,264.8 134,298.5 176.5,307.6 C188.4,310.1 210,310.1 222,307.6 Z" id="Shape" fill="#FFFFFF"></path>
            <path d="M109.8,225.6 C100.9,220 99.4,206.4 106.9,198.9 C110.6,195.2 114.6,193.9 126.5,192.4 C131.2,191.8 135.1,191.2 135.3,191 C135.4,190.9 135.1,189.6 134.4,188.2 C132.3,183.6 123.4,182.4 114.1,185.4 C110.5,186.6 107.3,187.5 107,187.5 C106.7,187.5 106.5,184.5 106.7,180.8 L107,174 L113.5,172.8 C131.1,169.5 144.8,172.7 149.8,181.2 C151.4,184.1 151.7,187.1 152,205.5 L152.3,226.5 L143.4,226.5 C135.2,226.5 134.5,226.4 134.5,224.5 C134.5,222 134.1,222 130.4,224.7 C126,228 114.3,228.4 109.8,225.6 L109.8,225.6 Z M131.4,214.7 C134.5,213.1 134.8,212.7 134.9,207.7 C135,204.7 134.7,202.2 134.4,201.9 C133,201.1 123.1,203.6 121.3,205.2 C118.7,207.5 118.9,213 121.7,214.9 C124.6,217 127.2,216.9 131.4,214.7 Z" id="Shape" fill="#FFFFFF"></path>
            <path d="M176.5,226.6 C164.8,223 158.3,213.4 158.3,200 C158.4,186.9 165.3,176.5 176.2,173.4 C182.8,171.5 193.9,171.7 200.3,173.9 L205.5,175.7 L205.5,183.1 C205.5,187.7 205.1,190.5 204.4,190.5 C203.8,190.5 201.9,189.4 200.2,188.1 C198.4,186.7 194.9,185.1 192.3,184.5 C188.1,183.4 187.1,183.5 183.1,185.4 C177.8,188 175.5,192.2 175.5,199.4 C175.5,209.7 180.2,215.5 188.7,215.5 C194,215.5 199.2,213.7 201.4,211.2 C204.4,207.6 205.5,209.1 205.5,216.9 L205.5,224.3 L200.8,225.9 C195.9,227.6 181.1,228 176.5,226.6 Z" id="Path" fill="#FFFFFF"></path>
            <path d="M213.9,200.3 L214,174 L222.2,173.7 C230.2,173.4 230.4,173.5 230.7,175.9 L231,178.4 L235.3,175.5 C243.4,170.1 253.2,170.7 258.1,176.9 L260.8,180.2 L266.7,176.1 C272,172.5 273.3,172 278.5,172 C285.6,172 289,174.1 292.2,180.4 C294.2,184.3 294.4,186.1 294.5,205.6 L294.6,226.5 L286,226.5 L277.5,226.5 L277.5,209.1 C277.5,199.5 277.1,190.5 276.6,189.2 C275.3,185.8 270.7,184.9 266,187 L262.5,188.7 L262.5,207.6 L262.5,226.5 L254,226.5 L245.5,226.5 L245.5,208.4 C245.5,198.4 245.1,189.5 244.5,188.5 C243.1,185.8 238.5,185.2 234.2,187 L230.5,188.5 L230.5,207.5 L230.5,226.5 L222.2,226.5 L213.9,226.5 L213.9,200.3 L213.9,200.3 Z" id="Path" fill="#FFFFFF"></path>
        </g>
    </g>
</svg>