<?xml version="1.0" encoding="utf-8"?>
<!-- Generator: Adobe Illustrator 23.0.3, SVG Export Plug-In . SVG Version: 6.00 Build 0)  -->
<svg version="1.1" id="Layer_1" xmlns="http://www.w3.org/2000/svg" xmlns:xlink="http://www.w3.org/1999/xlink" x="0px" y="0px"
	 viewBox="0 0 284.15 123.99" enable-background="new 0 0 284.15 123.99" xml:space="preserve">
<g>
	<path fill="#242424" d="M7.34,95.64c-0.7-0.31-1.32-0.72-1.84-1.25c-0.53-0.53-0.94-1.14-1.25-1.84c-0.31-0.7-0.46-1.46-0.46-2.28
		c0-0.82,0.15-1.58,0.46-2.28c0.31-0.7,0.72-1.32,1.25-1.84c0.53-0.53,1.14-0.94,1.84-1.25c0.7-0.31,1.46-0.46,2.28-0.46h26.62
		c0.58,0,1.08,0.2,1.49,0.61c0.41,0.41,0.61,0.91,0.61,1.49c0,0.59-0.2,1.08-0.61,1.49c-0.41,0.41-0.91,0.61-1.49,0.61H9.53
		c-0.44,0-0.83,0.15-1.16,0.46c-0.34,0.31-0.5,0.69-0.5,1.16c0,0.44,0.17,0.82,0.5,1.14c0.34,0.32,0.72,0.48,1.16,0.48h24.25
		c0.82,0,1.59,0.15,2.3,0.46c0.72,0.31,1.34,0.72,1.86,1.25s0.94,1.15,1.25,1.86c0.31,0.72,0.46,1.48,0.46,2.3
		c0,0.82-0.15,1.58-0.46,2.28c-0.31,0.7-0.72,1.32-1.25,1.84c-0.53,0.53-1.15,0.94-1.86,1.23c-0.72,0.29-1.48,0.44-2.3,0.44H7.21
		c-0.58,0-1.08-0.2-1.49-0.61c-0.41-0.41-0.61-0.91-0.61-1.49c0-0.58,0.2-1.08,0.61-1.49c0.41-0.41,0.91-0.61,1.49-0.61h26.75
		c0.44,0,0.82-0.15,1.14-0.46c0.32-0.31,0.48-0.68,0.48-1.12c0-0.47-0.16-0.86-0.48-1.18c-0.32-0.32-0.7-0.48-1.14-0.48H9.62
		C8.8,96.1,8.04,95.95,7.34,95.64z"/>
	<path fill="#242424" d="M54.17,102.94c-0.41,0.41-0.91,0.61-1.49,0.61c-0.58,0-1.08-0.2-1.49-0.61c-0.41-0.41-0.61-0.91-0.61-1.49
		V86.54c0-0.58,0.2-1.08,0.61-1.49c0.41-0.41,0.91-0.61,1.49-0.61c0.58,0,1.08,0.2,1.49,0.61c0.41,0.41,0.61,0.91,0.61,1.49v14.91
		C54.78,102.03,54.58,102.53,54.17,102.94z"/>
	<path fill="#242424" d="M76.4,93.99c0-0.58,0.2-1.08,0.61-1.49c0.41-0.41,0.91-0.61,1.49-0.61H95.3c0.73,0,1.42,0.14,2.06,0.42
		c0.64,0.28,1.21,0.66,1.69,1.14s0.85,1.05,1.12,1.71c0.26,0.66,0.39,1.35,0.39,2.08v0.96c0,0.73-0.13,1.43-0.39,2.08
		c-0.26,0.66-0.64,1.23-1.12,1.71s-1.05,0.86-1.69,1.14s-1.33,0.42-2.06,0.42H72.45c-1.2,0-2.27-0.29-3.2-0.88
		c-0.94-0.58-1.73-1.34-2.39-2.26s-1.16-1.95-1.51-3.09c-0.35-1.14-0.53-2.25-0.53-3.33c0-1.11,0.18-2.23,0.55-3.35
		c0.37-1.13,0.9-2.15,1.6-3.07c0.7-0.92,1.55-1.67,2.54-2.26c0.99-0.58,2.12-0.88,3.38-0.88h25.56c0.58,0,1.08,0.2,1.49,0.61
		c0.41,0.41,0.61,0.91,0.61,1.49c0,0.59-0.21,1.08-0.61,1.49c-0.41,0.41-0.91,0.61-1.49,0.61h-24.6c-1.02,0-1.85,0.18-2.48,0.55
		c-0.63,0.37-1.13,0.81-1.49,1.34c-0.37,0.53-0.61,1.1-0.75,1.73c-0.13,0.63-0.2,1.21-0.2,1.73c0,0.53,0.07,1.1,0.2,1.73
		c0.13,0.63,0.38,1.21,0.75,1.73c0.37,0.53,0.86,0.97,1.49,1.34c0.63,0.37,1.45,0.55,2.48,0.55h21.27c0.35,0,0.66-0.16,0.94-0.48
		c0.28-0.32,0.42-0.7,0.42-1.14s-0.12-0.82-0.37-1.14c-0.25-0.32-0.58-0.48-0.99-0.48H78.51c-0.59,0-1.08-0.2-1.49-0.61
		C76.6,95.08,76.4,94.58,76.4,93.99z"/>
	<path fill="#242424" d="M114.15,95.64c-0.7-0.31-1.32-0.72-1.84-1.25c-0.53-0.53-0.94-1.14-1.25-1.84
		c-0.31-0.7-0.46-1.46-0.46-2.28c0-0.82,0.15-1.58,0.46-2.28c0.31-0.7,0.72-1.32,1.25-1.84c0.53-0.53,1.14-0.94,1.84-1.25
		c0.7-0.31,1.46-0.46,2.28-0.46h26.62c0.58,0,1.08,0.2,1.49,0.61c0.41,0.41,0.61,0.91,0.61,1.49c0,0.59-0.2,1.08-0.61,1.49
		c-0.41,0.41-0.91,0.61-1.49,0.61h-26.7c-0.44,0-0.83,0.15-1.16,0.46c-0.34,0.31-0.5,0.69-0.5,1.16c0,0.44,0.17,0.82,0.5,1.14
		c0.34,0.32,0.72,0.48,1.16,0.48h24.25c0.82,0,1.58,0.15,2.3,0.46c0.72,0.31,1.34,0.72,1.86,1.25s0.94,1.15,1.25,1.86
		s0.46,1.48,0.46,2.3c0,0.82-0.15,1.58-0.46,2.28c-0.31,0.7-0.72,1.32-1.25,1.84c-0.53,0.53-1.15,0.94-1.86,1.23
		c-0.72,0.29-1.48,0.44-2.3,0.44h-26.57c-0.58,0-1.08-0.2-1.49-0.61c-0.41-0.41-0.61-0.91-0.61-1.49c0-0.58,0.2-1.08,0.61-1.49
		c0.41-0.41,0.91-0.61,1.49-0.61h26.75c0.44,0,0.82-0.15,1.14-0.46c0.32-0.31,0.48-0.68,0.48-1.12c0-0.47-0.16-0.86-0.48-1.18
		c-0.32-0.32-0.7-0.48-1.14-0.48h-24.33C115.61,96.1,114.85,95.95,114.15,95.64z"/>
	<path fill="#242424" d="M191.33,93.99c0,1.11-0.18,2.23-0.55,3.35c-0.37,1.13-0.9,2.15-1.6,3.07c-0.7,0.92-1.55,1.67-2.54,2.26
		c-0.99,0.58-2.12,0.88-3.38,0.88h-19.99c-1.2-0.06-2.27-0.39-3.2-0.99c-0.94-0.6-1.73-1.35-2.39-2.26
		c-0.66-0.91-1.16-1.91-1.51-3.03c-0.35-1.11-0.53-2.21-0.53-3.29c0-1.11,0.18-2.23,0.55-3.35c0.37-1.13,0.9-2.15,1.6-3.07
		c0.7-0.92,1.55-1.67,2.54-2.26c0.99-0.58,2.12-0.88,3.38-0.88h19.99c1.2,0.06,2.26,0.39,3.2,0.99c0.93,0.6,1.73,1.35,2.39,2.26
		c0.66,0.91,1.16,1.92,1.51,3.03C191.15,91.82,191.33,92.91,191.33,93.99z M184.79,98.8c0.64-0.37,1.15-0.81,1.51-1.34
		c0.37-0.53,0.61-1.1,0.75-1.73c0.13-0.63,0.2-1.21,0.2-1.73c0-0.53-0.07-1.1-0.2-1.73c-0.13-0.63-0.38-1.21-0.75-1.73
		s-0.87-0.97-1.51-1.34c-0.64-0.37-1.46-0.55-2.46-0.55h-17.71c-1.02,0-1.85,0.18-2.48,0.55c-0.63,0.37-1.13,0.81-1.49,1.34
		c-0.37,0.53-0.61,1.1-0.75,1.73c-0.13,0.63-0.2,1.21-0.2,1.73c0,0.53,0.07,1.1,0.2,1.73c0.13,0.63,0.38,1.21,0.75,1.73
		c0.37,0.53,0.86,0.97,1.49,1.34c0.63,0.37,1.45,0.55,2.48,0.55h17.71C183.33,99.34,184.15,99.16,184.79,98.8z"/>
	<path fill="#242424" d="M201.08,90.64c0.37-1.13,0.9-2.15,1.6-3.07c0.7-0.92,1.55-1.67,2.54-2.26c0.99-0.58,2.12-0.88,3.38-0.88
		h25.13c0.58,0,1.08,0.2,1.49,0.61c0.41,0.41,0.61,0.91,0.61,1.49c0,0.59-0.2,1.08-0.61,1.49c-0.41,0.41-0.91,0.61-1.49,0.61h-24.2
		c-0.96,0-1.75,0.16-2.37,0.48c-0.61,0.32-1.1,0.74-1.45,1.25c-0.35,0.51-0.59,1.06-0.72,1.64c-0.13,0.59-0.21,1.14-0.24,1.67v7.76
		c0,0.58-0.2,1.08-0.61,1.49c-0.41,0.41-0.91,0.61-1.49,0.61s-1.08-0.2-1.49-0.61c-0.41-0.41-0.61-0.91-0.61-1.49v-7.45
		C200.53,92.88,200.72,91.77,201.08,90.64z M234.21,92.5c0.41,0.41,0.61,0.91,0.61,1.49c0,0.59-0.21,1.08-0.61,1.49
		c-0.41,0.41-0.91,0.61-1.49,0.61H210c-0.58,0-1.08-0.2-1.49-0.61c-0.41-0.41-0.61-0.91-0.61-1.49c0-0.58,0.2-1.08,0.61-1.49
		c0.41-0.41,0.91-0.61,1.49-0.61h22.71C233.3,91.89,233.8,92.09,234.21,92.5z"/>
	<path fill="#242424" d="M278.1,84.44c0.58,0,1.08,0.2,1.49,0.61c0.41,0.41,0.61,0.91,0.61,1.49c0,0.56-0.19,1.03-0.57,1.43
		c-0.38,0.39-0.83,0.62-1.36,0.68h-8.81c-0.88,0.06-1.6,0.27-2.17,0.64c-0.57,0.37-1.02,0.81-1.34,1.34
		c-0.32,0.53-0.54,1.1-0.66,1.71c-0.12,0.61-0.18,1.17-0.18,1.67v7.45c0,0.58-0.21,1.08-0.61,1.49c-0.41,0.41-0.91,0.61-1.49,0.61
		c-0.58,0-1.08-0.2-1.49-0.61c-0.41-0.41-0.61-0.91-0.61-1.49v-7.45c0-0.91,0.12-1.82,0.35-2.74c0.23-0.92,0.58-1.79,1.05-2.61
		h-14.38c-0.58,0-1.08-0.2-1.49-0.61c-0.41-0.41-0.61-0.91-0.61-1.49c0-0.58,0.2-1.08,0.61-1.49c0.41-0.41,0.91-0.61,1.49-0.61
		H278.1z"/>
</g>
<g>
	<path fill="#717171" d="M6.84,115.76c-0.78-0.01-1.37-0.23-1.77-0.65c-0.32-0.34-0.47-0.73-0.45-1.18c0.03-0.55,0.25-1.02,0.67-1.4
		c0.42-0.38,0.92-0.57,1.5-0.57c0.51,0,0.97,0.11,1.38,0.32c0.48,0.25,0.79,0.62,0.92,1.11c0.02,0.08,0.01,0.15-0.03,0.22
		c-0.04,0.07-0.1,0.11-0.18,0.13c-0.08,0.02-0.15,0.01-0.22-0.03c-0.07-0.04-0.11-0.1-0.13-0.18c-0.09-0.34-0.32-0.6-0.68-0.77
		c-0.31-0.15-0.66-0.22-1.05-0.22c-0.43,0-0.79,0.14-1.1,0.41s-0.47,0.61-0.49,1.01c-0.01,0.28,0.08,0.53,0.29,0.75
		c0.28,0.3,0.73,0.46,1.35,0.47c0.08,0,0.15,0.03,0.21,0.09c0.06,0.06,0.08,0.13,0.08,0.21c0,0.08-0.03,0.15-0.09,0.2
		C6.99,115.73,6.92,115.76,6.84,115.76L6.84,115.76z M5.55,118.65c-0.48-0.26-0.79-0.63-0.92-1.11c-0.02-0.07-0.01-0.15,0.03-0.22
		c0.04-0.07,0.1-0.11,0.18-0.13c0.07-0.02,0.15-0.01,0.22,0.03c0.07,0.04,0.11,0.1,0.13,0.18c0.09,0.34,0.32,0.6,0.68,0.78
		c0.31,0.15,0.66,0.22,1.05,0.22c0.43,0,0.79-0.14,1.1-0.41s0.47-0.61,0.49-1c0.01-0.28-0.08-0.53-0.29-0.75
		c-0.28-0.3-0.73-0.46-1.35-0.47c-0.08,0-0.15-0.03-0.21-0.09s-0.08-0.13-0.08-0.21c0-0.08,0.03-0.15,0.09-0.21
		c0.06-0.06,0.12-0.08,0.21-0.08c0.78,0.01,1.37,0.23,1.77,0.65c0.32,0.34,0.47,0.73,0.44,1.17c-0.02,0.55-0.24,1.02-0.66,1.4
		c-0.42,0.38-0.92,0.57-1.5,0.57C6.41,118.97,5.96,118.86,5.55,118.65z"/>
	<path fill="#717171" d="M13.48,111.96c0.57,0,1.06,0.19,1.46,0.56c0.4,0.37,0.6,0.82,0.6,1.34c0,0.5-0.19,0.94-0.57,1.31
		c-0.38,0.36-0.84,0.56-1.38,0.59c-0.02,0-0.03,0-0.04,0H13.5c-0.01,0-0.01,0-0.02,0c0.01,0,0,0-0.01,0h-1.92v2.91
		c0,0.08-0.03,0.15-0.09,0.21c-0.06,0.06-0.12,0.09-0.21,0.09s-0.15-0.03-0.21-0.09c-0.06-0.06-0.09-0.12-0.09-0.21v-6.42
		c0-0.08,0.03-0.15,0.09-0.21c0.06-0.06,0.12-0.09,0.21-0.09H13.48z M13.52,115.19c0.4-0.01,0.74-0.14,1.02-0.4
		c0.28-0.26,0.42-0.56,0.42-0.92c0-0.36-0.15-0.68-0.43-0.93s-0.64-0.39-1.04-0.39h-1.93v2.64H13.52z"/>
	<path fill="#717171" d="M17.56,118.97c-0.08,0-0.15-0.03-0.21-0.09c-0.06-0.06-0.09-0.12-0.09-0.21v-6.43
		c0-0.08,0.03-0.15,0.09-0.21c0.06-0.06,0.13-0.09,0.21-0.09l3.88,0.01c0.08,0,0.15,0.03,0.21,0.09c0.06,0.06,0.09,0.13,0.09,0.21
		c0,0.08-0.03,0.15-0.09,0.21c-0.06,0.06-0.12,0.08-0.21,0.08l-3.58-0.01v2.63h2.68c0.08,0,0.15,0.03,0.21,0.09
		c0.06,0.06,0.09,0.12,0.09,0.21s-0.03,0.15-0.09,0.21c-0.06,0.06-0.12,0.09-0.21,0.09h-2.68v2.63h3.58c0.08,0,0.15,0.03,0.21,0.09
		c0.06,0.06,0.09,0.12,0.09,0.21s-0.03,0.15-0.09,0.21c-0.06,0.06-0.12,0.09-0.21,0.09H17.56z"/>
	<path fill="#717171" d="M26.55,118.97c-0.97,0-1.79-0.34-2.48-1.03c-0.69-0.68-1.03-1.51-1.03-2.48c0-0.97,0.34-1.8,1.03-2.48
		c0.68-0.69,1.51-1.03,2.48-1.03c0.8,0,1.51,0.24,2.14,0.73c0.06,0.05,0.1,0.11,0.11,0.2s-0.01,0.15-0.06,0.21
		c-0.05,0.06-0.11,0.1-0.2,0.11c-0.08,0.01-0.15-0.01-0.21-0.06c-0.52-0.4-1.12-0.6-1.78-0.6c-0.8,0-1.49,0.28-2.06,0.85
		s-0.85,1.26-0.85,2.07c0,0.8,0.28,1.49,0.85,2.06s1.26,0.85,2.06,0.85c0.76,0,1.41-0.25,1.97-0.76c0.06-0.06,0.13-0.08,0.21-0.08
		s0.15,0.04,0.21,0.1c0.06,0.06,0.08,0.13,0.08,0.21s-0.04,0.15-0.1,0.21C28.24,118.67,27.46,118.97,26.55,118.97z"/>
	<path fill="#717171" d="M31.33,118.68c0,0.08-0.03,0.15-0.09,0.21c-0.06,0.06-0.12,0.09-0.21,0.09s-0.15-0.03-0.21-0.09
		c-0.06-0.06-0.09-0.12-0.09-0.21v-6.4c0-0.08,0.03-0.15,0.09-0.21c0.06-0.06,0.12-0.09,0.21-0.09s0.15,0.03,0.21,0.09
		c0.06,0.06,0.09,0.12,0.09,0.21V118.68z"/>
	<path fill="#717171" d="M33.33,118.95c-0.07-0.03-0.13-0.08-0.16-0.16c-0.03-0.07-0.03-0.15,0-0.22l0.68-1.64v0l1.98-4.77
		c0.01-0.02,0.01-0.03,0.02-0.05l0.02-0.02c0.01-0.01,0.02-0.02,0.02-0.02s0.01-0.01,0.02-0.02c0.02-0.01,0.02-0.02,0.02-0.01
		c0.03-0.02,0.07-0.04,0.1-0.04h0.02c0.02,0,0.03,0,0.03,0s0.01,0,0.03,0c0.02,0,0.03,0,0.02,0c0.04,0.01,0.07,0.02,0.11,0.04
		l0.02,0.01c0.01,0.01,0.02,0.02,0.02,0.02c0,0,0.01,0.01,0.02,0.02c0.01,0.02,0.02,0.02,0.02,0.02c0.01,0.02,0.02,0.04,0.02,0.05
		l1.98,4.77v0l0.68,1.64c0.03,0.07,0.03,0.15,0,0.22c-0.03,0.07-0.08,0.13-0.16,0.16c-0.04,0.02-0.07,0.02-0.11,0.02
		c-0.13,0-0.22-0.06-0.27-0.18l-0.61-1.46h-3.56l-0.61,1.46c-0.05,0.12-0.14,0.18-0.27,0.18c-0.04,0-0.06,0-0.06,0
		S33.37,118.96,33.33,118.95z M37.64,116.75l-1.54-3.72l-1.54,3.72H37.64z"/>
	<path fill="#717171" d="M40.88,111.98c0.08,0,0.15,0.03,0.21,0.09c0.06,0.06,0.08,0.12,0.08,0.21v6.11h3.17
		c0.08,0,0.15,0.03,0.21,0.08c0.06,0.06,0.09,0.13,0.09,0.21c0,0.08-0.03,0.15-0.09,0.21c-0.06,0.06-0.12,0.08-0.21,0.08h-3.46
		c-0.08,0-0.15-0.03-0.21-0.08c-0.06-0.06-0.08-0.13-0.08-0.21v-6.4c0-0.08,0.03-0.15,0.08-0.21
		C40.73,112.01,40.8,111.98,40.88,111.98z"/>
	<path fill="#717171" d="M49.12,118.68c0,0.08-0.03,0.15-0.09,0.21c-0.06,0.06-0.12,0.09-0.21,0.09s-0.15-0.03-0.21-0.09
		c-0.06-0.06-0.09-0.12-0.09-0.21v-6.4c0-0.08,0.03-0.15,0.09-0.21c0.06-0.06,0.12-0.09,0.21-0.09s0.15,0.03,0.21,0.09
		c0.06,0.06,0.09,0.12,0.09,0.21V118.68z"/>
	<path fill="#717171" d="M56.35,118.87L56.35,118.87L56.35,118.87l-4.48-5.77v5.58c0,0.08-0.03,0.15-0.09,0.21
		c-0.06,0.06-0.12,0.09-0.21,0.09s-0.15-0.03-0.21-0.09c-0.06-0.06-0.09-0.12-0.09-0.21v-6.43c0-0.14,0.06-0.23,0.2-0.28
		c0.13-0.05,0.24-0.01,0.33,0.1l4.47,5.76v-5.58c0-0.08,0.03-0.15,0.08-0.21c0.06-0.06,0.13-0.09,0.21-0.09
		c0.08,0,0.15,0.03,0.21,0.09c0.06,0.06,0.08,0.12,0.08,0.21v6.43c0-0.01,0,0,0,0.02c0,0.01,0,0.02,0,0.03c0,0.01,0,0.01,0,0.02
		c0,0.01-0.01,0.02-0.01,0.03s-0.01,0.01-0.01,0.02s-0.01,0.02-0.01,0.02c0,0.01-0.01,0.01-0.01,0.02s-0.01,0.02-0.02,0.02
		c0,0-0.01,0.01-0.02,0.02c-0.02,0.01-0.02,0.02-0.01,0.01c0.01,0,0,0-0.01,0.01c0,0-0.01,0.01-0.01,0.01
		c-0.01,0.01-0.02,0.01-0.03,0.01c-0.01,0-0.01,0.01-0.02,0.01c-0.01,0-0.02,0.01-0.03,0.01c-0.01,0-0.02,0-0.02,0
		c-0.02,0-0.04,0-0.05,0c-0.02,0-0.04,0-0.06,0l-0.02,0c-0.02-0.01-0.03-0.01-0.04-0.01c0,0-0.01-0.01-0.02-0.01
		c-0.01-0.01-0.02-0.01-0.03-0.02c0,0-0.01-0.01-0.02-0.01c-0.01-0.01-0.01-0.01-0.01-0.01S56.36,118.88,56.35,118.87z"/>
	<path fill="#717171" d="M60.51,112.55h-1.93c-0.08,0-0.15-0.03-0.21-0.08c-0.06-0.06-0.08-0.12-0.08-0.21s0.03-0.15,0.08-0.21
		c0.06-0.06,0.13-0.09,0.21-0.09h4.44c0.08,0,0.15,0.03,0.21,0.09c0.06,0.06,0.09,0.12,0.09,0.21s-0.03,0.15-0.09,0.21
		c-0.06,0.06-0.12,0.08-0.21,0.08h-1.93v6.13c0,0.08-0.03,0.15-0.08,0.21c-0.06,0.06-0.13,0.08-0.21,0.08
		c-0.08,0-0.15-0.03-0.21-0.08c-0.06-0.06-0.08-0.13-0.08-0.21V112.55z"/>
	<path fill="#717171" d="M64.96,118.97c-0.08,0-0.15-0.03-0.21-0.09c-0.06-0.06-0.09-0.12-0.09-0.21v-6.43
		c0-0.08,0.03-0.15,0.09-0.21c0.06-0.06,0.13-0.09,0.21-0.09l3.88,0.01c0.08,0,0.15,0.03,0.21,0.09c0.06,0.06,0.09,0.13,0.09,0.21
		c0,0.08-0.03,0.15-0.09,0.21c-0.06,0.06-0.12,0.08-0.21,0.08l-3.58-0.01v2.63h2.68c0.08,0,0.15,0.03,0.21,0.09
		c0.06,0.06,0.09,0.12,0.09,0.21s-0.03,0.15-0.09,0.21c-0.06,0.06-0.12,0.09-0.21,0.09h-2.68v2.63h3.58c0.08,0,0.15,0.03,0.21,0.09
		c0.06,0.06,0.09,0.12,0.09,0.21s-0.03,0.15-0.09,0.21c-0.06,0.06-0.12,0.09-0.21,0.09H64.96z"/>
	<path fill="#717171" d="M73.35,111.98c0.56,0,1.04,0.18,1.45,0.55c0.4,0.37,0.6,0.81,0.6,1.33c0,0.46-0.16,0.87-0.49,1.22
		c-0.32,0.35-0.72,0.56-1.21,0.63l1.39,2.84c0.04,0.07,0.04,0.15,0.01,0.22s-0.07,0.13-0.15,0.17c-0.04,0.02-0.08,0.03-0.13,0.03
		c-0.12,0-0.21-0.05-0.26-0.16l-1.51-3.06h-1.63v2.89c0,0.08-0.03,0.15-0.09,0.21c-0.06,0.06-0.12,0.08-0.21,0.08
		c-0.08,0-0.15-0.03-0.21-0.08c-0.06-0.06-0.08-0.13-0.08-0.21v-6.37c0-0.08,0.03-0.15,0.08-0.21c0.06-0.06,0.13-0.08,0.21-0.08
		H73.35z M74.81,113.86c0-0.36-0.14-0.67-0.43-0.92c-0.29-0.26-0.63-0.39-1.04-0.39h-1.92v2.61h1.95c0.4-0.01,0.73-0.14,1.01-0.39
		C74.67,114.52,74.81,114.22,74.81,113.86z"/>
	<path fill="#717171" d="M77.5,118.97c-0.08,0-0.15-0.03-0.21-0.09c-0.06-0.06-0.09-0.12-0.09-0.21v-6.43
		c0-0.08,0.03-0.15,0.09-0.21c0.06-0.06,0.13-0.09,0.21-0.09l3.88,0.01c0.08,0,0.15,0.03,0.21,0.09c0.06,0.06,0.09,0.13,0.09,0.21
		c0,0.08-0.03,0.15-0.09,0.21c-0.06,0.06-0.12,0.08-0.21,0.08l-3.58-0.01v2.63h2.68c0.08,0,0.15,0.03,0.21,0.09
		c0.06,0.06,0.09,0.12,0.09,0.21s-0.03,0.15-0.09,0.21c-0.06,0.06-0.12,0.09-0.21,0.09H77.8v2.63h3.58c0.08,0,0.15,0.03,0.21,0.09
		c0.06,0.06,0.09,0.12,0.09,0.21s-0.03,0.15-0.09,0.21c-0.06,0.06-0.12,0.09-0.21,0.09H77.5z"/>
	<path fill="#717171" d="M85.38,115.76c-0.78-0.01-1.37-0.23-1.77-0.65c-0.32-0.34-0.47-0.73-0.45-1.18
		c0.03-0.55,0.25-1.02,0.67-1.4c0.42-0.38,0.92-0.57,1.5-0.57c0.51,0,0.97,0.11,1.38,0.32c0.48,0.25,0.79,0.62,0.92,1.11
		c0.02,0.08,0.01,0.15-0.03,0.22c-0.04,0.07-0.1,0.11-0.18,0.13c-0.08,0.02-0.15,0.01-0.22-0.03c-0.07-0.04-0.11-0.1-0.13-0.18
		c-0.09-0.34-0.32-0.6-0.68-0.77c-0.31-0.15-0.66-0.22-1.05-0.22c-0.43,0-0.79,0.14-1.1,0.41s-0.47,0.61-0.49,1.01
		c-0.01,0.28,0.08,0.53,0.29,0.75c0.28,0.3,0.73,0.46,1.35,0.47c0.08,0,0.15,0.03,0.21,0.09c0.06,0.06,0.08,0.13,0.08,0.21
		c0,0.08-0.03,0.15-0.09,0.2C85.53,115.73,85.46,115.76,85.38,115.76L85.38,115.76z M84.09,118.65c-0.48-0.26-0.79-0.63-0.92-1.11
		c-0.02-0.07-0.01-0.15,0.03-0.22c0.04-0.07,0.1-0.11,0.18-0.13c0.07-0.02,0.15-0.01,0.22,0.03c0.07,0.04,0.11,0.1,0.13,0.18
		c0.09,0.34,0.32,0.6,0.68,0.78c0.31,0.15,0.66,0.22,1.05,0.22c0.43,0,0.79-0.14,1.1-0.41s0.47-0.61,0.49-1
		c0.01-0.28-0.08-0.53-0.29-0.75c-0.28-0.3-0.73-0.46-1.35-0.47c-0.08,0-0.15-0.03-0.21-0.09s-0.08-0.13-0.08-0.21
		c0-0.08,0.03-0.15,0.09-0.21c0.06-0.06,0.12-0.08,0.21-0.08c0.78,0.01,1.37,0.23,1.77,0.65c0.32,0.34,0.47,0.73,0.44,1.17
		c-0.02,0.55-0.24,1.02-0.66,1.4c-0.42,0.38-0.92,0.57-1.5,0.57C84.95,118.97,84.49,118.86,84.09,118.65z"/>
	<path fill="#717171" d="M91.1,112.55h-1.93c-0.08,0-0.15-0.03-0.21-0.08c-0.06-0.06-0.08-0.12-0.08-0.21s0.03-0.15,0.08-0.21
		c0.06-0.06,0.13-0.09,0.21-0.09h4.44c0.08,0,0.15,0.03,0.21,0.09c0.06,0.06,0.09,0.12,0.09,0.21s-0.03,0.15-0.09,0.21
		c-0.06,0.06-0.12,0.08-0.21,0.08h-1.93v6.13c0,0.08-0.03,0.15-0.08,0.21c-0.06,0.06-0.13,0.08-0.21,0.08
		c-0.08,0-0.15-0.03-0.21-0.08c-0.06-0.06-0.08-0.13-0.08-0.21V112.55z"/>
	<path fill="#717171" d="M98.24,117.94c-0.69-0.68-1.03-1.51-1.03-2.48s0.34-1.79,1.03-2.48c0.68-0.68,1.51-1.03,2.48-1.03
		c0.79,0,1.51,0.24,2.13,0.72c0.06,0.05,0.1,0.12,0.11,0.2c0.01,0.08-0.01,0.15-0.06,0.22c-0.05,0.06-0.11,0.1-0.2,0.11
		c-0.08,0.01-0.15-0.01-0.21-0.06c-0.52-0.4-1.12-0.61-1.78-0.61c-0.8,0-1.49,0.29-2.06,0.86c-0.57,0.57-0.85,1.26-0.85,2.06
		s0.28,1.49,0.85,2.06s1.26,0.85,2.06,0.85c0.76,0,1.41-0.25,1.96-0.76c0.06-0.06,0.13-0.08,0.21-0.08s0.15,0.04,0.21,0.1
		c0.05,0.06,0.08,0.13,0.07,0.21s-0.03,0.15-0.09,0.21c-0.67,0.61-1.46,0.91-2.36,0.91C99.75,118.97,98.92,118.63,98.24,117.94z
		 M102.72,118.88c-0.06-0.06-0.08-0.12-0.08-0.21v-3.1h-2.45c-0.08,0-0.15-0.03-0.21-0.08c-0.06-0.06-0.09-0.13-0.09-0.21
		s0.03-0.15,0.09-0.21c0.06-0.06,0.13-0.09,0.21-0.09h2.74c0.08,0,0.15,0.03,0.21,0.09c0.06,0.06,0.08,0.12,0.08,0.21v3.39
		c0,0.08-0.03,0.15-0.08,0.21c-0.06,0.06-0.13,0.09-0.21,0.09S102.78,118.94,102.72,118.88z"/>
	<path fill="#717171" d="M107.7,111.98c0.56,0,1.04,0.18,1.45,0.55c0.4,0.37,0.6,0.81,0.6,1.33c0,0.46-0.16,0.87-0.49,1.22
		c-0.32,0.35-0.72,0.56-1.21,0.63l1.39,2.84c0.04,0.07,0.04,0.15,0.01,0.22s-0.07,0.13-0.15,0.17c-0.04,0.02-0.08,0.03-0.13,0.03
		c-0.12,0-0.21-0.05-0.26-0.16l-1.51-3.06h-1.63v2.89c0,0.08-0.03,0.15-0.09,0.21c-0.06,0.06-0.12,0.08-0.21,0.08
		c-0.08,0-0.15-0.03-0.21-0.08c-0.06-0.06-0.08-0.13-0.08-0.21v-6.37c0-0.08,0.03-0.15,0.08-0.21c0.06-0.06,0.13-0.08,0.21-0.08
		H107.7z M109.16,113.86c0-0.36-0.14-0.67-0.43-0.92c-0.29-0.26-0.63-0.39-1.04-0.39h-1.92v2.61h1.95c0.4-0.01,0.73-0.14,1.01-0.39
		C109.02,114.52,109.16,114.22,109.16,113.86z"/>
	<path fill="#717171" d="M114.62,118.97c-0.97,0-1.79-0.34-2.48-1.03s-1.03-1.51-1.03-2.48s0.34-1.79,1.03-2.48s1.51-1.03,2.48-1.03
		s1.79,0.34,2.48,1.03s1.03,1.51,1.03,2.48s-0.34,1.79-1.03,2.48S115.58,118.97,114.62,118.97z M114.62,112.55
		c-0.8,0-1.49,0.29-2.06,0.86c-0.57,0.57-0.85,1.26-0.85,2.06s0.28,1.49,0.85,2.06s1.26,0.85,2.06,0.85s1.49-0.28,2.06-0.85
		c0.57-0.57,0.86-1.26,0.86-2.06s-0.29-1.49-0.86-2.06C116.11,112.84,115.42,112.55,114.62,112.55z"/>
	<path fill="#717171" d="M124.42,111.98c0.08,0,0.15,0.03,0.21,0.08c0.06,0.06,0.08,0.12,0.08,0.21v4.3c0,0.66-0.23,1.23-0.7,1.69
		s-1.03,0.7-1.69,0.7s-1.23-0.23-1.69-0.7s-0.7-1.03-0.7-1.69v-4.3c0-0.08,0.03-0.15,0.08-0.21s0.12-0.08,0.21-0.08
		c0.08,0,0.15,0.03,0.2,0.08s0.08,0.12,0.08,0.21v4.3c0,0.5,0.18,0.93,0.54,1.29c0.35,0.36,0.78,0.54,1.29,0.54
		c0.5,0,0.93-0.18,1.29-0.54c0.36-0.35,0.54-0.78,0.54-1.29v-4.3c0-0.08,0.03-0.15,0.08-0.21S124.34,111.98,124.42,111.98z"/>
	<path fill="#717171" d="M129.39,111.96c0.57,0,1.06,0.19,1.46,0.56c0.4,0.37,0.6,0.82,0.6,1.34c0,0.5-0.19,0.94-0.57,1.31
		c-0.38,0.36-0.84,0.56-1.38,0.59c-0.02,0-0.03,0-0.04,0h-0.06c-0.01,0-0.01,0-0.02,0c0.01,0,0,0-0.01,0h-1.92v2.91
		c0,0.08-0.03,0.15-0.09,0.21c-0.06,0.06-0.12,0.09-0.21,0.09s-0.15-0.03-0.21-0.09c-0.06-0.06-0.09-0.12-0.09-0.21v-6.42
		c0-0.08,0.03-0.15,0.09-0.21c0.06-0.06,0.12-0.09,0.21-0.09H129.39z M129.43,115.19c0.4-0.01,0.74-0.14,1.02-0.4
		c0.28-0.26,0.42-0.56,0.42-0.92c0-0.36-0.15-0.68-0.43-0.93s-0.64-0.39-1.04-0.39h-1.93v2.64H129.43z"/>
	<path fill="#717171" d="M138.98,118.97c-0.97,0-1.79-0.34-2.48-1.03s-1.03-1.51-1.03-2.48s0.34-1.79,1.03-2.48s1.51-1.03,2.48-1.03
		s1.79,0.34,2.48,1.03s1.03,1.51,1.03,2.48s-0.34,1.79-1.03,2.48S139.95,118.97,138.98,118.97z M138.98,112.55
		c-0.8,0-1.49,0.29-2.06,0.86c-0.57,0.57-0.85,1.26-0.85,2.06s0.28,1.49,0.85,2.06s1.26,0.85,2.06,0.85c0.8,0,1.49-0.28,2.06-0.85
		c0.57-0.57,0.86-1.26,0.86-2.06s-0.29-1.49-0.86-2.06C140.47,112.84,139.79,112.55,138.98,112.55z"/>
	<path fill="#717171" d="M149.47,118.87L149.47,118.87L149.47,118.87l-4.48-5.77v5.58c0,0.08-0.03,0.15-0.09,0.21
		c-0.06,0.06-0.12,0.09-0.21,0.09c-0.08,0-0.15-0.03-0.21-0.09c-0.06-0.06-0.09-0.12-0.09-0.21v-6.43c0-0.14,0.06-0.23,0.2-0.28
		c0.13-0.05,0.24-0.01,0.33,0.1l4.47,5.76v-5.58c0-0.08,0.03-0.15,0.08-0.21c0.06-0.06,0.13-0.09,0.2-0.09
		c0.08,0,0.15,0.03,0.21,0.09c0.05,0.06,0.08,0.12,0.08,0.21v6.43c0-0.01,0,0,0,0.02c0,0.01,0,0.02,0,0.03c0,0.01,0,0.01-0.01,0.02
		c0,0.01-0.01,0.02-0.01,0.03c0,0.01-0.01,0.01-0.01,0.02c0,0.01-0.01,0.02-0.01,0.02c0,0.01-0.01,0.01-0.02,0.02
		c-0.01,0.01-0.01,0.02-0.02,0.02c0,0-0.01,0.01-0.02,0.02c-0.02,0.01-0.02,0.02-0.01,0.01c0.01,0,0,0-0.01,0.01
		c0,0-0.01,0.01-0.02,0.01c-0.01,0.01-0.02,0.01-0.03,0.01c-0.01,0-0.01,0.01-0.02,0.01c-0.01,0-0.02,0.01-0.03,0.01
		c-0.01,0-0.02,0-0.02,0c-0.02,0-0.04,0-0.05,0c-0.02,0-0.04,0-0.06,0l-0.02,0c-0.02-0.01-0.03-0.01-0.04-0.01
		c0,0-0.01-0.01-0.02-0.01c-0.01-0.01-0.02-0.01-0.03-0.02c0,0-0.01-0.01-0.02-0.01c-0.01-0.01-0.01-0.01-0.01-0.01
		S149.48,118.88,149.47,118.87z"/>
	<path fill="#717171" d="M156.48,115.76c-0.78-0.01-1.37-0.23-1.77-0.65c-0.32-0.34-0.47-0.73-0.45-1.18
		c0.03-0.55,0.25-1.02,0.67-1.4c0.42-0.38,0.92-0.57,1.5-0.57c0.51,0,0.97,0.11,1.38,0.32c0.49,0.25,0.79,0.62,0.92,1.11
		c0.02,0.08,0.01,0.15-0.03,0.22c-0.04,0.07-0.1,0.11-0.18,0.13c-0.08,0.02-0.15,0.01-0.22-0.03c-0.07-0.04-0.11-0.1-0.13-0.18
		c-0.09-0.34-0.32-0.6-0.68-0.77c-0.31-0.15-0.66-0.22-1.05-0.22c-0.43,0-0.79,0.14-1.1,0.41s-0.47,0.61-0.49,1.01
		c-0.01,0.28,0.08,0.53,0.29,0.75c0.28,0.3,0.73,0.46,1.35,0.47c0.08,0,0.15,0.03,0.21,0.09c0.06,0.06,0.08,0.13,0.08,0.21
		c0,0.08-0.03,0.15-0.09,0.2C156.63,115.73,156.56,115.76,156.48,115.76L156.48,115.76z M155.19,118.65
		c-0.49-0.26-0.79-0.63-0.92-1.11c-0.02-0.07-0.01-0.15,0.03-0.22c0.04-0.07,0.1-0.11,0.18-0.13c0.08-0.02,0.15-0.01,0.22,0.03
		c0.07,0.04,0.11,0.1,0.13,0.18c0.09,0.34,0.32,0.6,0.68,0.78c0.31,0.15,0.66,0.22,1.05,0.22c0.43,0,0.79-0.14,1.1-0.41
		s0.47-0.61,0.49-1c0.01-0.28-0.08-0.53-0.29-0.75c-0.28-0.3-0.73-0.46-1.35-0.47c-0.08,0-0.15-0.03-0.21-0.09s-0.08-0.13-0.08-0.21
		c0-0.08,0.03-0.15,0.09-0.21c0.06-0.06,0.12-0.08,0.21-0.08c0.78,0.01,1.37,0.23,1.77,0.65c0.32,0.34,0.47,0.73,0.44,1.17
		c-0.02,0.55-0.24,1.02-0.66,1.4c-0.42,0.38-0.92,0.57-1.5,0.57C156.06,118.97,155.6,118.86,155.19,118.65z"/>
	<path fill="#717171" d="M163.64,118.97c-0.97,0-1.79-0.34-2.48-1.03s-1.03-1.51-1.03-2.48s0.34-1.79,1.03-2.48s1.51-1.03,2.48-1.03
		s1.79,0.34,2.48,1.03s1.03,1.51,1.03,2.48s-0.34,1.79-1.03,2.48S164.61,118.97,163.64,118.97z M163.64,112.55
		c-0.8,0-1.49,0.29-2.06,0.86c-0.57,0.57-0.85,1.26-0.85,2.06s0.29,1.49,0.85,2.06s1.26,0.85,2.06,0.85s1.49-0.28,2.06-0.85
		c0.57-0.57,0.86-1.26,0.86-2.06s-0.29-1.49-0.86-2.06C165.13,112.84,164.45,112.55,163.64,112.55z"/>
	<path fill="#717171" d="M169.65,118.68c0,0.08-0.03,0.15-0.09,0.21c-0.06,0.06-0.12,0.09-0.21,0.09s-0.15-0.03-0.21-0.09
		c-0.06-0.06-0.09-0.12-0.09-0.21v-6.43c0-0.08,0.03-0.15,0.09-0.21c0.06-0.06,0.13-0.09,0.21-0.09l3.88,0.01
		c0.08,0,0.15,0.03,0.21,0.09c0.06,0.06,0.09,0.13,0.09,0.21c0,0.08-0.03,0.15-0.09,0.21c-0.06,0.06-0.12,0.08-0.21,0.08l-3.58-0.01
		v2.63h2.68c0.08,0,0.15,0.03,0.21,0.09c0.06,0.06,0.09,0.12,0.09,0.21s-0.03,0.15-0.09,0.21c-0.06,0.06-0.12,0.09-0.21,0.09h-2.68
		V118.68z"/>
	<path fill="#717171" d="M176.42,112.55h-1.93c-0.08,0-0.15-0.03-0.21-0.08c-0.06-0.06-0.08-0.12-0.08-0.21s0.03-0.15,0.08-0.21
		c0.06-0.06,0.13-0.09,0.21-0.09h4.44c0.08,0,0.15,0.03,0.21,0.09c0.06,0.06,0.09,0.12,0.09,0.21s-0.03,0.15-0.09,0.21
		c-0.06,0.06-0.12,0.08-0.21,0.08H177v6.13c0,0.08-0.03,0.15-0.08,0.21c-0.06,0.06-0.13,0.08-0.21,0.08c-0.08,0-0.15-0.03-0.21-0.08
		c-0.06-0.06-0.08-0.13-0.08-0.21V112.55z"/>
	<path fill="#717171" d="M189.52,111.97c0.08,0.03,0.13,0.08,0.17,0.15c0.03,0.07,0.04,0.15,0.01,0.22l-2.26,6.43c0,0,0,0-0.01,0.02
		c0,0.01,0,0.01,0,0.01c-0.01,0.01-0.01,0.02-0.02,0.03v0l0,0c-0.01,0.01-0.02,0.03-0.03,0.04c0,0,0,0-0.01,0.01
		c-0.01,0.01-0.02,0.01-0.03,0.02c0,0-0.01,0.01-0.01,0.01c-0.01,0.01-0.02,0.01-0.03,0.02h0c0,0,0,0,0,0c0,0,0,0,0,0
		c-0.01,0-0.02,0.01-0.03,0.01c-0.01,0-0.02,0-0.01,0c-0.02,0-0.03,0-0.05,0c-0.01,0-0.03,0-0.04,0c0,0,0,0-0.01,0
		c-0.01,0-0.02-0.01-0.03-0.01c0,0,0,0,0,0c0,0,0,0,0,0c-0.02-0.01-0.03-0.01-0.04-0.02c-0.01,0-0.01-0.01-0.01-0.01
		c-0.01-0.01-0.02-0.01-0.03-0.02c-0.01-0.01-0.01-0.01-0.01-0.01c-0.01-0.01-0.03-0.03-0.04-0.04v0c0,0,0,0,0,0
		c-0.01-0.01-0.01-0.02-0.02-0.03c0,0,0-0.01-0.01-0.01c0-0.02,0-0.02,0-0.02l-1.98-5.64l-1.98,5.64c0,0,0,0-0.01,0.02
		c0,0.01,0,0.01,0,0.01c-0.01,0.01-0.01,0.02-0.02,0.03v0l0,0c-0.01,0.01-0.02,0.03-0.03,0.04c0,0,0,0-0.01,0.01
		c-0.01,0.01-0.02,0.01-0.03,0.02c-0.01,0-0.01,0.01-0.01,0.01c-0.01,0.01-0.03,0.01-0.04,0.02h0l0,0c0,0,0,0,0,0
		s-0.02,0.01-0.03,0.01c-0.01,0-0.02,0-0.01,0c-0.02,0-0.03,0-0.05,0c-0.01,0-0.03,0-0.04,0c0,0,0,0-0.01,0
		c-0.01,0-0.02-0.01-0.03-0.01c0,0,0,0,0,0l0,0h0c-0.01-0.01-0.03-0.01-0.04-0.02c-0.01,0-0.01-0.01-0.01-0.01
		c-0.01-0.01-0.02-0.01-0.03-0.02c-0.01-0.01-0.01-0.01-0.01-0.01c-0.01-0.01-0.02-0.03-0.03-0.04c0,0,0,0,0,0l0,0
		c-0.01-0.01-0.01-0.02-0.02-0.03c0,0,0-0.01,0-0.01c-0.01-0.02-0.01-0.02-0.01-0.02l-2.26-6.43c-0.03-0.08-0.03-0.15,0.01-0.22
		c0.04-0.07,0.09-0.13,0.17-0.15c0.08-0.03,0.15-0.02,0.22,0.01s0.12,0.09,0.15,0.17l1.98,5.64l1.98-5.64c0,0.01,0,0,0.01-0.01
		c0-0.01,0.01-0.02,0.01-0.03c0.01-0.01,0.01-0.01,0.01-0.02c0.01-0.01,0.01-0.02,0.02-0.02c0.01-0.01,0.01-0.02,0.02-0.02
		c0.01-0.01,0.01-0.01,0.02-0.02s0.01-0.01,0.02-0.02c0.01-0.01,0.02-0.01,0.03-0.01c0.01,0,0.01-0.01,0.02-0.01
		c0.02-0.01,0.03-0.01,0.01-0.01c-0.01,0,0,0,0.01,0c0.01,0,0.02-0.01,0.03-0.01c0.01,0,0.02,0,0.03,0c0.01,0,0.02,0,0.03,0
		s0.02,0,0.03,0c0,0,0.01,0,0.02,0c0.01,0,0.02,0.01,0.03,0.01c0.01,0,0.02,0,0.01,0l0,0c0,0,0.01,0,0.01,0
		c0.01,0,0.02,0.01,0.02,0.01c0.01,0.01,0.02,0.01,0.02,0.01c0.01,0.01,0.01,0.01,0.02,0.02c0.01,0.01,0.01,0.01,0.02,0.02
		s0.01,0.01,0.02,0.02s0.01,0.01,0.01,0.02c0.01,0.01,0.01,0.01,0.01,0.02c0.01,0.01,0.01,0.02,0.01,0.03
		c0.01,0.02,0.01,0.02,0,0.01l1.98,5.64l1.98-5.64c0.03-0.07,0.08-0.13,0.15-0.17c0.07-0.04,0.11-0.05,0.11-0.05
		S189.44,111.94,189.52,111.97z"/>
	<path fill="#717171" d="M191.01,118.95c-0.08-0.03-0.13-0.08-0.16-0.16c-0.03-0.07-0.03-0.15,0-0.22l0.68-1.64v0l1.98-4.77
		c0.01-0.02,0.01-0.03,0.02-0.05l0.02-0.02c0.01-0.01,0.02-0.02,0.02-0.02s0.01-0.01,0.02-0.02c0.02-0.01,0.02-0.02,0.02-0.01
		c0.03-0.02,0.07-0.04,0.1-0.04h0.02c0.02,0,0.03,0,0.03,0s0.01,0,0.03,0c0.02,0,0.03,0,0.02,0c0.04,0.01,0.08,0.02,0.11,0.04
		l0.02,0.01c0.01,0.01,0.02,0.02,0.02,0.02c0,0,0.01,0.01,0.02,0.02c0.01,0.02,0.02,0.02,0.02,0.02c0.01,0.02,0.02,0.04,0.02,0.05
		l1.98,4.77v0l0.68,1.64c0.03,0.07,0.03,0.15,0,0.22c-0.03,0.07-0.08,0.13-0.16,0.16c-0.04,0.02-0.07,0.02-0.11,0.02
		c-0.13,0-0.22-0.06-0.27-0.18l-0.61-1.46H192l-0.61,1.46c-0.05,0.12-0.14,0.18-0.27,0.18c-0.04,0-0.06,0-0.06,0
		S191.05,118.96,191.01,118.95z M195.32,116.75l-1.54-3.72l-1.54,3.72H195.32z"/>
	<path fill="#717171" d="M200.75,111.98c0.56,0,1.04,0.18,1.45,0.55c0.4,0.37,0.6,0.81,0.6,1.33c0,0.46-0.16,0.87-0.49,1.22
		c-0.32,0.35-0.72,0.56-1.21,0.63l1.39,2.84c0.04,0.07,0.04,0.15,0.01,0.22s-0.08,0.13-0.15,0.17c-0.04,0.02-0.08,0.03-0.13,0.03
		c-0.12,0-0.21-0.05-0.26-0.16l-1.51-3.06h-1.63v2.89c0,0.08-0.03,0.15-0.09,0.21c-0.06,0.06-0.12,0.08-0.21,0.08
		c-0.08,0-0.15-0.03-0.21-0.08c-0.06-0.06-0.08-0.13-0.08-0.21v-6.37c0-0.08,0.03-0.15,0.08-0.21c0.06-0.06,0.13-0.08,0.21-0.08
		H200.75z M202.22,113.86c0-0.36-0.14-0.67-0.43-0.92c-0.29-0.26-0.63-0.39-1.04-0.39h-1.92v2.61h1.95c0.4-0.01,0.73-0.14,1.01-0.39
		C202.08,114.52,202.22,114.22,202.22,113.86z"/>
	<path fill="#717171" d="M204.91,118.97c-0.08,0-0.15-0.03-0.21-0.09c-0.06-0.06-0.09-0.12-0.09-0.21v-6.43
		c0-0.08,0.03-0.15,0.09-0.21c0.06-0.06,0.13-0.09,0.21-0.09l3.88,0.01c0.08,0,0.15,0.03,0.21,0.09c0.06,0.06,0.09,0.13,0.09,0.21
		c0,0.08-0.03,0.15-0.09,0.21c-0.06,0.06-0.12,0.08-0.21,0.08l-3.58-0.01v2.63h2.68c0.08,0,0.15,0.03,0.21,0.09
		c0.06,0.06,0.09,0.12,0.09,0.21s-0.03,0.15-0.09,0.21c-0.06,0.06-0.12,0.09-0.21,0.09h-2.68v2.63h3.58c0.08,0,0.15,0.03,0.21,0.09
		c0.06,0.06,0.09,0.12,0.09,0.21s-0.03,0.15-0.09,0.21c-0.06,0.06-0.12,0.09-0.21,0.09H204.91z"/>
	<path fill="#717171" d="M213.49,118.97c-0.08,0-0.15-0.03-0.21-0.09c-0.06-0.06-0.09-0.12-0.09-0.21v-6.43
		c0-0.08,0.03-0.15,0.09-0.21c0.06-0.06,0.13-0.09,0.21-0.09l3.88,0.01c0.08,0,0.15,0.03,0.21,0.09c0.06,0.06,0.09,0.13,0.09,0.21
		c0,0.08-0.03,0.15-0.09,0.21c-0.06,0.06-0.12,0.08-0.21,0.08l-3.58-0.01v2.63h2.68c0.08,0,0.15,0.03,0.21,0.09
		c0.06,0.06,0.09,0.12,0.09,0.21s-0.03,0.15-0.09,0.21c-0.06,0.06-0.12,0.09-0.21,0.09h-2.68v2.63h3.58c0.08,0,0.15,0.03,0.21,0.09
		c0.06,0.06,0.09,0.12,0.09,0.21s-0.03,0.15-0.09,0.21c-0.06,0.06-0.12,0.09-0.21,0.09H213.49z"/>
	<path fill="#717171" d="M224.38,118.87L224.38,118.87L224.38,118.87l-4.48-5.77v5.58c0,0.08-0.03,0.15-0.09,0.21
		c-0.06,0.06-0.12,0.09-0.21,0.09s-0.15-0.03-0.21-0.09c-0.06-0.06-0.09-0.12-0.09-0.21v-6.43c0-0.14,0.07-0.23,0.2-0.28
		c0.13-0.05,0.24-0.01,0.33,0.1l4.47,5.76v-5.58c0-0.08,0.03-0.15,0.08-0.21c0.06-0.06,0.13-0.09,0.21-0.09
		c0.08,0,0.15,0.03,0.21,0.09c0.06,0.06,0.08,0.12,0.08,0.21v6.43c0-0.01,0,0,0,0.02c0,0.01,0,0.02,0,0.03c0,0.01,0,0.01,0,0.02
		c0,0.01-0.01,0.02-0.01,0.03s-0.01,0.01-0.01,0.02s-0.01,0.02-0.01,0.02c0,0.01-0.01,0.01-0.01,0.02s-0.01,0.02-0.02,0.02
		c0,0-0.01,0.01-0.02,0.02c-0.02,0.01-0.02,0.02-0.01,0.01c0.01,0,0,0-0.01,0.01c0,0-0.01,0.01-0.01,0.01
		c-0.01,0.01-0.02,0.01-0.03,0.01c-0.01,0-0.01,0.01-0.02,0.01c-0.01,0-0.02,0.01-0.03,0.01c-0.01,0-0.02,0-0.02,0
		c-0.02,0-0.04,0-0.05,0c-0.02,0-0.04,0-0.06,0l-0.02,0c-0.02-0.01-0.03-0.01-0.04-0.01c0,0-0.01-0.01-0.02-0.01
		c-0.01-0.01-0.02-0.01-0.03-0.02c0,0-0.01-0.01-0.02-0.01c-0.01-0.01-0.01-0.01-0.01-0.01S224.39,118.88,224.38,118.87z"/>
	<path fill="#717171" d="M227.64,117.94c-0.69-0.68-1.03-1.51-1.03-2.48s0.34-1.79,1.03-2.48c0.68-0.68,1.51-1.03,2.48-1.03
		c0.79,0,1.51,0.24,2.13,0.72c0.07,0.05,0.1,0.12,0.11,0.2c0.01,0.08-0.01,0.15-0.06,0.22c-0.05,0.06-0.11,0.1-0.2,0.11
		c-0.08,0.01-0.15-0.01-0.21-0.06c-0.52-0.4-1.12-0.61-1.78-0.61c-0.8,0-1.49,0.29-2.06,0.86c-0.57,0.57-0.85,1.26-0.85,2.06
		s0.29,1.49,0.85,2.06s1.26,0.85,2.06,0.85c0.75,0,1.41-0.25,1.96-0.76c0.06-0.06,0.13-0.08,0.21-0.08s0.15,0.04,0.21,0.1
		c0.05,0.06,0.08,0.13,0.07,0.21s-0.03,0.15-0.09,0.21c-0.67,0.61-1.46,0.91-2.36,0.91C229.15,118.97,228.32,118.63,227.64,117.94z
		 M232.13,118.88c-0.06-0.06-0.08-0.12-0.08-0.21v-3.1h-2.45c-0.08,0-0.15-0.03-0.21-0.08c-0.06-0.06-0.09-0.13-0.09-0.21
		s0.03-0.15,0.09-0.21c0.06-0.06,0.13-0.09,0.21-0.09h2.74c0.08,0,0.15,0.03,0.21,0.09c0.06,0.06,0.08,0.12,0.08,0.21v3.39
		c0,0.08-0.03,0.15-0.08,0.21c-0.06,0.06-0.13,0.09-0.21,0.09S232.19,118.94,232.13,118.88z"/>
	<path fill="#717171" d="M235.29,118.68c0,0.08-0.03,0.15-0.09,0.21c-0.06,0.06-0.12,0.09-0.21,0.09s-0.15-0.03-0.21-0.09
		c-0.06-0.06-0.09-0.12-0.09-0.21v-6.4c0-0.08,0.03-0.15,0.09-0.21c0.06-0.06,0.12-0.09,0.21-0.09s0.15,0.03,0.21,0.09
		c0.06,0.06,0.09,0.12,0.09,0.21V118.68z"/>
	<path fill="#717171" d="M242.6,118.87L242.6,118.87L242.6,118.87l-4.48-5.77v5.58c0,0.08-0.03,0.15-0.09,0.21
		c-0.06,0.06-0.12,0.09-0.21,0.09s-0.15-0.03-0.21-0.09c-0.06-0.06-0.09-0.12-0.09-0.21v-6.43c0-0.14,0.07-0.23,0.2-0.28
		c0.13-0.05,0.24-0.01,0.33,0.1l4.47,5.76v-5.58c0-0.08,0.03-0.15,0.08-0.21c0.06-0.06,0.13-0.09,0.21-0.09
		c0.08,0,0.15,0.03,0.21,0.09c0.06,0.06,0.08,0.12,0.08,0.21v6.43c0-0.01,0,0,0,0.02c0,0.01,0,0.02,0,0.03c0,0.01,0,0.01,0,0.02
		c0,0.01-0.01,0.02-0.01,0.03s-0.01,0.01-0.01,0.02s-0.01,0.02-0.01,0.02c0,0.01-0.01,0.01-0.01,0.02s-0.01,0.02-0.02,0.02
		c0,0-0.01,0.01-0.02,0.02c-0.02,0.01-0.02,0.02-0.01,0.01c0.01,0,0,0-0.01,0.01c0,0-0.01,0.01-0.01,0.01
		c-0.01,0.01-0.02,0.01-0.03,0.01c-0.01,0-0.01,0.01-0.02,0.01c-0.01,0-0.02,0.01-0.03,0.01c-0.01,0-0.02,0-0.02,0
		c-0.02,0-0.04,0-0.05,0c-0.02,0-0.04,0-0.06,0l-0.02,0c-0.02-0.01-0.03-0.01-0.04-0.01c0,0-0.01-0.01-0.02-0.01
		c-0.01-0.01-0.02-0.01-0.03-0.02c0,0-0.01-0.01-0.02-0.01c-0.01-0.01-0.01-0.01-0.01-0.01S242.61,118.88,242.6,118.87z"/>
	<path fill="#717171" d="M245.52,118.97c-0.08,0-0.15-0.03-0.21-0.09c-0.06-0.06-0.09-0.12-0.09-0.21v-6.43
		c0-0.08,0.03-0.15,0.09-0.21c0.06-0.06,0.13-0.09,0.21-0.09l3.88,0.01c0.08,0,0.15,0.03,0.21,0.09c0.06,0.06,0.09,0.13,0.09,0.21
		c0,0.08-0.03,0.15-0.09,0.21c-0.06,0.06-0.12,0.08-0.21,0.08l-3.58-0.01v2.63h2.68c0.08,0,0.15,0.03,0.21,0.09
		c0.06,0.06,0.09,0.12,0.09,0.21s-0.03,0.15-0.09,0.21c-0.06,0.06-0.12,0.09-0.21,0.09h-2.68v2.63h3.58c0.08,0,0.15,0.03,0.21,0.09
		c0.06,0.06,0.09,0.12,0.09,0.21s-0.03,0.15-0.09,0.21c-0.06,0.06-0.12,0.09-0.21,0.09H245.52z"/>
	<path fill="#717171" d="M251.68,118.97c-0.08,0-0.15-0.03-0.21-0.09c-0.06-0.06-0.09-0.12-0.09-0.21v-6.43
		c0-0.08,0.03-0.15,0.09-0.21c0.06-0.06,0.13-0.09,0.21-0.09l3.88,0.01c0.08,0,0.15,0.03,0.21,0.09c0.06,0.06,0.09,0.13,0.09,0.21
		c0,0.08-0.03,0.15-0.09,0.21c-0.06,0.06-0.12,0.08-0.21,0.08l-3.58-0.01v2.63h2.68c0.08,0,0.15,0.03,0.21,0.09
		c0.06,0.06,0.09,0.12,0.09,0.21s-0.03,0.15-0.09,0.21c-0.06,0.06-0.12,0.09-0.21,0.09h-2.68v2.63h3.58c0.08,0,0.15,0.03,0.21,0.09
		c0.06,0.06,0.09,0.12,0.09,0.21s-0.03,0.15-0.09,0.21c-0.06,0.06-0.12,0.09-0.21,0.09H251.68z"/>
	<path fill="#717171" d="M260.07,111.98c0.56,0,1.04,0.18,1.45,0.55c0.4,0.37,0.6,0.81,0.6,1.33c0,0.46-0.16,0.87-0.49,1.22
		c-0.32,0.35-0.72,0.56-1.21,0.63l1.39,2.84c0.04,0.07,0.04,0.15,0.01,0.22s-0.08,0.13-0.15,0.17c-0.04,0.02-0.08,0.03-0.13,0.03
		c-0.12,0-0.21-0.05-0.26-0.16l-1.51-3.06h-1.63v2.89c0,0.08-0.03,0.15-0.09,0.21c-0.06,0.06-0.12,0.08-0.21,0.08
		c-0.08,0-0.15-0.03-0.21-0.08c-0.06-0.06-0.08-0.13-0.08-0.21v-6.37c0-0.08,0.03-0.15,0.08-0.21c0.06-0.06,0.13-0.08,0.21-0.08
		H260.07z M261.54,113.86c0-0.36-0.14-0.67-0.43-0.92c-0.29-0.26-0.63-0.39-1.04-0.39h-1.92v2.61h1.95c0.4-0.01,0.73-0.14,1.01-0.39
		C261.4,114.52,261.54,114.22,261.54,113.86z"/>
	<path fill="#717171" d="M264.55,118.68c0,0.08-0.03,0.15-0.09,0.21c-0.06,0.06-0.12,0.09-0.21,0.09s-0.15-0.03-0.21-0.09
		c-0.06-0.06-0.09-0.12-0.09-0.21v-6.4c0-0.08,0.03-0.15,0.09-0.21c0.06-0.06,0.12-0.09,0.21-0.09s0.15,0.03,0.21,0.09
		c0.06,0.06,0.09,0.12,0.09,0.21V118.68z"/>
	<path fill="#717171" d="M271.86,118.87L271.86,118.87L271.86,118.87l-4.48-5.77v5.58c0,0.08-0.03,0.15-0.09,0.21
		c-0.06,0.06-0.12,0.09-0.21,0.09s-0.15-0.03-0.21-0.09c-0.06-0.06-0.09-0.12-0.09-0.21v-6.43c0-0.14,0.07-0.23,0.2-0.28
		c0.13-0.05,0.24-0.01,0.33,0.1l4.47,5.76v-5.58c0-0.08,0.03-0.15,0.08-0.21c0.06-0.06,0.13-0.09,0.21-0.09
		c0.08,0,0.15,0.03,0.21,0.09c0.06,0.06,0.08,0.12,0.08,0.21v6.43c0-0.01,0,0,0,0.02c0,0.01,0,0.02,0,0.03c0,0.01,0,0.01,0,0.02
		c0,0.01-0.01,0.02-0.01,0.03s-0.01,0.01-0.01,0.02s-0.01,0.02-0.01,0.02c0,0.01-0.01,0.01-0.01,0.02s-0.01,0.02-0.02,0.02
		c0,0-0.01,0.01-0.02,0.02c-0.02,0.01-0.02,0.02-0.01,0.01c0.01,0,0,0-0.01,0.01c0,0-0.01,0.01-0.01,0.01
		c-0.01,0.01-0.02,0.01-0.03,0.01c-0.01,0-0.01,0.01-0.02,0.01c-0.01,0-0.02,0.01-0.03,0.01c-0.01,0-0.02,0-0.02,0
		c-0.02,0-0.04,0-0.05,0c-0.02,0-0.04,0-0.06,0l-0.02,0c-0.02-0.01-0.03-0.01-0.04-0.01c0,0-0.01-0.01-0.02-0.01
		c-0.01-0.01-0.02-0.01-0.03-0.02c0,0-0.01-0.01-0.02-0.01c-0.01-0.01-0.01-0.01-0.01-0.01S271.87,118.88,271.86,118.87z"/>
	<path fill="#717171" d="M275.13,117.94c-0.69-0.68-1.03-1.51-1.03-2.48s0.34-1.79,1.03-2.48c0.68-0.68,1.51-1.03,2.48-1.03
		c0.79,0,1.51,0.24,2.13,0.72c0.07,0.05,0.1,0.12,0.11,0.2c0.01,0.08-0.01,0.15-0.06,0.22c-0.05,0.06-0.11,0.1-0.2,0.11
		c-0.08,0.01-0.15-0.01-0.21-0.06c-0.52-0.4-1.12-0.61-1.78-0.61c-0.8,0-1.49,0.29-2.06,0.86c-0.57,0.57-0.85,1.26-0.85,2.06
		s0.29,1.49,0.85,2.06s1.26,0.85,2.06,0.85c0.75,0,1.41-0.25,1.96-0.76c0.06-0.06,0.13-0.08,0.21-0.08s0.15,0.04,0.21,0.1
		c0.05,0.06,0.08,0.13,0.07,0.21s-0.03,0.15-0.09,0.21c-0.67,0.61-1.46,0.91-2.36,0.91C276.64,118.97,275.81,118.63,275.13,117.94z
		 M279.62,118.88c-0.06-0.06-0.08-0.12-0.08-0.21v-3.1h-2.45c-0.08,0-0.15-0.03-0.21-0.08c-0.06-0.06-0.09-0.13-0.09-0.21
		s0.03-0.15,0.09-0.21c0.06-0.06,0.13-0.09,0.21-0.09h2.74c0.08,0,0.15,0.03,0.21,0.09c0.06,0.06,0.08,0.12,0.08,0.21v3.39
		c0,0.08-0.03,0.15-0.08,0.21c-0.06,0.06-0.13,0.09-0.21,0.09S279.67,118.94,279.62,118.88z"/>
</g>
<g>
	<path d="M110.98,44.45h47.97c1.66,0,3-1.34,3-3c0-1.66-1.34-3-3-3h-47.97c-3.96,0-7.53-1.6-10.13-4.2c-2.6-2.6-4.19-6.16-4.2-10.13
		c0-3.96,1.6-7.53,4.2-10.13c2.6-2.6,6.16-4.19,10.13-4.2h47.97c1.66,0,3-1.34,3-3c0-1.66-1.34-3-3-3h-47.97
		c-5.6,0-10.7,2.28-14.37,5.95c-2.85,2.85-4.85,6.56-5.6,10.7H79.99c-0.01,0-0.02,0-0.03,0c-0.99-3.09-3.88-5.33-7.3-5.33
		c-4.23,0-7.66,3.43-7.66,7.66c0,4.23,3.43,7.66,7.66,7.66c2.93,0,5.47-1.64,6.76-4.05c0.19,0.04,0.38,0.06,0.57,0.06h10.8
		c0.54,4.68,2.65,8.89,5.81,12.04C100.27,42.17,105.37,44.45,110.98,44.45z"/>
	<path d="M198.59,33.45c-3.31,0-6.12,2.1-7.19,5.04c-0.15-0.02-0.31-0.05-0.47-0.05h-11.8c-0.54-4.67-2.65-8.89-5.81-12.04
		c-3.67-3.67-8.77-5.95-14.37-5.95h-47.97c-1.66,0-3,1.34-3,3c0,1.66,1.34,3,3,3h47.97c3.96,0,7.53,1.6,10.13,4.2
		c2.6,2.6,4.19,6.16,4.2,10.13c0,3.96-1.6,7.53-4.2,10.13c-2.6,2.6-6.16,4.19-10.13,4.2h-47.97c-1.66,0-3,1.34-3,3
		c0,1.66,1.34,3,3,3h47.97c5.6,0,10.7-2.28,14.37-5.95c2.85-2.85,4.85-6.56,5.6-10.7h12.01c0.25,0,0.49-0.04,0.72-0.1
		c1.22,2.61,3.86,4.43,6.94,4.43c4.23,0,7.66-3.43,7.66-7.66S202.82,33.45,198.59,33.45z"/>
</g>
<g>
</g>
<g>
</g>
<g>
</g>
<g>
</g>
<g>
</g>
<g>
</g>
</svg>
